o 
v -0.0016046104816985762 -0.1550689935684204 -0.03298899903893471
v 0.019353388449709352 -0.11987899988889694 0
v 0.01188038905576938 -0.15286299586296082 0
v 0.01188038905576938 -0.15286299586296082 0
v 0.019353388449709352 -0.11987899988889694 0
v -0.0016046104816985762 -0.1550689935684204 0.03298899903893471
v 0.019353388449709352 -0.11987899988889694 0
v -0.0016046104816985762 -0.1550689935684204 -0.03298899903893471
v 0.002142390808622774 -0.12269499897956848 -0.04210299998521805
v 0.019353388449709352 -0.11987899988889694 0
v 0.002142390808622774 -0.12269499897956848 0.04210299998521805
v -0.0016046104816985762 -0.1550689935684204 0.03298899903893471
v 0.002142390808622774 -0.12269499897956848 -0.04210299998521805
v -0.0016046104816985762 -0.1550689935684204 -0.03298899903893471
v -0.0394096096376223 -0.1294959932565689 -0.05954200029373169
v -0.0394096096376223 -0.1294959932565689 0.05954200029373169
v -0.0016046104816985762 -0.1550689935684204 0.03298899903893471
v 0.002142390808622774 -0.12269499897956848 0.04210299998521805
v -0.0394096096376223 -0.1294959932565689 -0.05954200029373169
v -0.0016046104816985762 -0.1550689935684204 -0.03298899903893471
v -0.03416160949080116 -0.1603969931602478 -0.04665299877524376
v -0.0016046104816985762 -0.1550689935684204 0.03298899903893471
v -0.0394096096376223 -0.1294959932565689 0.05954200029373169
v -0.03416160949080116 -0.1603969931602478 0.04665299877524376
v -0.06671860943122632 -0.1657249927520752 -0.03298899903893471
v -0.0394096096376223 -0.1294959932565689 -0.05954200029373169
v -0.03416160949080116 -0.1603969931602478 -0.04665299877524376
v -0.06671860943122632 -0.1657249927520752 0.03298899903893471
v -0.03416160949080116 -0.1603969931602478 0.04665299877524376
v -0.0394096096376223 -0.1294959932565689 0.05954200029373169
v -0.0394096096376223 -0.1294959932565689 -0.05954200029373169
v -0.06671860943122632 -0.1657249927520752 -0.03298899903893471
v -0.08096061030908352 -0.13629400730133057 -0.04210299998521805
v -0.0394096096376223 -0.1294959932565689 0.05954200029373169
v -0.08096061030908352 -0.13629400730133057 0.04210299998521805
v -0.06671860943122632 -0.1657249927520752 0.03298899903893471
v -0.06671860943122632 -0.1657249927520752 -0.03298899903893471
v -0.09817261005326039 -0.1391109973192215 0
v -0.08096061030908352 -0.13629400730133057 -0.04210299998521805
v -0.09817261005326039 -0.1391109973192215 0
v -0.06671860943122632 -0.1657249927520752 0.03298899903893471
v -0.08096061030908352 -0.13629400730133057 0.04210299998521805
v -0.09817261005326039 -0.1391109973192215 0
v -0.06671860943122632 -0.1657249927520752 -0.03298899903893471
v -0.08020461107178456 -0.167930006980896 0
v -0.06671860943122632 -0.1657249927520752 0.03298899903893471
v -0.09817261005326039 -0.1391109973192215 0
v -0.08020461107178456 -0.167930006980896 0
v -0.0016046104816985762 0.1550689935684204 -0.03298899903893471
v 0.019353388449709352 0.11987899988889694 0
v 0.002142390808622774 0.12269599735736847 -0.04210299998521805
v -0.0394096096376223 0.1294959932565689 -0.05954200029373169
v -0.0016046104816985762 0.1550689935684204 -0.03298899903893471
v 0.002142390808622774 0.12269599735736847 -0.04210299998521805
v 0.019353388449709352 0.11987899988889694 0
v -0.0016046104816985762 0.1550689935684204 -0.03298899903893471
v 0.01188038905576938 0.15286299586296082 0
v -0.0016046104816985762 0.1550689935684204 -0.03298899903893471
v -0.0394096096376223 0.1294959932565689 -0.05954200029373169
v -0.03416160949080116 0.1603969931602478 -0.04665299877524376
v -0.0016046104816985762 0.1550689935684204 0.03298899903893471
v 0.019353388449709352 0.11987899988889694 0
v 0.01188038905576938 0.15286299586296082 0
v -0.0394096096376223 0.1294959932565689 -0.05954200029373169
v -0.06671860943122632 0.1657249927520752 -0.03298899903893471
v -0.03416160949080116 0.1603969931602478 -0.04665299877524376
v 0.019353388449709352 0.11987899988889694 0
v -0.0016046104816985762 0.1550689935684204 0.03298899903893471
v 0.002142390808622774 0.12269599735736847 0.04210299998521805
v -0.06671860943122632 0.1657249927520752 -0.03298899903893471
v -0.0394096096376223 0.1294959932565689 -0.05954200029373169
v -0.08096061030908352 0.13629400730133057 -0.04210299998521805
v -0.0016046104816985762 0.1550689935684204 0.03298899903893471
v -0.0394096096376223 0.1294959932565689 0.05954200029373169
v 0.002142390808622774 0.12269599735736847 0.04210299998521805
v -0.06671860943122632 0.1657249927520752 -0.03298899903893471
v -0.08096061030908352 0.13629400730133057 -0.04210299998521805
v -0.09817261005326039 0.1391109973192215 0
v -0.0394096096376223 0.1294959932565689 0.05954200029373169
v -0.0016046104816985762 0.1550689935684204 0.03298899903893471
v -0.03416160949080116 0.1603969931602478 0.04665299877524376
v -0.06671860943122632 0.1657249927520752 -0.03298899903893471
v -0.09817261005326039 0.1391109973192215 0
v -0.08020461107178456 0.167930006980896 0
v -0.0394096096376223 0.1294959932565689 0.05954200029373169
v -0.03416160949080116 0.1603969931602478 0.04665299877524376
v -0.06671860943122632 0.1657249927520752 0.03298899903893471
v -0.09817261005326039 0.1391109973192215 0
v -0.06671860943122632 0.1657249927520752 0.03298899903893471
v -0.08020461107178456 0.167930006980896 0
v -0.08096061030908352 0.13629400730133057 0.04210299998521805
v -0.0394096096376223 0.1294959932565689 0.05954200029373169
v -0.06671860943122632 0.1657249927520752 0.03298899903893471
v -0.06671860943122632 0.1657249927520752 0.03298899903893471
v -0.09817261005326039 0.1391109973192215 0
v -0.08096061030908352 0.13629400730133057 0.04210299998521805
v -0.04465760978444344 -0.09859400242567062 0.04665299877524376
v -0.021418610015351836 0 0.03298899903893471
v -0.05440660974516398 0 0.04665299877524376
v -0.021418610015351836 0 0.03298899903893471
v -0.04465760978444344 -0.09859400242567062 0.04665299877524376
v -0.012099610069234434 -0.09326600283384323 0.03298899903893471
v -0.05440660974516398 0 0.04665299877524376
v -0.07721461112185246 -0.10392200201749802 0.03298899903893471
v -0.04465760978444344 -0.09859400242567062 0.04665299877524376
v 0.0013853894682335222 -0.09105899930000305 0
v -0.021418610015351836 0 0.03298899903893471
v -0.012099610069234434 -0.09326600283384323 0.03298899903893471
v -0.07721461112185246 -0.10392200201749802 0.03298899903893471
v -0.05440660974516398 0 0.04665299877524376
v -0.08739560971542126 0 0.03298899903893471
v -0.05440660974516398 0 0.04665299877524376
v -0.07721461112185246 0.10392100363969803 0.03298899903893471
v -0.08739560971542126 0 0.03298899903893471
v -0.1010606078295303 0 0
v -0.07721461112185246 -0.10392200201749802 0.03298899903893471
v -0.08739560971542126 0 0.03298899903893471
v -0.07721461112185246 0.10392100363969803 0.03298899903893471
v -0.1010606078295303 0 0
v -0.08739560971542126 0 0.03298899903893471
v -0.07721461112185246 0.10392100363969803 0.03298899903893471
v -0.05440660974516398 0 0.04665299877524376
v -0.04465760978444344 0.09859299659729004 0.04665299877524376
v -0.021418610015351836 0 0.03298899903893471
v -0.04465760978444344 0.09859299659729004 0.04665299877524376
v -0.05440660974516398 0 0.04665299877524376
v -0.04465760978444344 0.09859299659729004 0.04665299877524376
v -0.021418610015351836 0 0.03298899903893471
v -0.012099610069234434 0.09326499700546265 0.03298899903893471
v -0.012099610069234434 0.09326499700546265 0.03298899903893471
v -0.021418610015351836 0 0.03298899903893471
v 0.0013853894682335222 0.09105899930000305 0
v -0.1010606078295303 0 0
v -0.09069961065932042 -0.10612799972295761 0
v -0.07721461112185246 -0.10392200201749802 0.03298899903893471
v -0.1010606078295303 0 0
v -0.07721461112185246 0.10392100363969803 0.03298899903893471
v -0.09069961065932042 0.10612799972295761 0
v -0.1010606078295303 0 0
v -0.07721461112185246 -0.10392200201749802 -0.03298899903893471
v -0.09069961065932042 -0.10612799972295761 0
v -0.07721461112185246 0.10392100363969803 -0.03298899903893471
v -0.1010606078295303 0 0
v -0.09069961065932042 0.10612799972295761 0
v -0.07721461112185246 -0.10392200201749802 -0.03298899903893471
v -0.1010606078295303 0 0
v -0.08739560971542126 0 -0.03298899903893471
v -0.1010606078295303 0 0
v -0.07721461112185246 0.10392100363969803 -0.03298899903893471
v -0.08739560971542126 0 -0.03298899903893471
v -0.05440660974516398 0 -0.04665299877524376
v -0.07721461112185246 -0.10392200201749802 -0.03298899903893471
v -0.08739560971542126 0 -0.03298899903893471
v -0.07721461112185246 0.10392100363969803 -0.03298899903893471
v -0.05440660974516398 0 -0.04665299877524376
v -0.08739560971542126 0 -0.03298899903893471
v -0.07721461112185246 -0.10392200201749802 -0.03298899903893471
v -0.05440660974516398 0 -0.04665299877524376
v -0.04465760978444344 -0.09859400242567062 -0.04665299877524376
v -0.05440660974516398 0 -0.04665299877524376
v -0.07721461112185246 0.10392100363969803 -0.03298899903893471
v -0.04465760978444344 0.09859299659729004 -0.04665299877524376
v -0.021418610015351836 0 -0.03298899903893471
v -0.04465760978444344 -0.09859400242567062 -0.04665299877524376
v -0.05440660974516398 0 -0.04665299877524376
v -0.04465760978444344 0.09859299659729004 -0.04665299877524376
v -0.021418610015351836 0 -0.03298899903893471
v -0.05440660974516398 0 -0.04665299877524376
v -0.04465760978444344 -0.09859400242567062 -0.04665299877524376
v -0.021418610015351836 0 -0.03298899903893471
v -0.012099610069234434 -0.09326600283384323 -0.03298899903893471
v -0.021418610015351836 0 -0.03298899903893471
v -0.04465760978444344 0.09859299659729004 -0.04665299877524376
v -0.012099610069234434 0.09326499700546265 -0.03298899903893471
v 0.0013853894682335222 0.09105899930000305 0
v -0.021418610015351836 0 -0.03298899903893471
v -0.012099610069234434 0.09326499700546265 -0.03298899903893471
v -0.021418610015351836 0 -0.03298899903893471
v 0.0013853894682335222 -0.09105899930000305 0
v -0.012099610069234434 -0.09326600283384323 -0.03298899903893471
v -0.021418610015351836 0 -0.03298899903893471
v 0.0013853894682335222 0.09105899930000305 0
v -0.007753608175952498 0 0
v 0.0013853894682335222 -0.09105899930000305 0
v -0.021418610015351836 0 -0.03298899903893471
v -0.007753608175952498 0 0
v -0.007753608175952498 0 0
v 0.0013853894682335222 0.09105899930000305 0
v -0.021418610015351836 0 0.03298899903893471
v 0.0013853894682335222 -0.09105899930000305 0
v -0.007753608175952498 0 0
v -0.021418610015351836 0 0.03298899903893471
v 0.019353388449709352 -0.11987899988889694 0
v -0.012099610069234434 -0.09326600283384323 0.03298899903893471
v 0.002142390808622774 -0.12269499897956848 0.04210299998521805
v -0.0394096096376223 -0.1294959932565689 0.05954200029373169
v 0.002142390808622774 -0.12269499897956848 0.04210299998521805
v -0.012099610069234434 -0.09326600283384323 0.03298899903893471
v -0.012099610069234434 -0.09326600283384323 0.03298899903893471
v 0.019353388449709352 -0.11987899988889694 0
v 0.0013853894682335222 -0.09105899930000305 0
v -0.0394096096376223 -0.1294959932565689 0.05954200029373169
v -0.012099610069234434 -0.09326600283384323 0.03298899903893471
v -0.04465760978444344 -0.09859400242567062 0.04665299877524376
v -0.012099610069234434 -0.09326600283384323 -0.03298899903893471
v 0.0013853894682335222 -0.09105899930000305 0
v 0.019353388449709352 -0.11987899988889694 0
v -0.07721461112185246 -0.10392200201749802 0.03298899903893471
v -0.0394096096376223 -0.1294959932565689 0.05954200029373169
v -0.04465760978444344 -0.09859400242567062 0.04665299877524376
v 0.002142390808622774 -0.12269499897956848 -0.04210299998521805
v -0.012099610069234434 -0.09326600283384323 -0.03298899903893471
v 0.019353388449709352 -0.11987899988889694 0
v -0.0394096096376223 -0.1294959932565689 0.05954200029373169
v -0.07721461112185246 -0.10392200201749802 0.03298899903893471
v -0.08096061030908352 -0.13629400730133057 0.04210299998521805
v -0.0394096096376223 -0.1294959932565689 -0.05954200029373169
v -0.012099610069234434 -0.09326600283384323 -0.03298899903893471
v 0.002142390808622774 -0.12269499897956848 -0.04210299998521805
v -0.07721461112185246 -0.10392200201749802 0.03298899903893471
v -0.09817261005326039 -0.1391109973192215 0
v -0.08096061030908352 -0.13629400730133057 0.04210299998521805
v -0.012099610069234434 -0.09326600283384323 -0.03298899903893471
v -0.0394096096376223 -0.1294959932565689 -0.05954200029373169
v -0.04465760978444344 -0.09859400242567062 -0.04665299877524376
v -0.09817261005326039 -0.1391109973192215 0
v -0.07721461112185246 -0.10392200201749802 0.03298899903893471
v -0.09069961065932042 -0.10612799972295761 0
v -0.04465760978444344 -0.09859400242567062 -0.04665299877524376
v -0.0394096096376223 -0.1294959932565689 -0.05954200029373169
v -0.07721461112185246 -0.10392200201749802 -0.03298899903893471
v -0.07721461112185246 -0.10392200201749802 -0.03298899903893471
v -0.09817261005326039 -0.1391109973192215 0
v -0.09069961065932042 -0.10612799972295761 0
v -0.07721461112185246 -0.10392200201749802 -0.03298899903893471
v -0.0394096096376223 -0.1294959932565689 -0.05954200029373169
v -0.08096061030908352 -0.13629400730133057 -0.04210299998521805
v -0.09817261005326039 -0.1391109973192215 0
v -0.07721461112185246 -0.10392200201749802 -0.03298899903893471
v -0.08096061030908352 -0.13629400730133057 -0.04210299998521805
v 0.019353388449709352 0.11987899988889694 0
v -0.012099610069234434 0.09326499700546265 0.03298899903893471
v 0.0013853894682335222 0.09105899930000305 0
v -0.012099610069234434 0.09326499700546265 -0.03298899903893471
v 0.019353388449709352 0.11987899988889694 0
v 0.0013853894682335222 0.09105899930000305 0
v -0.012099610069234434 0.09326499700546265 0.03298899903893471
v 0.019353388449709352 0.11987899988889694 0
v 0.002142390808622774 0.12269599735736847 0.04210299998521805
v 0.002142390808622774 0.12269599735736847 -0.04210299998521805
v 0.019353388449709352 0.11987899988889694 0
v -0.012099610069234434 0.09326499700546265 -0.03298899903893471
v -0.012099610069234434 0.09326499700546265 0.03298899903893471
v 0.002142390808622774 0.12269599735736847 0.04210299998521805
v -0.0394096096376223 0.1294959932565689 0.05954200029373169
v -0.012099610069234434 0.09326499700546265 -0.03298899903893471
v -0.0394096096376223 0.1294959932565689 -0.05954200029373169
v 0.002142390808622774 0.12269599735736847 -0.04210299998521805
v -0.04465760978444344 0.09859299659729004 0.04665299877524376
v -0.012099610069234434 0.09326499700546265 0.03298899903893471
v -0.0394096096376223 0.1294959932565689 0.05954200029373169
v -0.0394096096376223 0.1294959932565689 -0.05954200029373169
v -0.012099610069234434 0.09326499700546265 -0.03298899903893471
v -0.04465760978444344 0.09859299659729004 -0.04665299877524376
v -0.0394096096376223 0.1294959932565689 0.05954200029373169
v -0.07721461112185246 0.10392100363969803 0.03298899903893471
v -0.04465760978444344 0.09859299659729004 0.04665299877524376
v -0.07721461112185246 0.10392100363969803 -0.03298899903893471
v -0.0394096096376223 0.1294959932565689 -0.05954200029373169
v -0.04465760978444344 0.09859299659729004 -0.04665299877524376
v -0.07721461112185246 0.10392100363969803 0.03298899903893471
v -0.0394096096376223 0.1294959932565689 0.05954200029373169
v -0.08096061030908352 0.13629400730133057 0.04210299998521805
v -0.0394096096376223 0.1294959932565689 -0.05954200029373169
v -0.07721461112185246 0.10392100363969803 -0.03298899903893471
v -0.08096061030908352 0.13629400730133057 -0.04210299998521805
v -0.09817261005326039 0.1391109973192215 0
v -0.07721461112185246 0.10392100363969803 0.03298899903893471
v -0.08096061030908352 0.13629400730133057 0.04210299998521805
v -0.07721461112185246 0.10392100363969803 -0.03298899903893471
v -0.09817261005326039 0.1391109973192215 0
v -0.08096061030908352 0.13629400730133057 -0.04210299998521805
v -0.09817261005326039 0.1391109973192215 0
v -0.09069961065932042 0.10612799972295761 0
v -0.07721461112185246 0.10392100363969803 0.03298899903893471
v -0.09817261005326039 0.1391109973192215 0
v -0.07721461112185246 0.10392100363969803 -0.03298899903893471
v -0.09069961065932042 0.10612799972295761 0
vt 0 0
vt 0 0
vt 0 0
vt 0 0
vt 0 0
vt 0 0
vt 0 0
vt 0 0
vt 0 0
vt 0 0
vt 0 0
vt 0 0
vt 0 0
vt 0 0
vt 0 0
vt 0 0
vt 0 0
vt 0 0
vt 0 0
vt 0 0
vt 0 0
vt 0 0
vt 0 0
vt 0 0
vt 0 0
vt 0 0
vt 0 0
vt 0 0
vt 0 0
vt 0 0
vt 0 0
vt 0 0
vt 0 0
vt 0 0
vt 0 0
vt 0 0
vt 0 0
vt 0 0
vt 0 0
vt 0 0
vt 0 0
vt 0 0
vt 0 0
vt 0 0
vt 0 0
vt 0 0
vt 0 0
vt 0 0
vt 0 0
vt 0 0
vt 0 0
vt 0 0
vt 0 0
vt 0 0
vt 0 0
vt 0 0
vt 0 0
vt 0 0
vt 0 0
vt 0 0
vt 0 0
vt 0 0
vt 0 0
vt 0 0
vt 0 0
vt 0 0
vt 0 0
vt 0 0
vt 0 0
vt 0 0
vt 0 0
vt 0 0
vt 0 0
vt 0 0
vt 0 0
vt 0 0
vt 0 0
vt 0 0
vt 0 0
vt 0 0
vt 0 0
vt 0 0
vt 0 0
vt 0 0
vt 0 0
vt 0 0
vt 0 0
vt 0 0
vt 0 0
vt 0 0
vt 0 0
vt 0 0
vt 0 0
vt 0 0
vt 0 0
vt 0 0
vt 0 0
vt 0 0
vt 0 0
vt 0 0
vt 0 0
vt 0 0
vt 0 0
vt 0 0
vt 0 0
vt 0 0
vt 0 0
vt 0 0
vt 0 0
vt 0 0
vt 0 0
vt 0 0
vt 0 0
vt 0 0
vt 0 0
vt 0 0
vt 0 0
vt 0 0
vt 0 0
vt 0 0
vt 0 0
vt 0 0
vt 0 0
vt 0 0
vt 0 0
vt 0 0
vt 0 0
vt 0 0
vt 0 0
vt 0 0
vt 0 0
vt 0 0
vt 0 0
vt 0 0
vt 0 0
vt 0 0
vt 0 0
vt 0 0
vt 0 0
vt 0 0
vt 0 0
vt 0 0
vt 0 0
vt 0 0
vt 0 0
vt 0 0
vt 0 0
vt 0 0
vt 0 0
vt 0 0
vt 0 0
vt 0 0
vt 0 0
vt 0 0
vt 0 0
vt 0 0
vt 0 0
vt 0 0
vt 0 0
vt 0 0
vt 0 0
vt 0 0
vt 0 0
vt 0 0
vt 0 0
vt 0 0
vt 0 0
vt 0 0
vt 0 0
vt 0 0
vt 0 0
vt 0 0
vt 0 0
vt 0 0
vt 0 0
vt 0 0
vt 0 0
vt 0 0
vt 0 0
vt 0 0
vt 0 0
vt 0 0
vt 0 0
vt 0 0
vt 0 0
vt 0 0
vt 0 0
vt 0 0
vt 0 0
vt 0 0
vt 0 0
vt 0 0
vt 0 0
vt 0 0
vt 0 0
vt 0 0
vt 0 0
vt 0 0
vt 0 0
vt 0 0
vt 0 0
vt 0 0
vt 0 0
vt 0 0
vt 0 0
vt 0 0
vt 0 0
vt 0 0
vt 0 0
vt 0 0
vt 0 0
vt 0 0
vt 0 0
vt 0 0
vt 0 0
vt 0 0
vt 0 0
vt 0 0
vt 0 0
vt 0 0
vt 0 0
vt 0 0
vt 0 0
vt 0 0
vt 0 0
vt 0 0
vt 0 0
vt 0 0
vt 0 0
vt 0 0
vt 0 0
vt 0 0
vt 0 0
vt 0 0
vt 0 0
vt 0 0
vt 0 0
vt 0 0
vt 0 0
vt 0 0
vt 0 0
vt 0 0
vt 0 0
vt 0 0
vt 0 0
vt 0 0
vt 0 0
vt 0 0
vt 0 0
vt 0 0
vt 0 0
vt 0 0
vt 0 0
vt 0 0
vt 0 0
vt 0 0
vt 0 0
vt 0 0
vt 0 0
vt 0 0
vt 0 0
vt 0 0
vt 0 0
vt 0 0
vt 0 0
vt 0 0
vt 0 0
vt 0 0
vt 0 0
vt 0 0
vt 0 0
vt 0 0
vt 0 0
vt 0 0
vt 0 0
vt 0 0
vt 0 0
vt 0 0
vt 0 0
vt 0 0
vt 0 0
vt 0 0
vt 0 0
vt 0 0
vt 0 0
vt 0 0
vt 0 0
vt 0 0
vn 0.756245964278681 -0.25691598434761065 -0.6017360039908749
vn 0.9752751590957354 -0.2209940362335334 0
vn 0.9752751590957354 -0.2209940362335334 0
vn 0.9752751590957354 -0.2209940362335334 0
vn 0.9752751590957354 -0.2209940362335334 0
vn 0.756245964278681 -0.25691598434761065 0.6017360039908749
vn 0.9752751590957354 -0.2209940362335334 0
vn 0.756245964278681 -0.25691598434761065 -0.6017360039908749
vn 0.6738127779742098 -0.2715049146191654 -0.6872127920639413
vn 0.9752751590957354 -0.2209940362335334 0
vn 0.6738127779742098 -0.2715049146191654 0.6872127920639413
vn 0.756245964278681 -0.25691598434761065 0.6017360039908749
vn 0.6738127779742098 -0.2715049146191654 -0.6872127920639413
vn 0.756245964278681 -0.25691598434761065 -0.6017360039908749
vn 0.012100002470988087 -0.38319509313797334 -0.9235881715002536
vn 0.012100002470988087 -0.38319509313797334 0.9235881715002536
vn 0.756245964278681 -0.25691598434761065 0.6017360039908749
vn 0.6738127779742098 -0.2715049146191654 0.6872127920639413
vn 0.012100002470988087 -0.38319509313797334 -0.9235881715002536
vn 0.756245964278681 -0.25691598434761065 -0.6017360039908749
vn 0.1493080197775257 -0.3589190517403145 -0.92134913552244
vn 0.756245964278681 -0.25691598434761065 0.6017360039908749
vn 0.012100002470988087 -0.38319509313797334 0.9235881715002536
vn 0.1493080197775257 -0.3589190517403145 0.92134913552244
vn -0.5425008454176501 -0.47669989602945817 -0.6917008326195934
vn 0.012100002470988087 -0.38319509313797334 -0.9235881715002536
vn 0.1493080197775257 -0.3589190517403145 -0.92134913552244
vn -0.5425008454176501 -0.47669989602945817 0.6917008326195934
vn 0.1493080197775257 -0.3589190517403145 0.92134913552244
vn 0.012100002470988087 -0.38319509313797334 0.9235881715002536
vn 0.012100002470988087 -0.38319509313797334 -0.9235881715002536
vn -0.5425008454176501 -0.47669989602945817 -0.6917008326195934
vn -0.6013308559146696 -0.4871248961749641 -0.6333328802860793
vn 0.012100002470988087 -0.38319509313797334 0.9235881715002536
vn -0.6013308559146696 -0.4871248961749641 0.6333328802860793
vn -0.5425008454176501 -0.47669989602945817 0.6917008326195934
vn -0.5425008454176501 -0.47669989602945817 -0.6917008326195934
vn -0.8486157069544057 -0.5290098126786256 0
vn -0.6013308559146696 -0.4871248961749641 -0.6333328802860793
vn -0.8486157069544057 -0.5290098126786256 0
vn -0.5425008454176501 -0.47669989602945817 0.6917008326195934
vn -0.6013308559146696 -0.4871248961749641 0.6333328802860793
vn -0.8486157069544057 -0.5290098126786256 0
vn -0.5425008454176501 -0.47669989602945817 -0.6917008326195934
vn -0.8486157069544057 -0.5290098126786256 0
vn -0.5425008454176501 -0.47669989602945817 0.6917008326195934
vn -0.8486157069544057 -0.5290098126786256 0
vn -0.8486157069544057 -0.5290098126786256 0
vn 0.756245964278681 0.25691598434761065 -0.6017360039908749
vn 0.9752751590957354 0.2209940362335334 0
vn 0.6738127779742098 0.2715049146191654 -0.6872127920639413
vn 0.012100002470988087 0.38319509313797334 -0.9235881715002536
vn 0.756245964278681 0.25691598434761065 -0.6017360039908749
vn 0.6738127779742098 0.2715049146191654 -0.6872127920639413
vn 0.9752751590957354 0.2209940362335334 0
vn 0.756245964278681 0.25691598434761065 -0.6017360039908749
vn 0.9752751590957354 0.2209940362335334 0
vn 0.756245964278681 0.25691598434761065 -0.6017360039908749
vn 0.012100002470988087 0.38319509313797334 -0.9235881715002536
vn 0.1493080197775257 0.3589190517403145 -0.92134913552244
vn 0.756245964278681 0.25691598434761065 0.6017360039908749
vn 0.9752751590957354 0.2209940362335334 0
vn 0.9752751590957354 0.2209940362335334 0
vn 0.012100002470988087 0.38319509313797334 -0.9235881715002536
vn -0.5425008454176501 0.47669989602945817 -0.6917008326195934
vn 0.1493080197775257 0.3589190517403145 -0.92134913552244
vn 0.9752751590957354 0.2209940362335334 0
vn 0.756245964278681 0.25691598434761065 0.6017360039908749
vn 0.6738127779742098 0.2715049146191654 0.6872127920639413
vn -0.5425008454176501 0.47669989602945817 -0.6917008326195934
vn 0.012100002470988087 0.38319509313797334 -0.9235881715002536
vn -0.6013308559146696 0.4871248961749641 -0.6333328802860793
vn 0.756245964278681 0.25691598434761065 0.6017360039908749
vn 0.012100002470988087 0.38319509313797334 0.9235881715002536
vn 0.6738127779742098 0.2715049146191654 0.6872127920639413
vn -0.5425008454176501 0.47669989602945817 -0.6917008326195934
vn -0.6013308559146696 0.4871248961749641 -0.6333328802860793
vn -0.8486157069544057 0.5290098126786256 0
vn 0.012100002470988087 0.38319509313797334 0.9235881715002536
vn 0.756245964278681 0.25691598434761065 0.6017360039908749
vn 0.1493080197775257 0.3589190517403145 0.92134913552244
vn -0.5425008454176501 0.47669989602945817 -0.6917008326195934
vn -0.8486157069544057 0.5290098126786256 0
vn -0.8486157069544057 0.5290098126786256 0
vn 0.012100002470988087 0.38319509313797334 0.9235881715002536
vn 0.1493080197775257 0.3589190517403145 0.92134913552244
vn -0.5425008454176501 0.47669989602945817 0.6917008326195934
vn -0.8486157069544057 0.5290098126786256 0
vn -0.5425008454176501 0.47669989602945817 0.6917008326195934
vn -0.8486157069544057 0.5290098126786256 0
vn -0.6013308559146696 0.4871248961749641 0.6333328802860793
vn 0.012100002470988087 0.38319509313797334 0.9235881715002536
vn -0.5425008454176501 0.47669989602945817 0.6917008326195934
vn -0.5425008454176501 0.47669989602945817 0.6917008326195934
vn -0.8486157069544057 0.5290098126786256 0
vn -0.6013308559146696 0.4871248961749641 0.6333328802860793
vn 0.062097017993415146 0.006300001648974671 0.9980502343747775
vn 0.6649160482123125 0 0.746918100483394
vn -0.07450198915734359 0 0.9972208650101536
vn 0.6649160482123125 0 0.746918100483394
vn 0.062097017993415146 0.006300001648974671 0.9980502343747775
vn 0.7319808093525408 0.07319798109749728 0.6773818349371717
vn -0.07450198915734359 0 0.9972208650101536
vn -0.6702880861497389 -0.06569900949985336 0.7391870681474741
vn 0.062097017993415146 0.006300001648974671 0.9980502343747775
vn 0.9950272548824179 0.09960302224912522 0
vn 0.6649160482123125 0 0.746918100483394
vn 0.7319808093525408 0.07319798109749728 0.6773818349371717
vn -0.6702880861497389 -0.06569900949985336 0.7391870681474741
vn -0.07450198915734359 0 0.9972208650101536
vn -0.7400980160944185 0 0.6724990160387639
vn -0.07450198915734359 0 0.9972208650101536
vn -0.6702880861497389 0.06569900949985336 0.7391870681474741
vn -0.7400980160944185 0 0.6724990160387639
vn -1 0 0
vn -0.6702880861497389 -0.06569900949985336 0.7391870681474741
vn -0.7400980160944185 0 0.6724990160387639
vn -0.6702880861497389 0.06569900949985336 0.7391870681474741
vn -1 0 0
vn -0.7400980160944185 0 0.6724990160387639
vn -0.6702880861497389 0.06569900949985336 0.7391870681474741
vn -0.07450198915734359 0 0.9972208650101536
vn 0.062097017993415146 -0.006300001648974671 0.9980502343747775
vn 0.6649160482123125 0 0.746918100483394
vn 0.062097017993415146 -0.006300001648974671 0.9980502343747775
vn -0.07450198915734359 0 0.9972208650101536
vn 0.062097017993415146 -0.006300001648974671 0.9980502343747775
vn 0.6649160482123125 0 0.746918100483394
vn 0.7319808093525408 -0.07319798109749728 0.6773818349371717
vn 0.7319808093525408 -0.07319798109749728 0.6773818349371717
vn 0.6649160482123125 0 0.746918100483394
vn 0.9950272548824179 -0.09960302224912522 0
vn -1 0 0
vn -0.9952554939464684 -0.09729594939858102 0
vn -0.6702880861497389 -0.06569900949985336 0.7391870681474741
vn -1 0 0
vn -0.6702880861497389 0.06569900949985336 0.7391870681474741
vn -0.9952554939464684 0.09729594939858102 0
vn -1 0 0
vn -0.6702880861497389 -0.06569900949985336 -0.7391870681474741
vn -0.9952554939464684 -0.09729594939858102 0
vn -0.6702880861497389 0.06569900949985336 -0.7391870681474741
vn -1 0 0
vn -0.9952554939464684 0.09729594939858102 0
vn -0.6702880861497389 -0.06569900949985336 -0.7391870681474741
vn -1 0 0
vn -0.7400980160944185 0 -0.6724990160387639
vn -1 0 0
vn -0.6702880861497389 0.06569900949985336 -0.7391870681474741
vn -0.7400980160944185 0 -0.6724990160387639
vn -0.07450198915734359 0 -0.9972208650101536
vn -0.6702880861497389 -0.06569900949985336 -0.7391870681474741
vn -0.7400980160944185 0 -0.6724990160387639
vn -0.6702880861497389 0.06569900949985336 -0.7391870681474741
vn -0.07450198915734359 0 -0.9972208650101536
vn -0.7400980160944185 0 -0.6724990160387639
vn -0.6702880861497389 -0.06569900949985336 -0.7391870681474741
vn -0.07450198915734359 0 -0.9972208650101536
vn 0.062097017993415146 0.006300001648974671 -0.9980502343747775
vn -0.07450198915734359 0 -0.9972208650101536
vn -0.6702880861497389 0.06569900949985336 -0.7391870681474741
vn 0.062097017993415146 -0.006300001648974671 -0.9980502343747775
vn 0.6649160482123125 0 -0.746918100483394
vn 0.062097017993415146 0.006300001648974671 -0.9980502343747775
vn -0.07450198915734359 0 -0.9972208650101536
vn 0.062097017993415146 -0.006300001648974671 -0.9980502343747775
vn 0.6649160482123125 0 -0.746918100483394
vn -0.07450198915734359 0 -0.9972208650101536
vn 0.062097017993415146 0.006300001648974671 -0.9980502343747775
vn 0.6649160482123125 0 -0.746918100483394
vn 0.7319808093525408 0.07319798109749728 -0.6773818349371717
vn 0.6649160482123125 0 -0.746918100483394
vn 0.062097017993415146 -0.006300001648974671 -0.9980502343747775
vn 0.7319808093525408 -0.07319798109749728 -0.6773818349371717
vn 0.9950272548824179 -0.09960302224912522 0
vn 0.6649160482123125 0 -0.746918100483394
vn 0.7319808093525408 -0.07319798109749728 -0.6773818349371717
vn 0.6649160482123125 0 -0.746918100483394
vn 0.9950272548824179 0.09960302224912522 0
vn 0.7319808093525408 0.07319798109749728 -0.6773818349371717
vn 0.6649160482123125 0 -0.746918100483394
vn 0.9950272548824179 -0.09960302224912522 0
vn 1 0 0
vn 0.9950272548824179 0.09960302224912522 0
vn 0.6649160482123125 0 -0.746918100483394
vn 1 0 0
vn 1 0 0
vn 0.9950272548824179 -0.09960302224912522 0
vn 0.6649160482123125 0 0.746918100483394
vn 0.9950272548824179 0.09960302224912522 0
vn 1 0 0
vn 0.6649160482123125 0 0.746918100483394
vn 0.8486157069544057 0.5290098126786256 0
vn 0.5425008454176501 0.47669989602945817 0.6917008326195934
vn 0.6013308559146696 0.4871248961749641 0.6333328802860793
vn -0.012100002470988087 0.38319509313797334 0.9235881715002536
vn 0.6013308559146696 0.4871248961749641 0.6333328802860793
vn 0.5425008454176501 0.47669989602945817 0.6917008326195934
vn 0.5425008454176501 0.47669989602945817 0.6917008326195934
vn 0.8486157069544057 0.5290098126786256 0
vn 0.8486157069544057 0.5290098126786256 0
vn -0.012100002470988087 0.38319509313797334 0.9235881715002536
vn 0.5425008454176501 0.47669989602945817 0.6917008326195934
vn -0.1493080197775257 0.3589190517403145 0.92134913552244
vn 0.5425008454176501 0.47669989602945817 -0.6917008326195934
vn 0.8486157069544057 0.5290098126786256 0
vn 0.8486157069544057 0.5290098126786256 0
vn -0.756245964278681 0.25691598434761065 0.6017360039908749
vn -0.012100002470988087 0.38319509313797334 0.9235881715002536
vn -0.1493080197775257 0.3589190517403145 0.92134913552244
vn 0.6013308559146696 0.4871248961749641 -0.6333328802860793
vn 0.5425008454176501 0.47669989602945817 -0.6917008326195934
vn 0.8486157069544057 0.5290098126786256 0
vn -0.012100002470988087 0.38319509313797334 0.9235881715002536
vn -0.756245964278681 0.25691598434761065 0.6017360039908749
vn -0.6738127779742098 0.2715049146191654 0.6872127920639413
vn -0.012100002470988087 0.38319509313797334 -0.9235881715002536
vn 0.5425008454176501 0.47669989602945817 -0.6917008326195934
vn 0.6013308559146696 0.4871248961749641 -0.6333328802860793
vn -0.756245964278681 0.25691598434761065 0.6017360039908749
vn -0.9752751590957354 0.2209940362335334 0
vn -0.6738127779742098 0.2715049146191654 0.6872127920639413
vn 0.5425008454176501 0.47669989602945817 -0.6917008326195934
vn -0.012100002470988087 0.38319509313797334 -0.9235881715002536
vn -0.1493080197775257 0.3589190517403145 -0.92134913552244
vn -0.9752751590957354 0.2209940362335334 0
vn -0.756245964278681 0.25691598434761065 0.6017360039908749
vn -0.9752751590957354 0.2209940362335334 0
vn -0.1493080197775257 0.3589190517403145 -0.92134913552244
vn -0.012100002470988087 0.38319509313797334 -0.9235881715002536
vn -0.756245964278681 0.25691598434761065 -0.6017360039908749
vn -0.756245964278681 0.25691598434761065 -0.6017360039908749
vn -0.9752751590957354 0.2209940362335334 0
vn -0.9752751590957354 0.2209940362335334 0
vn -0.756245964278681 0.25691598434761065 -0.6017360039908749
vn -0.012100002470988087 0.38319509313797334 -0.9235881715002536
vn -0.6738127779742098 0.2715049146191654 -0.6872127920639413
vn -0.9752751590957354 0.2209940362335334 0
vn -0.756245964278681 0.25691598434761065 -0.6017360039908749
vn -0.6738127779742098 0.2715049146191654 -0.6872127920639413
vn 0.8486157069544057 -0.5290098126786256 0
vn 0.5425008454176501 -0.47669989602945817 0.6917008326195934
vn 0.8486157069544057 -0.5290098126786256 0
vn 0.5425008454176501 -0.47669989602945817 -0.6917008326195934
vn 0.8486157069544057 -0.5290098126786256 0
vn 0.8486157069544057 -0.5290098126786256 0
vn 0.5425008454176501 -0.47669989602945817 0.6917008326195934
vn 0.8486157069544057 -0.5290098126786256 0
vn 0.6013308559146696 -0.4871248961749641 0.6333328802860793
vn 0.6013308559146696 -0.4871248961749641 -0.6333328802860793
vn 0.8486157069544057 -0.5290098126786256 0
vn 0.5425008454176501 -0.47669989602945817 -0.6917008326195934
vn 0.5425008454176501 -0.47669989602945817 0.6917008326195934
vn 0.6013308559146696 -0.4871248961749641 0.6333328802860793
vn -0.012100002470988087 -0.38319509313797334 0.9235881715002536
vn 0.5425008454176501 -0.47669989602945817 -0.6917008326195934
vn -0.012100002470988087 -0.38319509313797334 -0.9235881715002536
vn 0.6013308559146696 -0.4871248961749641 -0.6333328802860793
vn -0.1493080197775257 -0.3589190517403145 0.92134913552244
vn 0.5425008454176501 -0.47669989602945817 0.6917008326195934
vn -0.012100002470988087 -0.38319509313797334 0.9235881715002536
vn -0.012100002470988087 -0.38319509313797334 -0.9235881715002536
vn 0.5425008454176501 -0.47669989602945817 -0.6917008326195934
vn -0.1493080197775257 -0.3589190517403145 -0.92134913552244
vn -0.012100002470988087 -0.38319509313797334 0.9235881715002536
vn -0.756245964278681 -0.25691598434761065 0.6017360039908749
vn -0.1493080197775257 -0.3589190517403145 0.92134913552244
vn -0.756245964278681 -0.25691598434761065 -0.6017360039908749
vn -0.012100002470988087 -0.38319509313797334 -0.9235881715002536
vn -0.1493080197775257 -0.3589190517403145 -0.92134913552244
vn -0.756245964278681 -0.25691598434761065 0.6017360039908749
vn -0.012100002470988087 -0.38319509313797334 0.9235881715002536
vn -0.6738127779742098 -0.2715049146191654 0.6872127920639413
vn -0.012100002470988087 -0.38319509313797334 -0.9235881715002536
vn -0.756245964278681 -0.25691598434761065 -0.6017360039908749
vn -0.6738127779742098 -0.2715049146191654 -0.6872127920639413
vn -0.9752751590957354 -0.2209940362335334 0
vn -0.756245964278681 -0.25691598434761065 0.6017360039908749
vn -0.6738127779742098 -0.2715049146191654 0.6872127920639413
vn -0.756245964278681 -0.25691598434761065 -0.6017360039908749
vn -0.9752751590957354 -0.2209940362335334 0
vn -0.6738127779742098 -0.2715049146191654 -0.6872127920639413
vn -0.9752751590957354 -0.2209940362335334 0
vn -0.9752751590957354 -0.2209940362335334 0
vn -0.756245964278681 -0.25691598434761065 0.6017360039908749
vn -0.9752751590957354 -0.2209940362335334 0
vn -0.756245964278681 -0.25691598434761065 -0.6017360039908749
vn -0.9752751590957354 -0.2209940362335334 0
f 1/1/1 2/2/2 3/3/3
f 4/4/4 5/5/5 6/6/6
f 7/7/7 8/8/8 9/9/9
f 10/10/10 11/11/11 12/12/12
f 13/13/13 14/14/14 15/15/15
f 16/16/16 17/17/17 18/18/18
f 19/19/19 20/20/20 21/21/21
f 22/22/22 23/23/23 24/24/24
f 25/25/25 26/26/26 27/27/27
f 28/28/28 29/29/29 30/30/30
f 31/31/31 32/32/32 33/33/33
f 34/34/34 35/35/35 36/36/36
f 37/37/37 38/38/38 39/39/39
f 40/40/40 41/41/41 42/42/42
f 43/43/43 44/44/44 45/45/45
f 46/46/46 47/47/47 48/48/48
f 49/49/49 50/50/50 51/51/51
f 52/52/52 53/53/53 54/54/54
f 55/55/55 56/56/56 57/57/57
f 58/58/58 59/59/59 60/60/60
f 61/61/61 62/62/62 63/63/63
f 64/64/64 65/65/65 66/66/66
f 67/67/67 68/68/68 69/69/69
f 70/70/70 71/71/71 72/72/72
f 73/73/73 74/74/74 75/75/75
f 76/76/76 77/77/77 78/78/78
f 79/79/79 80/80/80 81/81/81
f 82/82/82 83/83/83 84/84/84
f 85/85/85 86/86/86 87/87/87
f 88/88/88 89/89/89 90/90/90
f 91/91/91 92/92/92 93/93/93
f 94/94/94 95/95/95 96/96/96
f 97/97/97 98/98/98 99/99/99
f 100/100/100 101/101/101 102/102/102
f 103/103/103 104/104/104 105/105/105
f 106/106/106 107/107/107 108/108/108
f 109/109/109 110/110/110 111/111/111
f 112/112/112 113/113/113 114/114/114
f 115/115/115 116/116/116 117/117/117
f 118/118/118 119/119/119 120/120/120
f 121/121/121 122/122/122 123/123/123
f 124/124/124 125/125/125 126/126/126
f 127/127/127 128/128/128 129/129/129
f 130/130/130 131/131/131 132/132/132
f 133/133/133 134/134/134 135/135/135
f 136/136/136 137/137/137 138/138/138
f 139/139/139 140/140/140 141/141/141
f 142/142/142 143/143/143 144/144/144
f 145/145/145 146/146/146 147/147/147
f 148/148/148 149/149/149 150/150/150
f 151/151/151 152/152/152 153/153/153
f 154/154/154 155/155/155 156/156/156
f 157/157/157 158/158/158 159/159/159
f 160/160/160 161/161/161 162/162/162
f 163/163/163 164/164/164 165/165/165
f 166/166/166 167/167/167 168/168/168
f 169/169/169 170/170/170 171/171/171
f 172/172/172 173/173/173 174/174/174
f 175/175/175 176/176/176 177/177/177
f 178/178/178 179/179/179 180/180/180
f 181/181/181 182/182/182 183/183/183
f 184/184/184 185/185/185 186/186/186
f 187/187/187 188/188/188 189/189/189
f 190/190/190 191/191/191 192/192/192
f 193/193/193 194/194/194 195/195/195
f 196/196/196 197/197/197 198/198/198
f 199/199/199 200/200/200 201/201/201
f 202/202/202 203/203/203 204/204/204
f 205/205/205 206/206/206 207/207/207
f 208/208/208 209/209/209 210/210/210
f 211/211/211 212/212/212 213/213/213
f 214/214/214 215/215/215 216/216/216
f 217/217/217 218/218/218 219/219/219
f 220/220/220 221/221/221 222/222/222
f 223/223/223 224/224/224 225/225/225
f 226/226/226 227/227/227 228/228/228
f 229/229/229 230/230/230 231/231/231
f 232/232/232 233/233/233 234/234/234
f 235/235/235 236/236/236 237/237/237
f 238/238/238 239/239/239 240/240/240
f 241/241/241 242/242/242 243/243/243
f 244/244/244 245/245/245 246/246/246
f 247/247/247 248/248/248 249/249/249
f 250/250/250 251/251/251 252/252/252
f 253/253/253 254/254/254 255/255/255
f 256/256/256 257/257/257 258/258/258
f 259/259/259 260/260/260 261/261/261
f 262/262/262 263/263/263 264/264/264
f 265/265/265 266/266/266 267/267/267
f 268/268/268 269/269/269 270/270/270
f 271/271/271 272/272/272 273/273/273
f 274/274/274 275/275/275 276/276/276
f 277/277/277 278/278/278 279/279/279
f 280/280/280 281/281/281 282/282/282
f 283/283/283 284/284/284 285/285/285
f 286/286/286 287/287/287 288/288/288
