o RenderMesh_18687756685.001
usemtl Meshpart5Mtl.002
v 0.43127673679720946 0.7385050603249703 0.07644508903569519
v 0.09642171675097533 0.8213250585892831 -0.09671090977543056
v 0.093541739524718 0.8215260603526269 0.07157108312196075
v 0.43127673679720946 0.7385050603249703 0.07644508903569519
v 0.43415778690707274 0.7383040585616265 -0.09183590920918644
v 0.09642171675097533 0.8213250585892831 -0.09671090977543056
v -0.11432326024640016 0.2871110686162148 0.08526009445733368
v 0.2660157066000659 0.12613105262309654 -0.10946791122012794
v 0.26259177738558837 0.12637006724864586 0.09077909713334381
v -0.11432326024640016 0.2871110686162148 0.08526009445733368
v -0.11089825814831666 0.2868710705140267 -0.11498891065173805
v 0.2660157066000659 0.12613105262309654 -0.10946791122012794
v 0.29548173958193846 0.18324607099086387 -0.10911891112380684
v 0.29205578380953856 0.1834850558140908 0.0911290956074649
v 0.26259177738558837 0.12637006724864586 0.09077909713334381
v 0.26259177738558837 0.12637006724864586 0.09077909713334381
v 0.2660157066000659 0.12613105262309654 -0.10946791122012794
v 0.29548173958193846 0.18324607099086387 -0.10911891112380684
v 0.28189176136385985 0.2343750544884835 0.07493709152287781
v 0.29205578380953856 0.1834850558140908 0.0911290956074649
v 0.29548173958193846 0.18324607099086387 -0.10911891112380684
v 0.29548173958193846 0.18324607099086387 -0.10911891112380684
v 0.2847697120321948 0.2341720708707009 -0.09334491068773926
v 0.28189176136385985 0.2343750544884835 0.07493709152287781
v 0.3938327413214404 0.49175005639583214 0.07621209447926819
v 0.28189176136385985 0.2343750544884835 0.07493709152287781
v 0.2847697120321948 0.2341720708707009 -0.09334491068773926
v 0.2847697120321948 0.2341720708707009 -0.09334491068773926
v 0.3967137914313037 0.49154705787688835 -0.09206990959399403
v 0.3938327413214404 0.49175005639583214 0.07621209447926819
v 0.43127673679720946 0.7385050603249703 0.07644508903569519
v 0.3938327413214404 0.49175005639583214 0.07621209447926819
v 0.3967137914313037 0.49154705787688835 -0.09206990959399403
v 0.3967137914313037 0.49154705787688835 -0.09206990959399403
v 0.43415778690707274 0.7383040585616265 -0.09183590920918644
v 0.43127673679720946 0.7385050603249703 0.07644508903569519
v -0.11432326024640016 0.2871110686162148 0.08526009445733368
v -0.08485824054348878 0.3442260571816598 0.0856080961758548
v -0.11089825814831666 0.2868710705140267 -0.11498891065173805
v -0.08485824054348878 0.3442260571816598 0.0856080961758548
v -0.08143228477108888 0.34398805583507164 -0.11464090893321693
v -0.11089825814831666 0.2868710705140267 -0.11498891065173805
v -0.08143228477108888 0.34398805583507164 -0.11464090893321693
v -0.08485824054348878 0.3442260571816598 0.0856080961758548
v -0.03485727494824342 0.3694540509083901 0.07029609506673157
v -0.03485727494824342 0.3694540509083901 0.07029609506673157
v -0.03197723811734132 0.3692550608018075 -0.09798491062873066
v -0.08143228477108888 0.34398805583507164 -0.11464090893321693
v -0.03485727494824342 0.3694540509083901 0.07029609506673157
v 0.05897873455416747 0.5745670576640998 -0.09694591040068329
v -0.03197723811734132 0.3692550608018075 -0.09798491062873066
v 0.05609875732791014 0.5747690578052436 0.07133808856553375
v 0.05897873455416747 0.5745670576640998 -0.09694591040068329
v -0.03485727494824342 0.3694540509083901 0.07029609506673157
v 0.05609875732791014 0.5747690578052436 0.07133808856553375
v 0.09642171675097533 0.8213250585892831 -0.09671090977543056
v 0.05897873455416747 0.5745670576640998 -0.09694591040068329
v 0.093541739524718 0.8215260603526269 0.07157108312196075
v 0.09642171675097533 0.8213250585892831 -0.09671090977543056
v 0.05609875732791014 0.5747690578052436 0.07133808856553375
v 0.26259177738558837 0.12637006724864586 0.09077909713334381
v 0.29205578380953856 0.1834850558140908 0.0911290956074649
v -0.11432326024640016 0.2871110686162148 0.08526009445733368
v 0.29205578380953856 0.1834850558140908 0.0911290956074649
v -0.08485824054348878 0.3442260571816598 0.0856080961758548
v -0.11432326024640016 0.2871110686162148 0.08526009445733368
v 0.29205578380953856 0.1834850558140908 0.0911290956074649
v -0.03485727494824342 0.3694540509083901 0.07029609506673157
v -0.08485824054348878 0.3442260571816598 0.0856080961758548
v -0.03485727494824342 0.3694540509083901 0.07029609506673157
v 0.29205578380953856 0.1834850558140908 0.0911290956074649
v 0.28189176136385985 0.2343750544884835 0.07493709152287781
v 0.28189176136385985 0.2343750544884835 0.07493709152287781
v 0.05609875732791014 0.5747690578052436 0.07133808856553375
v -0.03485727494824342 0.3694540509083901 0.07029609506673157
v 0.05609875732791014 0.5747690578052436 0.07133808856553375
v 0.28189176136385985 0.2343750544884835 0.07493709152287781
v 0.3938327413214404 0.49175005639583214 0.07621209447926819
v 0.05609875732791014 0.5747690578052436 0.07133808856553375
v 0.3938327413214404 0.49175005639583214 0.07621209447926819
v 0.43127673679720946 0.7385050603249703 0.07644508903569519
v 0.43127673679720946 0.7385050603249703 0.07644508903569519
v 0.093541739524718 0.8215260603526269 0.07157108312196075
v 0.05609875732791014 0.5747690578052436 0.07133808856553375
v -0.11089825814831666 0.2868710705140267 -0.11498891065173805
v -0.08143228477108888 0.34398805583507164 -0.11464090893321693
v 0.29548173958193846 0.18324607099086387 -0.10911891112380684
v 0.29548173958193846 0.18324607099086387 -0.10911891112380684
v 0.2660157066000659 0.12613105262309654 -0.10946791122012794
v -0.11089825814831666 0.2868710705140267 -0.11498891065173805
v 0.29548173958193846 0.18324607099086387 -0.10911891112380684
v -0.08143228477108888 0.34398805583507164 -0.11464090893321693
v -0.03197723811734132 0.3692550608018075 -0.09798491062873066
v -0.03197723811734132 0.3692550608018075 -0.09798491062873066
v 0.2847697120321948 0.2341720708707009 -0.09334491068773926
v 0.29548173958193846 0.18324607099086387 -0.10911891112380684
v 0.2847697120321948 0.2341720708707009 -0.09334491068773926
v -0.03197723811734132 0.3692550608018075 -0.09798491062873066
v 0.05897873455416747 0.5745670576640998 -0.09694591040068329
v 0.05897873455416747 0.5745670576640998 -0.09694591040068329
v 0.3967137914313037 0.49154705787688835 -0.09206990959399403
v 0.2847697120321948 0.2341720708707009 -0.09334491068773926
v 0.05897873455416747 0.5745670576640998 -0.09694591040068329
v 0.43415778690707274 0.7383040585616265 -0.09183590920918644
v 0.3967137914313037 0.49154705787688835 -0.09206990959399403
v 0.05897873455416747 0.5745670576640998 -0.09694591040068329
v 0.09642171675097533 0.8213250585892831 -0.09671090977543056
v 0.43415778690707274 0.7383040585616265 -0.09183590920918644
vt 0 0
vt 0 0
vt 0 0
vt 0 0
vt 0 0
vt 0 0
vt 0 0
vt 0 0
vt 0 0
vt 0 0
vt 0 0
vt 0 0
vt 0 0
vt 0 0
vt 0 0
vt 0 0
vt 0 0
vt 0 0
vt 0 0
vt 0 0
vt 0 0
vt 0 0
vt 0 0
vt 0 0
vt 0 0
vt 0 0
vt 0 0
vt 0 0
vt 0 0
vt 0 0
vt 0 0
vt 0 0
vt 0 0
vt 0 0
vt 0 0
vt 0 0
vt 0 0
vt 0 0
vt 0 0
vt 0 0
vt 0 0
vt 0 0
vt 0 0
vt 0 0
vt 0 0
vt 0 0
vt 0 0
vt 0 0
vt 0 0
vt 0 0
vt 0 0
vt 0 0
vt 0 0
vt 0 0
vt 0 0
vt 0 0
vt 0 0
vt 0 0
vt 0 0
vt 0 0
vt 0 0
vt 0 0
vt 0 0
vt 0 0
vt 0 0
vt 0 0
vt 0 0
vt 0 0
vt 0 0
vt 0 0
vt 0 0
vt 0 0
vt 0 0
vt 0 0
vt 0 0
vt 0 0
vt 0 0
vt 0 0
vt 0 0
vt 0 0
vt 0 0
vt 0 0
vt 0 0
vt 0 0
vt 0 0
vt 0 0
vt 0 0
vt 0 0
vt 0 0
vt 0 0
vt 0 0
vt 0 0
vt 0 0
vt 0 0
vt 0 0
vt 0 0
vt 0 0
vt 0 0
vt 0 0
vt 0 0
vt 0 0
vt 0 0
vt 0 0
vt 0 0
vt 0 0
vt 0 0
vt 0 0
vt 0 0
vn 0.23869746530766534 0.9710896509770286 0.002899969139240181
vn 0.23869746530766534 0.9710896509770286 0.002899969139240181
vn 0.23869746530766534 0.9710896509770286 0.002899969139240181
vn 0.23869746530766534 0.9710896509770286 0.002899969139240181
vn 0.23869746530766534 0.9710896509770286 0.002899969139240181
vn 0.23869746530766534 0.9710896509770286 0.002899969139240181
vn -0.3921866188591526 -0.9198686309081412 -0.005599808836695583
vn -0.3921866188591526 -0.9198686309081412 -0.005599808836695583
vn -0.3921866188591526 -0.9198686309081412 -0.005599808836695583
vn -0.3921866188591526 -0.9198686309081412 -0.005599808836695583
vn -0.3921866188591526 -0.9198686309081412 -0.005599808836695583
vn -0.3921866188591526 -0.9198686309081412 -0.005599808836695583
vn 0.9898327181302716 -0.14120467678996282 0.01710056640817123
vn 0.9898327181302716 -0.14120467678996282 0.01710056640817123
vn 0.8885650348101853 -0.4584819607406049 0.015699381778417783
vn 0.8885650348101853 -0.4584819607406049 0.015699381778417783
vn 0.8885650348101853 -0.4584819607406049 0.015699381778417783
vn 0.9898327181302716 -0.14120467678996282 0.01710056640817123
vn 0.9975979996740266 -0.06709986754042209 0.0171999657685372
vn 0.9898327181302716 -0.14120467678996282 0.01710056640817123
vn 0.9898327181302716 -0.14120467678996282 0.01710056640817123
vn 0.9898327181302716 -0.14120467678996282 0.01710056640817123
vn 0.9975997105492312 -0.06709998261633408 0.017099995467176273
vn 0.9975979996740266 -0.06709986754042209 0.0171999657685372
vn 0.962858816636173 -0.269488465590365 0.016699285605649164
vn 0.9975979996740266 -0.06709986754042209 0.0171999657685372
vn 0.9975997105492312 -0.06709998261633408 0.017099995467176273
vn 0.9975997105492312 -0.06709998261633408 0.017099995467176273
vn 0.9628239562332 -0.26960670483745697 0.016800416963189336
vn 0.962858816636173 -0.269488465590365 0.016699285605649164
vn 0.9885372379808239 -0.15000565678535277 0.01710064494803883
vn 0.962858816636173 -0.269488465590365 0.016699285605649164
vn 0.9628239562332 -0.26960670483745697 0.016800416963189336
vn 0.9628239562332 -0.26960670483745697 0.016800416963189336
vn 0.9885372379808239 -0.15000565678535277 0.01710064494803883
vn 0.9885372379808239 -0.15000565678535277 0.01710064494803883
vn -0.8885650348101853 0.4584819607406049 -0.015699381778417783
vn -0.7478871668476751 0.6636885880546206 -0.013499768539567643
vn -0.8885650348101853 0.4584819607406049 -0.015699381778417783
vn -0.7478871668476751 0.6636885880546206 -0.013499768539567643
vn -0.7477934417686113 0.6637941861988833 -0.013499882089004494
vn -0.8885650348101853 0.4584819607406049 -0.015699381778417783
vn -0.7477934417686113 0.6637941861988833 -0.013499882089004494
vn -0.7478871668476751 0.6636885880546206 -0.013499768539567643
vn -0.7548059156045608 0.6558051058331726 -0.013700106988699298
vn -0.7548059156045608 0.6558051058331726 -0.013700106988699298
vn -0.7548048777341276 0.655804204090466 -0.01380008862431519
vn -0.7477934417686113 0.6637941861988833 -0.013499882089004494
vn -0.7548059156045608 0.6558051058331726 -0.013700106988699298
vn -0.962068281999897 0.2722910197124952 -0.016799445041315083
vn -0.7548048777341276 0.655804204090466 -0.01380008862431519
vn -0.9620362484906833 0.27241025236535804 -0.016700628617341742
vn -0.962068281999897 0.2722910197124952 -0.016799445041315083
vn -0.7548059156045608 0.6558051058331726 -0.013700106988699298
vn -0.9620362484906833 0.27241025236535804 -0.016700628617341742
vn -0.9885372379808239 0.15000565678535277 -0.01710064494803883
vn -0.962068281999897 0.2722910197124952 -0.016799445041315083
vn -0.9885372379808239 0.15000565678535277 -0.01710064494803883
vn -0.9885372379808239 0.15000565678535277 -0.01710064494803883
vn -0.9620362484906833 0.27241025236535804 -0.016700628617341742
vn -0.014099998663158633 0.001199999920903167 0.9998998700059366
vn 0.05400133269069462 0.16070395519208 0.9855242741065544
vn -0.014099998663158633 0.001199999920903167 0.9998998700059366
vn 0.05400133269069462 0.16070395519208 0.9855242741065544
vn 0.015599510294210755 0.07079777834876576 0.9973687030679577
vn -0.014099998663158633 0.001199999920903167 0.9998998700059366
vn 0.05400133269069462 0.16070395519208 0.9855242741065544
vn 0.08330023669875024 0.22880064362869457 0.9699027456611449
vn 0.015599510294210755 0.07079777834876576 0.9973687030679577
vn 0.08330023669875024 0.22880064362869457 0.9699027456611449
vn 0.05400133269069462 0.16070395519208 0.9855242741065544
vn 0.05979890190464184 0.17369681810641824 0.9829819462791292
vn 0.05979890190464184 0.17369681810641824 0.9829819462791292
vn -0.014099998663158633 0.001199999920903167 0.9998998700059366
vn 0.08330023669875024 0.22880064362869457 0.9699027456611449
vn -0.014099998663158633 0.001199999920903167 0.9998998700059366
vn 0.05979890190464184 0.17369681810641824 0.9829819462791292
vn -0.014099998663158633 0.001199999920903167 0.9998998700059366
vn -0.014099998663158633 0.001199999920903167 0.9998998700059366
vn -0.014099998663158633 0.001199999920903167 0.9998998700059366
vn -0.014099998663158633 0.001199999920903167 0.9998998700059366
vn -0.014099998663158633 0.001199999920903167 0.9998998700059366
vn -0.014099998663158633 0.001199999920903167 0.9998998700059366
vn -0.014099998663158633 0.001199999920903167 0.9998998700059366
vn 0.014099998663158633 -0.001199999920903167 -0.9998998700059366
vn 0.04370001767958719 0.06840003317935064 -0.9967004283714679
vn 0.08199580811751447 0.158491893854491 -0.9839496974101737
vn 0.08199580811751447 0.158491893854491 -0.9839496974101737
vn 0.014099998663158633 -0.001199999920903167 -0.9998998700059366
vn 0.014099998663158633 -0.001199999920903167 -0.9998998700059366
vn 0.08199580811751447 0.158491893854491 -0.9839496974101737
vn 0.04370001767958719 0.06840003317935064 -0.9967004283714679
vn 0.11079625866528815 0.2265923587184506 -0.9676673457527557
vn 0.11079625866528815 0.2265923587184506 -0.9676673457527557
vn 0.08749920307017543 0.17149843831556436 -0.9812910756332226
vn 0.08199580811751447 0.158491893854491 -0.9839496974101737
vn 0.08749920307017543 0.17149843831556436 -0.9812910756332226
vn 0.11079625866528815 0.2265923587184506 -0.9676673457527557
vn 0.014099998663158633 -0.001199999920903167 -0.9998998700059366
vn 0.014099998663158633 -0.001199999920903167 -0.9998998700059366
vn 0.014099998663158633 -0.001199999920903167 -0.9998998700059366
vn 0.08749920307017543 0.17149843831556436 -0.9812910756332226
vn 0.014099998663158633 -0.001199999920903167 -0.9998998700059366
vn 0.014099998663158633 -0.001199999920903167 -0.9998998700059366
vn 0.014099998663158633 -0.001199999920903167 -0.9998998700059366
vn 0.014099998663158633 -0.001199999920903167 -0.9998998700059366
vn 0.014099998663158633 -0.001199999920903167 -0.9998998700059366
vn 0.014099998663158633 -0.001199999920903167 -0.9998998700059366
f 1/1/1 2/2/2 3/3/3
f 4/4/4 5/5/5 6/6/6
f 7/7/7 8/8/8 9/9/9
f 10/10/10 11/11/11 12/12/12
f 13/13/13 14/14/14 15/15/15
f 16/16/16 17/17/17 18/18/18
f 19/19/19 20/20/20 21/21/21
f 22/22/22 23/23/23 24/24/24
f 25/25/25 26/26/26 27/27/27
f 28/28/28 29/29/29 30/30/30
f 31/31/31 32/32/32 33/33/33
f 34/34/34 35/35/35 36/36/36
f 37/37/37 38/38/38 39/39/39
f 40/40/40 41/41/41 42/42/42
f 43/43/43 44/44/44 45/45/45
f 46/46/46 47/47/47 48/48/48
f 49/49/49 50/50/50 51/51/51
f 52/52/52 53/53/53 54/54/54
f 55/55/55 56/56/56 57/57/57
f 58/58/58 59/59/59 60/60/60
f 61/61/61 62/62/62 63/63/63
f 64/64/64 65/65/65 66/66/66
f 67/67/67 68/68/68 69/69/69
f 70/70/70 71/71/71 72/72/72
f 73/73/73 74/74/74 75/75/75
f 76/76/76 77/77/77 78/78/78
f 79/79/79 80/80/80 81/81/81
f 82/82/82 83/83/83 84/84/84
f 85/85/85 86/86/86 87/87/87
f 88/88/88 89/89/89 90/90/90
f 91/91/91 92/92/92 93/93/93
f 94/94/94 95/95/95 96/96/96
f 97/97/97 98/98/98 99/99/99
f 100/100/100 101/101/101 102/102/102
f 103/103/103 104/104/104 105/105/105
f 106/106/106 107/107/107 108/108/108
