o Boneclaw_Aug_Body.002
usemtl Meshpart4Mtl.024
v -0.3549684951834098 -0.023686999455094337 0.09516900032758713
v -0.8508445243172065 0.1061289981007576 0.09516900032758713
v -0.7052465299896613 0.02566399984061718 0.09516900032758713
v -0.8508445243172065 0.1061289981007576 0.09516900032758713
v -0.8128765220574752 -0.023686999455094337 0.09516900032758713
v -0.7052465299896613 0.02566399984061718 0.09516900032758713
v -0.8128765220574752 -0.023686999455094337 0.09516900032758713
v -0.8508445243172065 0.1061289981007576 0.09516900032758713
v -0.9995815227560416 0.02853200025856495 0.09516900032758713
v -0.8508445243172065 0.1061289981007576 0.09516900032758713
v -0.3549684951834098 -0.023686999455094337 0.09516900032758713
v 0.7210624744363412 0.1061289981007576 0.09516900032758713
v -0.8508445243172065 0.1061289981007576 0.09516900032758713
v -1.204305536561431 0.027369000017642975 0.09516900032758713
v -0.9995815227560416 0.02853200025856495 0.09516900032758713
v -1.5075835059217826 0.10612799972295761 0.09516900032758713
v -1.204305536561431 0.027369000017642975 0.09516900032758713
v -0.8508445243172065 0.1061289981007576 0.09516900032758713
v -0.8508445243172065 0.1061289981007576 0.09516900032758713
v 0.7210624744363412 0.16173100471496582 0.11910399794578552
v -0.8508445243172065 0.16173100471496582 0.11910399794578552
v -0.8508445243172065 0.1061289981007576 0.09516900032758713
v 0.7210624744363412 0.1061289981007576 0.09516900032758713
v 0.7210624744363412 0.16173100471496582 0.11910399794578552
v 0.7210624744363412 0.1061289981007576 0.09516900032758713
v -0.3549684951834098 -0.023686999455094337 0.09516900032758713
v 0.053831451124726204 -0.12436400353908539 0.09516900032758713
v 0.3888885309167489 -0.32176798582077026 0.09516900032758713
v 0.7210624744363412 0.1061289981007576 0.09516900032758713
v 0.053831451124726204 -0.12436400353908539 0.09516900032758713
v 0.7210624744363412 0.1061289981007576 0.09516900032758713
v 0.3888885309167489 -0.32176798582077026 0.09516900032758713
v 0.6504574348397836 -0.32176798582077026 0.09516900032758713
v 0.3888885309167489 -0.32176798582077026 0.09516900032758713
v 0.648263507074891 -0.3639500141143799 0.09516900032758713
v 0.6504574348397836 -0.32176798582077026 0.09516900032758713
v 0.648263507074891 -0.3639500141143799 0.09516900032758713
v 0.3888885309167489 -0.32176798582077026 0.09516900032758713
v 0.641555481142579 -0.4054050147533417 0.09516900032758713
v 0.641555481142579 -0.4054050147533417 0.09516900032758713
v 0.3888885309167489 -0.32176798582077026 0.09516900032758713
v 0.3419755031533822 -0.4054050147533417 0.09516900032758713
v 0.3419755031533822 -0.4054050147533417 0.09516900032758713
v 0.3888885309167489 -0.32176798582077026 0.09516900032758713
v 0.3419755031533822 -0.3639500141143799 0.09516900032758713
v -0.32254750233215246 -0.10869999974966049 0.09516900032758713
v 0.053831451124726204 -0.12436400353908539 0.09516900032758713
v -0.3549684951834098 -0.023686999455094337 0.09516900032758713
v 0.053831451124726204 -0.12436400353908539 0.09516900032758713
v -0.32254750233215246 -0.10869999974966049 0.09516900032758713
v 0.032633476442871956 -0.1916089951992035 0.09516900032758713
v -0.8508445243172065 0.16173100471496582 0.11910399794578552
v 0.7210624744363412 0.16173100471496582 0.11910399794578552
v 0.6271074344583139 0.28017300367355347 0.047669000923633575
v -0.8508445243172065 0.16173100471496582 0.11910399794578552
v 0.6271074344583139 0.28017300367355347 0.047669000923633575
v -0.8508445243172065 0.28017300367355347 0.047669000923633575
v -1.2505725095800773 -0.015775000676512718 0.09516900032758713
v -1.204305536561431 0.027369000017642975 0.09516900032758713
v -1.4273895094923392 0.026207000017166138 0.09516900032758713
v -1.204305536561431 0.027369000017642975 0.09516900032758713
v -1.5075835059217826 0.10612799972295761 0.09516900032758713
v -1.4273895094923392 0.026207000017166138 0.09516900032758713
v -1.3265535305075065 -0.06628900021314621 0.09516900032758713
v -1.2505725095800773 -0.015775000676512718 0.09516900032758713
v -1.4273895094923392 0.026207000017166138 0.09516900032758713
v -1.5075835059217826 0.025662999600172043 0.09516900032758713
v -1.4273895094923392 0.026207000017166138 0.09516900032758713
v -1.5075835059217826 0.10612799972295761 0.09516900032758713
v -1.2505725095800773 -0.015775000676512718 0.09516900032758713
v -1.3265535305075065 -0.06628900021314621 0.09516900032758713
v -1.2505725095800773 -0.06512600183486938 0.09516900032758713
v -1.3265535305075065 -0.06628900021314621 0.09516900032758713
v -1.1408795188002006 -0.317672997713089 0.09516900032758713
v -1.2505725095800773 -0.06512600183486938 0.09516900032758713
v -1.059308520965995 -0.31608501076698303 0.09516900032758713
v -1.2505725095800773 -0.06512600183486938 0.09516900032758713
v -1.1408795188002006 -0.317672997713089 0.09516900032758713
v -1.1408795188002006 -0.317672997713089 0.09516900032758713
v -1.0392705271772757 -0.3614029884338379 0.09516900032758713
v -1.059308520965995 -0.31608501076698303 0.09516900032758713
v -0.9418765227131263 -0.314985990524292 0.09516900032758713
v -1.059308520965995 -0.31608501076698303 0.09516900032758713
v -1.0392705271772757 -0.3614029884338379 0.09516900032758713
v -1.0392705271772757 -0.3614029884338379 0.09516900032758713
v -0.7070965240530387 -0.3614029884338379 0.09516900032758713
v -0.9418765227131263 -0.314985990524292 0.09516900032758713
v -0.7070965240530387 -0.3614029884338379 0.09516900032758713
v -0.8974995245046631 -0.2718369960784912 0.09516900032758713
v -0.9418765227131263 -0.314985990524292 0.09516900032758713
v -0.8974995245046631 -0.2718369960784912 0.09516900032758713
v -0.7070965240530387 -0.3614029884338379 0.09516900032758713
v -0.7070965240530387 -0.3077940046787262 0.09516900032758713
v -0.7070965240530387 -0.3077940046787262 0.09516900032758713
v -0.8054805244140044 -0.06458999961614609 0.09516900032758713
v -0.8974995245046631 -0.2718369960784912 0.09516900032758713
v -0.8128765220574752 -0.023686999455094337 0.09516900032758713
v -0.9995815227560416 -0.06458999961614609 0.09516900032758713
v -0.8054805244140044 -0.06458999961614609 0.09516900032758713
v -0.9995815227560416 -0.06458999961614609 0.09516900032758713
v -0.8974995245046631 -0.2718369960784912 0.09516900032758713
v -0.8054805244140044 -0.06458999961614609 0.09516900032758713
v -0.9995815227560416 -0.06458999961614609 0.09516900032758713
v -0.8128765220574752 -0.023686999455094337 0.09516900032758713
v -0.9995815227560416 0.02853200025856495 0.09516900032758713
v -0.8128765220574752 -0.023686999455094337 -0.09559699892997742
v -0.8128765220574752 -0.023686999455094337 0.09516900032758713
v -0.8054805244140044 -0.06458999961614609 0.09516900032758713
v -0.8054805244140044 -0.06458999961614609 0.09516900032758713
v -0.8054805244140044 -0.06458999961614609 -0.09559699892997742
v -0.8128765220574752 -0.023686999455094337 -0.09559699892997742
v -0.8054805244140044 -0.06458999961614609 -0.09559699892997742
v -0.8054805244140044 -0.06458999961614609 0.09516900032758713
v -0.7070965240530387 -0.3077940046787262 0.09516900032758713
v -0.7070965240530387 -0.3077940046787262 -0.09559699892997742
v -0.8054805244140044 -0.06458999961614609 -0.09559699892997742
v -0.7070965240530387 -0.3077940046787262 0.09516900032758713
v -0.7070965240530387 -0.3077940046787262 -0.09559699892997742
v -0.7070965240530387 -0.3077940046787262 0.09516900032758713
v -0.7070965240530387 -0.3614029884338379 0.09516900032758713
v -0.7070965240530387 -0.3614029884338379 0.09516900032758713
v -0.7070965240530387 -0.3614029884338379 -0.09559699892997742
v -0.7070965240530387 -0.3077940046787262 -0.09559699892997742
v -1.2505725095800773 -0.015775000676512718 0.09516900032758713
v -1.2505725095800773 -0.015775000676512718 -0.09559699892997742
v -1.204305536561431 0.027369000017642975 -0.09559699892997742
v -1.204305536561431 0.027369000017642975 -0.09559699892997742
v -1.204305536561431 0.027369000017642975 0.09516900032758713
v -1.2505725095800773 -0.015775000676512718 0.09516900032758713
v -1.2505725095800773 -0.015775000676512718 -0.09559699892997742
v -1.2505725095800773 -0.015775000676512718 0.09516900032758713
v -1.2505725095800773 -0.06512600183486938 0.09516900032758713
v -1.2505725095800773 -0.06512600183486938 0.09516900032758713
v -1.2505725095800773 -0.06512600183486938 -0.09559699892997742
v -1.2505725095800773 -0.015775000676512718 -0.09559699892997742
v -1.2505725095800773 -0.06512600183486938 -0.09559699892997742
v -1.2505725095800773 -0.06512600183486938 0.09516900032758713
v -1.059308520965995 -0.31608501076698303 0.09516900032758713
v -1.059308520965995 -0.31608501076698303 -0.09559699892997742
v -1.2505725095800773 -0.06512600183486938 -0.09559699892997742
v -1.059308520965995 -0.31608501076698303 0.09516900032758713
v -0.8508445243172065 0.28017300367355347 0.047669000923633575
v 0.6271074344583139 0.28017300367355347 0.047669000923633575
v -0.8508445243172065 0.28017300367355347 -0.04772600159049034
v 0.6271074344583139 0.28017300367355347 -0.04772600159049034
v -0.8508445243172065 0.28017300367355347 -0.04772600159049034
v 0.6271074344583139 0.28017300367355347 0.047669000923633575
v -0.9418765227131263 -0.314985990524292 0.09516900032758713
v -1.059308520965995 -0.31608501076698303 -0.09559699892997742
v -1.059308520965995 -0.31608501076698303 0.09516900032758713
v -1.059308520965995 -0.31608501076698303 -0.09559699892997742
v -0.9418765227131263 -0.314985990524292 0.09516900032758713
v -0.9418765227131263 -0.314985990524292 -0.09559699892997742
v -1.1408795188002006 -0.317672997713089 -0.09559699892997742
v -1.1408795188002006 -0.317672997713089 0.09516900032758713
v -1.3115895162157432 -0.08602900058031082 -0.09559699892997742
v -1.3115895162157432 -0.08602900058031082 -0.09559699892997742
v -1.1408795188002006 -0.317672997713089 0.09516900032758713
v -1.3265535305075065 -0.06628900021314621 0.09516900032758713
v -1.3265535305075065 -0.06628900021314621 0.09516900032758713
v -1.3265545139841453 -0.06628900021314621 -0.09559699892997742
v -1.3115895162157432 -0.08602900058031082 -0.09559699892997742
v -1.4273895094923392 0.026207000017166138 0.09516900032758713
v -1.3265545139841453 -0.06628900021314621 -0.09559699892997742
v -1.3265535305075065 -0.06628900021314621 0.09516900032758713
v -1.3265545139841453 -0.06628900021314621 -0.09559699892997742
v -1.4273895094923392 0.026207000017166138 0.09516900032758713
v -1.4273895094923392 0.026207000017166138 -0.09559699892997742
v -0.8974995245046631 -0.2718369960784912 0.09516900032758713
v -0.9418765227131263 -0.314985990524292 -0.09559699892997742
v -0.9418765227131263 -0.314985990524292 0.09516900032758713
v -0.9418765227131263 -0.314985990524292 -0.09559699892997742
v -0.8974995245046631 -0.2718369960784912 0.09516900032758713
v -0.8974995245046631 -0.2718369960784912 -0.09559699892997742
v -0.9995815227560416 -0.06458999961614609 0.09516900032758713
v -0.8974995245046631 -0.2718369960784912 -0.09559699892997742
v -0.8974995245046631 -0.2718369960784912 0.09516900032758713
v -0.8974995245046631 -0.2718369960784912 -0.09559699892997742
v -0.9995815227560416 -0.06458999961614609 0.09516900032758713
v -0.9995815227560416 -0.06458999961614609 -0.09559699892997742
v -0.9995815227560416 0.02853200025856495 0.09516900032758713
v -0.9995815227560416 -0.06458999961614609 -0.09559699892997742
v -0.9995815227560416 -0.06458999961614609 0.09516900032758713
v -0.9995815227560416 -0.06458999961614609 -0.09559699892997742
v -0.9995815227560416 0.02853200025856495 0.09516900032758713
v -0.9995815227560416 0.02853200025856495 -0.09559699892997742
v 0.3419755031533822 -0.3639500141143799 -0.09559699892997742
v 0.3888885309167489 -0.32176798582077026 0.09516900032758713
v 0.3888885309167489 -0.32176798582077026 -0.09559699892997742
v 0.3888885309167489 -0.32176798582077026 0.09516900032758713
v 0.3419755031533822 -0.3639500141143799 -0.09559699892997742
v 0.3419755031533822 -0.3639500141143799 0.09516900032758713
v 0.3419755031533822 -0.4054050147533417 -0.09559699892997742
v 0.3419755031533822 -0.3639500141143799 0.09516900032758713
v 0.3419755031533822 -0.3639500141143799 -0.09559699892997742
v 0.3419755031533822 -0.3639500141143799 0.09516900032758713
v 0.3419755031533822 -0.4054050147533417 -0.09559699892997742
v 0.3419755031533822 -0.4054050147533417 0.09516900032758713
v 0.3419755031533822 -0.4054050147533417 -0.09559699892997742
v 0.641555481142579 -0.4054050147533417 -0.09559699892997742
v 0.641555481142579 -0.4054050147533417 0.09516900032758713
v 0.3419755031533822 -0.4054050147533417 -0.09559699892997742
v 0.641555481142579 -0.4054050147533417 0.09516900032758713
v 0.3419755031533822 -0.4054050147533417 0.09516900032758713
v -1.1408795188002006 -0.317672997713089 0.09516900032758713
v -1.1408795188002006 -0.317672997713089 -0.09559699892997742
v -1.0392705271772757 -0.3614029884338379 -0.09559699892997742
v -1.0392705271772757 -0.3614029884338379 -0.09559699892997742
v -1.0392705271772757 -0.3614029884338379 0.09516900032758713
v -1.1408795188002006 -0.317672997713089 0.09516900032758713
v -1.0392705271772757 -0.3614029884338379 -0.09559699892997742
v -0.7070965240530387 -0.3614029884338379 -0.09559699892997742
v -1.0392705271772757 -0.3614029884338379 0.09516900032758713
v -0.7070965240530387 -0.3614029884338379 -0.09559699892997742
v -0.7070965240530387 -0.3614029884338379 0.09516900032758713
v -1.0392705271772757 -0.3614029884338379 0.09516900032758713
v -0.32254750233215246 -0.10869999974966049 -0.09559699892997742
v 0.032633476442871956 -0.1916089951992035 -0.09559699892997742
v -0.32254750233215246 -0.10869999974966049 0.09516900032758713
v 0.032633476442871956 -0.1916089951992035 -0.09559699892997742
v 0.032633476442871956 -0.1916089951992035 0.09516900032758713
v -0.32254750233215246 -0.10869999974966049 0.09516900032758713
v 0.053831451124726204 -0.12436400353908539 -0.09559699892997742
v 0.3888885309167489 -0.32176798582077026 -0.09559699892997742
v 0.053831451124726204 -0.12436400353908539 0.09516900032758713
v 0.3888885309167489 -0.32176798582077026 -0.09559699892997742
v 0.3888885309167489 -0.32176798582077026 0.09516900032758713
v 0.053831451124726204 -0.12436400353908539 0.09516900032758713
v 0.6271074344583139 0.28017300367355347 -0.04772600159049034
v -0.8508445243172065 0.16173000633716583 -0.11916100233793259
v -0.8508445243172065 0.28017300367355347 -0.04772600159049034
v -0.8508445243172065 0.16173000633716583 -0.11916100233793259
v 0.6271074344583139 0.28017300367355347 -0.04772600159049034
v 0.7210624744363412 0.16173000633716583 -0.11916100233793259
v -0.8508445243172065 0.16173000633716583 -0.11916100233793259
v 0.7210624744363412 0.16173000633716583 -0.11916100233793259
v -0.8508445243172065 0.1061289981007576 -0.09559699892997742
v 0.7210624744363412 0.1061289981007576 -0.09559699892997742
v -0.8508445243172065 0.1061289981007576 -0.09559699892997742
v 0.7210624744363412 0.16173000633716583 -0.11916100233793259
v -0.8508445243172065 0.1061289981007576 -0.09559699892997742
v 0.7210624744363412 0.1061289981007576 -0.09559699892997742
v -0.3549684951834098 -0.023686999455094337 -0.09559699892997742
v -0.3549684951834098 -0.023686999455094337 -0.09559699892997742
v 0.7210624744363412 0.1061289981007576 -0.09559699892997742
v 0.053831451124726204 -0.12436400353908539 -0.09559699892997742
v 0.7210624744363412 0.1061289981007576 -0.09559699892997742
v 0.3888885309167489 -0.32176798582077026 -0.09559699892997742
v 0.053831451124726204 -0.12436400353908539 -0.09559699892997742
v 0.7210624744363412 0.1061289981007576 -0.09559699892997742
v 0.6504574348397836 -0.32176798582077026 -0.09559699892997742
v 0.3888885309167489 -0.32176798582077026 -0.09559699892997742
v 0.648263507074891 -0.3639500141143799 -0.09559699892997742
v 0.3888885309167489 -0.32176798582077026 -0.09559699892997742
v 0.6504574348397836 -0.32176798582077026 -0.09559699892997742
v 0.641555481142579 -0.4054050147533417 -0.09559699892997742
v 0.3888885309167489 -0.32176798582077026 -0.09559699892997742
v 0.648263507074891 -0.3639500141143799 -0.09559699892997742
v 0.3419755031533822 -0.4054050147533417 -0.09559699892997742
v 0.3888885309167489 -0.32176798582077026 -0.09559699892997742
v 0.641555481142579 -0.4054050147533417 -0.09559699892997742
v 0.3888885309167489 -0.32176798582077026 -0.09559699892997742
v 0.3419755031533822 -0.4054050147533417 -0.09559699892997742
v 0.3419755031533822 -0.3639500141143799 -0.09559699892997742
v 0.053831451124726204 -0.12436400353908539 -0.09559699892997742
v -0.32254750233215246 -0.10869999974966049 -0.09559699892997742
v -0.3549684951834098 -0.023686999455094337 -0.09559699892997742
v -0.32254750233215246 -0.10869999974966049 -0.09559699892997742
v 0.053831451124726204 -0.12436400353908539 -0.09559699892997742
v 0.032633476442871956 -0.1916089951992035 -0.09559699892997742
v -0.8508445243172065 0.1061289981007576 -0.09559699892997742
v -0.3549684951834098 -0.023686999455094337 -0.09559699892997742
v -0.7052465299896613 0.02566399984061718 -0.09559699892997742
v -0.8128765220574752 -0.023686999455094337 -0.09559699892997742
v -0.8508445243172065 0.1061289981007576 -0.09559699892997742
v -0.7052465299896613 0.02566399984061718 -0.09559699892997742
v -0.8508445243172065 0.1061289981007576 -0.09559699892997742
v -0.8128765220574752 -0.023686999455094337 -0.09559699892997742
v -0.9995815227560416 0.02853200025856495 -0.09559699892997742
v -0.9995815227560416 -0.06458999961614609 -0.09559699892997742
v -0.9995815227560416 0.02853200025856495 -0.09559699892997742
v -0.8128765220574752 -0.023686999455094337 -0.09559699892997742
v -0.9995815227560416 -0.06458999961614609 -0.09559699892997742
v -0.8128765220574752 -0.023686999455094337 -0.09559699892997742
v -0.8054805244140044 -0.06458999961614609 -0.09559699892997742
v -0.8974995245046631 -0.2718369960784912 -0.09559699892997742
v -0.9995815227560416 -0.06458999961614609 -0.09559699892997742
v -0.8054805244140044 -0.06458999961614609 -0.09559699892997742
v -0.8054805244140044 -0.06458999961614609 -0.09559699892997742
v -0.7070965240530387 -0.3077940046787262 -0.09559699892997742
v -0.8974995245046631 -0.2718369960784912 -0.09559699892997742
v -0.7070965240530387 -0.3614029884338379 -0.09559699892997742
v -0.8974995245046631 -0.2718369960784912 -0.09559699892997742
v -0.7070965240530387 -0.3077940046787262 -0.09559699892997742
v -0.8974995245046631 -0.2718369960784912 -0.09559699892997742
v -0.7070965240530387 -0.3614029884338379 -0.09559699892997742
v -0.9418765227131263 -0.314985990524292 -0.09559699892997742
v -0.9418765227131263 -0.314985990524292 -0.09559699892997742
v -0.7070965240530387 -0.3614029884338379 -0.09559699892997742
v -1.0392705271772757 -0.3614029884338379 -0.09559699892997742
v -1.0392705271772757 -0.3614029884338379 -0.09559699892997742
v -1.059308520965995 -0.31608501076698303 -0.09559699892997742
v -0.9418765227131263 -0.314985990524292 -0.09559699892997742
v -1.0392705271772757 -0.3614029884338379 -0.09559699892997742
v -1.1408795188002006 -0.317672997713089 -0.09559699892997742
v -1.059308520965995 -0.31608501076698303 -0.09559699892997742
v -1.2505725095800773 -0.06512600183486938 -0.09559699892997742
v -1.059308520965995 -0.31608501076698303 -0.09559699892997742
v -1.1408795188002006 -0.317672997713089 -0.09559699892997742
v -1.1408795188002006 -0.317672997713089 -0.09559699892997742
v -1.3115895162157432 -0.08602900058031082 -0.09559699892997742
v -1.2505725095800773 -0.06512600183486938 -0.09559699892997742
v -1.2505725095800773 -0.06512600183486938 -0.09559699892997742
v -1.3115895162157432 -0.08602900058031082 -0.09559699892997742
v -1.3265545139841453 -0.06628900021314621 -0.09559699892997742
v -1.3265545139841453 -0.06628900021314621 -0.09559699892997742
v -1.2505725095800773 -0.015775000676512718 -0.09559699892997742
v -1.2505725095800773 -0.06512600183486938 -0.09559699892997742
v -1.4273895094923392 0.026207000017166138 -0.09559699892997742
v -1.2505725095800773 -0.015775000676512718 -0.09559699892997742
v -1.3265545139841453 -0.06628900021314621 -0.09559699892997742
v -1.2505725095800773 -0.015775000676512718 -0.09559699892997742
v -1.4273895094923392 0.026207000017166138 -0.09559699892997742
v -1.204305536561431 0.027369000017642975 -0.09559699892997742
v -1.5075835059217826 0.10612799972295761 -0.09559699892997742
v -1.204305536561431 0.027369000017642975 -0.09559699892997742
v -1.4273895094923392 0.026207000017166138 -0.09559699892997742
v -1.5075835059217826 0.10612799972295761 -0.09559699892997742
v -1.4273895094923392 0.026207000017166138 -0.09559699892997742
v -1.5075835059217826 0.025662999600172043 -0.09559699892997742
v -0.8508445243172065 0.1061289981007576 -0.09559699892997742
v -1.204305536561431 0.027369000017642975 -0.09559699892997742
v -1.5075835059217826 0.10612799972295761 -0.09559699892997742
v -1.204305536561431 0.027369000017642975 -0.09559699892997742
v -0.8508445243172065 0.1061289981007576 -0.09559699892997742
v -0.9995815227560416 0.02853200025856495 -0.09559699892997742
v -0.32254750233215246 -0.10869999974966049 -0.09559699892997742
v -0.3549684951834098 -0.023686999455094337 0.09516900032758713
v -0.3549684951834098 -0.023686999455094337 -0.09559699892997742
v -0.3549684951834098 -0.023686999455094337 0.09516900032758713
v -0.32254750233215246 -0.10869999974966049 -0.09559699892997742
v -0.32254750233215246 -0.10869999974966049 0.09516900032758713
v -0.8128765220574752 -0.023686999455094337 0.09516900032758713
v -0.8128765220574752 -0.023686999455094337 -0.09559699892997742
v -0.7052465299896613 0.02566399984061718 -0.09559699892997742
v -0.7052465299896613 0.02566399984061718 -0.09559699892997742
v -0.7052465299896613 0.02566399984061718 0.09516900032758713
v -0.8128765220574752 -0.023686999455094337 0.09516900032758713
v -0.7052465299896613 0.02566399984061718 -0.09559699892997742
v -0.3549684951834098 -0.023686999455094337 -0.09559699892997742
v -0.7052465299896613 0.02566399984061718 0.09516900032758713
v -0.3549684951834098 -0.023686999455094337 -0.09559699892997742
v -0.3549684951834098 -0.023686999455094337 0.09516900032758713
v -0.7052465299896613 0.02566399984061718 0.09516900032758713
v -1.204305536561431 0.027369000017642975 -0.09559699892997742
v -0.9995815227560416 0.02853200025856495 -0.09559699892997742
v -1.204305536561431 0.027369000017642975 0.09516900032758713
v -0.9995815227560416 0.02853200025856495 -0.09559699892997742
v -0.9995815227560416 0.02853200025856495 0.09516900032758713
v -1.204305536561431 0.027369000017642975 0.09516900032758713
v 0.032633476442871956 -0.1916089951992035 0.09516900032758713
v 0.032633476442871956 -0.1916089951992035 -0.09559699892997742
v 0.053831451124726204 -0.12436400353908539 -0.09559699892997742
v 0.053831451124726204 -0.12436400353908539 -0.09559699892997742
v 0.053831451124726204 -0.12436400353908539 0.09516900032758713
v 0.032633476442871956 -0.1916089951992035 0.09516900032758713
vt 36.0432014465332 -2.9727299213409424
vt 35.89899826049805 -2.9300200939178467
vt 35.94129943847656 -2.9564900398254395
vt 35.89899826049805 -2.9300200939178467
vt 35.90999984741211 -2.9727299213409424
vt 35.94129943847656 -2.9564900398254395
vt 35.90999984741211 -2.9727299213409424
vt 35.89899826049805 -2.9300200939178467
vt 35.85580062866211 -2.955549955368042
vt 35.89899826049805 -2.9300200939178467
vt 36.0432014465332 -2.9727299213409424
vt 36.35599899291992 -2.9300200939178467
vt 35.89899826049805 -2.9300200939178467
vt 35.79629898071289 -2.95592999458313
vt 35.85580062866211 -2.955549955368042
vt 35.708099365234375 -2.9300200939178467
vt 35.79629898071289 -2.95592999458313
vt 35.89899826049805 -2.9300200939178467
vt 35.89899826049805 -2.9300200939178467
vt 36.35599899291992 -2.9117400646209717
vt 35.89899826049805 -2.9117400646209717
vt 35.89899826049805 -2.9300200939178467
vt 36.35599899291992 -2.9300200939178467
vt 36.35599899291992 -2.9117400646209717
vt 36.35599899291992 -2.9300200939178467
vt 36.0432014465332 -2.9727299213409424
vt 36.1619987487793 -3.005850076675415
vt 36.2593994140625 -3.070780038833618
vt 36.35599899291992 -2.9300200939178467
vt 36.1619987487793 -3.005850076675415
vt 36.35599899291992 -2.9300200939178467
vt 36.2593994140625 -3.070780038833618
vt 36.33539962768555 -3.070780038833618
vt 36.2593994140625 -3.070780038833618
vt 36.334800720214844 -3.084660053253174
vt 36.33539962768555 -3.070780038833618
vt 36.334800720214844 -3.084660053253174
vt 36.2593994140625 -3.070780038833618
vt 36.332801818847656 -3.098289966583252
vt 36.332801818847656 -3.098289966583252
vt 36.2593994140625 -3.070780038833618
vt 36.24580001831055 -3.098289966583252
vt 36.24580001831055 -3.098289966583252
vt 36.2593994140625 -3.070780038833618
vt 36.24580001831055 -3.084660053253174
vt 36.0526008605957 -3.00068998336792
vt 36.1619987487793 -3.005850076675415
vt 36.0432014465332 -2.9727299213409424
vt 36.1619987487793 -3.005850076675415
vt 36.0526008605957 -3.00068998336792
vt 36.155799865722656 -3.0279700756073
vt 35.89899826049805 -2.9117400646209717
vt 36.35599899291992 -2.9117400646209717
vt 36.32870101928711 -2.872770071029663
vt 35.89899826049805 -2.9117400646209717
vt 36.32870101928711 -2.872770071029663
vt 35.89899826049805 -2.872770071029663
vt 35.782798767089844 -2.9701199531555176
vt 35.79629898071289 -2.95592999458313
vt 35.73139953613281 -2.95632004737854
vt 35.79629898071289 -2.95592999458313
vt 35.708099365234375 -2.9300200939178467
vt 35.73139953613281 -2.95632004737854
vt 35.76070022583008 -2.9867401123046875
vt 35.782798767089844 -2.9701199531555176
vt 35.73139953613281 -2.95632004737854
vt 35.708099365234375 -2.9564900398254395
vt 35.73139953613281 -2.95632004737854
vt 35.708099365234375 -2.9300200939178467
vt 35.782798767089844 -2.9701199531555176
vt 35.76070022583008 -2.9867401123046875
vt 35.782798767089844 -2.9863600730895996
vt 35.76070022583008 -2.9867401123046875
vt 35.814701080322266 -3.069430112838745
vt 35.782798767089844 -2.9863600730895996
vt 35.838401794433594 -3.0689098834991455
vt 35.782798767089844 -2.9863600730895996
vt 35.814701080322266 -3.069430112838745
vt 35.814701080322266 -3.069430112838745
vt 35.844200134277344 -3.083820104598999
vt 35.838401794433594 -3.0689098834991455
vt 35.872501373291016 -3.0685501098632812
vt 35.838401794433594 -3.0689098834991455
vt 35.844200134277344 -3.083820104598999
vt 35.844200134277344 -3.083820104598999
vt 35.940799713134766 -3.083820104598999
vt 35.872501373291016 -3.0685501098632812
vt 35.940799713134766 -3.083820104598999
vt 35.885501861572266 -3.0543599128723145
vt 35.872501373291016 -3.0685501098632812
vt 35.885501861572266 -3.0543599128723145
vt 35.940799713134766 -3.083820104598999
vt 35.940799713134766 -3.0661799907684326
vt 35.940799713134766 -3.0661799907684326
vt 35.912200927734375 -2.986180067062378
vt 35.885501861572266 -3.0543599128723145
vt 35.90999984741211 -2.9727299213409424
vt 35.85580062866211 -2.986180067062378
vt 35.912200927734375 -2.986180067062378
vt 35.85580062866211 -2.986180067062378
vt 35.885501861572266 -3.0543599128723145
vt 35.912200927734375 -2.986180067062378
vt 35.85580062866211 -2.986180067062378
vt 35.90999984741211 -2.9727299213409424
vt 35.85580062866211 -2.955549955368042
vt 36.03139877319336 -2.9727299213409424
vt 35.96860122680664 -2.9727299213409424
vt 35.96860122680664 -2.986180067062378
vt 35.96860122680664 -2.986180067062378
vt 36.03139877319336 -2.986180067062378
vt 36.03139877319336 -2.9727299213409424
vt 36.03139877319336 -2.986180067062378
vt 35.96860122680664 -2.986180067062378
vt 35.96860122680664 -3.0661799907684326
vt 36.03139877319336 -3.0661799907684326
vt 36.03139877319336 -2.986180067062378
vt 35.96860122680664 -3.0661799907684326
vt 36.03139877319336 -3.0661799907684326
vt 35.96860122680664 -3.0661799907684326
vt 35.96860122680664 -3.083820104598999
vt 35.96860122680664 -3.083820104598999
vt 36.03139877319336 -3.083820104598999
vt 36.03139877319336 -3.0661799907684326
vt 35.96860122680664 -2.9701199531555176
vt 36.03139877319336 -2.9701199531555176
vt 36.03139877319336 -2.95592999458313
vt 36.03139877319336 -2.95592999458313
vt 35.96860122680664 -2.95592999458313
vt 35.96860122680664 -2.9701199531555176
vt 36.03139877319336 -2.9701199531555176
vt 35.96860122680664 -2.9701199531555176
vt 35.96860122680664 -2.9863600730895996
vt 35.96860122680664 -2.9863600730895996
vt 36.03139877319336 -2.9863600730895996
vt 36.03139877319336 -2.9701199531555176
vt 36.03139877319336 -2.9863600730895996
vt 35.96860122680664 -2.9863600730895996
vt 35.96860122680664 -3.0689098834991455
vt 36.03139877319336 -3.0689098834991455
vt 36.03139877319336 -2.9863600730895996
vt 35.96860122680664 -3.0689098834991455
vt 36.10100173950195 -2.9843199253082275
vt 35.67129898071289 -2.9843199253082275
vt 36.10100173950195 -3.0156800746917725
vt 35.67129898071289 -3.0156800746917725
vt 36.10100173950195 -3.0156800746917725
vt 35.67129898071289 -2.9843199253082275
vt 36.127498626708984 -2.968640089035034
vt 36.161598205566406 -3.031359910964966
vt 36.161598205566406 -2.968640089035034
vt 36.161598205566406 -3.031359910964966
vt 36.127498626708984 -2.968640089035034
vt 36.127498626708984 -3.031359910964966
vt 35.96860122680664 -3.069430112838745
vt 36.03139877319336 -3.069430112838745
vt 35.96860122680664 -2.993230104446411
vt 35.96860122680664 -2.993230104446411
vt 36.03139877319336 -3.069430112838745
vt 36.03139877319336 -2.9867401123046875
vt 36.03139877319336 -2.9867401123046875
vt 35.96860122680664 -2.9867401123046875
vt 35.96860122680664 -2.993230104446411
vt 36.03139877319336 -2.95632004737854
vt 35.96860122680664 -2.9867401123046875
vt 36.03139877319336 -2.9867401123046875
vt 35.96860122680664 -2.9867401123046875
vt 36.03139877319336 -2.95632004737854
vt 35.96860122680664 -2.95632004737854
vt 36.03139877319336 -3.0543599128723145
vt 35.96860122680664 -3.0685501098632812
vt 36.03139877319336 -3.0685501098632812
vt 35.96860122680664 -3.0685501098632812
vt 36.03139877319336 -3.0543599128723145
vt 35.96860122680664 -3.0543599128723145
vt 36.03139877319336 -2.986180067062378
vt 35.96860122680664 -3.0543599128723145
vt 36.03139877319336 -3.0543599128723145
vt 35.96860122680664 -3.0543599128723145
vt 36.03139877319336 -2.986180067062378
vt 35.96860122680664 -2.986180067062378
vt 36.03139877319336 -2.955549955368042
vt 35.96860122680664 -2.986180067062378
vt 36.03139877319336 -2.986180067062378
vt 35.96860122680664 -2.986180067062378
vt 36.03139877319336 -2.955549955368042
vt 35.96860122680664 -2.955549955368042
vt 35.96860122680664 -3.084660053253174
vt 36.03139877319336 -3.070780038833618
vt 35.96860122680664 -3.070780038833618
vt 36.03139877319336 -3.070780038833618
vt 35.96860122680664 -3.084660053253174
vt 36.03139877319336 -3.084660053253174
vt 35.96860122680664 -3.098289966583252
vt 36.03139877319336 -3.084660053253174
vt 35.96860122680664 -3.084660053253174
vt 36.03139877319336 -3.084660053253174
vt 35.96860122680664 -3.098289966583252
vt 36.03139877319336 -3.098289966583252
vt 36.24580001831055 -3.031359910964966
vt 36.332801818847656 -3.031359910964966
vt 36.332801818847656 -2.968640089035034
vt 36.24580001831055 -3.031359910964966
vt 36.332801818847656 -2.968640089035034
vt 36.24580001831055 -2.968640089035034
vt 35.814701080322266 -2.968640089035034
vt 35.814701080322266 -3.031359910964966
vt 35.844200134277344 -3.031359910964966
vt 35.844200134277344 -3.031359910964966
vt 35.844200134277344 -2.968640089035034
vt 35.814701080322266 -2.968640089035034
vt 35.844200134277344 -3.031359910964966
vt 35.940799713134766 -3.031359910964966
vt 35.844200134277344 -2.968640089035034
vt 35.940799713134766 -3.031359910964966
vt 35.940799713134766 -2.968640089035034
vt 35.844200134277344 -2.968640089035034
vt 36.0526008605957 -3.031359910964966
vt 36.155799865722656 -3.031359910964966
vt 36.0526008605957 -2.968640089035034
vt 36.155799865722656 -3.031359910964966
vt 36.155799865722656 -2.968640089035034
vt 36.0526008605957 -2.968640089035034
vt 36.1619987487793 -3.031359910964966
vt 36.2593994140625 -3.031359910964966
vt 36.1619987487793 -2.968640089035034
vt 36.2593994140625 -3.031359910964966
vt 36.2593994140625 -2.968640089035034
vt 36.1619987487793 -2.968640089035034
vt 35.67129898071289 -2.872770071029663
vt 36.10100173950195 -2.9117400646209717
vt 36.10100173950195 -2.872770071029663
vt 36.10100173950195 -2.9117400646209717
vt 35.67129898071289 -2.872770071029663
vt 35.64400100708008 -2.9117400646209717
vt 36.10100173950195 -2.9117400646209717
vt 35.64400100708008 -2.9117400646209717
vt 36.10100173950195 -2.9300200939178467
vt 35.64400100708008 -2.9300200939178467
vt 36.10100173950195 -2.9300200939178467
vt 35.64400100708008 -2.9117400646209717
vt 36.10100173950195 -2.9300200939178467
vt 35.64400100708008 -2.9300200939178467
vt 35.9567985534668 -2.9727299213409424
vt 35.9567985534668 -2.9727299213409424
vt 35.64400100708008 -2.9300200939178467
vt 35.8380012512207 -3.005850076675415
vt 35.64400100708008 -2.9300200939178467
vt 35.7406005859375 -3.070780038833618
vt 35.8380012512207 -3.005850076675415
vt 35.64400100708008 -2.9300200939178467
vt 35.66460037231445 -3.070780038833618
vt 35.7406005859375 -3.070780038833618
vt 35.665199279785156 -3.084660053253174
vt 35.7406005859375 -3.070780038833618
vt 35.66460037231445 -3.070780038833618
vt 35.667198181152344 -3.098289966583252
vt 35.7406005859375 -3.070780038833618
vt 35.665199279785156 -3.084660053253174
vt 35.75419998168945 -3.098289966583252
vt 35.7406005859375 -3.070780038833618
vt 35.667198181152344 -3.098289966583252
vt 35.7406005859375 -3.070780038833618
vt 35.75419998168945 -3.098289966583252
vt 35.75419998168945 -3.084660053253174
vt 35.8380012512207 -3.005850076675415
vt 35.9473991394043 -3.00068998336792
vt 35.9567985534668 -2.9727299213409424
vt 35.9473991394043 -3.00068998336792
vt 35.8380012512207 -3.005850076675415
vt 35.844200134277344 -3.0279700756073
vt 36.10100173950195 -2.9300200939178467
vt 35.9567985534668 -2.9727299213409424
vt 36.05870056152344 -2.9564900398254395
vt 36.09000015258789 -2.9727299213409424
vt 36.10100173950195 -2.9300200939178467
vt 36.05870056152344 -2.9564900398254395
vt 36.10100173950195 -2.9300200939178467
vt 36.09000015258789 -2.9727299213409424
vt 36.14419937133789 -2.955549955368042
vt 36.14419937133789 -2.986180067062378
vt 36.14419937133789 -2.955549955368042
vt 36.09000015258789 -2.9727299213409424
vt 36.14419937133789 -2.986180067062378
vt 36.09000015258789 -2.9727299213409424
vt 36.087799072265625 -2.986180067062378
vt 36.114498138427734 -3.0543599128723145
vt 36.14419937133789 -2.986180067062378
vt 36.087799072265625 -2.986180067062378
vt 36.087799072265625 -2.986180067062378
vt 36.059200286865234 -3.0661799907684326
vt 36.114498138427734 -3.0543599128723145
vt 36.059200286865234 -3.083820104598999
vt 36.114498138427734 -3.0543599128723145
vt 36.059200286865234 -3.0661799907684326
vt 36.114498138427734 -3.0543599128723145
vt 36.059200286865234 -3.083820104598999
vt 36.127498626708984 -3.0685501098632812
vt 36.127498626708984 -3.0685501098632812
vt 36.059200286865234 -3.083820104598999
vt 36.155799865722656 -3.083820104598999
vt 36.155799865722656 -3.083820104598999
vt 36.161598205566406 -3.0689098834991455
vt 36.127498626708984 -3.0685501098632812
vt 36.155799865722656 -3.083820104598999
vt 36.185298919677734 -3.069430112838745
vt 36.161598205566406 -3.0689098834991455
vt 36.217201232910156 -2.9863600730895996
vt 36.161598205566406 -3.0689098834991455
vt 36.185298919677734 -3.069430112838745
vt 36.185298919677734 -3.069430112838745
vt 36.234901428222656 -2.993230104446411
vt 36.217201232910156 -2.9863600730895996
vt 36.217201232910156 -2.9863600730895996
vt 36.234901428222656 -2.993230104446411
vt 36.23929977416992 -2.9867401123046875
vt 36.23929977416992 -2.9867401123046875
vt 36.217201232910156 -2.9701199531555176
vt 36.217201232910156 -2.9863600730895996
vt 36.26860046386719 -2.95632004737854
vt 36.217201232910156 -2.9701199531555176
vt 36.23929977416992 -2.9867401123046875
vt 36.217201232910156 -2.9701199531555176
vt 36.26860046386719 -2.95632004737854
vt 36.20370101928711 -2.95592999458313
vt 36.291900634765625 -2.9300200939178467
vt 36.20370101928711 -2.95592999458313
vt 36.26860046386719 -2.95632004737854
vt 36.291900634765625 -2.9300200939178467
vt 36.26860046386719 -2.95632004737854
vt 36.291900634765625 -2.9564900398254395
vt 36.10100173950195 -2.9300200939178467
vt 36.20370101928711 -2.95592999458313
vt 36.291900634765625 -2.9300200939178467
vt 36.20370101928711 -2.95592999458313
vt 36.10100173950195 -2.9300200939178467
vt 36.14419937133789 -2.955549955368042
vt 35.96860122680664 -3.00068998336792
vt 36.03139877319336 -2.9727299213409424
vt 35.96860122680664 -2.9727299213409424
vt 36.03139877319336 -2.9727299213409424
vt 35.96860122680664 -3.00068998336792
vt 36.03139877319336 -3.00068998336792
vt 35.90999984741211 -2.968640089035034
vt 35.90999984741211 -3.031359910964966
vt 35.94129943847656 -3.031359910964966
vt 35.94129943847656 -3.031359910964966
vt 35.94129943847656 -2.968640089035034
vt 35.90999984741211 -2.968640089035034
vt 35.94129943847656 -3.031359910964966
vt 36.0432014465332 -3.031359910964966
vt 35.94129943847656 -2.968640089035034
vt 36.0432014465332 -3.031359910964966
vt 36.0432014465332 -2.968640089035034
vt 35.94129943847656 -2.968640089035034
vt 35.79629898071289 -3.031359910964966
vt 35.85580062866211 -3.031359910964966
vt 35.79629898071289 -2.968640089035034
vt 35.85580062866211 -3.031359910964966
vt 35.85580062866211 -2.968640089035034
vt 35.79629898071289 -2.968640089035034
vt 35.96860122680664 -3.0279700756073
vt 36.03139877319336 -3.0279700756073
vt 36.03139877319336 -3.005850076675415
vt 36.03139877319336 -3.005850076675415
vt 35.96860122680664 -3.005850076675415
vt 35.96860122680664 -3.0279700756073
vn 0 0 1
vn 0 -0.13430541561754247 0.9909399857386921
vn 0 -0.0004999999612487284 0.9999998750000115
vn 0 -0.13430541561754247 0.9909399857386921
vn 0 0 1
vn 0 -0.0004999999612487284 0.9999998750000115
vn 0 0 1
vn 0 -0.13430541561754247 0.9909399857386921
vn 0 0 1
vn 0 -0.13430541561754247 0.9909399857386921
vn 0 0 1
vn 0 -0.21289458529102678 0.9770751739522204
vn 0 -0.13430541561754247 0.9909399857386921
vn 0 0 1
vn 0 0 1
vn 0 0 1
vn 0 0 1
vn 0 -0.13430541561754247 0.9909399857386921
vn 0 -0.13430541561754247 0.9909399857386921
vn 0 -0.038298709752347775 0.9992663352836947
vn 0 0.07040132265828192 0.9975187485796768
vn 0 -0.13430541561754247 0.9909399857386921
vn 0 -0.21289458529102678 0.9770751739522204
vn 0 -0.038298709752347775 0.9992663352836947
vn 0 -0.21289458529102678 0.9770751739522204
vn 0 0 1
vn 0 0 1
vn 0 0 1
vn 0 -0.21289458529102678 0.9770751739522204
vn 0 0 1
vn 0 -0.21289458529102678 0.9770751739522204
vn 0 0 1
vn 0 0 1
vn 0 0 1
vn 0 0 1
vn 0 0 1
vn 0 0 1
vn 0 0 1
vn 0 0 1
vn 0 0 1
vn 0 0 1
vn 0 0 1
vn 0 0 1
vn 0 0 1
vn 0 0 1
vn 0 0.0004999999612487284 0.9999998750000115
vn 0 0 1
vn 0 0 1
vn 0 0 1
vn 0 0.0004999999612487284 0.9999998750000115
vn 0 0 1
vn 0 0.07040132265828192 0.9975187485796768
vn 0 -0.038298709752347775 0.9992663352836947
vn 0 0.5179914052069426 0.8553858217972384
vn 0 0.07040132265828192 0.9975187485796768
vn 0 0.5179914052069426 0.8553858217972384
vn 0 0.5178739364073722 0.85545694572546
vn 0 0 1
vn 0 0 1
vn 0 0 1
vn 0 0 1
vn 0 0 1
vn 0 0 1
vn 0 0 1
vn 0 0 1
vn 0 0 1
vn 0 0 1
vn 0 0 1
vn 0 0 1
vn 0 0 1
vn 0 0 1
vn 0 0 1
vn 0 0 1
vn 0 0 1
vn 0 0 1
vn 0 0 1
vn 0 0 1
vn 0 0 1
vn 0 0 1
vn 0 0 1
vn 0 0 1
vn 0 0 1
vn 0 0 1
vn 0 0 1
vn 0 0 1
vn 0 0 1
vn 0 0 1
vn 0 0 1
vn 0 0 1
vn 0 0 1
vn 0 0 1
vn 0 0 1
vn 0 0 1
vn 0 0 1
vn 0 0 1
vn 0 0 1
vn 0 0 1
vn 0 0 1
vn 0 0 1
vn 0 0 1
vn 0 0 1
vn 0 0 1
vn 0 0 1
vn 0 0 1
vn 0 0 1
vn 0.8682062194221817 -0.49620354750509643 0
vn 0.8682062194221817 -0.49620354750509643 0
vn 0.95932408870314 0.28230708959197265 0
vn 0.95932408870314 0.28230708959197265 0
vn 0.9593591296907391 0.2821879874817982 0
vn 0.8682062194221817 -0.49620354750509643 0
vn 0.9593591296907391 0.2821879874817982 0
vn 0.95932408870314 0.28230708959197265 0
vn 0.9808031193005942 0.1950006183842105 0
vn 0.9807648497105252 0.1951930059512651 0
vn 0.9593591296907391 0.2821879874817982 0
vn 0.9808031193005942 0.1950006183842105 0
vn 0.9807648497105252 0.1951930059512651 0
vn 0.9808031193005942 0.1950006183842105 0
vn 1 0 0
vn 1 0 0
vn 1 0 0
vn 0.9807648497105252 0.1951930059512651 0
vn 0.911591899424617 -0.41109634990281674 0
vn 0.911591899424617 -0.41109634990281674 0
vn 0.36249453394881637 -0.9319858973488979 0
vn 0.36249453394881637 -0.9319858973488979 0
vn 0.36249453394881637 -0.9319858973488979 0
vn 0.911591899424617 -0.41109634990281674 0
vn 0.911591899424617 -0.41109634990281674 0
vn 0.911591899424617 -0.41109634990281674 0
vn 0.945166643502015 0.32658845051706115 0
vn 0.945166643502015 0.32658845051706115 0
vn 0.945166643502015 0.32658845051706115 0
vn 0.911591899424617 -0.41109634990281674 0
vn 0.945166643502015 0.32658845051706115 0
vn 0.945166643502015 0.32658845051706115 0
vn 0.4220805978456459 0.9065583097199331 0
vn 0.4220805978456459 0.9065583097199331 0
vn 0.945166643502015 0.32658845051706115 0
vn 0.4220805978456459 0.9065583097199331 0
vn 0 1 0
vn 0 1 0
vn 0 1 0
vn 0 1 0
vn 0 1 0
vn 0 1 0
vn -0.36800883448488714 0.9298222936352274 0
vn 0.42199839798635075 0.9065965762658458 0
vn 0.42199839798635075 0.9065965762658458 0
vn 0.42199839798635075 0.9065965762658458 0
vn -0.36800883448488714 0.9298222936352274 0
vn -0.36800883448488714 0.9298222936352274 0
vn -0.6160844535380876 -0.7876801039182569 0
vn -0.6160223950795872 -0.787728639037841 0
vn -0.8049879792585923 -0.5932911201502753 0
vn -0.8049879792585923 -0.5932911201502753 0
vn -0.6160223950795872 -0.787728639037841 0
vn -0.7421892916162277 -0.670190305368924 0.00009999855239716951
vn -0.7421892916162277 -0.670190305368924 0.00009999855239716951
vn -0.7420946165893967 -0.6702951439694579 0
vn -0.8049879792585923 -0.5932911201502753 0
vn -0.6746960687320858 -0.7380956678083597 0
vn -0.7420946165893967 -0.6702951439694579 0
vn -0.7421892916162277 -0.670190305368924 0.00009999855239716951
vn -0.7420946165893967 -0.6702951439694579 0
vn -0.6746960687320858 -0.7380956678083597 0
vn -0.6746960687320858 -0.7380956678083597 0
vn -0.9824163816838088 0.1867031145945152 0
vn -0.36859593261562157 0.9295897151212573 0
vn -0.36859593261562157 0.9295897151212573 0
vn -0.36859593261562157 0.9295897151212573 0
vn -0.9824163816838088 0.1867031145945152 0
vn -0.9824163816838088 0.1867031145945152 0
vn -0.9729786855891456 -0.2308949488170287 0
vn -0.9824163816838088 0.1867031145945152 0
vn -0.9824163816838088 0.1867031145945152 0
vn -0.9824163816838088 0.1867031145945152 0
vn -0.9729786855891456 -0.2308949488170287 0
vn -0.973023600189126 -0.23070559914096492 0
vn -1 0 0
vn -0.973023600189126 -0.23070559914096492 0
vn -0.9729786855891456 -0.2308949488170287 0
vn -0.973023600189126 -0.23070559914096492 0
vn -1 0 0
vn -1 0 0
vn -0.9083073622799027 0.4183034014063541 0
vn -0.6702951439694579 0.7420946165893967 0
vn -0.6702951439694579 0.7420946165893967 0
vn -0.6702951439694579 0.7420946165893967 0
vn -0.9083073622799027 0.4183034014063541 0
vn -0.9083073622799027 0.4183034014063541 0
vn -1 0 0
vn -0.9083073622799027 0.4183034014063541 0
vn -0.9083073622799027 0.4183034014063541 0
vn -0.9083073622799027 0.4183034014063541 0
vn -1 0 0
vn -1 0 0
vn 0 -1 0
vn 0.607398152652651 -0.7943975605162362 0
vn 0.607398152652651 -0.7943975605162362 0
vn 0 -1 0
vn 0.607398152652651 -0.7943975605162362 0
vn 0 -1 0
vn -0.615407261895517 -0.7882093008879446 0
vn -0.615407261895517 -0.7882093008879446 0
vn -0.19580842619786673 -0.9806421672709749 0
vn -0.19580842619786673 -0.9806421672709749 0
vn -0.19580842619786673 -0.9806421672709749 0
vn -0.615407261895517 -0.7882093008879446 0
vn -0.19580842619786673 -0.9806421672709749 0
vn 0 -1 0
vn -0.19580842619786673 -0.9806421672709749 0
vn 0 -1 0
vn 0 -1 0
vn -0.19580842619786673 -0.9806421672709749 0
vn -0.22399763295815434 -0.9745896882427723 0
vn -0.22399763295815434 -0.9745896882427723 0
vn -0.22399763295815434 -0.9745896882427723 0
vn -0.22399763295815434 -0.9745896882427723 0
vn -0.2240925987212214 -0.9745678566412754 0
vn -0.22399763295815434 -0.9745896882427723 0
vn -0.5041942821709744 -0.8635902534339396 0
vn -0.5040016080892531 -0.863702714505082 0
vn -0.5041197306424979 -0.8636337749167381 0
vn -0.5040016080892531 -0.863702714505082 0
vn -0.5040016080892531 -0.863702714505082 0
vn -0.5041197306424979 -0.8636337749167381 0
vn 0 0.5179182201032542 -0.8554301358293833
vn 0 0.07089882851207352 -0.9974835117011286
vn 0 0.5179182201032542 -0.8554301358293833
vn 0 0.07089882851207352 -0.9974835117011286
vn 0 0.5179182201032542 -0.8554301358293833
vn 0 -0.03940092659079008 -0.9992234820017929
vn 0 0.07089882851207352 -0.9974835117011286
vn 0 -0.03940092659079008 -0.9992234820017929
vn 0 -0.13350645393793156 -0.991047943722663
vn 0 -0.21279911546426974 -0.9770959709555783
vn 0 -0.13350645393793156 -0.991047943722663
vn 0 -0.03940092659079008 -0.9992234820017929
vn 0 -0.13350645393793156 -0.991047943722663
vn 0 -0.21279911546426974 -0.9770959709555783
vn 0 0 -1
vn 0 0 -1
vn 0 -0.21279911546426974 -0.9770959709555783
vn 0 0 -1
vn 0 -0.21279911546426974 -0.9770959709555783
vn 0 0 -1
vn 0 0 -1
vn 0 -0.21279911546426974 -0.9770959709555783
vn 0 0 -1
vn 0 0 -1
vn 0 -0.0004999999612487284 -0.9999998750000115
vn 0 0 -1
vn 0 0 -1
vn 0 0 -1
vn 0 0 -1
vn 0 -0.0004999999612487284 -0.9999998750000115
vn 0 0 -1
vn 0 0 -1
vn 0 0 -1
vn 0 0 -1
vn 0 0 -1
vn 0 0 -1
vn 0 0 -1
vn 0 0 -1
vn 0 0 -1
vn 0 0 -1
vn 0 0 -1
vn 0 0 -1
vn 0 -0.13350645393793156 -0.991047943722663
vn 0 0 -1
vn 0 0.0004999999612487284 -0.9999998750000115
vn 0 -0.0004999999612487284 -0.9999998750000115
vn 0 -0.13350645393793156 -0.991047943722663
vn 0 0.0004999999612487284 -0.9999998750000115
vn 0 -0.13350645393793156 -0.991047943722663
vn 0 -0.0004999999612487284 -0.9999998750000115
vn 0 0 -1
vn 0 0 -1
vn 0 0 -1
vn 0 -0.0004999999612487284 -0.9999998750000115
vn 0 0 -1
vn 0 -0.0004999999612487284 -0.9999998750000115
vn 0 0 -1
vn 0 0 -1
vn 0 0 -1
vn 0 0 -1
vn 0 0 -1
vn 0 0 -1
vn 0 0 -1
vn 0 0 -1
vn 0 0 -1
vn 0 0 -1
vn 0 0 -1
vn 0 0 -1
vn 0 0 -1
vn 0 0 -1
vn 0 0 -1
vn 0 0 -1
vn 0 0 -1
vn 0 0 -1
vn 0 0 -1
vn 0 0 -1
vn 0 0 -1
vn 0 0 -1
vn 0 0 -1
vn 0 0 -1
vn 0 0 -1
vn 0 0 -1
vn 0 0 -1
vn 0 0 -1
vn 0 0 -1
vn 0 0 -1
vn 0 0 -1
vn 0 0 -1
vn 0 0 -1
vn 0 0 -1
vn 0 0 -1
vn 0 0 -1
vn 0 0 -1
vn 0 0 -1
vn 0 0 -1
vn 0 0 -1
vn 0 0 -1
vn 0 0 -1
vn 0 0 -1
vn 0 0 -1
vn 0 0 -1
vn 0 0 -1
vn 0 -0.13350645393793156 -0.991047943722663
vn 0 0 -1
vn 0 0 -1
vn 0 0 -1
vn 0 -0.13350645393793156 -0.991047943722663
vn 0 0 -1
vn -0.9327645103468565 -0.36048629410476757 0
vn -0.9327178840180725 -0.36060691733915656 0
vn -0.9327981366826237 -0.3603992733086812 0
vn -0.9327178840180725 -0.36060691733915656 0
vn -0.9327645103468565 -0.36048629410476757 0
vn -0.9327178840180725 -0.36060691733915656 0
vn 0.8686059924465733 -0.4955034105693959 0
vn 0.8686735727831261 -0.49538492503123127 0
vn 0.14020322148192332 -0.9901227482923978 0
vn 0.14020322148192332 -0.9901227482923978 0
vn 0.14010518120546367 -0.9901366260266226 0
vn 0.8686059924465733 -0.4955034105693959 0
vn 0.14020322148192332 -0.9901227482923978 0
vn -0.1395030581009134 -0.9902216402303541 0
vn 0.14010518120546367 -0.9901366260266226 0
vn -0.1395030581009134 -0.9902216402303541 0
vn -0.1395030581009134 -0.9902216402303541 0
vn 0.14010518120546367 -0.9901366260266226 0
vn 0.36190570571806135 -0.9322147071188654 0
vn 0.006999828722353325 -0.9999755008988259 0
vn 0.36190570571806135 -0.9322147071188654 0
vn 0.006999828722353325 -0.9999755008988259 0
vn 0.006799842879597813 -0.9999768808011577 0
vn 0.36190570571806135 -0.9322147071188654 0
vn 0.9537170792255613 -0.300705392025924 0
vn 0.9537170792255613 -0.300705392025924 0
vn 0.9537170792255613 -0.300705392025924 0
vn 0.9537170792255613 -0.300705392025924 0
vn 0.9537170792255613 -0.300705392025924 0
vn 0.9537170792255613 -0.300705392025924 0
f 1/1/1 2/2/2 3/3/3
f 4/4/4 5/5/5 6/6/6
f 7/7/7 8/8/8 9/9/9
f 10/10/10 11/11/11 12/12/12
f 13/13/13 14/14/14 15/15/15
f 16/16/16 17/17/17 18/18/18
f 19/19/19 20/20/20 21/21/21
f 22/22/22 23/23/23 24/24/24
f 25/25/25 26/26/26 27/27/27
f 28/28/28 29/29/29 30/30/30
f 31/31/31 32/32/32 33/33/33
f 34/34/34 35/35/35 36/36/36
f 37/37/37 38/38/38 39/39/39
f 40/40/40 41/41/41 42/42/42
f 43/43/43 44/44/44 45/45/45
f 46/46/46 47/47/47 48/48/48
f 49/49/49 50/50/50 51/51/51
f 52/52/52 53/53/53 54/54/54
f 55/55/55 56/56/56 57/57/57
f 58/58/58 59/59/59 60/60/60
f 61/61/61 62/62/62 63/63/63
f 64/64/64 65/65/65 66/66/66
f 67/67/67 68/68/68 69/69/69
f 70/70/70 71/71/71 72/72/72
f 73/73/73 74/74/74 75/75/75
f 76/76/76 77/77/77 78/78/78
f 79/79/79 80/80/80 81/81/81
f 82/82/82 83/83/83 84/84/84
f 85/85/85 86/86/86 87/87/87
f 88/88/88 89/89/89 90/90/90
f 91/91/91 92/92/92 93/93/93
f 94/94/94 95/95/95 96/96/96
f 97/97/97 98/98/98 99/99/99
f 100/100/100 101/101/101 102/102/102
f 103/103/103 104/104/104 105/105/105
f 106/106/106 107/107/107 108/108/108
f 109/109/109 110/110/110 111/111/111
f 112/112/112 113/113/113 114/114/114
f 115/115/115 116/116/116 117/117/117
f 118/118/118 119/119/119 120/120/120
f 121/121/121 122/122/122 123/123/123
f 124/124/124 125/125/125 126/126/126
f 127/127/127 128/128/128 129/129/129
f 130/130/130 131/131/131 132/132/132
f 133/133/133 134/134/134 135/135/135
f 136/136/136 137/137/137 138/138/138
f 139/139/139 140/140/140 141/141/141
f 142/142/142 143/143/143 144/144/144
f 145/145/145 146/146/146 147/147/147
f 148/148/148 149/149/149 150/150/150
f 151/151/151 152/152/152 153/153/153
f 154/154/154 155/155/155 156/156/156
f 157/157/157 158/158/158 159/159/159
f 160/160/160 161/161/161 162/162/162
f 163/163/163 164/164/164 165/165/165
f 166/166/166 167/167/167 168/168/168
f 169/169/169 170/170/170 171/171/171
f 172/172/172 173/173/173 174/174/174
f 175/175/175 176/176/176 177/177/177
f 178/178/178 179/179/179 180/180/180
f 181/181/181 182/182/182 183/183/183
f 184/184/184 185/185/185 186/186/186
f 187/187/187 188/188/188 189/189/189
f 190/190/190 191/191/191 192/192/192
f 193/193/193 194/194/194 195/195/195
f 196/196/196 197/197/197 198/198/198
f 199/199/199 200/200/200 201/201/201
f 202/202/202 203/203/203 204/204/204
f 205/205/205 206/206/206 207/207/207
f 208/208/208 209/209/209 210/210/210
f 211/211/211 212/212/212 213/213/213
f 214/214/214 215/215/215 216/216/216
f 217/217/217 218/218/218 219/219/219
f 220/220/220 221/221/221 222/222/222
f 223/223/223 224/224/224 225/225/225
f 226/226/226 227/227/227 228/228/228
f 229/229/229 230/230/230 231/231/231
f 232/232/232 233/233/233 234/234/234
f 235/235/235 236/236/236 237/237/237
f 238/238/238 239/239/239 240/240/240
f 241/241/241 242/242/242 243/243/243
f 244/244/244 245/245/245 246/246/246
f 247/247/247 248/248/248 249/249/249
f 250/250/250 251/251/251 252/252/252
f 253/253/253 254/254/254 255/255/255
f 256/256/256 257/257/257 258/258/258
f 259/259/259 260/260/260 261/261/261
f 262/262/262 263/263/263 264/264/264
f 265/265/265 266/266/266 267/267/267
f 268/268/268 269/269/269 270/270/270
f 271/271/271 272/272/272 273/273/273
f 274/274/274 275/275/275 276/276/276
f 277/277/277 278/278/278 279/279/279
f 280/280/280 281/281/281 282/282/282
f 283/283/283 284/284/284 285/285/285
f 286/286/286 287/287/287 288/288/288
f 289/289/289 290/290/290 291/291/291
f 292/292/292 293/293/293 294/294/294
f 295/295/295 296/296/296 297/297/297
f 298/298/298 299/299/299 300/300/300
f 301/301/301 302/302/302 303/303/303
f 304/304/304 305/305/305 306/306/306
f 307/307/307 308/308/308 309/309/309
f 310/310/310 311/311/311 312/312/312
f 313/313/313 314/314/314 315/315/315
f 316/316/316 317/317/317 318/318/318
f 319/319/319 320/320/320 321/321/321
f 322/322/322 323/323/323 324/324/324
f 325/325/325 326/326/326 327/327/327
f 328/328/328 329/329/329 330/330/330
f 331/331/331 332/332/332 333/333/333
f 334/334/334 335/335/335 336/336/336
f 337/337/337 338/338/338 339/339/339
f 340/340/340 341/341/341 342/342/342
f 343/343/343 344/344/344 345/345/345
f 346/346/346 347/347/347 348/348/348
f 349/349/349 350/350/350 351/351/351
f 352/352/352 353/353/353 354/354/354
f 355/355/355 356/356/356 357/357/357
f 358/358/358 359/359/359 360/360/360
f 361/361/361 362/362/362 363/363/363
f 364/364/364 365/365/365 366/366/366
o RenderMesh_18687756555.003
usemtl Meshpart4Mtl.024
v -1.5281641010459739 -0.20881501211828024 0.04825470710560925
v -1.4735170725997764 -0.06438400968021185 0.017176707483979536
v -1.4970260981735068 -0.041021010829568216 0.04825470710560925
v -1.4970260981735068 -0.041021010829568216 0.04825470710560925
v -1.6134900573905784 -0.041021010829568216 0.04825470710560925
v -1.5281641010459739 -0.20881501211828024 0.04825470710560925
v -1.5281641010459739 -0.20881501211828024 0.04825470710560925
v -1.4927441004928428 -0.20881501211828024 0.017176707483979536
v -1.4735170725997764 -0.06438400968021185 0.017176707483979536
v -1.4735170725997764 -0.06438400968021185 0.017176707483979536
v -1.4927441004928428 -0.20881501211828024 0.017176707483979536
v -1.4927441004928428 -0.20881501211828024 -0.01936929186418407
v -1.4927441004928428 -0.20881501211828024 -0.01936929186418407
v -1.4735170725997764 -0.06438400968021185 -0.01936929186418407
v -1.4735170725997764 -0.06438400968021185 0.017176707483979536
v -1.4927441004928428 -0.20881501211828024 0.017176707483979536
v -1.5281641010459739 -0.20881501211828024 0.04825470710560925
v -1.5058090809997398 -0.30751702561086447 0.04825470710560925
v -1.5058090809997398 -0.30751702561086447 0.04825470710560925
v -1.4704050544914085 -0.30751702561086447 0.017176707483979536
v -1.4927441004928428 -0.20881501211828024 0.017176707483979536
v -1.4927441004928428 -0.20881501211828024 -0.01936929186418407
v -1.4927441004928428 -0.20881501211828024 0.017176707483979536
v -1.4704050544914085 -0.30751702561086447 0.017176707483979536
v -1.5057830933746177 -0.4062190093011263 0.04825470710560925
v -1.4704050544914085 -0.4062190093011263 0.017176707483979536
v -1.4704050544914085 -0.30751702561086447 0.017176707483979536
v -1.4704050544914085 -0.4062190093011263 0.017176707483979536
v -1.4704050544914085 -0.30751702561086447 -0.01936929186418407
v -1.4704050544914085 -0.30751702561086447 0.017176707483979536
v -1.4704050544914085 -0.30751702561086447 0.017176707483979536
v -1.4704050544914085 -0.30751702561086447 -0.01936929186418407
v -1.4927441004928428 -0.20881501211828024 -0.01936929186418407
v -1.4704050544914085 -0.30751702561086447 0.017176707483979536
v -1.5058090809997398 -0.30751702561086447 0.04825470710560925
v -1.5057830933746177 -0.4062190093011263 0.04825470710560925
v -1.5057830933746177 -0.4062190093011263 0.04825470710560925
v -1.6133480791267234 -0.4062190093011263 0.04825470710560925
v -1.505775046747573 -0.49505100025838644 0.04825470710560925
v -1.505775046747573 -0.49505100025838644 0.04825470710560925
v -1.4704050544914085 -0.4062190093011263 0.017176707483979536
v -1.5057830933746177 -0.4062190093011263 0.04825470710560925
v -1.6133480791267234 -0.4062190093011263 0.04825470710560925
v -1.5057830933746177 -0.4062190093011263 0.04825470710560925
v -1.5058090809997398 -0.30751702561086447 0.04825470710560925
v -1.6133480791267234 -0.4062190093011263 0.04825470710560925
v -1.6468030933555442 -0.49505100025838644 0.04825470710560925
v -1.505775046747573 -0.49505100025838644 0.04825470710560925
v -1.6468030933555442 -0.49505100025838644 0.04825470710560925
v -1.6133480791267234 -0.4062190093011263 0.04825470710560925
v -1.6491100911315757 -0.4062190093011263 0.017176707483979536
v -1.6245930914100486 -0.30751702561086447 0.04825470710560925
v -1.6491100911315757 -0.4062190093011263 0.017176707483979536
v -1.6133480791267234 -0.4062190093011263 0.04825470710560925
v -1.5058090809997398 -0.30751702561086447 0.04825470710560925
v -1.6245930914100486 -0.30751702561086447 0.04825470710560925
v -1.6133480791267234 -0.4062190093011263 0.04825470710560925
v -1.6245930914100486 -0.30751702561086447 0.04825470710560925
v -1.5058090809997398 -0.30751702561086447 0.04825470710560925
v -1.5281641010459739 -0.20881501211828024 0.04825470710560925
v -1.5281641010459739 -0.20881501211828024 0.04825470710560925
v -1.6134720567878562 -0.20881501211828024 0.04825470710560925
v -1.6245930914100486 -0.30751702561086447 0.04825470710560925
v -1.6245930914100486 -0.30751702561086447 0.04825470710560925
v -1.6134720567878562 -0.20881501211828024 0.04825470710560925
v -1.6491100911315757 -0.20881501211828024 0.017176707483979536
v -1.6491100911315757 -0.20881501211828024 0.017176707483979536
v -1.6602790478881675 -0.30751702561086447 0.017176707483979536
v -1.6245930914100486 -0.30751702561086447 0.04825470710560925
v -1.6491100911315757 -0.4062190093011263 0.017176707483979536
v -1.6245930914100486 -0.30751702561086447 0.04825470710560925
v -1.6602790478881675 -0.30751702561086447 0.017176707483979536
v -1.6491100911315757 -0.20881501211828024 0.017176707483979536
v -1.6602790478881675 -0.30751702561086447 -0.01936929186418407
v -1.6602790478881675 -0.30751702561086447 0.017176707483979536
v -1.6602790478881675 -0.30751702561086447 0.017176707483979536
v -1.6602790478881675 -0.30751702561086447 -0.01936929186418407
v -1.6491100911315757 -0.4062190093011263 -0.01936929186418407
v -1.6602790478881675 -0.30751702561086447 0.017176707483979536
v -1.6491100911315757 -0.4062190093011263 -0.01936929186418407
v -1.6491100911315757 -0.4062190093011263 0.017176707483979536
v -1.6245930914100486 -0.30751702561086447 -0.05044729148581378
v -1.6133480791267234 -0.4062190093011263 -0.05044729148581378
v -1.6491100911315757 -0.4062190093011263 -0.01936929186418407
v -1.6491100911315757 -0.4062190093011263 -0.01936929186418407
v -1.6602790478881675 -0.30751702561086447 -0.01936929186418407
v -1.6245930914100486 -0.30751702561086447 -0.05044729148581378
v -1.6468030933555442 -0.49505100025838644 -0.05044729148581378
v -1.6491100911315757 -0.4062190093011263 -0.01936929186418407
v -1.6133480791267234 -0.4062190093011263 -0.05044729148581378
v -1.6826160673316795 -0.49505100025838644 0.017176707483979536
v -1.6491100911315757 -0.4062190093011263 0.017176707483979536
v -1.6491100911315757 -0.4062190093011263 -0.01936929186418407
v -1.6491100911315757 -0.4062190093011263 -0.01936929186418407
v -1.6468030933555442 -0.49505100025838644 -0.05044729148581378
v -1.6826160673316795 -0.49505100025838644 -0.01936929186418407
v -1.6491100911315757 -0.4062190093011263 -0.01936929186418407
v -1.6826160673316795 -0.49505100025838644 -0.01936929186418407
v -1.6826160673316795 -0.49505100025838644 0.017176707483979536
v -1.6491100911315757 -0.4062190093011263 0.017176707483979536
v -1.6826160673316795 -0.49505100025838644 0.017176707483979536
v -1.6468030933555442 -0.49505100025838644 0.04825470710560925
v -1.505775046747573 -0.49505100025838644 -0.05044729148581378
v -1.6468030933555442 -0.49505100025838644 -0.05044729148581378
v -1.6133480791267234 -0.4062190093011263 -0.05044729148581378
v -1.6133480791267234 -0.4062190093011263 -0.05044729148581378
v -1.5057830933746177 -0.4062190093011263 -0.05044729148581378
v -1.505775046747573 -0.49505100025838644 -0.05044729148581378
v -1.505775046747573 -0.49505100025838644 -0.05044729148581378
v -1.5057830933746177 -0.4062190093011263 -0.05044729148581378
v -1.4704050544914085 -0.4062190093011263 -0.01936929186418407
v -1.4704050544914085 -0.4062190093011263 -0.01936929186418407
v -1.4704050544914085 -0.49505100025838644 -0.01936929186418407
v -1.505775046747573 -0.49505100025838644 -0.05044729148581378
v -1.4704050544914085 -0.4062190093011263 -0.01936929186418407
v -1.4704050544914085 -0.4062190093011263 0.017176707483979536
v -1.4704050544914085 -0.49505100025838644 -0.01936929186418407
v -1.4704050544914085 -0.49505100025838644 0.017176707483979536
v -1.4704050544914085 -0.49505100025838644 -0.01936929186418407
v -1.4704050544914085 -0.4062190093011263 0.017176707483979536
v -1.4704050544914085 -0.4062190093011263 0.017176707483979536
v -1.505775046747573 -0.49505100025838644 0.04825470710560925
v -1.4704050544914085 -0.49505100025838644 0.017176707483979536
v -1.4704050544914085 -0.30751702561086447 -0.01936929186418407
v -1.4704050544914085 -0.4062190093011263 -0.01936929186418407
v -1.5057830933746177 -0.4062190093011263 -0.05044729148581378
v -1.4704050544914085 -0.4062190093011263 0.017176707483979536
v -1.4704050544914085 -0.4062190093011263 -0.01936929186418407
v -1.4704050544914085 -0.30751702561086447 -0.01936929186418407
v -1.5058090809997398 -0.30751702561086447 -0.05044729148581378
v -1.5057830933746177 -0.4062190093011263 -0.05044729148581378
v -1.6133480791267234 -0.4062190093011263 -0.05044729148581378
v -1.5057830933746177 -0.4062190093011263 -0.05044729148581378
v -1.5058090809997398 -0.30751702561086447 -0.05044729148581378
v -1.4704050544914085 -0.30751702561086447 -0.01936929186418407
v -1.5058090809997398 -0.30751702561086447 -0.05044729148581378
v -1.5281641010459739 -0.20881501211828024 -0.05044729148581378
v -1.4927441004928428 -0.20881501211828024 -0.01936929186418407
v -1.5281641010459739 -0.20881501211828024 -0.05044729148581378
v -1.5058090809997398 -0.30751702561086447 -0.05044729148581378
v -1.6245930914100486 -0.30751702561086447 -0.05044729148581378
v -1.6133480791267234 -0.4062190093011263 -0.05044729148581378
v -1.6245930914100486 -0.30751702561086447 -0.05044729148581378
v -1.5058090809997398 -0.30751702561086447 -0.05044729148581378
v -1.4927441004928428 -0.20881501211828024 -0.01936929186418407
v -1.4704050544914085 -0.30751702561086447 -0.01936929186418407
v -1.5058090809997398 -0.30751702561086447 -0.05044729148581378
v -1.6134900573905784 -0.041021010829568216 -0.05044829358890407
v -1.4970260981735068 -0.041021010829568216 -0.05044829358890407
v -1.5281641010459739 -0.20881501211828024 -0.05044729148581378
v -1.5281641010459739 -0.20881501211828024 -0.05044729148581378
v -1.6134720567878562 -0.20881501211828024 -0.05044729148581378
v -1.6134900573905784 -0.041021010829568216 -0.05044829358890407
v -1.6245930914100486 -0.30751702561086447 -0.05044729148581378
v -1.6134720567878562 -0.20881501211828024 -0.05044729148581378
v -1.5281641010459739 -0.20881501211828024 -0.05044729148581378
v -1.5281641010459739 -0.20881501211828024 -0.05044729148581378
v -1.4970260981735068 -0.041021010829568216 -0.05044829358890407
v -1.4735170725997764 -0.06438400968021185 -0.01936929186418407
v -1.4735170725997764 -0.06438400968021185 -0.01936929186418407
v -1.4927441004928428 -0.20881501211828024 -0.01936929186418407
v -1.5281641010459739 -0.20881501211828024 -0.05044729148581378
v -1.6134900573905784 -0.041021010829568216 -0.05044829358890407
v -1.6134720567878562 -0.20881501211828024 -0.05044729148581378
v -1.6491100911315757 -0.20881501211828024 -0.01936929186418407
v -1.6491100911315757 -0.20881501211828024 -0.01936929186418407
v -1.6134720567878562 -0.20881501211828024 -0.05044729148581378
v -1.6245930914100486 -0.30751702561086447 -0.05044729148581378
v -1.6491100911315757 -0.20881501211828024 -0.01936929186418407
v -1.6491100911315757 -0.041021010829568216 -0.01936929186418407
v -1.6134900573905784 -0.041021010829568216 -0.05044829358890407
v -1.6491100911315757 -0.20881501211828024 -0.01936929186418407
v -1.6491100911315757 -0.20881501211828024 0.017176707483979536
v -1.6491100911315757 -0.041021010829568216 -0.01936929186418407
v -1.6491100911315757 -0.20881501211828024 0.017176707483979536
v -1.6491100911315757 -0.20881501211828024 -0.01936929186418407
v -1.6602790478881675 -0.30751702561086447 -0.01936929186418407
v -1.6245930914100486 -0.30751702561086447 -0.05044729148581378
v -1.6602790478881675 -0.30751702561086447 -0.01936929186418407
v -1.6491100911315757 -0.20881501211828024 -0.01936929186418407
v -1.6491100911315757 -0.041021010829568216 0.017176707483979536
v -1.6491100911315757 -0.041021010829568216 -0.01936929186418407
v -1.6491100911315757 -0.20881501211828024 0.017176707483979536
v -1.6491100911315757 -0.20881501211828024 0.017176707483979536
v -1.6134900573905784 -0.041021010829568216 0.04825470710560925
v -1.6491100911315757 -0.041021010829568216 0.017176707483979536
v -1.6134900573905784 -0.041021010829568216 0.04825470710560925
v -1.6491100911315757 -0.20881501211828024 0.017176707483979536
v -1.6134720567878562 -0.20881501211828024 0.04825470710560925
v -1.6134900573905784 -0.041021010829568216 0.04825470710560925
v -1.6134720567878562 -0.20881501211828024 0.04825470710560925
v -1.5281641010459739 -0.20881501211828024 0.04825470710560925
v -1.505775046747573 -0.49505100025838644 0.04825470710560925
v -1.6468030933555442 -0.49505100025838644 0.04825470710560925
v -1.505775046747573 -0.49505100025838644 -0.05044729148581378
v -1.6468030933555442 -0.49505100025838644 0.04825470710560925
v -1.6468030933555442 -0.49505100025838644 -0.05044729148581378
v -1.505775046747573 -0.49505100025838644 -0.05044729148581378
v -1.6468030933555442 -0.49505100025838644 0.04825470710560925
v -1.6826160673316795 -0.49505100025838644 -0.01936929186418407
v -1.6468030933555442 -0.49505100025838644 -0.05044729148581378
v -1.6468030933555442 -0.49505100025838644 0.04825470710560925
v -1.6826160673316795 -0.49505100025838644 0.017176707483979536
v -1.6826160673316795 -0.49505100025838644 -0.01936929186418407
v -1.505775046747573 -0.49505100025838644 -0.05044729148581378
v -1.4704050544914085 -0.49505100025838644 -0.01936929186418407
v -1.505775046747573 -0.49505100025838644 0.04825470710560925
v -1.4704050544914085 -0.49505100025838644 -0.01936929186418407
v -1.4704050544914085 -0.49505100025838644 0.017176707483979536
v -1.505775046747573 -0.49505100025838644 0.04825470710560925
v -1.6134900573905784 -0.041021010829568216 0.04825470710560925
v -1.4970260981735068 -0.041021010829568216 0.04825470710560925
v -1.6134900573905784 -0.041021010829568216 -0.05044829358890407
v -1.6134900573905784 -0.041021010829568216 -0.05044829358890407
v -1.6491100911315757 -0.041021010829568216 0.017176707483979536
v -1.6134900573905784 -0.041021010829568216 0.04825470710560925
v -1.6134900573905784 -0.041021010829568216 -0.05044829358890407
v -1.6491100911315757 -0.041021010829568216 -0.01936929186418407
v -1.6491100911315757 -0.041021010829568216 0.017176707483979536
v -1.4970260981735068 -0.041021010829568216 0.04825470710560925
v -1.4970260981735068 -0.041021010829568216 -0.05044829358890407
v -1.6134900573905784 -0.041021010829568216 -0.05044829358890407
v -1.4970260981735068 -0.041021010829568216 0.04825470710560925
v -1.4735170725997764 -0.06438400968021185 -0.01936929186418407
v -1.4970260981735068 -0.041021010829568216 -0.05044829358890407
v -1.4970260981735068 -0.041021010829568216 0.04825470710560925
v -1.4735170725997764 -0.06438400968021185 0.017176707483979536
v -1.4735170725997764 -0.06438400968021185 -0.01936929186418407
vt 0 0
vt 0 0
vt 0 0
vt 0 0
vt 0 0
vt 0 0
vt 0 0
vt 0 0
vt 0 0
vt 0 0
vt 0 0
vt 0 0
vt 0 0
vt 0 0
vt 0 0
vt 0 0
vt 0 0
vt 0 0
vt 0 0
vt 0 0
vt 0 0
vt 0 0
vt 0 0
vt 0 0
vt 0 0
vt 0 0
vt 0 0
vt 0 0
vt 0 0
vt 0 0
vt 0 0
vt 0 0
vt 0 0
vt 0 0
vt 0 0
vt 0 0
vt 0 0
vt 0 0
vt 0 0
vt 0 0
vt 0 0
vt 0 0
vt 0 0
vt 0 0
vt 0 0
vt 0 0
vt 0 0
vt 0 0
vt 0 0
vt 0 0
vt 0 0
vt 0 0
vt 0 0
vt 0 0
vt 0 0
vt 0 0
vt 0 0
vt 0 0
vt 0 0
vt 0 0
vt 0 0
vt 0 0
vt 0 0
vt 0 0
vt 0 0
vt 0 0
vt 0 0
vt 0 0
vt 0 0
vt 0 0
vt 0 0
vt 0 0
vt 0 0
vt 0 0
vt 0 0
vt 0 0
vt 0 0
vt 0 0
vt 0 0
vt 0 0
vt 0 0
vt 0 0
vt 0 0
vt 0 0
vt 0 0
vt 0 0
vt 0 0
vt 0 0
vt 0 0
vt 0 0
vt 0 0
vt 0 0
vt 0 0
vt 0 0
vt 0 0
vt 0 0
vt 0 0
vt 0 0
vt 0 0
vt 0 0
vt 0 0
vt 0 0
vt 0 0
vt 0 0
vt 0 0
vt 0 0
vt 0 0
vt 0 0
vt 0 0
vt 0 0
vt 0 0
vt 0 0
vt 0 0
vt 0 0
vt 0 0
vt 0 0
vt 0 0
vt 0 0
vt 0 0
vt 0 0
vt 0 0
vt 0 0
vt 0 0
vt 0 0
vt 0 0
vt 0 0
vt 0 0
vt 0 0
vt 0 0
vt 0 0
vt 0 0
vt 0 0
vt 0 0
vt 0 0
vt 0 0
vt 0 0
vt 0 0
vt 0 0
vt 0 0
vt 0 0
vt 0 0
vt 0 0
vt 0 0
vt 0 0
vt 0 0
vt 0 0
vt 0 0
vt 0 0
vt 0 0
vt 0 0
vt 0 0
vt 0 0
vt 0 0
vt 0 0
vt 0 0
vt 0 0
vt 0 0
vt 0 0
vt 0 0
vt 0 0
vt 0 0
vt 0 0
vt 0 0
vt 0 0
vt 0 0
vt 0 0
vt 0 0
vt 0 0
vt 0 0
vt 0 0
vt 0 0
vt 0 0
vt 0 0
vt 0 0
vt 0 0
vt 0 0
vt 0 0
vt 0 0
vt 0 0
vt 0 0
vt 0 0
vt 0 0
vt 0 0
vt 0 0
vt 0 0
vt 0 0
vt 0 0
vt 0 0
vt 0 0
vt 0 0
vt 0 0
vt 0 0
vt 0 0
vt 0 0
vt 0 0
vt 0 0
vt 0 0
vt 0 0
vt 0 0
vt 0 0
vt 0 0
vt 0 0
vt 0 0
vt 0 0
vt 0 0
vt 0 0
vt 0 0
vt 0 0
vt 0 0
vt 0 0
vt 0 0
vt 0 0
vt 0 0
vt 0 0
vt 0 0
vt 0 0
vt 0 0
vt 0 0
vt 0 0
vt 0 0
vt 0 0
vt 0 0
vt 0 0
vt 0 0
vt 0 0
vt 0 0
vt 0 0
vt 0 0
vn 0.31840710059236677 0.007900175905311037 0.9479211494175175
vn 0.8869786110607532 -0.13049685326689278 0.44298929423652716
vn 0.32090028739970594 -0.05170004712121534 0.9457008568646063
vn 0.32090028739970594 -0.05170004712121534 0.9457008568646063
vn -0.3409882216322518 0 0.9400675681609669
vn 0.31840710059236677 0.007900175905311037 0.9479211494175175
vn 0.31840710059236677 0.007900175905311037 0.9479211494175175
vn 0.9042878985106552 0.034899532405171754 0.4254943233993655
vn 0.8869786110607532 -0.13049685326689278 0.44298929423652716
vn 0.8869786110607532 -0.13049685326689278 0.44298929423652716
vn 0.9042878985106552 0.034899532405171754 0.4254943233993655
vn 0.9042878985106552 0.034899532405171754 -0.4254943233993655
vn 0.9042878985106552 0.034899532405171754 -0.4254943233993655
vn 0.8869179726777903 -0.13050264708980092 -0.44310898077524186
vn 0.8869786110607532 -0.13049685326689278 0.44298929423652716
vn 0.9042878985106552 0.034899532405171754 0.4254943233993655
vn 0.31840710059236677 0.007900175905311037 0.9479211494175175
vn 0.3602052150722934 0.04230061463989885 0.9319135480482134
vn 0.3602052150722934 0.04230061463989885 0.9319135480482134
vn 0.9040259245271579 0.09960286018982428 0.4157119171070559
vn 0.9042878985106552 0.034899532405171754 0.4254943233993655
vn 0.9042878985106552 0.034899532405171754 -0.4254943233993655
vn 0.9042878985106552 0.034899532405171754 0.4254943233993655
vn 0.9040259245271579 0.09960286018982428 0.4157119171070559
vn 0.34250574635737296 0 0.9395157336160895
vn 0.9047756341239999 0 0.42588854398247644
vn 0.9040259245271579 0.09960286018982428 0.4157119171070559
vn 0.9047756341239999 0 0.42588854398247644
vn 0.9040259245271579 0.09960286018982428 -0.4157119171070559
vn 0.9040259245271579 0.09960286018982428 0.4157119171070559
vn 0.9040259245271579 0.09960286018982428 0.4157119171070559
vn 0.9040259245271579 0.09960286018982428 -0.4157119171070559
vn 0.9042878985106552 0.034899532405171754 -0.4254943233993655
vn 0.9040259245271579 0.09960286018982428 0.4157119171070559
vn 0.3602052150722934 0.04230061463989885 0.9319135480482134
vn 0.34250574635737296 0 0.9395157336160895
vn 0.34250574635737296 0 0.9395157336160895
vn -0.29798563228887753 0.03429834483676459 0.9539539750380288
vn 0.34250574635737296 0 0.9395157336160895
vn 0.34250574635737296 0 0.9395157336160895
vn 0.9047756341239999 0 0.42588854398247644
vn 0.34250574635737296 0 0.9395157336160895
vn -0.29798563228887753 0.03429834483676459 0.9539539750380288
vn 0.34250574635737296 0 0.9395157336160895
vn 0.3602052150722934 0.04230061463989885 0.9319135480482134
vn -0.29798563228887753 0.03429834483676459 0.9539539750380288
vn -0.3936933005421793 0.14839746713951604 0.9071845329671253
vn 0.34250574635737296 0 0.9395157336160895
vn -0.3936933005421793 0.14839746713951604 0.9071845329671253
vn -0.29798563228887753 0.03429834483676459 0.9539539750380288
vn -0.886979721747426 0.1171973194797325 0.4466897821929939
vn -0.3593945025461567 -0.0000999984666996851 0.9331857165323029
vn -0.886979721747426 0.1171973194797325 0.4466897821929939
vn -0.29798563228887753 0.03429834483676459 0.9539539750380288
vn 0.3602052150722934 0.04230061463989885 0.9319135480482134
vn -0.3593945025461567 -0.0000999984666996851 0.9331857165323029
vn -0.29798563228887753 0.03429834483676459 0.9539539750380288
vn -0.3593945025461567 -0.0000999984666996851 0.9331857165323029
vn 0.3602052150722934 0.04230061463989885 0.9319135480482134
vn 0.31840710059236677 0.007900175905311037 0.9479211494175175
vn 0.31840710059236677 0.007900175905311037 0.9479211494175175
vn -0.33119531885102416 0.01819974331183646 0.9433866811199699
vn -0.3593945025461567 -0.0000999984666996851 0.9331857165323029
vn -0.3593945025461567 -0.0000999984666996851 0.9331857165323029
vn -0.33119531885102416 0.01819974331183646 0.9433866811199699
vn -0.900415479749544 0.051200879911815864 0.4320074463752382
vn -0.900415479749544 0.051200879911815864 0.4320074463752382
vn -0.9079886489641377 0 0.41899476530415053
vn -0.3593945025461567 -0.0000999984666996851 0.9331857165323029
vn -0.886979721747426 0.1171973194797325 0.4466897821929939
vn -0.3593945025461567 -0.0000999984666996851 0.9331857165323029
vn -0.9079886489641377 0 0.41899476530415053
vn -0.900415479749544 0.051200879911815864 0.4320074463752382
vn -0.9079886489641377 0 -0.41899476530415053
vn -0.9079886489641377 0 0.41899476530415053
vn -0.9079886489641377 0 0.41899476530415053
vn -0.9079886489641377 0 -0.41899476530415053
vn -0.886979721747426 0.1171973194797325 -0.4466897821929939
vn -0.9079886489641377 0 0.41899476530415053
vn -0.886979721747426 0.1171973194797325 -0.4466897821929939
vn -0.886979721747426 0.1171973194797325 0.4466897821929939
vn -0.3593945025461567 -0.0000999984666996851 -0.9331857165323029
vn -0.29798563228887753 0.03429834483676459 -0.9539539750380288
vn -0.886979721747426 0.1171973194797325 -0.4466897821929939
vn -0.886979721747426 0.1171973194797325 -0.4466897821929939
vn -0.9079886489641377 0 -0.41899476530415053
vn -0.3593945025461567 -0.0000999984666996851 -0.9331857165323029
vn -0.3936933005421793 0.14839746713951604 -0.9071845329671253
vn -0.886979721747426 0.1171973194797325 -0.4466897821929939
vn -0.29798563228887753 0.03429834483676459 -0.9539539750380288
vn -0.865525728848369 0.3265097145575944 0.37981129393557794
vn -0.886979721747426 0.1171973194797325 0.4466897821929939
vn -0.886979721747426 0.1171973194797325 -0.4466897821929939
vn -0.886979721747426 0.1171973194797325 -0.4466897821929939
vn -0.3936933005421793 0.14839746713951604 -0.9071845329671253
vn -0.865525728848369 0.3265097145575944 -0.37981129393557794
vn -0.886979721747426 0.1171973194797325 -0.4466897821929939
vn -0.865525728848369 0.3265097145575944 -0.37981129393557794
vn -0.865525728848369 0.3265097145575944 0.37981129393557794
vn -0.886979721747426 0.1171973194797325 0.4466897821929939
vn -0.865525728848369 0.3265097145575944 0.37981129393557794
vn -0.3936933005421793 0.14839746713951604 0.9071845329671253
vn 0.34250574635737296 0 -0.9395157336160895
vn -0.3936933005421793 0.14839746713951604 -0.9071845329671253
vn -0.29798563228887753 0.03429834483676459 -0.9539539750380288
vn -0.29798563228887753 0.03429834483676459 -0.9539539750380288
vn 0.34250574635737296 0 -0.9395157336160895
vn 0.34250574635737296 0 -0.9395157336160895
vn 0.34250574635737296 0 -0.9395157336160895
vn 0.34250574635737296 0 -0.9395157336160895
vn 0.9047756341239999 0 -0.42588854398247644
vn 0.9047756341239999 0 -0.42588854398247644
vn 0.9048141707749612 0 -0.4258066654772087
vn 0.34250574635737296 0 -0.9395157336160895
vn 0.9047756341239999 0 -0.42588854398247644
vn 0.9047756341239999 0 0.42588854398247644
vn 0.9048141707749612 0 -0.4258066654772087
vn 0.9048141707749612 0 0.4258066654772087
vn 0.9048141707749612 0 -0.4258066654772087
vn 0.9047756341239999 0 0.42588854398247644
vn 0.9047756341239999 0 0.42588854398247644
vn 0.34250574635737296 0 0.9395157336160895
vn 0.9048141707749612 0 0.4258066654772087
vn 0.9040259245271579 0.09960286018982428 -0.4157119171070559
vn 0.9047756341239999 0 -0.42588854398247644
vn 0.34250574635737296 0 -0.9395157336160895
vn 0.9047756341239999 0 0.42588854398247644
vn 0.9047756341239999 0 -0.42588854398247644
vn 0.9040259245271579 0.09960286018982428 -0.4157119171070559
vn 0.3602052150722934 0.04230061463989885 -0.9319135480482134
vn 0.34250574635737296 0 -0.9395157336160895
vn -0.29798563228887753 0.03429834483676459 -0.9539539750380288
vn 0.34250574635737296 0 -0.9395157336160895
vn 0.3602052150722934 0.04230061463989885 -0.9319135480482134
vn 0.9040259245271579 0.09960286018982428 -0.4157119171070559
vn 0.3602052150722934 0.04230061463989885 -0.9319135480482134
vn 0.31840710059236677 0.007900175905311037 -0.9479211494175175
vn 0.9042878985106552 0.034899532405171754 -0.4254943233993655
vn 0.31840710059236677 0.007900175905311037 -0.9479211494175175
vn 0.3602052150722934 0.04230061463989885 -0.9319135480482134
vn -0.3593945025461567 -0.0000999984666996851 -0.9331857165323029
vn -0.29798563228887753 0.03429834483676459 -0.9539539750380288
vn -0.3593945025461567 -0.0000999984666996851 -0.9331857165323029
vn 0.3602052150722934 0.04230061463989885 -0.9319135480482134
vn 0.9042878985106552 0.034899532405171754 -0.4254943233993655
vn 0.9040259245271579 0.09960286018982428 -0.4157119171070559
vn 0.3602052150722934 0.04230061463989885 -0.9319135480482134
vn -0.3409882216322518 0 -0.9400675681609669
vn 0.32090028739970594 -0.05170004712121534 -0.9457008568646063
vn 0.31840710059236677 0.007900175905311037 -0.9479211494175175
vn 0.31840710059236677 0.007900175905311037 -0.9479211494175175
vn -0.33119531885102416 0.01819974331183646 -0.9433866811199699
vn -0.3409882216322518 0 -0.9400675681609669
vn -0.3593945025461567 -0.0000999984666996851 -0.9331857165323029
vn -0.33119531885102416 0.01819974331183646 -0.9433866811199699
vn 0.31840710059236677 0.007900175905311037 -0.9479211494175175
vn 0.31840710059236677 0.007900175905311037 -0.9479211494175175
vn 0.32090028739970594 -0.05170004712121534 -0.9457008568646063
vn 0.8869179726777903 -0.13050264708980092 -0.44310898077524186
vn 0.8869179726777903 -0.13050264708980092 -0.44310898077524186
vn 0.9042878985106552 0.034899532405171754 -0.4254943233993655
vn 0.31840710059236677 0.007900175905311037 -0.9479211494175175
vn -0.3409882216322518 0 -0.9400675681609669
vn -0.33119531885102416 0.01819974331183646 -0.9433866811199699
vn -0.900415479749544 0.051200879911815864 -0.4320074463752382
vn -0.900415479749544 0.051200879911815864 -0.4320074463752382
vn -0.33119531885102416 0.01819974331183646 -0.9433866811199699
vn -0.3593945025461567 -0.0000999984666996851 -0.9331857165323029
vn -0.900415479749544 0.051200879911815864 -0.4320074463752382
vn -0.90401253669943 0 -0.42750594556130034
vn -0.3409882216322518 0 -0.9400675681609669
vn -0.900415479749544 0.051200879911815864 -0.4320074463752382
vn -0.900415479749544 0.051200879911815864 0.4320074463752382
vn -0.90401253669943 0 -0.42750594556130034
vn -0.900415479749544 0.051200879911815864 0.4320074463752382
vn -0.900415479749544 0.051200879911815864 -0.4320074463752382
vn -0.9079886489641377 0 -0.41899476530415053
vn -0.3593945025461567 -0.0000999984666996851 -0.9331857165323029
vn -0.9079886489641377 0 -0.41899476530415053
vn -0.900415479749544 0.051200879911815864 -0.4320074463752382
vn -0.90401253669943 0 0.42750594556130034
vn -0.90401253669943 0 -0.42750594556130034
vn -0.900415479749544 0.051200879911815864 0.4320074463752382
vn -0.900415479749544 0.051200879911815864 0.4320074463752382
vn -0.3409882216322518 0 0.9400675681609669
vn -0.90401253669943 0 0.42750594556130034
vn -0.3409882216322518 0 0.9400675681609669
vn -0.900415479749544 0.051200879911815864 0.4320074463752382
vn -0.33119531885102416 0.01819974331183646 0.9433866811199699
vn -0.3409882216322518 0 0.9400675681609669
vn -0.33119531885102416 0.01819974331183646 0.9433866811199699
vn 0.31840710059236677 0.007900175905311037 0.9479211494175175
vn 0 -1 0
vn 0 -1 0
vn 0 -1 0
vn 0 -1 0
vn 0 -1 0
vn 0 -1 0
vn 0 -1 0
vn 0 -1 0
vn 0 -1 0
vn 0 -1 0
vn 0 -1 0
vn 0 -1 0
vn 0 -1 0
vn 0 -1 0
vn 0 -1 0
vn 0 -1 0
vn 0 -1 0
vn 0 -1 0
vn 0 1 0
vn 0.2411942506224102 0.9704768588001951 0
vn 0 1 0
vn 0 1 0
vn 0 1 0
vn 0 1 0
vn 0 1 0
vn 0 1 0
vn 0 1 0
vn 0.2411942506224102 0.9704768588001951 0
vn 0.2411942506224102 0.9704768588001951 0
vn 0 1 0
vn 0.2411942506224102 0.9704768588001951 0
vn 0.7049033707443403 0.7093033468927572 0
vn 0.2411942506224102 0.9704768588001951 0
vn 0.2411942506224102 0.9704768588001951 0
vn 0.7049033707443403 0.7093033468927572 0
vn 0.7049033707443403 0.7093033468927572 0
f 367/367/367 368/368/368 369/369/369
f 370/370/370 371/371/371 372/372/372
f 373/373/373 374/374/374 375/375/375
f 376/376/376 377/377/377 378/378/378
f 379/379/379 380/380/380 381/381/381
f 382/382/382 383/383/383 384/384/384
f 385/385/385 386/386/386 387/387/387
f 388/388/388 389/389/389 390/390/390
f 391/391/391 392/392/392 393/393/393
f 394/394/394 395/395/395 396/396/396
f 397/397/397 398/398/398 399/399/399
f 400/400/400 401/401/401 402/402/402
f 403/403/403 404/404/404 405/405/405
f 406/406/406 407/407/407 408/408/408
f 409/409/409 410/410/410 411/411/411
f 412/412/412 413/413/413 414/414/414
f 415/415/415 416/416/416 417/417/417
f 418/418/418 419/419/419 420/420/420
f 421/421/421 422/422/422 423/423/423
f 424/424/424 425/425/425 426/426/426
f 427/427/427 428/428/428 429/429/429
f 430/430/430 431/431/431 432/432/432
f 433/433/433 434/434/434 435/435/435
f 436/436/436 437/437/437 438/438/438
f 439/439/439 440/440/440 441/441/441
f 442/442/442 443/443/443 444/444/444
f 445/445/445 446/446/446 447/447/447
f 448/448/448 449/449/449 450/450/450
f 451/451/451 452/452/452 453/453/453
f 454/454/454 455/455/455 456/456/456
f 457/457/457 458/458/458 459/459/459
f 460/460/460 461/461/461 462/462/462
f 463/463/463 464/464/464 465/465/465
f 466/466/466 467/467/467 468/468/468
f 469/469/469 470/470/470 471/471/471
f 472/472/472 473/473/473 474/474/474
f 475/475/475 476/476/476 477/477/477
f 478/478/478 479/479/479 480/480/480
f 481/481/481 482/482/482 483/483/483
f 484/484/484 485/485/485 486/486/486
f 487/487/487 488/488/488 489/489/489
f 490/490/490 491/491/491 492/492/492
f 493/493/493 494/494/494 495/495/495
f 496/496/496 497/497/497 498/498/498
f 499/499/499 500/500/500 501/501/501
f 502/502/502 503/503/503 504/504/504
f 505/505/505 506/506/506 507/507/507
f 508/508/508 509/509/509 510/510/510
f 511/511/511 512/512/512 513/513/513
f 514/514/514 515/515/515 516/516/516
f 517/517/517 518/518/518 519/519/519
f 520/520/520 521/521/521 522/522/522
f 523/523/523 524/524/524 525/525/525
f 526/526/526 527/527/527 528/528/528
f 529/529/529 530/530/530 531/531/531
f 532/532/532 533/533/533 534/534/534
f 535/535/535 536/536/536 537/537/537
f 538/538/538 539/539/539 540/540/540
f 541/541/541 542/542/542 543/543/543
f 544/544/544 545/545/545 546/546/546
f 547/547/547 548/548/548 549/549/549
f 550/550/550 551/551/551 552/552/552
f 553/553/553 554/554/554 555/555/555
f 556/556/556 557/557/557 558/558/558
f 559/559/559 560/560/560 561/561/561
f 562/562/562 563/563/563 564/564/564
f 565/565/565 566/566/566 567/567/567
f 568/568/568 569/569/569 570/570/570
f 571/571/571 572/572/572 573/573/573
f 574/574/574 575/575/575 576/576/576
f 577/577/577 578/578/578 579/579/579
f 580/580/580 581/581/581 582/582/582
f 583/583/583 584/584/584 585/585/585
f 586/586/586 587/587/587 588/588/588
f 589/589/589 590/590/590 591/591/591
f 592/592/592 593/593/593 594/594/594
