o RenderMesh_18687756685.001
usemtl Meshpart5Mtl.002
v 0.43127673679720946 0.7385050603249703 0.07644508903569519
v 0.09642171675097533 0.8213250585892831 -0.09671090977543056
v 0.093541739524718 0.8215260603526269 0.07157108312196075
v 0.43127673679720946 0.7385050603249703 0.07644508903569519
v 0.43415778690707274 0.7383040585616265 -0.09183590920918644
v 0.09642171675097533 0.8213250585892831 -0.09671090977543056
v -0.11432326024640016 0.2871110686162148 0.08526009445733368
v 0.2660157066000659 0.12613105262309654 -0.10946791122012794
v 0.26259177738558837 0.12637006724864586 0.09077909713334381
v -0.11432326024640016 0.2871110686162148 0.08526009445733368
v -0.11089825814831666 0.2868710705140267 -0.11498891065173805
v 0.2660157066000659 0.12613105262309654 -0.10946791122012794
v 0.29548173958193846 0.18324607099086387 -0.10911891112380684
v 0.29205578380953856 0.1834850558140908 0.0911290956074649
v 0.26259177738558837 0.12637006724864586 0.09077909713334381
v 0.26259177738558837 0.12637006724864586 0.09077909713334381
v 0.2660157066000659 0.12613105262309654 -0.10946791122012794
v 0.29548173958193846 0.18324607099086387 -0.10911891112380684
v 0.28189176136385985 0.2343750544884835 0.07493709152287781
v 0.29205578380953856 0.1834850558140908 0.0911290956074649
v 0.29548173958193846 0.18324607099086387 -0.10911891112380684
v 0.29548173958193846 0.18324607099086387 -0.10911891112380684
v 0.2847697120321948 0.2341720708707009 -0.09334491068773926
v 0.28189176136385985 0.2343750544884835 0.07493709152287781
v 0.3938327413214404 0.49175005639583214 0.07621209447926819
v 0.28189176136385985 0.2343750544884835 0.07493709152287781
v 0.2847697120321948 0.2341720708707009 -0.09334491068773926
v 0.2847697120321948 0.2341720708707009 -0.09334491068773926
v 0.3967137914313037 0.49154705787688835 -0.09206990959399403
v 0.3938327413214404 0.49175005639583214 0.07621209447926819
v 0.43127673679720946 0.7385050603249703 0.07644508903569519
v 0.3938327413214404 0.49175005639583214 0.07621209447926819
v 0.3967137914313037 0.49154705787688835 -0.09206990959399403
v 0.3967137914313037 0.49154705787688835 -0.09206990959399403
v 0.43415778690707274 0.7383040585616265 -0.09183590920918644
v 0.43127673679720946 0.7385050603249703 0.07644508903569519
v -0.11432326024640016 0.2871110686162148 0.08526009445733368
v -0.08485824054348878 0.3442260571816598 0.0856080961758548
v -0.11089825814831666 0.2868710705140267 -0.11498891065173805
v -0.08485824054348878 0.3442260571816598 0.0856080961758548
v -0.08143228477108888 0.34398805583507164 -0.11464090893321693
v -0.11089825814831666 0.2868710705140267 -0.11498891065173805
v -0.08143228477108888 0.34398805583507164 -0.11464090893321693
v -0.08485824054348878 0.3442260571816598 0.0856080961758548
v -0.03485727494824342 0.3694540509083901 0.07029609506673157
v -0.03485727494824342 0.3694540509083901 0.07029609506673157
v -0.03197723811734132 0.3692550608018075 -0.09798491062873066
v -0.08143228477108888 0.34398805583507164 -0.11464090893321693
v -0.03485727494824342 0.3694540509083901 0.07029609506673157
v 0.05897873455416747 0.5745670576640998 -0.09694591040068329
v -0.03197723811734132 0.3692550608018075 -0.09798491062873066
v 0.05609875732791014 0.5747690578052436 0.07133808856553375
v 0.05897873455416747 0.5745670576640998 -0.09694591040068329
v -0.03485727494824342 0.3694540509083901 0.07029609506673157
v 0.05609875732791014 0.5747690578052436 0.07133808856553375
v 0.09642171675097533 0.8213250585892831 -0.09671090977543056
v 0.05897873455416747 0.5745670576640998 -0.09694591040068329
v 0.093541739524718 0.8215260603526269 0.07157108312196075
v 0.09642171675097533 0.8213250585892831 -0.09671090977543056
v 0.05609875732791014 0.5747690578052436 0.07133808856553375
v 0.26259177738558837 0.12637006724864586 0.09077909713334381
v 0.29205578380953856 0.1834850558140908 0.0911290956074649
v -0.11432326024640016 0.2871110686162148 0.08526009445733368
v 0.29205578380953856 0.1834850558140908 0.0911290956074649
v -0.08485824054348878 0.3442260571816598 0.0856080961758548
v -0.11432326024640016 0.2871110686162148 0.08526009445733368
v 0.29205578380953856 0.1834850558140908 0.0911290956074649
v -0.03485727494824342 0.3694540509083901 0.07029609506673157
v -0.08485824054348878 0.3442260571816598 0.0856080961758548
v -0.03485727494824342 0.3694540509083901 0.07029609506673157
v 0.29205578380953856 0.1834850558140908 0.0911290956074649
v 0.28189176136385985 0.2343750544884835 0.07493709152287781
v 0.28189176136385985 0.2343750544884835 0.07493709152287781
v 0.05609875732791014 0.5747690578052436 0.07133808856553375
v -0.03485727494824342 0.3694540509083901 0.07029609506673157
v 0.05609875732791014 0.5747690578052436 0.07133808856553375
v 0.28189176136385985 0.2343750544884835 0.07493709152287781
v 0.3938327413214404 0.49175005639583214 0.07621209447926819
v 0.05609875732791014 0.5747690578052436 0.07133808856553375
v 0.3938327413214404 0.49175005639583214 0.07621209447926819
v 0.43127673679720946 0.7385050603249703 0.07644508903569519
v 0.43127673679720946 0.7385050603249703 0.07644508903569519
v 0.093541739524718 0.8215260603526269 0.07157108312196075
v 0.05609875732791014 0.5747690578052436 0.07133808856553375
v -0.11089825814831666 0.2868710705140267 -0.11498891065173805
v -0.08143228477108888 0.34398805583507164 -0.11464090893321693
v 0.29548173958193846 0.18324607099086387 -0.10911891112380684
v 0.29548173958193846 0.18324607099086387 -0.10911891112380684
v 0.2660157066000659 0.12613105262309654 -0.10946791122012794
v -0.11089825814831666 0.2868710705140267 -0.11498891065173805
v 0.29548173958193846 0.18324607099086387 -0.10911891112380684
v -0.08143228477108888 0.34398805583507164 -0.11464090893321693
v -0.03197723811734132 0.3692550608018075 -0.09798491062873066
v -0.03197723811734132 0.3692550608018075 -0.09798491062873066
v 0.2847697120321948 0.2341720708707009 -0.09334491068773926
v 0.29548173958193846 0.18324607099086387 -0.10911891112380684
v 0.2847697120321948 0.2341720708707009 -0.09334491068773926
v -0.03197723811734132 0.3692550608018075 -0.09798491062873066
v 0.05897873455416747 0.5745670576640998 -0.09694591040068329
v 0.05897873455416747 0.5745670576640998 -0.09694591040068329
v 0.3967137914313037 0.49154705787688835 -0.09206990959399403
v 0.2847697120321948 0.2341720708707009 -0.09334491068773926
v 0.05897873455416747 0.5745670576640998 -0.09694591040068329
v 0.43415778690707274 0.7383040585616265 -0.09183590920918644
v 0.3967137914313037 0.49154705787688835 -0.09206990959399403
v 0.05897873455416747 0.5745670576640998 -0.09694591040068329
v 0.09642171675097533 0.8213250585892831 -0.09671090977543056
v 0.43415778690707274 0.7383040585616265 -0.09183590920918644
vt 0 0
vt 0 0
vt 0 0
vt 0 0
vt 0 0
vt 0 0
vt 0 0
vt 0 0
vt 0 0
vt 0 0
vt 0 0
vt 0 0
vt 0 0
vt 0 0
vt 0 0
vt 0 0
vt 0 0
vt 0 0
vt 0 0
vt 0 0
vt 0 0
vt 0 0
vt 0 0
vt 0 0
vt 0 0
vt 0 0
vt 0 0
vt 0 0
vt 0 0
vt 0 0
vt 0 0
vt 0 0
vt 0 0
vt 0 0
vt 0 0
vt 0 0
vt 0 0
vt 0 0
vt 0 0
vt 0 0
vt 0 0
vt 0 0
vt 0 0
vt 0 0
vt 0 0
vt 0 0
vt 0 0
vt 0 0
vt 0 0
vt 0 0
vt 0 0
vt 0 0
vt 0 0
vt 0 0
vt 0 0
vt 0 0
vt 0 0
vt 0 0
vt 0 0
vt 0 0
vt 0 0
vt 0 0
vt 0 0
vt 0 0
vt 0 0
vt 0 0
vt 0 0
vt 0 0
vt 0 0
vt 0 0
vt 0 0
vt 0 0
vt 0 0
vt 0 0
vt 0 0
vt 0 0
vt 0 0
vt 0 0
vt 0 0
vt 0 0
vt 0 0
vt 0 0
vt 0 0
vt 0 0
vt 0 0
vt 0 0
vt 0 0
vt 0 0
vt 0 0
vt 0 0
vt 0 0
vt 0 0
vt 0 0
vt 0 0
vt 0 0
vt 0 0
vt 0 0
vt 0 0
vt 0 0
vt 0 0
vt 0 0
vt 0 0
vt 0 0
vt 0 0
vt 0 0
vt 0 0
vt 0 0
vt 0 0
vn 0.23869746530766534 0.9710896509770286 0.002899969139240181
vn 0.23869746530766534 0.9710896509770286 0.002899969139240181
vn 0.23869746530766534 0.9710896509770286 0.002899969139240181
vn 0.23869746530766534 0.9710896509770286 0.002899969139240181
vn 0.23869746530766534 0.9710896509770286 0.002899969139240181
vn 0.23869746530766534 0.9710896509770286 0.002899969139240181
vn -0.3921866188591526 -0.9198686309081412 -0.005599808836695583
vn -0.3921866188591526 -0.9198686309081412 -0.005599808836695583
vn -0.3921866188591526 -0.9198686309081412 -0.005599808836695583
vn -0.3921866188591526 -0.9198686309081412 -0.005599808836695583
vn -0.3921866188591526 -0.9198686309081412 -0.005599808836695583
vn -0.3921866188591526 -0.9198686309081412 -0.005599808836695583
vn 0.9898327181302716 -0.14120467678996282 0.01710056640817123
vn 0.9898327181302716 -0.14120467678996282 0.01710056640817123
vn 0.8885650348101853 -0.4584819607406049 0.015699381778417783
vn 0.8885650348101853 -0.4584819607406049 0.015699381778417783
vn 0.8885650348101853 -0.4584819607406049 0.015699381778417783
vn 0.9898327181302716 -0.14120467678996282 0.01710056640817123
vn 0.9975979996740266 -0.06709986754042209 0.0171999657685372
vn 0.9898327181302716 -0.14120467678996282 0.01710056640817123
vn 0.9898327181302716 -0.14120467678996282 0.01710056640817123
vn 0.9898327181302716 -0.14120467678996282 0.01710056640817123
vn 0.9975997105492312 -0.06709998261633408 0.017099995467176273
vn 0.9975979996740266 -0.06709986754042209 0.0171999657685372
vn 0.962858816636173 -0.269488465590365 0.016699285605649164
vn 0.9975979996740266 -0.06709986754042209 0.0171999657685372
vn 0.9975997105492312 -0.06709998261633408 0.017099995467176273
vn 0.9975997105492312 -0.06709998261633408 0.017099995467176273
vn 0.9628239562332 -0.26960670483745697 0.016800416963189336
vn 0.962858816636173 -0.269488465590365 0.016699285605649164
vn 0.9885372379808239 -0.15000565678535277 0.01710064494803883
vn 0.962858816636173 -0.269488465590365 0.016699285605649164
vn 0.9628239562332 -0.26960670483745697 0.016800416963189336
vn 0.9628239562332 -0.26960670483745697 0.016800416963189336
vn 0.9885372379808239 -0.15000565678535277 0.01710064494803883
vn 0.9885372379808239 -0.15000565678535277 0.01710064494803883
vn -0.8885650348101853 0.4584819607406049 -0.015699381778417783
vn -0.7478871668476751 0.6636885880546206 -0.013499768539567643
vn -0.8885650348101853 0.4584819607406049 -0.015699381778417783
vn -0.7478871668476751 0.6636885880546206 -0.013499768539567643
vn -0.7477934417686113 0.6637941861988833 -0.013499882089004494
vn -0.8885650348101853 0.4584819607406049 -0.015699381778417783
vn -0.7477934417686113 0.6637941861988833 -0.013499882089004494
vn -0.7478871668476751 0.6636885880546206 -0.013499768539567643
vn -0.7548059156045608 0.6558051058331726 -0.013700106988699298
vn -0.7548059156045608 0.6558051058331726 -0.013700106988699298
vn -0.7548048777341276 0.655804204090466 -0.01380008862431519
vn -0.7477934417686113 0.6637941861988833 -0.013499882089004494
vn -0.7548059156045608 0.6558051058331726 -0.013700106988699298
vn -0.962068281999897 0.2722910197124952 -0.016799445041315083
vn -0.7548048777341276 0.655804204090466 -0.01380008862431519
vn -0.9620362484906833 0.27241025236535804 -0.016700628617341742
vn -0.962068281999897 0.2722910197124952 -0.016799445041315083
vn -0.7548059156045608 0.6558051058331726 -0.013700106988699298
vn -0.9620362484906833 0.27241025236535804 -0.016700628617341742
vn -0.9885372379808239 0.15000565678535277 -0.01710064494803883
vn -0.962068281999897 0.2722910197124952 -0.016799445041315083
vn -0.9885372379808239 0.15000565678535277 -0.01710064494803883
vn -0.9885372379808239 0.15000565678535277 -0.01710064494803883
vn -0.9620362484906833 0.27241025236535804 -0.016700628617341742
vn -0.014099998663158633 0.001199999920903167 0.9998998700059366
vn 0.05400133269069462 0.16070395519208 0.9855242741065544
vn -0.014099998663158633 0.001199999920903167 0.9998998700059366
vn 0.05400133269069462 0.16070395519208 0.9855242741065544
vn 0.015599510294210755 0.07079777834876576 0.9973687030679577
vn -0.014099998663158633 0.001199999920903167 0.9998998700059366
vn 0.05400133269069462 0.16070395519208 0.9855242741065544
vn 0.08330023669875024 0.22880064362869457 0.9699027456611449
vn 0.015599510294210755 0.07079777834876576 0.9973687030679577
vn 0.08330023669875024 0.22880064362869457 0.9699027456611449
vn 0.05400133269069462 0.16070395519208 0.9855242741065544
vn 0.05979890190464184 0.17369681810641824 0.9829819462791292
vn 0.05979890190464184 0.17369681810641824 0.9829819462791292
vn -0.014099998663158633 0.001199999920903167 0.9998998700059366
vn 0.08330023669875024 0.22880064362869457 0.9699027456611449
vn -0.014099998663158633 0.001199999920903167 0.9998998700059366
vn 0.05979890190464184 0.17369681810641824 0.9829819462791292
vn -0.014099998663158633 0.001199999920903167 0.9998998700059366
vn -0.014099998663158633 0.001199999920903167 0.9998998700059366
vn -0.014099998663158633 0.001199999920903167 0.9998998700059366
vn -0.014099998663158633 0.001199999920903167 0.9998998700059366
vn -0.014099998663158633 0.001199999920903167 0.9998998700059366
vn -0.014099998663158633 0.001199999920903167 0.9998998700059366
vn -0.014099998663158633 0.001199999920903167 0.9998998700059366
vn 0.014099998663158633 -0.001199999920903167 -0.9998998700059366
vn 0.04370001767958719 0.06840003317935064 -0.9967004283714679
vn 0.08199580811751447 0.158491893854491 -0.9839496974101737
vn 0.08199580811751447 0.158491893854491 -0.9839496974101737
vn 0.014099998663158633 -0.001199999920903167 -0.9998998700059366
vn 0.014099998663158633 -0.001199999920903167 -0.9998998700059366
vn 0.08199580811751447 0.158491893854491 -0.9839496974101737
vn 0.04370001767958719 0.06840003317935064 -0.9967004283714679
vn 0.11079625866528815 0.2265923587184506 -0.9676673457527557
vn 0.11079625866528815 0.2265923587184506 -0.9676673457527557
vn 0.08749920307017543 0.17149843831556436 -0.9812910756332226
vn 0.08199580811751447 0.158491893854491 -0.9839496974101737
vn 0.08749920307017543 0.17149843831556436 -0.9812910756332226
vn 0.11079625866528815 0.2265923587184506 -0.9676673457527557
vn 0.014099998663158633 -0.001199999920903167 -0.9998998700059366
vn 0.014099998663158633 -0.001199999920903167 -0.9998998700059366
vn 0.014099998663158633 -0.001199999920903167 -0.9998998700059366
vn 0.08749920307017543 0.17149843831556436 -0.9812910756332226
vn 0.014099998663158633 -0.001199999920903167 -0.9998998700059366
vn 0.014099998663158633 -0.001199999920903167 -0.9998998700059366
vn 0.014099998663158633 -0.001199999920903167 -0.9998998700059366
vn 0.014099998663158633 -0.001199999920903167 -0.9998998700059366
vn 0.014099998663158633 -0.001199999920903167 -0.9998998700059366
vn 0.014099998663158633 -0.001199999920903167 -0.9998998700059366
f 1/1/1 2/2/2 3/3/3
f 4/4/4 5/5/5 6/6/6
f 7/7/7 8/8/8 9/9/9
f 10/10/10 11/11/11 12/12/12
f 13/13/13 14/14/14 15/15/15
f 16/16/16 17/17/17 18/18/18
f 19/19/19 20/20/20 21/21/21
f 22/22/22 23/23/23 24/24/24
f 25/25/25 26/26/26 27/27/27
f 28/28/28 29/29/29 30/30/30
f 31/31/31 32/32/32 33/33/33
f 34/34/34 35/35/35 36/36/36
f 37/37/37 38/38/38 39/39/39
f 40/40/40 41/41/41 42/42/42
f 43/43/43 44/44/44 45/45/45
f 46/46/46 47/47/47 48/48/48
f 49/49/49 50/50/50 51/51/51
f 52/52/52 53/53/53 54/54/54
f 55/55/55 56/56/56 57/57/57
f 58/58/58 59/59/59 60/60/60
f 61/61/61 62/62/62 63/63/63
f 64/64/64 65/65/65 66/66/66
f 67/67/67 68/68/68 69/69/69
f 70/70/70 71/71/71 72/72/72
f 73/73/73 74/74/74 75/75/75
f 76/76/76 77/77/77 78/78/78
f 79/79/79 80/80/80 81/81/81
f 82/82/82 83/83/83 84/84/84
f 85/85/85 86/86/86 87/87/87
f 88/88/88 89/89/89 90/90/90
f 91/91/91 92/92/92 93/93/93
f 94/94/94 95/95/95 96/96/96
f 97/97/97 98/98/98 99/99/99
f 100/100/100 101/101/101 102/102/102
f 103/103/103 104/104/104 105/105/105
f 106/106/106 107/107/107 108/108/108
o RenderMesh_18687756845
usemtl Meshpart5Mtl.002
v 0.22298476984741633 0.6914711089761308 0.07970339046149788
v 0.25362078240158503 0.6834871115119509 0.08051139102607308
v 0.2297258167529339 0.6918701024682573 -0.10242760567635956
v 0.25362078240158503 0.6834871115119509 0.08051139102607308
v 0.260362782981419 0.6838861050040773 -0.10161960697442951
v 0.2297258167529339 0.6918701024682573 -0.10242760567635956
v 0.1336858063006634 0.7147381098897508 0.07735338793426094
v 0.1643237858081097 0.7067540975244097 0.07815939174323616
v 0.14042882015945857 0.7151371033818773 -0.10477560586006107
v 0.1643237858081097 0.7067540975244097 0.07815939174323616
v 0.17106578638794367 0.7071551026732973 -0.10397060601682129
v 0.14042882015945857 0.7151371033818773 -0.10477560586006107
v 0.31228081276657527 0.6682051064403108 0.0820543913665348
v 0.34291974594833796 0.6602211089761308 0.08285939679771004
v 0.31902281334640925 0.6686040999324373 -0.10007560639352264
v 0.34291974594833796 0.6602211089761308 0.08285939679771004
v 0.34966174652817195 0.6606211008460573 -0.09927060655028286
v 0.31902281334640925 0.6686040999324373 -0.10007560639352264
v 0.12923977663757746 0.21619110721660173 0.07126939283042488
v 0.10050080111267512 0.22918310183597124 0.07057839618354378
v 0.13598279049637263 0.21659111398768938 -0.11086060492963257
v 0.10050080111267512 0.22918310183597124 0.07057839618354378
v 0.1072428016925091 0.2295820953280977 -0.11155060692400398
v 0.13598279049637263 0.21659111398768938 -0.11086060492963257
v 0.045473793056034495 0.25405510682178056 0.06925739334254799
v 0.01673481753113215 0.26704809981895006 0.0685653983178669
v 0.05221782019379084 0.25445410031390703 -0.11287260814279976
v 0.01673481753113215 0.26704809981895006 0.0685653983178669
v 0.023476818110966136 0.2674471082122377 -0.11356260641188087
v 0.05221782019379084 0.25445410031390703 -0.11287260814279976
v 0.2130058198237652 0.17832511085582292 0.07328139231830177
v 0.18426380446197932 0.19131710547519243 0.07259239242702065
v 0.219746807124638 0.17872610110354936 -0.10884660682351055
v 0.18426380446197932 0.19131710547519243 0.07259239242702065
v 0.1910058050418133 0.19171711224628007 -0.1095376053330368
v 0.219746807124638 0.17872610110354936 -0.10884660682351055
v 0.34291974594833796 0.6602211089761308 0.08285939679771004
v 0.3117587952876324 0.42010010201049364 0.07907539592414436
v 0.34966174652817195 0.6606211008460573 -0.09927060655028286
v 0.3117587952876324 0.42010010201049364 0.07907539592414436
v 0.31850282242538874 0.42050110715938127 -0.1030536071834034
v 0.34966174652817195 0.6606211008460573 -0.09927060655028286
v 0.3117587952876324 0.42010010201049364 0.07907539592414436
v 0.2130058198237652 0.17832511085582292 0.07328139231830177
v 0.31850282242538874 0.42050110715938127 -0.1030536071834034
v 0.2130058198237652 0.17832511085582292 0.07328139231830177
v 0.219746807124638 0.17872610110354936 -0.10884660682351055
v 0.31850282242538874 0.42050110715938127 -0.1030536071834034
v 0.1336858063006634 0.7147381098897508 0.07735338793426094
v 0.10926876356842463 0.47501810434771097 -0.10856060697407188
v 0.10252676298859065 0.4746181050272039 0.07356938706069527
v 0.1336858063006634 0.7147381098897508 0.07735338793426094
v 0.14042882015945857 0.7151371033818773 -0.10477560586006107
v 0.10926876356842463 0.47501810434771097 -0.10856060697407188
v 0.10252676298859065 0.4746181050272039 0.07356938706069527
v 0.10926876356842463 0.47501810434771097 -0.10856060697407188
v 0.023476818110966136 0.2674471082122377 -0.11356260641188087
v 0.10252676298859065 0.4746181050272039 0.07356938706069527
v 0.023476818110966136 0.2674471082122377 -0.11356260641188087
v 0.01673481753113215 0.26704809981895006 0.0685653983178669
v 0.10050080111267512 0.22918310183597124 0.07057839618354378
v 0.12923977663757746 0.21619110721660173 0.07126939283042488
v 0.19182280590774958 0.4513521062166742 0.0759193895879322
v 0.22246376564743464 0.44336710292411363 0.07672639177470741
v 0.19182280590774958 0.4513521062166742 0.0759193895879322
v 0.12923977663757746 0.21619110721660173 0.07126939283042488
v 0.19182280590774958 0.4513521062166742 0.0759193895879322
v 0.22246376564743464 0.44336710292411363 0.07672639177470741
v 0.25362078240158503 0.6834871115119509 0.08051139102607308
v 0.25362078240158503 0.6834871115119509 0.08051139102607308
v 0.22298476984741633 0.6914711089761308 0.07970339046149788
v 0.19182280590774958 0.4513521062166742 0.0759193895879322
v 0.18426380446197932 0.19131710547519243 0.07259239242702065
v 0.2130058198237652 0.17832511085582292 0.07328139231830177
v 0.2811247496867413 0.4280841069252542 0.07827039049296913
v 0.3117587952876324 0.42010010201049364 0.07907539592414436
v 0.2811247496867413 0.4280841069252542 0.07827039049296913
v 0.2130058198237652 0.17832511085582292 0.07328139231830177
v 0.2811247496867413 0.4280841069252542 0.07827039049296913
v 0.3117587952876324 0.42010010201049364 0.07907539592414436
v 0.34291974594833796 0.6602211089761308 0.08285939679771004
v 0.34291974594833796 0.6602211089761308 0.08285939679771004
v 0.31228081276657527 0.6682051064403108 0.0820543913665348
v 0.2811247496867413 0.4280841069252542 0.07827039049296913
v 0.219746807124638 0.17872610110354936 -0.10884660682351055
v 0.1910058050418133 0.19171711224628007 -0.1095376053330368
v 0.28786484291794245 0.4284831078679613 -0.10385960726708832
v 0.28786484291794245 0.4284831078679613 -0.10385960726708832
v 0.31850282242538874 0.42050110715938127 -0.1030536071834034
v 0.219746807124638 0.17872610110354936 -0.10884660682351055
v 0.34966174652817195 0.6606211008460573 -0.09927060655028286
v 0.31850282242538874 0.42050110715938127 -0.1030536071834034
v 0.28786484291794245 0.4284831078679613 -0.10385960726708832
v 0.28786484291794245 0.4284831078679613 -0.10385960726708832
v 0.31902281334640925 0.6686040999324373 -0.10007560639352264
v 0.34966174652817195 0.6606211008460573 -0.09927060655028286
v 0.13598279049637263 0.21659111398768938 -0.11086060492963257
v 0.1072428016925091 0.2295820953280977 -0.11155060692400398
v 0.19856677344086116 0.4517501013310007 -0.10620960606903496
v 0.19856677344086116 0.4517501013310007 -0.10620960606903496
v 0.22920576622726863 0.44376810807300127 -0.1054026057449049
v 0.13598279049637263 0.21659111398768938 -0.11086060492963257
v 0.260362782981419 0.6838861050040773 -0.10161960697442951
v 0.22920576622726863 0.44376810807300127 -0.1054026057449049
v 0.19856677344086116 0.4517501013310007 -0.10620960606903496
v 0.19856677344086116 0.4517501013310007 -0.10620960606903496
v 0.2297258167529339 0.6918701024682573 -0.10242760567635956
v 0.260362782981419 0.6838861050040773 -0.10161960697442951
v 0.01673481753113215 0.26704809981895006 0.0685653983178669
v 0.045473793056034495 0.25405510682178056 0.06925739334254799
v 0.10252676298859065 0.4746181050272039 0.07356938706069527
v 0.1331658153796429 0.4666351059408239 0.07437638924747048
v 0.10252676298859065 0.4746181050272039 0.07356938706069527
v 0.045473793056034495 0.25405510682178056 0.06925739334254799
v 0.10252676298859065 0.4746181050272039 0.07356938706069527
v 0.1331658153796429 0.4666351059408239 0.07437638924747048
v 0.1643237858081097 0.7067540975244097 0.07815939174323616
v 0.1643237858081097 0.7067540975244097 0.07815939174323616
v 0.1336858063006634 0.7147381098897508 0.07735338793426094
v 0.10252676298859065 0.4746181050272039 0.07356938706069527
v 0.05221782019379084 0.25445410031390703 -0.11287260814279976
v 0.023476818110966136 0.2674471082122377 -0.11356260641188087
v 0.10926876356842463 0.47501810434771097 -0.10856060697407188
v 0.10926876356842463 0.47501810434771097 -0.10856060697407188
v 0.13990781595947688 0.46703610363913095 -0.10775360664994182
v 0.05221782019379084 0.25445410031390703 -0.11287260814279976
v 0.17106578638794367 0.7071551026732973 -0.10397060601682129
v 0.13990781595947688 0.46703610363913095 -0.10775360664994182
v 0.10926876356842463 0.47501810434771097 -0.10856060697407188
v 0.10926876356842463 0.47501810434771097 -0.10856060697407188
v 0.14042882015945857 0.7151371033818773 -0.10477560586006107
v 0.17106578638794367 0.7071551026732973 -0.10397060601682129
v 0.25362078240158503 0.6834871115119509 0.08051139102607308
v 0.22246376564743464 0.44336710292411363 0.07672639177470741
v 0.22920576622726863 0.44376810807300127 -0.1054026057449049
v 0.22920576622726863 0.44376810807300127 -0.1054026057449049
v 0.260362782981419 0.6838861050040773 -0.10161960697442951
v 0.25362078240158503 0.6834871115119509 0.08051139102607308
v 0.13598279049637263 0.21659111398768938 -0.11086060492963257
v 0.22920576622726863 0.44376810807300127 -0.1054026057449049
v 0.22246376564743464 0.44336710292411363 0.07672639177470741
v 0.22246376564743464 0.44336710292411363 0.07672639177470741
v 0.12923977663757746 0.21619110721660173 0.07126939283042488
v 0.13598279049637263 0.21659111398768938 -0.11086060492963257
v 0.22298476984741633 0.6914711089761308 0.07970339046149788
v 0.19856677344086116 0.4517501013310007 -0.10620960606903496
v 0.19182280590774958 0.4513521062166742 0.0759193895879322
v 0.22298476984741633 0.6914711089761308 0.07970339046149788
v 0.2297258167529339 0.6918701024682573 -0.10242760567635956
v 0.19856677344086116 0.4517501013310007 -0.10620960606903496
v 0.19182280590774958 0.4513521062166742 0.0759193895879322
v 0.19856677344086116 0.4517501013310007 -0.10620960606903496
v 0.1072428016925091 0.2295820953280977 -0.11155060692400398
v 0.19182280590774958 0.4513521062166742 0.0759193895879322
v 0.1072428016925091 0.2295820953280977 -0.11155060692400398
v 0.10050080111267512 0.22918310183597124 0.07057839618354378
v 0.17106578638794367 0.7071551026732973 -0.10397060601682129
v 0.1643237858081097 0.7067540975244097 0.07815939174323616
v 0.1331658153796429 0.4666351059408239 0.07437638924747048
v 0.1331658153796429 0.4666351059408239 0.07437638924747048
v 0.13990781595947688 0.46703610363913095 -0.10775360664994182
v 0.17106578638794367 0.7071551026732973 -0.10397060601682129
v 0.1331658153796429 0.4666351059408239 0.07437638924747048
v 0.045473793056034495 0.25405510682178056 0.06925739334254799
v 0.13990781595947688 0.46703610363913095 -0.10775360664994182
v 0.045473793056034495 0.25405510682178056 0.06925739334254799
v 0.05221782019379084 0.25445410031390703 -0.11287260814279976
v 0.13990781595947688 0.46703610363913095 -0.10775360664994182
v 0.31228081276657527 0.6682051064403108 0.0820543913665348
v 0.28786484291794245 0.4284831078679613 -0.10385960726708832
v 0.2811247496867413 0.4280841069252542 0.07827039049296913
v 0.31228081276657527 0.6682051064403108 0.0820543913665348
v 0.31902281334640925 0.6686040999324373 -0.10007560639352264
v 0.28786484291794245 0.4284831078679613 -0.10385960726708832
v 0.2811247496867413 0.4280841069252542 0.07827039049296913
v 0.28786484291794245 0.4284831078679613 -0.10385960726708832
v 0.1910058050418133 0.19171711224628007 -0.1095376053330368
v 0.2811247496867413 0.4280841069252542 0.07827039049296913
v 0.1910058050418133 0.19171711224628007 -0.1095376053330368
v 0.18426380446197932 0.19131710547519243 0.07259239242702065
vt 0 0
vt 0 0
vt 0 0
vt 0 0
vt 0 0
vt 0 0
vt 0 0
vt 0 0
vt 0 0
vt 0 0
vt 0 0
vt 0 0
vt 0 0
vt 0 0
vt 0 0
vt 0 0
vt 0 0
vt 0 0
vt 0 0
vt 0 0
vt 0 0
vt 0 0
vt 0 0
vt 0 0
vt 0 0
vt 0 0
vt 0 0
vt 0 0
vt 0 0
vt 0 0
vt 0 0
vt 0 0
vt 0 0
vt 0 0
vt 0 0
vt 0 0
vt 0 0
vt 0 0
vt 0 0
vt 0 0
vt 0 0
vt 0 0
vt 0 0
vt 0 0
vt 0 0
vt 0 0
vt 0 0
vt 0 0
vt 0 0
vt 0 0
vt 0 0
vt 0 0
vt 0 0
vt 0 0
vt 0 0
vt 0 0
vt 0 0
vt 0 0
vt 0 0
vt 0 0
vt 0 0
vt 0 0
vt 0 0
vt 0 0
vt 0 0
vt 0 0
vt 0 0
vt 0 0
vt 0 0
vt 0 0
vt 0 0
vt 0 0
vt 0 0
vt 0 0
vt 0 0
vt 0 0
vt 0 0
vt 0 0
vt 0 0
vt 0 0
vt 0 0
vt 0 0
vt 0 0
vt 0 0
vt 0 0
vt 0 0
vt 0 0
vt 0 0
vt 0 0
vt 0 0
vt 0 0
vt 0 0
vt 0 0
vt 0 0
vt 0 0
vt 0 0
vt 0 0
vt 0 0
vt 0 0
vt 0 0
vt 0 0
vt 0 0
vt 0 0
vt 0 0
vt 0 0
vt 0 0
vt 0 0
vt 0 0
vt 0 0
vt 0 0
vt 0 0
vt 0 0
vt 0 0
vt 0 0
vt 0 0
vt 0 0
vt 0 0
vt 0 0
vt 0 0
vt 0 0
vt 0 0
vt 0 0
vt 0 0
vt 0 0
vt 0 0
vt 0 0
vt 0 0
vt 0 0
vt 0 0
vt 0 0
vt 0 0
vt 0 0
vt 0 0
vt 0 0
vt 0 0
vt 0 0
vt 0 0
vt 0 0
vt 0 0
vt 0 0
vt 0 0
vt 0 0
vt 0 0
vt 0 0
vt 0 0
vt 0 0
vt 0 0
vt 0 0
vt 0 0
vt 0 0
vt 0 0
vt 0 0
vt 0 0
vt 0 0
vt 0 0
vt 0 0
vt 0 0
vt 0 0
vt 0 0
vt 0 0
vt 0 0
vt 0 0
vt 0 0
vt 0 0
vt 0 0
vt 0 0
vt 0 0
vt 0 0
vt 0 0
vt 0 0
vt 0 0
vt 0 0
vt 0 0
vt 0 0
vt 0 0
vt 0 0
vt 0 0
vt 0 0
vt 0 0
vt 0 0
vn 0.2518966041898602 0.9676870073966051 0.011399847078795653
vn 0.2518966041898602 0.9676870073966051 0.011399847078795653
vn 0.2518966041898602 0.9676870073966051 0.011399847078795653
vn 0.2518966041898602 0.9676870073966051 0.011399847078795653
vn 0.2518966041898602 0.9676870073966051 0.011399847078795653
vn 0.2518966041898602 0.9676870073966051 0.011399847078795653
vn 0.2518966041898602 0.9676870073966051 0.011399847078795653
vn 0.2518966041898602 0.9676870073966051 0.011399847078795653
vn 0.2518026711502522 0.9677102675883396 0.011500121986413698
vn 0.2518966041898602 0.9676870073966051 0.011399847078795653
vn 0.2518026711502522 0.9677102675883396 0.011500121986413698
vn 0.2518026711502522 0.9677102675883396 0.011500121986413698
vn 0.2518966041898602 0.9676870073966051 0.011399847078795653
vn 0.2518966041898602 0.9676870073966051 0.011399847078795653
vn 0.2518029594704343 0.9677113756401299 0.011400134149147574
vn 0.2518966041898602 0.9676870073966051 0.011399847078795653
vn 0.2518029594704343 0.9677113756401299 0.011400134149147574
vn 0.2518029594704343 0.9677113756401299 0.011400134149147574
vn -0.4115178029953505 -0.9112393934685504 -0.017200744430060134
vn -0.4115178029953505 -0.9112393934685504 -0.017200744430060134
vn -0.41148029909654293 -0.9112563589746633 -0.01719917683086072
vn -0.4115178029953505 -0.9112393934685504 -0.017200744430060134
vn -0.41148029909654293 -0.9112563589746633 -0.01719917683086072
vn -0.41148029909654293 -0.9112563589746633 -0.01719917683086072
vn -0.4116008557988011 -0.9112018954360938 -0.017200036609395727
vn -0.4115178029953505 -0.9112393934685504 -0.017200744430060134
vn -0.4115178029953505 -0.9112393934685504 -0.017200744430060134
vn -0.4115178029953505 -0.9112393934685504 -0.017200744430060134
vn -0.4115178029953505 -0.9112393934685504 -0.017200744430060134
vn -0.4115178029953505 -0.9112393934685504 -0.017200744430060134
vn -0.41148029909654293 -0.9112563589746633 -0.01719917683086072
vn -0.41148029909654293 -0.9112563589746633 -0.01719917683086072
vn -0.41148029909654293 -0.9112563589746633 -0.01719917683086072
vn -0.41148029909654293 -0.9112563589746633 -0.01719917683086072
vn -0.41148029909654293 -0.9112563589746633 -0.01719917683086072
vn -0.41148029909654293 -0.9112563589746633 -0.01719917683086072
vn 0.9909511476349998 -0.1291936279789481 0.03639820724313312
vn 0.9788600351899278 -0.20139177131248687 0.0356985427656706
vn 0.9909511476349998 -0.1291936279789481 0.03639820724313312
vn 0.9788600351899278 -0.20139177131248687 0.0356985427656706
vn 0.9788586016492087 -0.2012914789121337 0.03629846408213001
vn 0.9909511476349998 -0.1291936279789481 0.03639820724313312
vn 0.9788600351899278 -0.20139177131248687 0.0356985427656706
vn 0.9249636879192924 -0.3785851340195863 0.03339868755076571
vn 0.9788586016492087 -0.2012914789121337 0.03629846408213001
vn 0.9249636879192924 -0.3785851340195863 0.03339868755076571
vn 0.9249636879192924 -0.3785851340195863 0.03339868755076571
vn 0.9788586016492087 -0.2012914789121337 0.03629846408213001
vn -0.9909511476349998 0.1291936279789481 -0.03639820724313312
vn -0.9787191319995282 0.20200395948713293 -0.03610070649739387
vn -0.9787331872353384 0.20200686043510907 -0.03570121204254403
vn -0.9909511476349998 0.1291936279789481 -0.03639820724313312
vn -0.9909511476349998 0.1291936279789481 -0.03639820724313312
vn -0.9787191319995282 0.20200395948713293 -0.03610070649739387
vn -0.9787331872353384 0.20200686043510907 -0.03570121204254403
vn -0.9787191319995282 0.20200395948713293 -0.03610070649739387
vn -0.9233971284477668 0.3823988231631345 -0.03329989816603266
vn -0.9787331872353384 0.20200686043510907 -0.03570121204254403
vn -0.9233971284477668 0.3823988231631345 -0.03329989816603266
vn -0.9233971284477668 0.3823988231631345 -0.03329989816603266
vn -0.02939990960129707 -0.011899963543094486 0.9994968915324891
vn -0.02939990960129707 -0.011899963543094486 0.9994968915324891
vn -0.02939990960129707 -0.011899963543094486 0.9994968915324891
vn -0.02939990960129707 -0.011899963543094486 0.9994968915324891
vn -0.02939990960129707 -0.011899963543094486 0.9994968915324891
vn -0.02939990960129707 -0.011899963543094486 0.9994968915324891
vn -0.02939990960129707 -0.011899963543094486 0.9994968915324891
vn -0.02939990960129707 -0.011899963543094486 0.9994968915324891
vn -0.029499822246594302 -0.011899928498132227 0.9994939480502916
vn -0.029499822246594302 -0.011899928498132227 0.9994939480502916
vn -0.029499822246594302 -0.011899928498132227 0.9994939480502916
vn -0.02939990960129707 -0.011899963543094486 0.9994968915324891
vn -0.029399874468744085 -0.011999948724739685 0.9994956971452281
vn -0.029399874468744085 -0.011999948724739685 0.9994956971452281
vn -0.02939990960129707 -0.011899963543094486 0.9994968915324891
vn -0.02939990960129707 -0.011899963543094486 0.9994968915324891
vn -0.02939990960129707 -0.011899963543094486 0.9994968915324891
vn -0.029399874468744085 -0.011999948724739685 0.9994956971452281
vn -0.02939990960129707 -0.011899963543094486 0.9994968915324891
vn -0.02939990960129707 -0.011899963543094486 0.9994968915324891
vn -0.02939990960129707 -0.011899963543094486 0.9994968915324891
vn -0.02939990960129707 -0.011899963543094486 0.9994968915324891
vn -0.02939990960129707 -0.011899963543094486 0.9994968915324891
vn -0.02939990960129707 -0.011899963543094486 0.9994968915324891
vn 0.02939990960129707 0.011899963543094486 -0.9994968915324891
vn 0.02939990960129707 0.011899963543094486 -0.9994968915324891
vn 0.02939990960129707 0.011899963543094486 -0.9994968915324891
vn 0.02939990960129707 0.011899963543094486 -0.9994968915324891
vn 0.02939990960129707 0.011899963543094486 -0.9994968915324891
vn 0.02939990960129707 0.011899963543094486 -0.9994968915324891
vn 0.02939990960129707 0.011899963543094486 -0.9994968915324891
vn 0.02939990960129707 0.011899963543094486 -0.9994968915324891
vn 0.02939990960129707 0.011899963543094486 -0.9994968915324891
vn 0.02939990960129707 0.011899963543094486 -0.9994968915324891
vn 0.02939990960129707 0.011899963543094486 -0.9994968915324891
vn 0.02939990960129707 0.011899963543094486 -0.9994968915324891
vn 0.02939990960129707 0.011899963543094486 -0.9994968915324891
vn 0.02939990960129707 0.011899963543094486 -0.9994968915324891
vn 0.02939990960129707 0.011899963543094486 -0.9994968915324891
vn 0.02939990960129707 0.011899963543094486 -0.9994968915324891
vn 0.02939990960129707 0.011899963543094486 -0.9994968915324891
vn 0.02939990960129707 0.011899963543094486 -0.9994968915324891
vn 0.029499822246594302 0.011899928498132227 -0.9994939480502916
vn 0.02939990960129707 0.011899963543094486 -0.9994968915324891
vn 0.02939990960129707 0.011899963543094486 -0.9994968915324891
vn 0.02939990960129707 0.011899963543094486 -0.9994968915324891
vn 0.029499822246594302 0.011899928498132227 -0.9994939480502916
vn 0.029499822246594302 0.011899928498132227 -0.9994939480502916
vn -0.029499822246594302 -0.011899928498132227 0.9994939480502916
vn -0.029499822246594302 -0.011899928498132227 0.9994939480502916
vn -0.02939990960129707 -0.011899963543094486 0.9994968915324891
vn -0.02939990960129707 -0.011899963543094486 0.9994968915324891
vn -0.02939990960129707 -0.011899963543094486 0.9994968915324891
vn -0.029499822246594302 -0.011899928498132227 0.9994939480502916
vn -0.02939990960129707 -0.011899963543094486 0.9994968915324891
vn -0.02939990960129707 -0.011899963543094486 0.9994968915324891
vn -0.02939990960129707 -0.011899963543094486 0.9994968915324891
vn -0.02939990960129707 -0.011899963543094486 0.9994968915324891
vn -0.02939990960129707 -0.011899963543094486 0.9994968915324891
vn -0.02939990960129707 -0.011899963543094486 0.9994968915324891
vn 0.02939990960129707 0.011899963543094486 -0.9994968915324891
vn 0.02939990960129707 0.011899963543094486 -0.9994968915324891
vn 0.02939990960129707 0.011899963543094486 -0.9994968915324891
vn 0.02939990960129707 0.011899963543094486 -0.9994968915324891
vn 0.02939990960129707 0.011899963543094486 -0.9994968915324891
vn 0.02939990960129707 0.011899963543094486 -0.9994968915324891
vn 0.02939990960129707 0.011899963543094486 -0.9994968915324891
vn 0.02939990960129707 0.011899963543094486 -0.9994968915324891
vn 0.02939990960129707 0.011899963543094486 -0.9994968915324891
vn 0.02939990960129707 0.011899963543094486 -0.9994968915324891
vn 0.02939990960129707 0.011899963543094486 -0.9994968915324891
vn 0.02939990960129707 0.011899963543094486 -0.9994968915324891
vn 0.9909511476349998 -0.1291936279789481 0.03639820724313312
vn 0.9787966618423467 -0.20169931432084448 0.03569987911435949
vn 0.9787755206993005 -0.20169495779387353 0.03629909200435922
vn 0.9787755206993005 -0.20169495779387353 0.03629909200435922
vn 0.9909511476349998 -0.1291936279789481 0.03639820724313312
vn 0.9909511476349998 -0.1291936279789481 0.03639820724313312
vn 0.9243360201282185 -0.38011481823021553 0.03340130020427493
vn 0.9787755206993005 -0.20169495779387353 0.03629909200435922
vn 0.9787966618423467 -0.20169931432084448 0.03569987911435949
vn 0.9787966618423467 -0.20169931432084448 0.03569987911435949
vn 0.9243360201282185 -0.38011481823021553 0.03340130020427493
vn 0.9243360201282185 -0.38011481823021553 0.03340130020427493
vn -0.9909511476349998 0.1291936279789481 -0.03639820724313312
vn -0.9787790685303625 0.2016956888906584 -0.036199227750861526
vn -0.9787966618423467 0.20169931432084448 -0.03569987911435949
vn -0.9909511476349998 0.1291936279789481 -0.03639820724313312
vn -0.9909511476349998 0.1291936279789481 -0.03639820724313312
vn -0.9787790685303625 0.2016956888906584 -0.036199227750861526
vn -0.9787966618423467 0.20169931432084448 -0.03569987911435949
vn -0.9787790685303625 0.2016956888906584 -0.036199227750861526
vn -0.924095906381561 0.3806983132425049 -0.03339985184327514
vn -0.9787966618423467 0.20169931432084448 -0.03569987911435949
vn -0.924095906381561 0.3806983132425049 -0.03339985184327514
vn -0.924095906381561 0.3806983132425049 -0.03339985184327514
vn 0.9909511476349998 -0.1291936279789481 0.03639820724313312
vn 0.9909511476349998 -0.1291936279789481 0.03639820724313312
vn 0.9787529550273575 -0.20191093332783197 0.035701933111517356
vn 0.9787529550273575 -0.20191093332783197 0.035701933111517356
vn 0.9787318123957404 -0.20190657172824664 0.036301180387082986
vn 0.9909511476349998 -0.1291936279789481 0.03639820724313312
vn 0.9787529550273575 -0.20191093332783197 0.035701933111517356
vn 0.9236352137658685 -0.38181454519940516 0.033401271919638556
vn 0.9787318123957404 -0.20190657172824664 0.036301180387082986
vn 0.9236352137658685 -0.38181454519940516 0.033401271919638556
vn 0.9236352137658685 -0.38181454519940516 0.033401271919638556
vn 0.9787318123957404 -0.20190657172824664 0.036301180387082986
vn -0.9909511476349998 0.1291936279789481 -0.03639820724313312
vn -0.9788417931013251 0.20140859657040072 -0.03610154159760944
vn -0.9788797438552665 0.2012958265737037 -0.03569926153097632
vn -0.9909511476349998 0.1291936279789481 -0.03639820724313312
vn -0.9909511476349998 0.1291936279789481 -0.03639820724313312
vn -0.9788417931013251 0.20140859657040072 -0.03610154159760944
vn -0.9788797438552665 0.2012958265737037 -0.03569926153097632
vn -0.9788417931013251 0.20140859657040072 -0.03610154159760944
vn -0.9247451058834024 0.3791184780780101 -0.03340162757274045
vn -0.9788797438552665 0.2012958265737037 -0.03569926153097632
vn -0.9247451058834024 0.3791184780780101 -0.03340162757274045
vn -0.9247451058834024 0.3791184780780101 -0.03340162757274045
f 109/109/109 110/110/110 111/111/111
f 112/112/112 113/113/113 114/114/114
f 115/115/115 116/116/116 117/117/117
f 118/118/118 119/119/119 120/120/120
f 121/121/121 122/122/122 123/123/123
f 124/124/124 125/125/125 126/126/126
f 127/127/127 128/128/128 129/129/129
f 130/130/130 131/131/131 132/132/132
f 133/133/133 134/134/134 135/135/135
f 136/136/136 137/137/137 138/138/138
f 139/139/139 140/140/140 141/141/141
f 142/142/142 143/143/143 144/144/144
f 145/145/145 146/146/146 147/147/147
f 148/148/148 149/149/149 150/150/150
f 151/151/151 152/152/152 153/153/153
f 154/154/154 155/155/155 156/156/156
f 157/157/157 158/158/158 159/159/159
f 160/160/160 161/161/161 162/162/162
f 163/163/163 164/164/164 165/165/165
f 166/166/166 167/167/167 168/168/168
f 169/169/169 170/170/170 171/171/171
f 172/172/172 173/173/173 174/174/174
f 175/175/175 176/176/176 177/177/177
f 178/178/178 179/179/179 180/180/180
f 181/181/181 182/182/182 183/183/183
f 184/184/184 185/185/185 186/186/186
f 187/187/187 188/188/188 189/189/189
f 190/190/190 191/191/191 192/192/192
f 193/193/193 194/194/194 195/195/195
f 196/196/196 197/197/197 198/198/198
f 199/199/199 200/200/200 201/201/201
f 202/202/202 203/203/203 204/204/204
f 205/205/205 206/206/206 207/207/207
f 208/208/208 209/209/209 210/210/210
f 211/211/211 212/212/212 213/213/213
f 214/214/214 215/215/215 216/216/216
f 217/217/217 218/218/218 219/219/219
f 220/220/220 221/221/221 222/222/222
f 223/223/223 224/224/224 225/225/225
f 226/226/226 227/227/227 228/228/228
f 229/229/229 230/230/230 231/231/231
f 232/232/232 233/233/233 234/234/234
f 235/235/235 236/236/236 237/237/237
f 238/238/238 239/239/239 240/240/240
f 241/241/241 242/242/242 243/243/243
f 244/244/244 245/245/245 246/246/246
f 247/247/247 248/248/248 249/249/249
f 250/250/250 251/251/251 252/252/252
f 253/253/253 254/254/254 255/255/255
f 256/256/256 257/257/257 258/258/258
f 259/259/259 260/260/260 261/261/261
f 262/262/262 263/263/263 264/264/264
f 265/265/265 266/266/266 267/267/267
f 268/268/268 269/269/269 270/270/270
f 271/271/271 272/272/272 273/273/273
f 274/274/274 275/275/275 276/276/276
f 277/277/277 278/278/278 279/279/279
f 280/280/280 281/281/281 282/282/282
f 283/283/283 284/284/284 285/285/285
f 286/286/286 287/287/287 288/288/288
