o RenderMesh_18687756845
usemtl Meshpart5Mtl.002
v -0.6039704447415556 0.6083113289599559 0.30842581814204256
v -0.5733284940746511 0.6014020816051876 0.3089636010495285
v -0.5988359143760885 0.6086566127281952 0.12624245559845965
v -0.5733284940746511 0.6014020816051876 0.3089636010495285
v -0.5681930174854483 0.6017473653734269 0.12678022360478441
v -0.5988359143760885 0.6086566127281952 0.12624245559845965
v -0.6932866619703258 0.6284462883254937 0.3068634537426094
v -0.6626427648392405 0.6215370280754546 0.3073992249933342
v -0.68815014975042 0.6287915720937328 0.12468207305346529
v -0.6626427648392405 0.6215370280754546 0.3073992249933342
v -0.6575072733488764 0.6218840527052383 0.1252168459263901
v -0.68815014975042 0.6287915720937328 0.12468207305346529
v -0.5146571388271536 0.588177233577555 0.3099892032710175
v -0.4840123047855581 0.5812679926704221 0.3105239612427811
v -0.5095216473367895 0.5885225173457942 0.12780683165465395
v -0.4840123047855581 0.5812679926704221 0.3105239612427811
v -0.47887681329519405 0.5816141404217982 0.12834158217583697
v -0.5095216473367895 0.5885225173457942 0.12780683165465395
v -0.6977861737635817 0.19701022237665633 0.3008189094630341
v -0.7265301262763227 0.20825332520325046 0.3003813964692215
v -0.6926496708569015 0.1973563830233031 0.11863652294550936
v -0.7265301262763227 0.20825332520325046 0.3003813964692215
v -0.7213946273353781 0.20859860897148969 0.11820001578007738
v -0.6926496708569015 0.1973563830233031 0.11863652294550936
v -0.781566641273805 0.2297772341757888 0.29954573934947054
v -0.8103106086877073 0.2410211880902491 0.299107227977858
v -0.7764291306760992 0.23012251794402802 0.11736334538136522
v -0.8103106086877073 0.2410211880902491 0.299107227977858
v -0.8051750948456015 0.24136649764902973 0.11692684566651385
v -0.7764291306760992 0.23012251794402802 0.11736334538136522
v -0.6140056466487135 0.16424148261125016 0.302092072126017
v -0.6427526166465963 0.17548458543784434 0.3016565856901268
v -0.6088711535361494 0.16458849434576306 0.11991170471583407
v -0.6427526166465963 0.17548458543784434 0.3016565856901268
v -0.6376171251562323 0.17583074608449106 0.1194742140737633
v -0.6088711535361494 0.16458849434576306 0.11991170471583407
v -0.4840123047855581 0.5812679926704221 0.3105239612427811
v -0.51520541215212 0.3734704025979127 0.3070149240461449
v -0.47887681329519405 0.5816141404217982 0.12834158217583697
v -0.51520541215212 0.3734704025979127 0.3070149240461449
v -0.5100678792026724 0.3738174272276963 0.12483352845583956
v -0.47887681329519405 0.5816141404217982 0.12834158217583697
v -0.51520541215212 0.3734704025979127 0.3070149240461449
v -0.6140056466487135 0.16424148261125016 0.302092072126017
v -0.5100678792026724 0.3738174272276963 0.12483352845583956
v -0.6140056466487135 0.16424148261125016 0.302092072126017
v -0.6088711535361494 0.16458849434576306 0.11991170471583407
v -0.5100678792026724 0.3738174272276963 0.12483352845583956
v -0.6932866619703258 0.6284462883254937 0.3068634537426094
v -0.7193423751545037 0.4209957228827679 0.12117203002844851
v -0.7244778647822226 0.42064956868375647 0.30335440164481203
v -0.6932866619703258 0.6284462883254937 0.3068634537426094
v -0.68815014975042 0.6287915720937328 0.12468207305346529
v -0.7193423751545037 0.4209957228827679 0.12117203002844851
v -0.7244778647822226 0.42064956868375647 0.30335440164481203
v -0.7193423751545037 0.4209957228827679 0.12117203002844851
v -0.8051750948456015 0.24136649764902973 0.11692684566651385
v -0.7244778647822226 0.42064956868375647 0.30335440164481203
v -0.8051750948456015 0.24136649764902973 0.11692684566651385
v -0.8103106086877073 0.2410211880902491 0.299107227977858
v -0.7265301262763227 0.20825332520325046 0.3003813964692215
v -0.6977861737635817 0.19701022237665633 0.3008189094630341
v -0.6351645728376593 0.40051547974899093 0.30491678839598696
v -0.604517682435819 0.3936053619634504 0.30545352822218935
v -0.6351645728376593 0.40051547974899093 0.30491678839598696
v -0.6977861737635817 0.19701022237665633 0.3008189094630341
v -0.6351645728376593 0.40051547974899093 0.30491678839598696
v -0.604517682435819 0.3936053619634504 0.30545352822218935
v -0.5733284940746511 0.6014020816051876 0.3089636010495285
v -0.5733284940746511 0.6014020816051876 0.3089636010495285
v -0.6039704447415556 0.6083113289599559 0.30842581814204256
v -0.6351645728376593 0.40051547974899093 0.30491678839598696
v -0.6427526166465963 0.17548458543784434 0.3016565856901268
v -0.6140056466487135 0.16424148261125016 0.302092072126017
v -0.5458453586128439 0.38037965640031635 0.3064801213708977
v -0.51520541215212 0.3734704025979127 0.3070149240461449
v -0.5458453586128439 0.38037965640031635 0.3064801213708977
v -0.6140056466487135 0.16424148261125016 0.302092072126017
v -0.5458453586128439 0.38037965640031635 0.3064801213708977
v -0.51520541215212 0.3734704025979127 0.3070149240461449
v -0.4840123047855581 0.5812679926704221 0.3105239612427811
v -0.4840123047855581 0.5812679926704221 0.3105239612427811
v -0.5146571388271536 0.588177233577555 0.3099892032710175
v -0.5458453586128439 0.38037965640031635 0.3064801213708977
v -0.6088711535361494 0.16458849434576306 0.11991170471583407
v -0.6376171251562323 0.17583074608449106 0.1194742140737633
v -0.5407117893722738 0.38072494661619094 0.12429776465569536
v -0.5407117893722738 0.38072494661619094 0.12429776465569536
v -0.5100678792026724 0.3738174272276963 0.12483352845583956
v -0.6088711535361494 0.16458849434576306 0.11991170471583407
v -0.47887681329519405 0.5816141404217982 0.12834158217583697
v -0.5100678792026724 0.3738174272276963 0.12483352845583956
v -0.5407117893722738 0.38072494661619094 0.12429776465569536
v -0.5407117893722738 0.38072494661619094 0.12429776465569536
v -0.5095216473367895 0.5885225173457942 0.12780683165465395
v -0.47887681329519405 0.5816141404217982 0.12834158217583697
v -0.6926496708569015 0.1973563830233031 0.11863652294550936
v -0.7213946273353781 0.20859860897148969 0.11820001578007738
v -0.630027106943437 0.4008598995340933 0.12273540025626223
v -0.630027106943437 0.4008598995340933 0.12273540025626223
v -0.5993821834948744 0.39395238659323406 0.12327215498362581
v -0.6926496708569015 0.1973563830233031 0.11863652294550936
v -0.5681930174854483 0.6017473653734269 0.12678022360478441
v -0.5993821834948744 0.39395238659323406 0.12327215498362581
v -0.630027106943437 0.4008598995340933 0.12273540025626223
v -0.630027106943437 0.4008598995340933 0.12273540025626223
v -0.5988359143760885 0.6086566127281952 0.12624245559845965
v -0.5681930174854483 0.6017473653734269 0.12678022360478441
v -0.8103106086877073 0.2410211880902491 0.299107227977858
v -0.781566641273805 0.2297772341757888 0.29954573934947054
v -0.7244778647822226 0.42064956868375647 0.30335440164481203
v -0.6938328863856281 0.413741185312125 0.3038911563721756
v -0.7244778647822226 0.42064956868375647 0.30335440164481203
v -0.781566641273805 0.2297772341757888 0.29954573934947054
v -0.7244778647822226 0.42064956868375647 0.30335440164481203
v -0.6938328863856281 0.413741185312125 0.3038911563721756
v -0.6626427648392405 0.6215370280754546 0.3073992249933342
v -0.6626427648392405 0.6215370280754546 0.3073992249933342
v -0.6932866619703258 0.6284462883254937 0.3068634537426094
v -0.7244778647822226 0.42064956868375647 0.30335440164481203
v -0.7764291306760992 0.23012251794402802 0.11736334538136522
v -0.8051750948456015 0.24136649764902973 0.11692684566651385
v -0.7193423751545037 0.4209957228827679 0.12117203002844851
v -0.7193423751545037 0.4209957228827679 0.12117203002844851
v -0.6886973967579092 0.4140882034942733 0.1217087847558121
v -0.7764291306760992 0.23012251794402802 0.11736334538136522
v -0.6575072733488764 0.6218840527052383 0.1252168459263901
v -0.6886973967579092 0.4140882034942733 0.1217087847558121
v -0.7193423751545037 0.4209957228827679 0.12117203002844851
v -0.7193423751545037 0.4209957228827679 0.12117203002844851
v -0.68815014975042 0.6287915720937328 0.12468207305346529
v -0.6575072733488764 0.6218840527052383 0.1252168459263901
v -0.5733284940746511 0.6014020816051876 0.3089636010495285
v -0.604517682435819 0.3936053619634504 0.30545352822218935
v -0.5993821834948744 0.39395238659323406 0.12327215498362581
v -0.5993821834948744 0.39395238659323406 0.12327215498362581
v -0.5681930174854483 0.6017473653734269 0.12678022360478441
v -0.5733284940746511 0.6014020816051876 0.3089636010495285
v -0.6926496708569015 0.1973563830233031 0.11863652294550936
v -0.5993821834948744 0.39395238659323406 0.12327215498362581
v -0.604517682435819 0.3936053619634504 0.30545352822218935
v -0.604517682435819 0.3936053619634504 0.30545352822218935
v -0.6977861737635817 0.19701022237665633 0.3008189094630341
v -0.6926496708569015 0.1973563830233031 0.11863652294550936
v -0.6039704447415556 0.6083113289599559 0.30842581814204256
v -0.630027106943437 0.4008598995340933 0.12273540025626223
v -0.6351645728376593 0.40051547974899093 0.30491678839598696
v -0.6039704447415556 0.6083113289599559 0.30842581814204256
v -0.5988359143760885 0.6086566127281952 0.12624245559845965
v -0.630027106943437 0.4008598995340933 0.12273540025626223
v -0.6351645728376593 0.40051547974899093 0.30491678839598696
v -0.630027106943437 0.4008598995340933 0.12273540025626223
v -0.7213946273353781 0.20859860897148969 0.11820001578007738
v -0.6351645728376593 0.40051547974899093 0.30491678839598696
v -0.7213946273353781 0.20859860897148969 0.11820001578007738
v -0.7265301262763227 0.20825332520325046 0.3003813964692215
v -0.6575072733488764 0.6218840527052383 0.1252168459263901
v -0.6626427648392405 0.6215370280754546 0.3073992249933342
v -0.6938328863856281 0.413741185312125 0.3038911563721756
v -0.6938328863856281 0.413741185312125 0.3038911563721756
v -0.6886973967579092 0.4140882034942733 0.1217087847558121
v -0.6575072733488764 0.6218840527052383 0.1252168459263901
v -0.6938328863856281 0.413741185312125 0.3038911563721756
v -0.781566641273805 0.2297772341757888 0.29954573934947054
v -0.6886973967579092 0.4140882034942733 0.1217087847558121
v -0.781566641273805 0.2297772341757888 0.29954573934947054
v -0.7764291306760992 0.23012251794402802 0.11736334538136522
v -0.6886973967579092 0.4140882034942733 0.1217087847558121
v -0.5146571388271536 0.588177233577555 0.3099892032710175
v -0.5407117893722738 0.38072494661619094 0.12429776465569536
v -0.5458453586128439 0.38037965640031635 0.3064801213708977
v -0.5146571388271536 0.588177233577555 0.3099892032710175
v -0.5095216473367895 0.5885225173457942 0.12780683165465395
v -0.5407117893722738 0.38072494661619094 0.12429776465569536
v -0.5458453586128439 0.38037965640031635 0.3064801213708977
v -0.5407117893722738 0.38072494661619094 0.12429776465569536
v -0.6376171251562323 0.17583074608449106 0.1194742140737633
v -0.5458453586128439 0.38037965640031635 0.3064801213708977
v -0.6376171251562323 0.17583074608449106 0.1194742140737633
v -0.6427526166465963 0.17548458543784434 0.3016565856901268
vt 0 0
vt 0 0
vt 0 0
vt 0 0
vt 0 0
vt 0 0
vt 0 0
vt 0 0
vt 0 0
vt 0 0
vt 0 0
vt 0 0
vt 0 0
vt 0 0
vt 0 0
vt 0 0
vt 0 0
vt 0 0
vt 0 0
vt 0 0
vt 0 0
vt 0 0
vt 0 0
vt 0 0
vt 0 0
vt 0 0
vt 0 0
vt 0 0
vt 0 0
vt 0 0
vt 0 0
vt 0 0
vt 0 0
vt 0 0
vt 0 0
vt 0 0
vt 0 0
vt 0 0
vt 0 0
vt 0 0
vt 0 0
vt 0 0
vt 0 0
vt 0 0
vt 0 0
vt 0 0
vt 0 0
vt 0 0
vt 0 0
vt 0 0
vt 0 0
vt 0 0
vt 0 0
vt 0 0
vt 0 0
vt 0 0
vt 0 0
vt 0 0
vt 0 0
vt 0 0
vt 0 0
vt 0 0
vt 0 0
vt 0 0
vt 0 0
vt 0 0
vt 0 0
vt 0 0
vt 0 0
vt 0 0
vt 0 0
vt 0 0
vt 0 0
vt 0 0
vt 0 0
vt 0 0
vt 0 0
vt 0 0
vt 0 0
vt 0 0
vt 0 0
vt 0 0
vt 0 0
vt 0 0
vt 0 0
vt 0 0
vt 0 0
vt 0 0
vt 0 0
vt 0 0
vt 0 0
vt 0 0
vt 0 0
vt 0 0
vt 0 0
vt 0 0
vt 0 0
vt 0 0
vt 0 0
vt 0 0
vt 0 0
vt 0 0
vt 0 0
vt 0 0
vt 0 0
vt 0 0
vt 0 0
vt 0 0
vt 0 0
vt 0 0
vt 0 0
vt 0 0
vt 0 0
vt 0 0
vt 0 0
vt 0 0
vt 0 0
vt 0 0
vt 0 0
vt 0 0
vt 0 0
vt 0 0
vt 0 0
vt 0 0
vt 0 0
vt 0 0
vt 0 0
vt 0 0
vt 0 0
vt 0 0
vt 0 0
vt 0 0
vt 0 0
vt 0 0
vt 0 0
vt 0 0
vt 0 0
vt 0 0
vt 0 0
vt 0 0
vt 0 0
vt 0 0
vt 0 0
vt 0 0
vt 0 0
vt 0 0
vt 0 0
vt 0 0
vt 0 0
vt 0 0
vt 0 0
vt 0 0
vt 0 0
vt 0 0
vt 0 0
vt 0 0
vt 0 0
vt 0 0
vt 0 0
vt 0 0
vt 0 0
vt 0 0
vt 0 0
vt 0 0
vt 0 0
vt 0 0
vt 0 0
vt 0 0
vt 0 0
vt 0 0
vt 0 0
vt 0 0
vt 0 0
vt 0 0
vt 0 0
vt 0 0
vt 0 0
vt 0 0
vt 0 0
vt 0 0
vn 0.21982848183959358 0.9755056807988234 0.008006578627831863
vn 0.21982848183959358 0.9755056807988234 0.008006578627831863
vn 0.21982848183959358 0.9755056807988234 0.008006578627831863
vn 0.21982848183959358 0.9755056807988234 0.008006578627831863
vn 0.21982848183959358 0.9755056807988234 0.008006578627831863
vn 0.21982848183959358 0.9755056807988234 0.008006578627831863
vn 0.21982848183959358 0.9755056807988234 0.008006578627831863
vn 0.21982848183959358 0.9755056807988234 0.008006578627831863
vn 0.21974605404464262 0.9755235246193168 0.00809472952693783
vn 0.21982848183959358 0.9755056807988234 0.008006578627831863
vn 0.21974605404464262 0.9755235246193168 0.00809472952693783
vn 0.21974605404464262 0.9755235246193168 0.00809472952693783
vn 0.21982848183959358 0.9755056807988234 0.008006578627831863
vn 0.21982848183959358 0.9755056807988234 0.008006578627831863
vn 0.21974546876933976 0.9755243763632362 0.008007501262075967
vn 0.21982848183959358 0.9755056807988234 0.008006578627831863
vn 0.21974546876933976 0.9755243763632362 0.008007501262075967
vn 0.21974546876933976 0.9755243763632362 0.008007501262075967
vn -0.3640785047531227 -0.9312909235942844 -0.012002416741431937
vn -0.3640785047531227 -0.9312909235942844 -0.012002416741431937
vn -0.36404383686520364 -0.931304490627576 -0.012001273989549872
vn -0.3640785047531227 -0.9312909235942844 -0.012002416741431937
vn -0.36404383686520364 -0.931304490627576 -0.012001273989549872
vn -0.36404383686520364 -0.931304490627576 -0.012001273989549872
vn -0.36415522397050937 -0.9312609424085129 -0.012001249909755136
vn -0.3640785047531227 -0.9312909235942844 -0.012002416741431937
vn -0.3640785047531227 -0.9312909235942844 -0.012002416741431937
vn -0.3640785047531227 -0.9312909235942844 -0.012002416741431937
vn -0.3640785047531227 -0.9312909235942844 -0.012002416741431937
vn -0.3640785047531227 -0.9312909235942844 -0.012002416741431937
vn -0.36404383686520364 -0.931304490627576 -0.012001273989549872
vn -0.36404383686520364 -0.931304490627576 -0.012001273989549872
vn -0.36404383686520364 -0.931304490627576 -0.012001273989549872
vn -0.36404383686520364 -0.931304490627576 -0.012001273989549872
vn -0.36404383686520364 -0.931304490627576 -0.012001273989549872
vn -0.36404383686520364 -0.931304490627576 -0.012001273989549872
vn 0.9884714746732504 -0.14887401280546472 0.02758028405379401
vn 0.9725461266807692 -0.23115228746752514 0.026882177678968448
vn 0.9884714746732504 -0.14887401280546472 0.02758028405379401
vn 0.9725461266807692 -0.23115228746752514 0.026882177678968448
vn 0.9725564543136574 -0.23103871933801395 0.027478233922458756
vn 0.9884714746732504 -0.14887401280546472 0.02758028405379401
vn 0.9725461266807692 -0.23115228746752514 0.026882177678968448
vn 0.903760786065428 -0.4273272750511174 0.024654443165205844
vn 0.9725564543136574 -0.23103871933801395 0.027478233922458756
vn 0.903760786065428 -0.4273272750511174 0.024654443165205844
vn 0.903760786065428 -0.4273272750511174 0.024654443165205844
vn 0.9725564543136574 -0.23103871933801395 0.027478233922458756
vn -0.9884714746732504 0.14887401280546472 -0.02758028405379401
vn -0.9723699821128984 0.23184547576787295 -0.027281738429400557
vn -0.9723802535257 0.2318487613537477 -0.026884836098221065
vn -0.9884714746732504 0.14887401280546472 -0.02758028405379401
vn -0.9884714746732504 0.14887401280546472 -0.02758028405379401
vn -0.9723699821128984 0.23184547576787295 -0.027281738429400557
vn -0.9723802535257 0.2318487613537477 -0.026884836098221065
vn -0.9723699821128984 0.23184547576787295 -0.027281738429400557
vn -0.9018112182395641 0.4314317220196052 -0.02456004667078813
vn -0.9723802535257 0.2318487613537477 -0.026884836098221065
vn -0.9018112182395641 0.4314317220196052 -0.02456004667078813
vn -0.9018112182395641 0.4314317220196052 -0.02456004667078813
vn -0.02058347271278389 -0.013750705775097969 0.9996935724219541
vn -0.02058347271278389 -0.013750705775097969 0.9996935724219541
vn -0.02058347271278389 -0.013750705775097969 0.9996935724219541
vn -0.02058347271278389 -0.013750705775097969 0.9996935724219541
vn -0.02058347271278389 -0.013750705775097969 0.9996935724219541
vn -0.02058347271278389 -0.013750705775097969 0.9996935724219541
vn -0.02058347271278389 -0.013750705775097969 0.9996935724219541
vn -0.02058347271278389 -0.013750705775097969 0.9996935724219541
vn -0.02068340424473339 -0.013750664392660752 0.9996915104258961
vn -0.02068340424473339 -0.013750664392660752 0.9996915104258961
vn -0.02068340424473339 -0.013750664392660752 0.9996915104258961
vn -0.02058347271278389 -0.013750705775097969 0.9996935724219541
vn -0.020583440200427683 -0.013866235269147396 0.9996919773155011
vn -0.020583440200427683 -0.013866235269147396 0.9996919773155011
vn -0.02058347271278389 -0.013750705775097969 0.9996935724219541
vn -0.02058347271278389 -0.013750705775097969 0.9996935724219541
vn -0.02058347271278389 -0.013750705775097969 0.9996935724219541
vn -0.020583440200427683 -0.013866235269147396 0.9996919773155011
vn -0.02058347271278389 -0.013750705775097969 0.9996935724219541
vn -0.02058347271278389 -0.013750705775097969 0.9996935724219541
vn -0.02058347271278389 -0.013750705775097969 0.9996935724219541
vn -0.02058347271278389 -0.013750705775097969 0.9996935724219541
vn -0.02058347271278389 -0.013750705775097969 0.9996935724219541
vn -0.02058347271278389 -0.013750705775097969 0.9996935724219541
vn 0.02058347271278389 0.013750705775097969 -0.9996935724219541
vn 0.02058347271278389 0.013750705775097969 -0.9996935724219541
vn 0.02058347271278389 0.013750705775097969 -0.9996935724219541
vn 0.02058347271278389 0.013750705775097969 -0.9996935724219541
vn 0.02058347271278389 0.013750705775097969 -0.9996935724219541
vn 0.02058347271278389 0.013750705775097969 -0.9996935724219541
vn 0.02058347271278389 0.013750705775097969 -0.9996935724219541
vn 0.02058347271278389 0.013750705775097969 -0.9996935724219541
vn 0.02058347271278389 0.013750705775097969 -0.9996935724219541
vn 0.02058347271278389 0.013750705775097969 -0.9996935724219541
vn 0.02058347271278389 0.013750705775097969 -0.9996935724219541
vn 0.02058347271278389 0.013750705775097969 -0.9996935724219541
vn 0.02058347271278389 0.013750705775097969 -0.9996935724219541
vn 0.02058347271278389 0.013750705775097969 -0.9996935724219541
vn 0.02058347271278389 0.013750705775097969 -0.9996935724219541
vn 0.02058347271278389 0.013750705775097969 -0.9996935724219541
vn 0.02058347271278389 0.013750705775097969 -0.9996935724219541
vn 0.02058347271278389 0.013750705775097969 -0.9996935724219541
vn 0.02068340424473339 0.013750664392660752 -0.9996915104258961
vn 0.02058347271278389 0.013750705775097969 -0.9996935724219541
vn 0.02058347271278389 0.013750705775097969 -0.9996935724219541
vn 0.02058347271278389 0.013750705775097969 -0.9996935724219541
vn 0.02068340424473339 0.013750664392660752 -0.9996915104258961
vn 0.02068340424473339 0.013750664392660752 -0.9996915104258961
vn -0.02068340424473339 -0.013750664392660752 0.9996915104258961
vn -0.02068340424473339 -0.013750664392660752 0.9996915104258961
vn -0.02058347271278389 -0.013750705775097969 0.9996935724219541
vn -0.02058347271278389 -0.013750705775097969 0.9996935724219541
vn -0.02058347271278389 -0.013750705775097969 0.9996935724219541
vn -0.02068340424473339 -0.013750664392660752 0.9996915104258961
vn -0.02058347271278389 -0.013750705775097969 0.9996935724219541
vn -0.02058347271278389 -0.013750705775097969 0.9996935724219541
vn -0.02058347271278389 -0.013750705775097969 0.9996935724219541
vn -0.02058347271278389 -0.013750705775097969 0.9996935724219541
vn -0.02058347271278389 -0.013750705775097969 0.9996935724219541
vn -0.02058347271278389 -0.013750705775097969 0.9996935724219541
vn 0.02058347271278389 0.013750705775097969 -0.9996935724219541
vn 0.02058347271278389 0.013750705775097969 -0.9996935724219541
vn 0.02058347271278389 0.013750705775097969 -0.9996935724219541
vn 0.02058347271278389 0.013750705775097969 -0.9996935724219541
vn 0.02058347271278389 0.013750705775097969 -0.9996935724219541
vn 0.02058347271278389 0.013750705775097969 -0.9996935724219541
vn 0.02058347271278389 0.013750705775097969 -0.9996935724219541
vn 0.02058347271278389 0.013750705775097969 -0.9996935724219541
vn 0.02058347271278389 0.013750705775097969 -0.9996935724219541
vn 0.02058347271278389 0.013750705775097969 -0.9996935724219541
vn 0.02058347271278389 0.013750705775097969 -0.9996935724219541
vn 0.02058347271278389 0.013750705775097969 -0.9996935724219541
vn 0.9884714746732504 -0.14887401280546472 0.02758028405379401
vn 0.9724632539037891 -0.23150053305264776 0.026883508015036563
vn 0.9724477903763038 -0.2314955895972561 0.027478846214193334
vn 0.9724477903763038 -0.2314955895972561 0.027478846214193334
vn 0.9884714746732504 -0.14887401280546472 0.02758028405379401
vn 0.9884714746732504 -0.14887401280546472 0.02758028405379401
vn 0.9029800953662268 -0.4289742870848863 0.024657826189945536
vn 0.9724477903763038 -0.2314955895972561 0.027478846214193334
vn 0.9724632539037891 -0.23150053305264776 0.026883508015036563
vn 0.9724632539037891 -0.23150053305264776 0.026883508015036563
vn 0.9029800953662268 -0.4289742870848863 0.024657826189945536
vn 0.9029800953662268 -0.4289742870848863 0.024657826189945536
vn -0.9884714746732504 0.14887401280546472 -0.02758028405379401
vn -0.9724503859051092 0.23149644250788987 -0.027379628543777235
vn -0.9724632539037891 0.23150053305264776 -0.026883508015036563
vn -0.9884714746732504 0.14887401280546472 -0.02758028405379401
vn -0.9884714746732504 0.14887401280546472 -0.02758028405379401
vn -0.9724503859051092 0.23149644250788987 -0.027379628543777235
vn -0.9724632539037891 0.23150053305264776 -0.026883508015036563
vn -0.9724503859051092 0.23149644250788987 -0.027379628543777235
vn -0.9026815191337916 0.42960228207357065 -0.02465672832089792
vn -0.9724632539037891 0.23150053305264776 -0.026883508015036563
vn -0.9026815191337916 0.42960228207357065 -0.02465672832089792
vn -0.9026815191337916 0.42960228207357065 -0.02465672832089792
vn 0.9884714746732504 -0.14887401280546472 0.02758028405379401
vn 0.9884714746732504 -0.14887401280546472 0.02758028405379401
vn 0.9724061269273414 -0.23174013767758123 0.026885551944175638
vn 0.9724061269273414 -0.23174013767758123 0.026885551944175638
vn 0.9723906579697874 -0.23173521012249262 0.02748091487866218
vn 0.9884714746732504 -0.14887401280546472 0.02758028405379401
vn 0.9724061269273414 -0.23174013767758123 0.026885551944175638
vn 0.9021089088986709 -0.4308032771296609 0.02465872867757001
vn 0.9723906579697874 -0.23173521012249262 0.02748091487866218
vn 0.9021089088986709 -0.4308032771296609 0.02465872867757001
vn 0.9021089088986709 -0.4308032771296609 0.02465872867757001
vn 0.9723906579697874 -0.23173521012249262 0.02748091487866218
vn -0.9884714746732504 0.14887401280546472 -0.02758028405379401
vn -0.9725304467413852 0.23117134576910564 -0.02728257788960907
vn -0.972571921982074 0.2310436468491514 -0.026882890892523336
vn -0.9884714746732504 0.14887401280546472 -0.02758028405379401
vn -0.9884714746732504 0.14887401280546472 -0.02758028405379401
vn -0.9725304467413852 0.23117134576910564 -0.02728257788960907
vn -0.972571921982074 0.2310436468491514 -0.026882890892523336
vn -0.9725304467413852 0.23117134576910564 -0.02728257788960907
vn -0.903488901470267 0.42790163285176513 -0.024657605780847483
vn -0.972571921982074 0.2310436468491514 -0.026882890892523336
vn -0.903488901470267 0.42790163285176513 -0.024657605780847483
vn -0.903488901470267 0.42790163285176513 -0.024657605780847483
f 1/1/1 2/2/2 3/3/3
f 4/4/4 5/5/5 6/6/6
f 7/7/7 8/8/8 9/9/9
f 10/10/10 11/11/11 12/12/12
f 13/13/13 14/14/14 15/15/15
f 16/16/16 17/17/17 18/18/18
f 19/19/19 20/20/20 21/21/21
f 22/22/22 23/23/23 24/24/24
f 25/25/25 26/26/26 27/27/27
f 28/28/28 29/29/29 30/30/30
f 31/31/31 32/32/32 33/33/33
f 34/34/34 35/35/35 36/36/36
f 37/37/37 38/38/38 39/39/39
f 40/40/40 41/41/41 42/42/42
f 43/43/43 44/44/44 45/45/45
f 46/46/46 47/47/47 48/48/48
f 49/49/49 50/50/50 51/51/51
f 52/52/52 53/53/53 54/54/54
f 55/55/55 56/56/56 57/57/57
f 58/58/58 59/59/59 60/60/60
f 61/61/61 62/62/62 63/63/63
f 64/64/64 65/65/65 66/66/66
f 67/67/67 68/68/68 69/69/69
f 70/70/70 71/71/71 72/72/72
f 73/73/73 74/74/74 75/75/75
f 76/76/76 77/77/77 78/78/78
f 79/79/79 80/80/80 81/81/81
f 82/82/82 83/83/83 84/84/84
f 85/85/85 86/86/86 87/87/87
f 88/88/88 89/89/89 90/90/90
f 91/91/91 92/92/92 93/93/93
f 94/94/94 95/95/95 96/96/96
f 97/97/97 98/98/98 99/99/99
f 100/100/100 101/101/101 102/102/102
f 103/103/103 104/104/104 105/105/105
f 106/106/106 107/107/107 108/108/108
f 109/109/109 110/110/110 111/111/111
f 112/112/112 113/113/113 114/114/114
f 115/115/115 116/116/116 117/117/117
f 118/118/118 119/119/119 120/120/120
f 121/121/121 122/122/122 123/123/123
f 124/124/124 125/125/125 126/126/126
f 127/127/127 128/128/128 129/129/129
f 130/130/130 131/131/131 132/132/132
f 133/133/133 134/134/134 135/135/135
f 136/136/136 137/137/137 138/138/138
f 139/139/139 140/140/140 141/141/141
f 142/142/142 143/143/143 144/144/144
f 145/145/145 146/146/146 147/147/147
f 148/148/148 149/149/149 150/150/150
f 151/151/151 152/152/152 153/153/153
f 154/154/154 155/155/155 156/156/156
f 157/157/157 158/158/158 159/159/159
f 160/160/160 161/161/161 162/162/162
f 163/163/163 164/164/164 165/165/165
f 166/166/166 167/167/167 168/168/168
f 169/169/169 170/170/170 171/171/171
f 172/172/172 173/173/173 174/174/174
f 175/175/175 176/176/176 177/177/177
f 178/178/178 179/179/179 180/180/180
o RenderMesh_18687756685.001
usemtl Meshpart5Mtl.002
v -0.41272862687357337 0.6258068246000136 0.30333066409503023
v -0.7490977334196177 0.6974781717537277 0.13313457047616045
v -0.7504934786225167 0.6976521031649172 0.30143541520510714
v -0.41272862687357337 0.6258068246000136 0.30333066409503023
v -0.4113317920232621 0.6256328802935534 0.13503080284272234
v -0.7490977334196177 0.6974781717537277 0.13313457047616045
v -0.9582296653056946 0.23517634692709258 0.3169571054545502
v -0.5796228392387238 0.09586633904431258 0.11888236975346606
v -0.5812806083227006 0.09607317918632624 0.31915178572808306
v -0.9582296653056946 0.23517634692709258 0.3169571054545502
v -0.9565708382392731 0.2349686556972128 0.11668568527375262
v -0.5796228392387238 0.09586633904431258 0.11888236975346606
v -0.5501548840070573 0.14529293159340845 0.11897149359856646
v -0.5518146647477952 0.1454997459448807 0.31924192285214464
v -0.5812806083227006 0.09607317918632624 0.31915178572808306
v -0.5812806083227006 0.09607317918632624 0.31915178572808306
v -0.5796228392387238 0.09586633904431258 0.11888236975346606
v -0.5501548840070573 0.14529293159340845 0.11897149359856646
v -0.5621210975910035 0.1895392875783427 0.3031401900020699
v -0.5518146647477952 0.1454997459448807 0.31924192285214464
v -0.5501548840070573 0.14529293159340845 0.11897149359856646
v -0.5501548840070573 0.14529293159340845 0.11897149359856646
v -0.5607273770833817 0.18936362820087949 0.1348393452731232
v -0.5621210975910035 0.1895392875783427 0.3031401900020699
v -0.45017321839579016 0.41226825356462743 0.3034279090729813
v -0.5621210975910035 0.1895392875783427 0.3031401900020699
v -0.5607273770833817 0.18936362820087949 0.1348393452731232
v -0.5607273770833817 0.18936362820087949 0.1348393452731232
v -0.4487764133478013 0.4120925812918935 0.1351270419922928
v -0.45017321839579016 0.41226825356462743 0.3034279090729813
v -0.41272862687357337 0.6258068246000136 0.30333066409503023
v -0.45017321839579016 0.41226825356462743 0.3034279090729813
v -0.4487764133478013 0.4120925812918935 0.1351270419922928
v -0.4487764133478013 0.4120925812918935 0.1351270419922928
v -0.4113317920232621 0.6256328802935534 0.13503080284272234
v -0.41272862687357337 0.6258068246000136 0.30333066409503023
v -0.9582296653056946 0.23517634692709258 0.3169571054545502
v -0.9287627233529893 0.28460291368564705 0.3170452383724312
v -0.9565708382392731 0.2349686556972128 0.11668568527375262
v -0.9287627233529893 0.28460291368564705 0.3170452383724312
v -0.9271029426122513 0.28439695042204094 0.11677380329047243
v -0.9565708382392731 0.2349686556972128 0.11668568527375262
v -0.9271029426122513 0.28439695042204094 0.11677380329047243
v -0.9287627233529893 0.28460291368564705 0.3170452383724312
v -0.8788987441325989 0.306434890675187 0.3012928557959656
v -0.8788987441325989 0.306434890675187 0.3012928557959656
v -0.87750293746241 0.30626268723027117 0.1329929945436577
v -0.9271029426122513 0.28439695042204094 0.11677380329047243
v -0.8788987441325989 0.306434890675187 0.3012928557959656
v -0.78654133215197 0.48393700876893103 0.13322979634676974
v -0.87750293746241 0.30626268723027117 0.1329929945436577
v -0.7879370605910626 0.4841118170585281 0.301532645281897
v -0.78654133215197 0.48393700876893103 0.13322979634676974
v -0.8788987441325989 0.306434890675187 0.3012928557959656
v -0.7879370605910626 0.4841118170585281 0.301532645281897
v -0.7490977334196177 0.6974781717537277 0.13313457047616045
v -0.78654133215197 0.48393700876893103 0.13322979634676974
v -0.7504934786225167 0.6976521031649172 0.30143541520510714
v -0.7490977334196177 0.6974781717537277 0.13313457047616045
v -0.7879370605910626 0.4841118170585281 0.301532645281897
v -0.5812806083227006 0.09607317918632624 0.31915178572808306
v -0.5518146647477952 0.1454997459448807 0.31924192285214464
v -0.9582296653056946 0.23517634692709258 0.3169571054545502
v -0.5518146647477952 0.1454997459448807 0.31924192285214464
v -0.9287627233529893 0.28460291368564705 0.3170452383724312
v -0.9582296653056946 0.23517634692709258 0.3169571054545502
v -0.5518146647477952 0.1454997459448807 0.31924192285214464
v -0.8788987441325989 0.306434890675187 0.3012928557959656
v -0.9287627233529893 0.28460291368564705 0.3170452383724312
v -0.8788987441325989 0.306434890675187 0.3012928557959656
v -0.5518146647477952 0.1454997459448807 0.31924192285214464
v -0.5621210975910035 0.1895392875783427 0.3031401900020699
v -0.5621210975910035 0.1895392875783427 0.3031401900020699
v -0.7879370605910626 0.4841118170585281 0.301532645281897
v -0.8788987441325989 0.306434890675187 0.3012928557959656
v -0.7879370605910626 0.4841118170585281 0.301532645281897
v -0.5621210975910035 0.1895392875783427 0.3031401900020699
v -0.45017321839579016 0.41226825356462743 0.3034279090729813
v -0.7879370605910626 0.4841118170585281 0.301532645281897
v -0.45017321839579016 0.41226825356462743 0.3034279090729813
v -0.41272862687357337 0.6258068246000136 0.30333066409503023
v -0.41272862687357337 0.6258068246000136 0.30333066409503023
v -0.7504934786225167 0.6976521031649172 0.30143541520510714
v -0.7879370605910626 0.4841118170585281 0.301532645281897
v -0.9565708382392731 0.2349686556972128 0.11668568527375262
v -0.9271029426122513 0.28439695042204094 0.11677380329047243
v -0.5501548840070573 0.14529293159340845 0.11897149359856646
v -0.5501548840070573 0.14529293159340845 0.11897149359856646
v -0.5796228392387238 0.09586633904431258 0.11888236975346606
v -0.9565708382392731 0.2349686556972128 0.11668568527375262
v -0.5501548840070573 0.14529293159340845 0.11897149359856646
v -0.9271029426122513 0.28439695042204094 0.11677380329047243
v -0.87750293746241 0.30626268723027117 0.1329929945436577
v -0.87750293746241 0.30626268723027117 0.1329929945436577
v -0.5607273770833817 0.18936362820087949 0.1348393452731232
v -0.5501548840070573 0.14529293159340845 0.11897149359856646
v -0.5607273770833817 0.18936362820087949 0.1348393452731232
v -0.87750293746241 0.30626268723027117 0.1329929945436577
v -0.78654133215197 0.48393700876893103 0.13322979634676974
v -0.78654133215197 0.48393700876893103 0.13322979634676974
v -0.4487764133478013 0.4120925812918935 0.1351270419922928
v -0.5607273770833817 0.18936362820087949 0.1348393452731232
v -0.78654133215197 0.48393700876893103 0.13322979634676974
v -0.4113317920232621 0.6256328802935534 0.13503080284272234
v -0.4487764133478013 0.4120925812918935 0.1351270419922928
v -0.78654133215197 0.48393700876893103 0.13322979634676974
v -0.7490977334196177 0.6974781717537277 0.13313457047616045
v -0.4113317920232621 0.6256328802935534 0.13503080284272234
vt 0 0
vt 0 0
vt 0 0
vt 0 0
vt 0 0
vt 0 0
vt 0 0
vt 0 0
vt 0 0
vt 0 0
vt 0 0
vt 0 0
vt 0 0
vt 0 0
vt 0 0
vt 0 0
vt 0 0
vt 0 0
vt 0 0
vt 0 0
vt 0 0
vt 0 0
vt 0 0
vt 0 0
vt 0 0
vt 0 0
vt 0 0
vt 0 0
vt 0 0
vt 0 0
vt 0 0
vt 0 0
vt 0 0
vt 0 0
vt 0 0
vt 0 0
vt 0 0
vt 0 0
vt 0 0
vt 0 0
vt 0 0
vt 0 0
vt 0 0
vt 0 0
vt 0 0
vt 0 0
vt 0 0
vt 0 0
vt 0 0
vt 0 0
vt 0 0
vt 0 0
vt 0 0
vt 0 0
vt 0 0
vt 0 0
vt 0 0
vt 0 0
vt 0 0
vt 0 0
vt 0 0
vt 0 0
vt 0 0
vt 0 0
vt 0 0
vt 0 0
vt 0 0
vt 0 0
vt 0 0
vt 0 0
vt 0 0
vt 0 0
vt 0 0
vt 0 0
vt 0 0
vt 0 0
vt 0 0
vt 0 0
vt 0 0
vt 0 0
vt 0 0
vt 0 0
vt 0 0
vt 0 0
vt 0 0
vt 0 0
vt 0 0
vt 0 0
vt 0 0
vt 0 0
vt 0 0
vt 0 0
vt 0 0
vt 0 0
vt 0 0
vt 0 0
vt 0 0
vt 0 0
vt 0 0
vt 0 0
vt 0 0
vt 0 0
vt 0 0
vt 0 0
vt 0 0
vt 0 0
vt 0 0
vt 0 0
vn 0.20807382188059892 0.978112879369362 0.0006927191182100913
vn 0.20807382188059892 0.978112879369362 0.0006927191182100913
vn 0.20807382188059892 0.978112879369362 0.0006927191182100913
vn 0.20807382188059892 0.978112879369362 0.0006927191182100913
vn 0.20807382188059892 0.978112879369362 0.0006927191182100913
vn 0.20807382188059892 0.978112879369362 0.0006927191182100913
vn -0.34617503958310725 -0.9381680403024764 -0.0018894773470263784
vn -0.34617503958310725 -0.9381680403024764 -0.0018894773470263784
vn -0.34617503958310725 -0.9381680403024764 -0.0018894773470263784
vn -0.34617503958310725 -0.9381680403024764 -0.0018894773470263784
vn -0.34617503958310725 -0.9381680403024764 -0.0018894773470263784
vn -0.34617503958310725 -0.9381680403024764 -0.0018894773470263784
vn 0.9866524036604227 -0.16262668069176542 0.008342486337328724
vn 0.9866524036604227 -0.16262668069176542 0.008342486337328724
vn 0.8589151466797119 -0.5120615442354597 0.007599060426492488
vn 0.8589151466797119 -0.5120615442354597 0.007599060426492488
vn 0.8589151466797119 -0.5120615442354597 0.007599060426492488
vn 0.9866524036604227 -0.16262668069176542 0.008342486337328724
vn 0.9969586436058198 -0.07747895536591759 0.008394904112040386
vn 0.9866524036604227 -0.16262668069176542 0.008342486337328724
vn 0.9866524036604227 -0.16262668069176542 0.008342486337328724
vn 0.9866524036604227 -0.16262668069176542 0.008342486337328724
vn 0.9969594698754104 -0.07747908382357795 0.008294998227832386
vn 0.9969586436058198 -0.07747895536591759 0.008394904112040386
vn 0.9514539287463858 -0.3076843651875244 0.008108815709903164
vn 0.9969586436058198 -0.07747895536591759 0.008394904112040386
vn 0.9969594698754104 -0.07747908382357795 0.008294998227832386
vn 0.9969594698754104 -0.07747908382357795 0.008294998227832386
vn 0.9514104361591108 -0.3078161709069503 0.008208952169060701
vn 0.9514539287463858 -0.3076843651875244 0.008108815709903164
vn 0.9849409749253817 -0.1726891627303229 0.00835038852622151
vn 0.9514539287463858 -0.3076843651875244 0.008108815709903164
vn 0.9514104361591108 -0.3078161709069503 0.008208952169060701
vn 0.9514104361591108 -0.3078161709069503 0.008208952169060701
vn 0.9849409749253817 -0.1726891627303229 0.00835038852622151
vn 0.9849409749253817 -0.1726891627303229 0.00835038852622151
vn -0.8589151466797119 0.5120615442354597 -0.007599060426492488
vn -0.698192513380167 0.715881058315455 -0.006443958801053836
vn -0.8589151466797119 0.5120615442354597 -0.007599060426492488
vn -0.698192513380167 0.715881058315455 -0.006443958801053836
vn -0.6980907674495997 0.7159802694105417 -0.0064447045267614364
vn -0.8589151466797119 0.5120615442354597 -0.007599060426492488
vn -0.6980907674495997 0.7159802694105417 -0.0064447045267614364
vn -0.698192513380167 0.715881058315455 -0.006443958801053836
vn -0.7057253206919164 0.708454954485089 -0.0065840109220956355
vn -0.7057253206919164 0.708454954485089 -0.0065840109220956355
vn -0.7057253102414784 0.7084540900214145 -0.006677485791737176
vn -0.6980907674495997 0.7159802694105417 -0.0064447045267614364
vn -0.7057253206919164 0.708454954485089 -0.0065840109220956355
vn -0.9504375810461045 0.3108069454967324 -0.008212622371736871
vn -0.7057253102414784 0.7084540900214145 -0.006677485791737176
vn -0.9503949897984618 0.31093971563504264 -0.008115208363338637
vn -0.9504375810461045 0.3108069454967324 -0.008212622371736871
vn -0.7057253206919164 0.708454954485089 -0.0065840109220956355
vn -0.9503949897984618 0.31093971563504264 -0.008115208363338637
vn -0.9849409749253817 0.1726891627303229 -0.00835038852622151
vn -0.9504375810461045 0.3108069454967324 -0.008212622371736871
vn -0.9849409749253817 0.1726891627303229 -0.00835038852622151
vn -0.9849409749253817 0.1726891627303229 -0.00835038852622151
vn -0.9503949897984618 0.31093971563504264 -0.008115208363338637
vn -0.005281089449168829 0.0013866624909254761 0.9999850935195815
vn 0.062421128305428494 0.18490300014290942 0.9807723911689341
vn -0.005281089449168829 0.0013866624909254761 0.9999850935195815
vn 0.062421128305428494 0.18490300014290942 0.9807723911689341
vn 0.02437446722437618 0.08174188490297739 0.996355433367047
vn -0.005281089449168829 0.0013866624909254761 0.9999850935195815
vn 0.062421128305428494 0.18490300014290942 0.9807723911689341
vn 0.09105513483510752 0.26210081480709374 0.9607352004051991
vn 0.02437446722437618 0.08174188490297739 0.996355433367047
vn 0.09105513483510752 0.26210081480709374 0.9607352004051991
vn 0.062421128305428494 0.18490300014290942 0.9807723911689341
vn 0.06812203010627933 0.19970817031619575 0.9774845450047569
vn 0.06812203010627933 0.19970817031619575 0.9774845450047569
vn -0.005281089449168829 0.0013866624909254761 0.9999850935195815
vn 0.09105513483510752 0.26210081480709374 0.9607352004051991
vn -0.005281089449168829 0.0013866624909254761 0.9999850935195815
vn 0.06812203010627933 0.19970817031619575 0.9774845450047569
vn -0.005281089449168829 0.0013866624909254761 0.9999850935195815
vn -0.005281089449168829 0.0013866624909254761 0.9999850935195815
vn -0.005281089449168829 0.0013866624909254761 0.9999850935195815
vn -0.005281089449168829 0.0013866624909254761 0.9999850935195815
vn -0.005281089449168829 0.0013866624909254761 0.9999850935195815
vn -0.005281089449168829 0.0013866624909254761 0.9999850935195815
vn -0.005281089449168829 0.0013866624909254761 0.9999850935195815
vn 0.005281089449168829 -0.0013866624909254761 -0.9999850935195815
vn 0.0348808269329271 0.07897789995723606 -0.9962659380059222
vn 0.07300811040541885 0.18237924142635248 -0.9805139612018681
vn 0.07300811040541885 0.18237924142635248 -0.9805139612018681
vn 0.005281089449168829 -0.0013866624909254761 -0.9999850935195815
vn 0.005281089449168829 -0.0013866624909254761 -0.9999850935195815
vn 0.07300811040541885 0.18237924142635248 -0.9805139612018681
vn 0.0348808269329271 0.07897789995723606 -0.9962659380059222
vn 0.10138883927791623 0.25961416665937487 -0.9603753369072091
vn 0.10138883927791623 0.25961416665937487 -0.9603753369072091
vn 0.07845565068718185 0.19720541096812738 -0.977217855322007
vn 0.07300811040541885 0.18237924142635248 -0.9805139612018681
vn 0.07845565068718185 0.19720541096812738 -0.977217855322007
vn 0.10138883927791623 0.25961416665937487 -0.9603753369072091
vn 0.005281089449168829 -0.0013866624909254761 -0.9999850935195815
vn 0.005281089449168829 -0.0013866624909254761 -0.9999850935195815
vn 0.005281089449168829 -0.0013866624909254761 -0.9999850935195815
vn 0.07845565068718185 0.19720541096812738 -0.977217855322007
vn 0.005281089449168829 -0.0013866624909254761 -0.9999850935195815
vn 0.005281089449168829 -0.0013866624909254761 -0.9999850935195815
vn 0.005281089449168829 -0.0013866624909254761 -0.9999850935195815
vn 0.005281089449168829 -0.0013866624909254761 -0.9999850935195815
vn 0.005281089449168829 -0.0013866624909254761 -0.9999850935195815
vn 0.005281089449168829 -0.0013866624909254761 -0.9999850935195815
f 181/181/181 182/182/182 183/183/183
f 184/184/184 185/185/185 186/186/186
f 187/187/187 188/188/188 189/189/189
f 190/190/190 191/191/191 192/192/192
f 193/193/193 194/194/194 195/195/195
f 196/196/196 197/197/197 198/198/198
f 199/199/199 200/200/200 201/201/201
f 202/202/202 203/203/203 204/204/204
f 205/205/205 206/206/206 207/207/207
f 208/208/208 209/209/209 210/210/210
f 211/211/211 212/212/212 213/213/213
f 214/214/214 215/215/215 216/216/216
f 217/217/217 218/218/218 219/219/219
f 220/220/220 221/221/221 222/222/222
f 223/223/223 224/224/224 225/225/225
f 226/226/226 227/227/227 228/228/228
f 229/229/229 230/230/230 231/231/231
f 232/232/232 233/233/233 234/234/234
f 235/235/235 236/236/236 237/237/237
f 238/238/238 239/239/239 240/240/240
f 241/241/241 242/242/242 243/243/243
f 244/244/244 245/245/245 246/246/246
f 247/247/247 248/248/248 249/249/249
f 250/250/250 251/251/251 252/252/252
f 253/253/253 254/254/254 255/255/255
f 256/256/256 257/257/257 258/258/258
f 259/259/259 260/260/260 261/261/261
f 262/262/262 263/263/263 264/264/264
f 265/265/265 266/266/266 267/267/267
f 268/268/268 269/269/269 270/270/270
f 271/271/271 272/272/272 273/273/273
f 274/274/274 275/275/275 276/276/276
f 277/277/277 278/278/278 279/279/279
f 280/280/280 281/281/281 282/282/282
f 283/283/283 284/284/284 285/285/285
f 286/286/286 287/287/287 288/288/288
