o Mesh
usemtl material6
v -0.32941041654889586 1.5125391900248176e-16 -0.0678820013999939
v -0.30541048712079527 0.0678820013999939 8.313147785365065e-18
v -0.32941041654889586 1.346276283948353e-16 0.0678820013999939
v -0.30541048712079527 -0.0678820013999939 -8.313147785365065e-18
v -0.32941041654889586 1.5125391900248176e-16 -0.0678820013999939
v -0.32941041654889586 1.346276283948353e-16 0.0678820013999939
v -0.32941041654889586 1.346276283948353e-16 0.0678820013999939
v -0.30541048712079527 0.0678820013999939 8.313147785365065e-18
v -0.5614104098731756 1.7135258147272782e-16 0
v -0.5614104098731756 1.7135258147272782e-16 0
v -0.32941041654889586 1.5125391900248176e-16 -0.0678820013999939
v -0.30541048712079527 -0.0678820013999939 -8.313147785365065e-18
v -0.32941041654889586 1.346276283948353e-16 0.0678820013999939
v -0.5614104098731756 1.7135258147272782e-16 0
v -0.30541048712079527 -0.0678820013999939 -8.313147785365065e-18
v -0.5614104098731756 1.7135258147272782e-16 0
v -0.30541048712079527 0.0678820013999939 8.313147785365065e-18
v -0.32941041654889586 1.5125391900248176e-16 -0.0678820013999939
vn 0.942808966690297 -0.3333335451591613 -4.4366449990348994e-17
vn 0.942808966690297 -0.3333335451591613 -4.4366449990348994e-17
vn 0.942808966690297 -0.3333335451591613 -4.4366449990348994e-17
vn 0.942808966690297 0.3333335451591613 4.082157416421079e-17
vn 0.942808966690297 0.3333335451591613 4.082157416421079e-17
vn 0.942808966690297 0.3333335451591613 4.082157416421079e-17
vn -0.1927968762838964 0.7270849543890885 0.6589209615698902
vn -0.1927968762838964 0.7270849543890885 0.6589209615698902
vn -0.1927968762838964 0.7270849543890885 0.6589209615698902
vn -0.1927968762838964 -0.7270849543890885 -0.6589209615698902
vn -0.1927968762838964 -0.7270849543890885 -0.6589209615698902
vn -0.1927968762838964 -0.7270849543890885 -0.6589209615698902
vn -0.1927968762838964 -0.7270849543890885 0.6589209615698902
vn -0.1927968762838964 -0.7270849543890885 0.6589209615698902
vn -0.1927968762838964 -0.7270849543890885 0.6589209615698902
vn -0.1927968762838964 0.7270849543890885 -0.6589209615698902
vn -0.1927968762838964 0.7270849543890885 -0.6589209615698902
vn -0.1927968762838964 0.7270849543890885 -0.6589209615698902
f 1//1 2//2 3//3
f 4//4 5//5 6//6
f 7//7 8//8 9//9
f 10//10 11//11 12//12
f 13//13 14//14 15//15
f 16//16 17//17 18//18
