o RenderMesh_18687756685.001
usemtl Meshpart5Mtl.002
v -0.5347745716640183 0.40094341502810116 0.08599670231342316
v -0.8711436782100627 0.4837634132924139 -0.08419939130544662
v -0.8725394234129616 0.4839644001545965 0.08410145342350006
v -0.5347745716640183 0.40094341502810116 0.08599670231342316
v -0.533377736813707 0.40074241326475735 -0.08230315893888474
v -0.8711436782100627 0.4837634132924139 -0.08419939130544662
v -1.0802756100961397 -0.05045057668065436 0.09962314367294312
v -0.7016687840291688 -0.21143059267377265 -0.09845159202814102
v -0.7033265531131455 -0.21119157804822333 0.10181782394647598
v -1.0802756100961397 -0.05045057668065436 0.09962314367294312
v -1.0786167830297182 -0.050690574782842474 -0.10064827650785446
v -0.7016687840291688 -0.21143059267377265 -0.09845159202814102
v -0.6722008287975022 -0.15431557430600532 -0.09836246818304062
v -0.6738606095382401 -0.1540765894827784 0.10190796107053757
v -0.7033265531131455 -0.21119157804822333 0.10181782394647598
v -0.7033265531131455 -0.21119157804822333 0.10181782394647598
v -0.7016687840291688 -0.21143059267377265 -0.09845159202814102
v -0.6722008287975022 -0.15431557430600532 -0.09836246818304062
v -0.6841670423814484 -0.10318659080838569 0.0858062282204628
v -0.6738606095382401 -0.1540765894827784 0.10190796107053757
v -0.6722008287975022 -0.15431557430600532 -0.09836246818304062
v -0.6722008287975022 -0.15431557430600532 -0.09836246818304062
v -0.6827733218738267 -0.10338957442616828 -0.08249461650848389
v -0.6841670423814484 -0.10318659080838569 0.0858062282204628
v -0.5722191631862351 0.15418840364838235 0.0860939472913742
v -0.6841670423814484 -0.10318659080838569 0.0858062282204628
v -0.6827733218738267 -0.10338957442616828 -0.08249461650848389
v -0.6827733218738267 -0.10338957442616828 -0.08249461650848389
v -0.5708223581382462 0.15398540512943856 -0.08220691978931427
v -0.5722191631862351 0.15418840364838235 0.0860939472913742
v -0.5347745716640183 0.40094341502810116 0.08599670231342316
v -0.5722191631862351 0.15418840364838235 0.0860939472913742
v -0.5708223581382462 0.15398540512943856 -0.08220691978931427
v -0.5708223581382462 0.15398540512943856 -0.08220691978931427
v -0.533377736813707 0.40074241326475735 -0.08230315893888474
v -0.5347745716640183 0.40094341502810116 0.08599670231342316
v -1.0802756100961397 -0.05045057668065436 0.09962314367294312
v -1.0508086681434343 0.006664411884790583 0.09971127659082413
v -1.0786167830297182 -0.050690574782842474 -0.10064827650785446
v -1.0508086681434343 0.006664411884790583 0.09971127659082413
v -1.0491488874026964 0.006426410538202448 -0.10056015849113464
v -1.0786167830297182 -0.050690574782842474 -0.10064827650785446
v -1.0491488874026964 0.006426410538202448 -0.10056015849113464
v -1.0508086681434343 0.006664411884790583 0.09971127659082413
v -1.000944688923044 0.03189240561152093 0.08395889401435852
v -1.000944688923044 0.03189240561152093 0.08395889401435852
v -0.999548882252855 0.03169341550493829 -0.08434096723794937
v -1.0491488874026964 0.006426410538202448 -0.10056015849113464
v -1.000944688923044 0.03189240561152093 0.08395889401435852
v -0.9085872769424149 0.23700540677929513 -0.08410416543483734
v -0.999548882252855 0.03169341550493829 -0.08434096723794937
v -0.9099830053815076 0.23720740692043893 0.08419868350028992
v -0.9085872769424149 0.23700540677929513 -0.08410416543483734
v -1.000944688923044 0.03189240561152093 0.08395889401435852
v -0.9099830053815076 0.23720740692043893 0.08419868350028992
v -0.8711436782100627 0.4837634132924139 -0.08419939130544662
v -0.9085872769424149 0.23700540677929513 -0.08410416543483734
v -0.8725394234129616 0.4839644001545965 0.08410145342350006
v -0.8711436782100627 0.4837634132924139 -0.08419939130544662
v -0.9099830053815076 0.23720740692043893 0.08419868350028992
v -0.7033265531131455 -0.21119157804822333 0.10181782394647598
v -0.6738606095382401 -0.1540765894827784 0.10190796107053757
v -1.0802756100961397 -0.05045057668065436 0.09962314367294312
v -0.6738606095382401 -0.1540765894827784 0.10190796107053757
v -1.0508086681434343 0.006664411884790583 0.09971127659082413
v -1.0802756100961397 -0.05045057668065436 0.09962314367294312
v -0.6738606095382401 -0.1540765894827784 0.10190796107053757
v -1.000944688923044 0.03189240561152093 0.08395889401435852
v -1.0508086681434343 0.006664411884790583 0.09971127659082413
v -1.000944688923044 0.03189240561152093 0.08395889401435852
v -0.6738606095382401 -0.1540765894827784 0.10190796107053757
v -0.6841670423814484 -0.10318659080838569 0.0858062282204628
v -0.6841670423814484 -0.10318659080838569 0.0858062282204628
v -0.9099830053815076 0.23720740692043893 0.08419868350028992
v -1.000944688923044 0.03189240561152093 0.08395889401435852
v -0.9099830053815076 0.23720740692043893 0.08419868350028992
v -0.6841670423814484 -0.10318659080838569 0.0858062282204628
v -0.5722191631862351 0.15418840364838235 0.0860939472913742
v -0.9099830053815076 0.23720740692043893 0.08419868350028992
v -0.5722191631862351 0.15418840364838235 0.0860939472913742
v -0.5347745716640183 0.40094341502810116 0.08599670231342316
v -0.5347745716640183 0.40094341502810116 0.08599670231342316
v -0.8725394234129616 0.4839644001545965 0.08410145342350006
v -0.9099830053815076 0.23720740692043893 0.08419868350028992
v -1.0786167830297182 -0.050690574782842474 -0.10064827650785446
v -1.0491488874026964 0.006426410538202448 -0.10056015849113464
v -0.6722008287975022 -0.15431557430600532 -0.09836246818304062
v -0.6722008287975022 -0.15431557430600532 -0.09836246818304062
v -0.7016687840291688 -0.21143059267377265 -0.09845159202814102
v -1.0786167830297182 -0.050690574782842474 -0.10064827650785446
v -0.6722008287975022 -0.15431557430600532 -0.09836246818304062
v -1.0491488874026964 0.006426410538202448 -0.10056015849113464
v -0.999548882252855 0.03169341550493829 -0.08434096723794937
v -0.999548882252855 0.03169341550493829 -0.08434096723794937
v -0.6827733218738267 -0.10338957442616828 -0.08249461650848389
v -0.6722008287975022 -0.15431557430600532 -0.09836246818304062
v -0.6827733218738267 -0.10338957442616828 -0.08249461650848389
v -0.999548882252855 0.03169341550493829 -0.08434096723794937
v -0.9085872769424149 0.23700540677929513 -0.08410416543483734
v -0.9085872769424149 0.23700540677929513 -0.08410416543483734
v -0.5708223581382462 0.15398540512943856 -0.08220691978931427
v -0.6827733218738267 -0.10338957442616828 -0.08249461650848389
v -0.9085872769424149 0.23700540677929513 -0.08410416543483734
v -0.533377736813707 0.40074241326475735 -0.08230315893888474
v -0.5708223581382462 0.15398540512943856 -0.08220691978931427
v -0.9085872769424149 0.23700540677929513 -0.08410416543483734
v -0.8711436782100627 0.4837634132924139 -0.08419939130544662
v -0.533377736813707 0.40074241326475735 -0.08230315893888474
vt 0 0
vt 0 0
vt 0 0
vt 0 0
vt 0 0
vt 0 0
vt 0 0
vt 0 0
vt 0 0
vt 0 0
vt 0 0
vt 0 0
vt 0 0
vt 0 0
vt 0 0
vt 0 0
vt 0 0
vt 0 0
vt 0 0
vt 0 0
vt 0 0
vt 0 0
vt 0 0
vt 0 0
vt 0 0
vt 0 0
vt 0 0
vt 0 0
vt 0 0
vt 0 0
vt 0 0
vt 0 0
vt 0 0
vt 0 0
vt 0 0
vt 0 0
vt 0 0
vt 0 0
vt 0 0
vt 0 0
vt 0 0
vt 0 0
vt 0 0
vt 0 0
vt 0 0
vt 0 0
vt 0 0
vt 0 0
vt 0 0
vt 0 0
vt 0 0
vt 0 0
vt 0 0
vt 0 0
vt 0 0
vt 0 0
vt 0 0
vt 0 0
vt 0 0
vt 0 0
vt 0 0
vt 0 0
vt 0 0
vt 0 0
vt 0 0
vt 0 0
vt 0 0
vt 0 0
vt 0 0
vt 0 0
vt 0 0
vt 0 0
vt 0 0
vt 0 0
vt 0 0
vt 0 0
vt 0 0
vt 0 0
vt 0 0
vt 0 0
vt 0 0
vt 0 0
vt 0 0
vt 0 0
vt 0 0
vt 0 0
vt 0 0
vt 0 0
vt 0 0
vt 0 0
vt 0 0
vt 0 0
vt 0 0
vt 0 0
vt 0 0
vt 0 0
vt 0 0
vt 0 0
vt 0 0
vt 0 0
vt 0 0
vt 0 0
vt 0 0
vt 0 0
vt 0 0
vt 0 0
vt 0 0
vt 0 0
vn 0.23871375394465882 0.9710896519317667 0.0007947255432836517
vn 0.23871375394465882 0.9710896519317667 0.0007947255432836517
vn 0.23871375394465882 0.9710896519317667 0.0007947255432836517
vn 0.23871375394465882 0.9710896519317667 0.0007947255432836517
vn 0.23871375394465882 0.9710896519317667 0.0007947255432836517
vn 0.23871375394465882 0.9710896519317667 0.0007947255432836517
vn -0.3922207572182694 -0.919868628975732 -0.002140802054041614
vn -0.3922207572182694 -0.919868628975732 -0.002140802054041614
vn -0.3922207572182694 -0.919868628975732 -0.002140802054041614
vn -0.3922207572182694 -0.919868628975732 -0.002140802054041614
vn -0.3922207572182694 -0.919868628975732 -0.002140802054041614
vn -0.3922207572182694 -0.919868628975732 -0.002140802054041614
vn 0.9899450385775608 -0.14120466786402253 0.008370326701076004
vn 0.9899450385775608 -0.14120466786402253 0.008370326701076004
vn 0.8886689362825112 -0.45848195811625214 0.007862300451986099
vn 0.8886689362825112 -0.45848195811625214 0.007862300451986099
vn 0.8886689362825112 -0.45848195811625214 0.007862300451986099
vn 0.9899450385775608 -0.14120466786402253 0.008370326701076004
vn 0.9977108933210755 -0.06709986990386041 0.008401238441220824
vn 0.9899450385775608 -0.14120466786402253 0.008370326701076004
vn 0.9899450385775608 -0.14120466786402253 0.008370326701076004
vn 0.9899450385775608 -0.14120466786402253 0.008370326701076004
vn 0.9977117227113641 -0.06709998132127408 0.00830125719434975
vn 0.9977108933210755 -0.06709986990386041 0.008401238441220824
vn 0.9629686490050756 -0.26948845429184326 0.008206950513604934
vn 0.9977108933210755 -0.06709986990386041 0.008401238441220824
vn 0.9977117227113641 -0.06709998132127408 0.00830125719434975
vn 0.9977117227113641 -0.06709998132127408 0.00830125719434975
vn 0.9629346770648773 -0.26960671066528846 0.008308385535339595
vn 0.9629686490050756 -0.26948845429184326 0.008206950513604934
vn 0.9886496086807668 -0.15000565380037945 0.008381830545131598
vn 0.9629686490050756 -0.26948845429184326 0.008206950513604934
vn 0.9629346770648773 -0.26960671066528846 0.008308385535339595
vn 0.9629346770648773 -0.26960671066528846 0.008308385535339595
vn 0.9886496086807668 -0.15000565380037945 0.008381830545131598
vn 0.9886496086807668 -0.15000565380037945 0.008381830545131598
vn -0.8886689362825112 0.45848195811625214 -0.007862300451986099
vn -0.7479771324298008 0.6636885955062597 -0.006903445300742667
vn -0.8886689362825112 0.45848195811625214 -0.007862300451986099
vn -0.7479771324298008 0.6636885955062597 -0.006903445300742667
vn -0.747883440683696 0.6637941613267815 -0.006904385533235286
vn -0.8886689362825112 0.45848195811625214 -0.007862300451986099
vn -0.747883440683696 0.6637941613267815 -0.006904385533235286
vn -0.7479771324298008 0.6636885955062597 -0.006903445300742667
vn -0.7548973703364099 0.6558051233569746 -0.007042757834568267
vn -0.7548973703364099 0.6558051233569746 -0.007042757834568267
vn -0.7548972263245202 0.6558042077404482 -0.007142744393394319
vn -0.747883440683696 0.6637941613267815 -0.006904385533235286
vn -0.7548973703364099 0.6558051233569746 -0.007042757834568267
vn -0.9621790199177241 0.2722910386403718 -0.008314078801360909
vn -0.7548972263245202 0.6558042077404482 -0.007142744393394319
vn -0.9621461224375213 0.2724102491447337 -0.008215548633326193
vn -0.9621790199177241 0.2722910386403718 -0.008314078801360909
vn -0.7548973703364099 0.6558051233569746 -0.007042757834568267
vn -0.9621461224375213 0.2724102491447337 -0.008215548633326193
vn -0.9886496086807668 0.15000565380037945 -0.008381830545131598
vn -0.9621790199177241 0.2722910386403718 -0.008314078801360909
vn -0.9886496086807668 0.15000565380037945 -0.008381830545131598
vn -0.9886496086807668 0.15000565380037945 -0.008381830545131598
vn -0.9621461224375213 0.2724102491447337 -0.008215548633326193
vn -0.005281090724113292 0.001199999937792226 0.9999853349329245
vn 0.06269081093943828 0.1607039611063375 0.9850096949312166
vn -0.005281090724113292 0.001199999937792226 0.9999853349329245
vn 0.06269081093943828 0.1607039611063375 0.9850096949312166
vn 0.024394940974547863 0.07079777979684183 0.9971923391355783
vn -0.005281090724113292 0.001199999937792226 0.9999853349329245
vn 0.06269081093943828 0.1607039611063375 0.9850096949312166
vn 0.09185080098848858 0.22880063623729552 0.9691303829801136
vn 0.024394940974547863 0.07079777979684183 0.9971923391355783
vn 0.09185080098848858 0.22880063623729552 0.9691303829801136
vn 0.06269081093943828 0.1607039611063375 0.9850096949312166
vn 0.06846573240549947 0.17369681689984848 0.9824163370409915
vn 0.06846573240549947 0.17369681689984848 0.9824163370409915
vn -0.005281090724113292 0.001199999937792226 0.9999853349329245
vn 0.09185080098848858 0.22880063623729552 0.9691303829801136
vn -0.005281090724113292 0.001199999937792226 0.9999853349329245
vn 0.06846573240549947 0.17369681689984848 0.9824163370409915
vn -0.005281090724113292 0.001199999937792226 0.9999853349329245
vn -0.005281090724113292 0.001199999937792226 0.9999853349329245
vn -0.005281090724113292 0.001199999937792226 0.9999853349329245
vn -0.005281090724113292 0.001199999937792226 0.9999853349329245
vn -0.005281090724113292 0.001199999937792226 0.9999853349329245
vn -0.005281090724113292 0.001199999937792226 0.9999853349329245
vn -0.005281090724113292 0.001199999937792226 0.9999853349329245
vn 0.005281090724113292 -0.001199999937792226 -0.9999853349329245
vn 0.03490817549643595 0.06840003287316399 -0.99704706748802
vn 0.07331492708236295 0.15849189366022223 -0.9846345723723623
vn 0.07331492708236295 0.15849189366022223 -0.9846345723723623
vn 0.005281090724113292 -0.001199999937792226 -0.9999853349329245
vn 0.005281090724113292 -0.001199999937792226 -0.9999853349329245
vn 0.07331492708236295 0.15849189366022223 -0.9846345723723623
vn 0.03490817549643595 0.06840003287316399 -0.99704706748802
vn 0.10225785739044926 0.22659236669988425 -0.9686068500456002
vn 0.10225785739044926 0.22659236669988425 -0.9686068500456002
vn 0.07884155806390608 0.17149842943823965 -0.982024591047634
vn 0.07331492708236295 0.15849189366022223 -0.9846345723723623
vn 0.07884155806390608 0.17149842943823965 -0.982024591047634
vn 0.10225785739044926 0.22659236669988425 -0.9686068500456002
vn 0.005281090724113292 -0.001199999937792226 -0.9999853349329245
vn 0.005281090724113292 -0.001199999937792226 -0.9999853349329245
vn 0.005281090724113292 -0.001199999937792226 -0.9999853349329245
vn 0.07884155806390608 0.17149842943823965 -0.982024591047634
vn 0.005281090724113292 -0.001199999937792226 -0.9999853349329245
vn 0.005281090724113292 -0.001199999937792226 -0.9999853349329245
vn 0.005281090724113292 -0.001199999937792226 -0.9999853349329245
vn 0.005281090724113292 -0.001199999937792226 -0.9999853349329245
vn 0.005281090724113292 -0.001199999937792226 -0.9999853349329245
vn 0.005281090724113292 -0.001199999937792226 -0.9999853349329245
f 1/1/1 2/2/2 3/3/3
f 4/4/4 5/5/5 6/6/6
f 7/7/7 8/8/8 9/9/9
f 10/10/10 11/11/11 12/12/12
f 13/13/13 14/14/14 15/15/15
f 16/16/16 17/17/17 18/18/18
f 19/19/19 20/20/20 21/21/21
f 22/22/22 23/23/23 24/24/24
f 25/25/25 26/26/26 27/27/27
f 28/28/28 29/29/29 30/30/30
f 31/31/31 32/32/32 33/33/33
f 34/34/34 35/35/35 36/36/36
f 37/37/37 38/38/38 39/39/39
f 40/40/40 41/41/41 42/42/42
f 43/43/43 44/44/44 45/45/45
f 46/46/46 47/47/47 48/48/48
f 49/49/49 50/50/50 51/51/51
f 52/52/52 53/53/53 54/54/54
f 55/55/55 56/56/56 57/57/57
f 58/58/58 59/59/59 60/60/60
f 61/61/61 62/62/62 63/63/63
f 64/64/64 65/65/65 66/66/66
f 67/67/67 68/68/68 69/69/69
f 70/70/70 71/71/71 72/72/72
f 73/73/73 74/74/74 75/75/75
f 76/76/76 77/77/77 78/78/78
f 79/79/79 80/80/80 81/81/81
f 82/82/82 83/83/83 84/84/84
f 85/85/85 86/86/86 87/87/87
f 88/88/88 89/89/89 90/90/90
f 91/91/91 92/92/92 93/93/93
f 94/94/94 95/95/95 96/96/96
f 97/97/97 98/98/98 99/99/99
f 100/100/100 101/101/101 102/102/102
f 103/103/103 104/104/104 105/105/105
f 106/106/106 107/107/107 108/108/108
