o RenderMesh_18687756845
usemtl Meshpart5Mtl.002
v 0.1090111205233778 0.1491686775330494 0.08653227811414295
v 0.13965306758748597 0.14118468006886942 0.08707006083227718
v 0.11414564785120196 0.14956767102517587 -0.09565108582634
v 0.13965306758748597 0.14118468006886942 0.08707006083227718
v 0.14478854853611078 0.14158367356099588 -0.09511331338146348
v 0.11414564785120196 0.14956767102517587 -0.09565108582634
v 0.019694904595787932 0.1724356784466694 0.08496991619112777
v 0.05033880092680676 0.16445166608132822 0.08550568488427855
v 0.02483141645954745 0.17283467193879587 -0.09721146283072932
v 0.05033880092680676 0.16445166608132822 0.08550568488427855
v 0.055474290696794326 0.16485267123021585 -0.09667668912791663
v 0.02483141645954745 0.17283467193879587 -0.09721146283072932
v 0.1983244247418935 0.1259026749972294 0.08809566413385385
v 0.22896926590520394 0.11791867753304941 0.08863042607734677
v 0.20345991451188106 0.12630166848935587 -0.09408670987834133
v 0.22896926590520394 0.11791867753304941 0.08863042607734677
v 0.23410475562591027 0.11831866940297586 -0.09355195352256651
v 0.20345991451188106 0.12630166848935587 -0.09408670987834133
v 0.01519539161200234 -0.3261113242264797 0.07892536830916953
v -0.013548560313211166 -0.3131193296071102 0.0784878545288762
v 0.02033189462154461 -0.32571131745539206 -0.10325701463937847
v -0.013548560313211166 -0.3131193296071102 0.0784878545288762
v -0.008413061771141872 -0.31272033611498373 -0.10369352486949159
v 0.02033189462154461 -0.32571131745539206 -0.10325701463937847
v -0.0685850785987302 -0.28824732462130087 0.07765219958857981
v -0.09732903932887982 -0.2752543316241314 0.07721368746931366
v -0.06344756238248783 -0.2878483311291744 -0.10453019602146649
v -0.09732903932887982 -0.2752543316241314 0.07721368746931366
v -0.09219353198187452 -0.2748553232308437 -0.10496669359008132
v -0.06344756238248783 -0.2878483311291744 -0.10453019602146649
v 0.09897592142506173 -0.3639773205872585 0.08019853650409146
v 0.07022894739105645 -0.350985325967889 0.07976304621080228
v 0.1041104155817939 -0.36357633033953207 -0.10198183003123255
v 0.07022894739105645 -0.350985325967889 0.07976304621080228
v 0.07536443716104413 -0.35058531919680136 -0.1024193278013929
v 0.1041104155817939 -0.36357633033953207 -0.10198183003123255
v 0.22896926590520394 0.11791867753304941 0.08863042607734677
v 0.1977761550812257 -0.1222023294325878 0.08512138834413692
v 0.23410475562591027 0.11831866940297586 -0.09355195352256651
v 0.1977761550812257 -0.1222023294325878 0.08512138834413692
v 0.20291368010240418 -0.12180132428370016 -0.0970600089269366
v 0.23410475562591027 0.11831866940297586 -0.09355195352256651
v 0.1977761550812257 -0.1222023294325878 0.08512138834413692
v 0.09897592142506173 -0.3639773205872585 0.08019853650409146
v 0.20291368010240418 -0.12180132428370016 -0.0970600089269366
v 0.09897592142506173 -0.3639773205872585 0.08019853650409146
v 0.1041104155817939 -0.36357633033953207 -0.10198183003123255
v 0.20291368010240418 -0.12180132428370016 -0.0970600089269366
v 0.019694904595787932 0.1724356784466694 0.08496991619112777
v -0.0063608091508926545 -0.06728432709537047 -0.10072150865050195
v -0.011496298953734607 -0.06768432641587752 0.0814608616365478
v 0.019694904595787932 0.1724356784466694 0.08496991619112777
v 0.02483141645954745 0.17283467193879587 -0.09721146283072932
v -0.0063608091508926545 -0.06728432709537047 -0.10072150865050195
v -0.011496298953734607 -0.06768432641587752 0.0814608616365478
v -0.0063608091508926545 -0.06728432709537047 -0.10072150865050195
v -0.09219353198187452 -0.2748553232308437 -0.10496669359008132
v -0.011496298953734607 -0.06768432641587752 0.0814608616365478
v -0.09219353198187452 -0.2748553232308437 -0.10496669359008132
v -0.09732903932887982 -0.2752543316241314 0.07721368746931366
v -0.013548560313211166 -0.3131193296071102 0.0784878545288762
v 0.01519539161200234 -0.3261113242264797 0.07892536830916953
v 0.07781699645984519 -0.09095032522640722 0.0830232493172859
v 0.10846388171213639 -0.0989353285189678 0.08355999006601876
v 0.07781699645984519 -0.09095032522640722 0.0830232493172859
v 0.01519539161200234 -0.3261113242264797 0.07892536830916953
v 0.07781699645984519 -0.09095032522640722 0.0830232493172859
v 0.10846388171213639 -0.0989353285189678 0.08355999006601876
v 0.13965306758748597 0.14118468006886942 0.08707006083227718
v 0.13965306758748597 0.14118468006886942 0.08707006083227718
v 0.1090111205233778 0.1491686775330494 0.08653227811414295
v 0.07781699645984519 -0.09095032522640722 0.0830232493172859
v 0.07022894739105645 -0.350985325967889 0.07976304621080228
v 0.09897592142506173 -0.3639773205872585 0.08019853650409146
v 0.16713620130870754 -0.11421832451782721 0.08458658329588313
v 0.1977761550812257 -0.1222023294325878 0.08512138834413692
v 0.16713620130870754 -0.11421832451782721 0.08458658329588313
v 0.09897592142506173 -0.3639773205872585 0.08019853650409146
v 0.16713620130870754 -0.11421832451782721 0.08458658329588313
v 0.1977761550812257 -0.1222023294325878 0.08512138834413692
v 0.22896926590520394 0.11791867753304941 0.08863042607734677
v 0.22896926590520394 0.11791867753304941 0.08863042607734677
v 0.1983244247418935 0.1259026749972294 0.08809566413385385
v 0.16713620130870754 -0.11421832451782721 0.08458658329588313
v 0.1041104155817939 -0.36357633033953207 -0.10198183003123255
v 0.07536443716104413 -0.35058531919680136 -0.1024193278013929
v 0.17226978380423985 -0.11381932357512015 -0.09759577389494196
v 0.17226978380423985 -0.11381932357512015 -0.09759577389494196
v 0.20291368010240418 -0.12180132428370016 -0.0970600089269366
v 0.1041104155817939 -0.36357633033953207 -0.10198183003123255
v 0.23410475562591027 0.11831866940297586 -0.09355195352256651
v 0.20291368010240418 -0.12180132428370016 -0.0970600089269366
v 0.17226978380423985 -0.11381932357512015 -0.09759577389494196
v 0.17226978380423985 -0.11381932357512015 -0.09759577389494196
v 0.20345991451188106 0.12630166848935587 -0.09408670987834133
v 0.23410475562591027 0.11831866940297586 -0.09355195352256651
v 0.02033189462154461 -0.32571131745539206 -0.10325701463937847
v -0.008413061771141872 -0.31272033611498373 -0.10369352486949159
v 0.08295446194440526 -0.09055233011208075 -0.09915813997782894
v 0.08295446194440526 -0.09055233011208075 -0.09915813997782894
v 0.11359938030348726 -0.09853432337008017 -0.09862138374463092
v 0.02033189462154461 -0.32571131745539206 -0.10325701463937847
v 0.14478854853611078 0.14158367356099588 -0.09511331338146348
v 0.11359938030348726 -0.09853432337008017 -0.09862138374463092
v 0.08295446194440526 -0.09055233011208075 -0.09915813997782894
v 0.08295446194440526 -0.09055233011208075 -0.09915813997782894
v 0.11414564785120196 0.14956767102517587 -0.09565108582634
v 0.14478854853611078 0.14158367356099588 -0.09511331338146348
v -0.09732903932887982 -0.2752543316241314 0.07721368746931366
v -0.0685850785987302 -0.28824732462130087 0.07765219958857981
v -0.011496298953734607 -0.06768432641587752 0.0814608616365478
v 0.019148679024101223 -0.07566732550225752 0.08199761920665073
v -0.011496298953734607 -0.06768432641587752 0.0814608616365478
v -0.0685850785987302 -0.28824732462130087 0.07765219958857981
v -0.011496298953734607 -0.06768432641587752 0.0814608616365478
v 0.019148679024101223 -0.07566732550225752 0.08199761920665073
v 0.05033880092680676 0.16445166608132822 0.08550568488427855
v 0.05033880092680676 0.16445166608132822 0.08550568488427855
v 0.019694904595787932 0.1724356784466694 0.08496991619112777
v -0.011496298953734607 -0.06768432641587752 0.0814608616365478
v -0.06344756238248783 -0.2878483311291744 -0.10453019602146649
v -0.09219353198187452 -0.2748553232308437 -0.10496669359008132
v -0.0063608091508926545 -0.06728432709537047 -0.10072150865050195
v -0.0063608091508926545 -0.06728432709537047 -0.10072150865050195
v 0.024284168810515983 -0.07526632780395048 -0.10018475294297174
v -0.06344756238248783 -0.2878483311291744 -0.10453019602146649
v 0.055474290696794326 0.16485267123021585 -0.09667668912791663
v 0.024284168810515983 -0.07526632780395048 -0.10018475294297174
v -0.0063608091508926545 -0.06728432709537047 -0.10072150865050195
v -0.0063608091508926545 -0.06728432709537047 -0.10072150865050195
v 0.02483141645954745 0.17283467193879587 -0.09721146283072932
v 0.055474290696794326 0.16485267123021585 -0.09667668912791663
v 0.13965306758748597 0.14118468006886942 0.08707006083227718
v 0.10846388171213639 -0.0989353285189678 0.08355999006601876
v 0.11359938030348726 -0.09853432337008017 -0.09862138374463092
v 0.11359938030348726 -0.09853432337008017 -0.09862138374463092
v 0.14478854853611078 0.14158367356099588 -0.09511331338146348
v 0.13965306758748597 0.14118468006886942 0.08707006083227718
v 0.02033189462154461 -0.32571131745539206 -0.10325701463937847
v 0.11359938030348726 -0.09853432337008017 -0.09862138374463092
v 0.10846388171213639 -0.0989353285189678 0.08355999006601876
v 0.10846388171213639 -0.0989353285189678 0.08355999006601876
v 0.01519539161200234 -0.3261113242264797 0.07892536830916953
v 0.02033189462154461 -0.32571131745539206 -0.10325701463937847
v 0.1090111205233778 0.1491686775330494 0.08653227811414295
v 0.08295446194440526 -0.09055233011208075 -0.09915813997782894
v 0.07781699645984519 -0.09095032522640722 0.0830232493172859
v 0.1090111205233778 0.1491686775330494 0.08653227811414295
v 0.11414564785120196 0.14956767102517587 -0.09565108582634
v 0.08295446194440526 -0.09055233011208075 -0.09915813997782894
v 0.07781699645984519 -0.09095032522640722 0.0830232493172859
v 0.08295446194440526 -0.09055233011208075 -0.09915813997782894
v -0.008413061771141872 -0.31272033611498373 -0.10369352486949159
v 0.07781699645984519 -0.09095032522640722 0.0830232493172859
v -0.008413061771141872 -0.31272033611498373 -0.10369352486949159
v -0.013548560313211166 -0.3131193296071102 0.0784878545288762
v 0.055474290696794326 0.16485267123021585 -0.09667668912791663
v 0.05033880092680676 0.16445166608132822 0.08550568488427855
v 0.019148679024101223 -0.07566732550225752 0.08199761920665073
v 0.019148679024101223 -0.07566732550225752 0.08199761920665073
v 0.024284168810515983 -0.07526632780395048 -0.10018475294297174
v 0.055474290696794326 0.16485267123021585 -0.09667668912791663
v 0.019148679024101223 -0.07566732550225752 0.08199761920665073
v -0.0685850785987302 -0.28824732462130087 0.07765219958857981
v 0.024284168810515983 -0.07526632780395048 -0.10018475294297174
v -0.0685850785987302 -0.28824732462130087 0.07765219958857981
v -0.06344756238248783 -0.2878483311291744 -0.10453019602146649
v 0.024284168810515983 -0.07526632780395048 -0.10018475294297174
v 0.1983244247418935 0.1259026749972294 0.08809566413385385
v 0.17226978380423985 -0.11381932357512015 -0.09759577389494196
v 0.16713620130870754 -0.11421832451782721 0.08458658329588313
v 0.1983244247418935 0.1259026749972294 0.08809566413385385
v 0.20345991451188106 0.12630166848935587 -0.09408670987834133
v 0.17226978380423985 -0.11381932357512015 -0.09759577389494196
v 0.16713620130870754 -0.11421832451782721 0.08458658329588313
v 0.17226978380423985 -0.11381932357512015 -0.09759577389494196
v 0.07536443716104413 -0.35058531919680136 -0.1024193278013929
v 0.16713620130870754 -0.11421832451782721 0.08458658329588313
v 0.07536443716104413 -0.35058531919680136 -0.1024193278013929
v 0.07022894739105645 -0.350985325967889 0.07976304621080228
vt 0 0
vt 0 0
vt 0 0
vt 0 0
vt 0 0
vt 0 0
vt 0 0
vt 0 0
vt 0 0
vt 0 0
vt 0 0
vt 0 0
vt 0 0
vt 0 0
vt 0 0
vt 0 0
vt 0 0
vt 0 0
vt 0 0
vt 0 0
vt 0 0
vt 0 0
vt 0 0
vt 0 0
vt 0 0
vt 0 0
vt 0 0
vt 0 0
vt 0 0
vt 0 0
vt 0 0
vt 0 0
vt 0 0
vt 0 0
vt 0 0
vt 0 0
vt 0 0
vt 0 0
vt 0 0
vt 0 0
vt 0 0
vt 0 0
vt 0 0
vt 0 0
vt 0 0
vt 0 0
vt 0 0
vt 0 0
vt 0 0
vt 0 0
vt 0 0
vt 0 0
vt 0 0
vt 0 0
vt 0 0
vt 0 0
vt 0 0
vt 0 0
vt 0 0
vt 0 0
vt 0 0
vt 0 0
vt 0 0
vt 0 0
vt 0 0
vt 0 0
vt 0 0
vt 0 0
vt 0 0
vt 0 0
vt 0 0
vt 0 0
vt 0 0
vt 0 0
vt 0 0
vt 0 0
vt 0 0
vt 0 0
vt 0 0
vt 0 0
vt 0 0
vt 0 0
vt 0 0
vt 0 0
vt 0 0
vt 0 0
vt 0 0
vt 0 0
vt 0 0
vt 0 0
vt 0 0
vt 0 0
vt 0 0
vt 0 0
vt 0 0
vt 0 0
vt 0 0
vt 0 0
vt 0 0
vt 0 0
vt 0 0
vt 0 0
vt 0 0
vt 0 0
vt 0 0
vt 0 0
vt 0 0
vt 0 0
vt 0 0
vt 0 0
vt 0 0
vt 0 0
vt 0 0
vt 0 0
vt 0 0
vt 0 0
vt 0 0
vt 0 0
vt 0 0
vt 0 0
vt 0 0
vt 0 0
vt 0 0
vt 0 0
vt 0 0
vt 0 0
vt 0 0
vt 0 0
vt 0 0
vt 0 0
vt 0 0
vt 0 0
vt 0 0
vt 0 0
vt 0 0
vt 0 0
vt 0 0
vt 0 0
vt 0 0
vt 0 0
vt 0 0
vt 0 0
vt 0 0
vt 0 0
vt 0 0
vt 0 0
vt 0 0
vt 0 0
vt 0 0
vt 0 0
vt 0 0
vt 0 0
vt 0 0
vt 0 0
vt 0 0
vt 0 0
vt 0 0
vt 0 0
vt 0 0
vt 0 0
vt 0 0
vt 0 0
vt 0 0
vt 0 0
vt 0 0
vt 0 0
vt 0 0
vt 0 0
vt 0 0
vt 0 0
vt 0 0
vt 0 0
vt 0 0
vt 0 0
vt 0 0
vt 0 0
vt 0 0
vt 0 0
vt 0 0
vt 0 0
vn 0.2519873458771498 0.9676870073966051 0.009177866505495957
vn 0.2519873458771498 0.9676870073966051 0.009177866505495957
vn 0.2519873458771498 0.9676870073966051 0.009177866505495957
vn 0.2519873458771498 0.9676870073966051 0.009177866505495957
vn 0.2519873458771498 0.9676870073966051 0.009177866505495957
vn 0.2519873458771498 0.9676870073966051 0.009177866505495957
vn 0.2519873458771498 0.9676870073966051 0.009177866505495957
vn 0.2519873458771498 0.9676870073966051 0.009177866505495957
vn 0.2518943008393476 0.9677102675883396 0.009278965931647648
vn 0.2519873458771498 0.9676870073966051 0.009177866505495957
vn 0.2518943008393476 0.9677102675883396 0.009278965931647648
vn 0.2518943008393476 0.9677102675883396 0.009278965931647648
vn 0.2519873458771498 0.9676870073966051 0.009177866505495957
vn 0.2519873458771498 0.9676870073966051 0.009177866505495957
vn 0.2518937073313358 0.9677113756401299 0.009178979440170432
vn 0.2519873458771498 0.9676870073966051 0.009177866505495957
vn 0.2518937073313358 0.9677113756401299 0.009178979440170432
vn 0.2518937073313358 0.9677113756401299 0.009178979440170432
vn -0.4116534964905981 -0.9112393934685504 -0.013570800202401362
vn -0.4116534964905981 -0.9112393934685504 -0.013570800202401362
vn -0.41161598022529 -0.9112563589746633 -0.013569563420143524
vn -0.4116534964905981 -0.9112393934685504 -0.013570800202401362
vn -0.41161598022529 -0.9112563589746633 -0.013569563420143524
vn -0.41161598022529 -0.9112563589746633 -0.013569563420143524
vn -0.41173653982166025 -0.9112018954360938 -0.013569359946452721
vn -0.4116534964905981 -0.9112393934685504 -0.013570800202401362
vn -0.4116534964905981 -0.9112393934685504 -0.013570800202401362
vn -0.4116534964905981 -0.9112393934685504 -0.013570800202401362
vn -0.4116534964905981 -0.9112393934685504 -0.013570800202401362
vn -0.4116534964905981 -0.9112393934685504 -0.013570800202401362
vn -0.41161598022529 -0.9112563589746633 -0.013569563420143524
vn -0.41161598022529 -0.9112563589746633 -0.013569563420143524
vn -0.41161598022529 -0.9112563589746633 -0.013569563420143524
vn -0.41161598022529 -0.9112563589746633 -0.013569563420143524
vn -0.41161598022529 -0.9112563589746633 -0.013569563420143524
vn -0.41161598022529 -0.9112563589746633 -0.013569563420143524
vn 0.9912336138874519 -0.1291936279789481 0.02765735325838553
vn 0.9791368011583937 -0.20139177131248684 0.027064350443470903
vn 0.9912336138874519 -0.1291936279789481 0.02765735325838553
vn 0.9791368011583937 -0.20139177131248684 0.027064350443470903
vn 0.9791406585249793 -0.2012914789121337 0.027664261071568462
vn 0.9912336138874519 -0.1291936279789481 0.02765735325838553
vn 0.9791368011583937 -0.20139177131248684 0.027064350443470903
vn 0.9252222669507416 -0.3785851340195863 0.025239909625478656
vn 0.9791406585249793 -0.2012914789121337 0.027664261071568462
vn 0.9252222669507416 -0.3785851340195863 0.025239909625478656
vn 0.9252222669507416 -0.3785851340195863 0.025239909625478656
vn 0.9791406585249793 -0.2012914789121337 0.027664261071568462
vn -0.9912336138874519 0.1291936279789481 -0.02765735325838553
vn -0.9789994502272215 0.20200395948713293 -0.027467741194337154
vn -0.979009981677956 0.20200686043510904 -0.027068138319403953
vn -0.9912336138874519 0.1291936279789481 -0.02765735325838553
vn -0.9912336138874519 0.1291936279789481 -0.02765735325838553
vn -0.9789994502272215 0.20200395948713293 -0.027467741194337154
vn -0.979009981677956 0.20200686043510904 -0.027068138319403953
vn -0.9789994502272215 0.20200395948713293 -0.027467741194337154
vn -0.9236548971556074 0.3823988231631345 -0.02515493995051745
vn -0.979009981677956 0.20200686043510904 -0.027068138319403953
vn -0.9236548971556074 0.3823988231631345 -0.02515493995051745
vn -0.9236548971556074 0.3823988231631345 -0.02515493995051745
vn -0.020583960794738364 -0.011899963543094486 0.9997173057548185
vn -0.020583960794738364 -0.011899963543094486 0.9997173057548185
vn -0.020583960794738364 -0.011899963543094486 0.9997173057548185
vn -0.020583960794738364 -0.011899963543094486 0.9997173057548185
vn -0.020583960794738364 -0.011899963543094486 0.9997173057548185
vn -0.020583960794738364 -0.011899963543094486 0.9997173057548185
vn -0.020583960794738364 -0.011899963543094486 0.9997173057548185
vn -0.020583960794738364 -0.011899963543094486 0.9997173057548185
vn -0.020683895513688537 -0.011899928498132225 0.9997152435409385
vn -0.020683895513688537 -0.011899928498132225 0.9997152435409385
vn -0.020683895513688537 -0.011899928498132225 0.9997152435409385
vn -0.020583960794738364 -0.011899963543094486 0.9997173057548185
vn -0.020583936197142553 -0.011999948724739685 0.9997161111041651
vn -0.020583936197142553 -0.011999948724739685 0.9997161111041651
vn -0.020583960794738364 -0.011899963543094486 0.9997173057548185
vn -0.020583960794738364 -0.011899963543094486 0.9997173057548185
vn -0.020583960794738364 -0.011899963543094486 0.9997173057548185
vn -0.020583936197142553 -0.011999948724739685 0.9997161111041651
vn -0.020583960794738364 -0.011899963543094486 0.9997173057548185
vn -0.020583960794738364 -0.011899963543094486 0.9997173057548185
vn -0.020583960794738364 -0.011899963543094486 0.9997173057548185
vn -0.020583960794738364 -0.011899963543094486 0.9997173057548185
vn -0.020583960794738364 -0.011899963543094486 0.9997173057548185
vn -0.020583960794738364 -0.011899963543094486 0.9997173057548185
vn 0.020583960794738364 0.011899963543094486 -0.9997173057548185
vn 0.020583960794738364 0.011899963543094486 -0.9997173057548185
vn 0.020583960794738364 0.011899963543094486 -0.9997173057548185
vn 0.020583960794738364 0.011899963543094486 -0.9997173057548185
vn 0.020583960794738364 0.011899963543094486 -0.9997173057548185
vn 0.020583960794738364 0.011899963543094486 -0.9997173057548185
vn 0.020583960794738364 0.011899963543094486 -0.9997173057548185
vn 0.020583960794738364 0.011899963543094486 -0.9997173057548185
vn 0.020583960794738364 0.011899963543094486 -0.9997173057548185
vn 0.020583960794738364 0.011899963543094486 -0.9997173057548185
vn 0.020583960794738364 0.011899963543094486 -0.9997173057548185
vn 0.020583960794738364 0.011899963543094486 -0.9997173057548185
vn 0.020583960794738364 0.011899963543094486 -0.9997173057548185
vn 0.020583960794738364 0.011899963543094486 -0.9997173057548185
vn 0.020583960794738364 0.011899963543094486 -0.9997173057548185
vn 0.020583960794738364 0.011899963543094486 -0.9997173057548185
vn 0.020583960794738364 0.011899963543094486 -0.9997173057548185
vn 0.020583960794738364 0.011899963543094486 -0.9997173057548185
vn 0.020683895513688537 0.011899928498132225 -0.9997152435409385
vn 0.020583960794738364 0.011899963543094486 -0.9997173057548185
vn 0.020583960794738364 0.011899963543094486 -0.9997173057548185
vn 0.020583960794738364 0.011899963543094486 -0.9997173057548185
vn 0.020683895513688537 0.011899928498132225 -0.9997152435409385
vn 0.020683895513688537 0.011899928498132225 -0.9997152435409385
vn -0.020683895513688537 -0.011899928498132225 0.9997152435409385
vn -0.020683895513688537 -0.011899928498132225 0.9997152435409385
vn -0.020583960794738364 -0.011899963543094486 0.9997173057548185
vn -0.020583960794738364 -0.011899963543094486 0.9997173057548185
vn -0.020583960794738364 -0.011899963543094486 0.9997173057548185
vn -0.020683895513688537 -0.011899928498132225 0.9997152435409385
vn -0.020583960794738364 -0.011899963543094486 0.9997173057548185
vn -0.020583960794738364 -0.011899963543094486 0.9997173057548185
vn -0.020583960794738364 -0.011899963543094486 0.9997173057548185
vn -0.020583960794738364 -0.011899963543094486 0.9997173057548185
vn -0.020583960794738364 -0.011899963543094486 0.9997173057548185
vn -0.020583960794738364 -0.011899963543094486 0.9997173057548185
vn 0.020583960794738364 0.011899963543094486 -0.9997173057548185
vn 0.020583960794738364 0.011899963543094486 -0.9997173057548185
vn 0.020583960794738364 0.011899963543094486 -0.9997173057548185
vn 0.020583960794738364 0.011899963543094486 -0.9997173057548185
vn 0.020583960794738364 0.011899963543094486 -0.9997173057548185
vn 0.020583960794738364 0.011899963543094486 -0.9997173057548185
vn 0.020583960794738364 0.011899963543094486 -0.9997173057548185
vn 0.020583960794738364 0.011899963543094486 -0.9997173057548185
vn 0.020583960794738364 0.011899963543094486 -0.9997173057548185
vn 0.020583960794738364 0.011899963543094486 -0.9997173057548185
vn 0.020583960794738364 0.011899963543094486 -0.9997173057548185
vn 0.020583960794738364 0.011899963543094486 -0.9997173057548185
vn 0.9912336138874519 -0.1291936279789481 0.02765735325838553
vn 0.9790734420610027 -0.20169931432084443 0.027066245645107373
vn 0.9790575863439105 -0.20169495779387353 0.027665621680419607
vn 0.9790575863439105 -0.20169495779387353 0.027665621680419607
vn 0.9912336138874519 -0.1291936279789481 0.02765735325838553
vn 0.9912336138874519 -0.1291936279789481 0.02765735325838553
vn 0.9245946466114656 -0.38011481823021553 0.025248057731822128
vn 0.9790575863439105 -0.20169495779387353 0.027665621680419607
vn 0.9790734420610027 -0.20169931432084443 0.027066245645107373
vn 0.9790734420610027 -0.20169931432084443 0.027066245645107373
vn 0.9245946466114656 -0.38011481823021553 0.025248057731822128
vn 0.9245946466114656 -0.38011481823021553 0.025248057731822128
vn -0.9912336138874519 0.1291936279789481 -0.02765735325838553
vn -0.9790602533099304 0.2016956888906584 -0.02756573002148782
vn -0.9790734420610027 0.20169931432084443 -0.027066245645107373
vn -0.9912336138874519 0.1291936279789481 -0.02765735325838553
vn -0.9912336138874519 0.1291936279789481 -0.02765735325838553
vn -0.9790602533099304 0.2016956888906584 -0.02756573002148782
vn -0.9790734420610027 0.20169931432084443 -0.027066245645107373
vn -0.9790602533099304 0.2016956888906584 -0.02756573002148782
vn -0.924354529429451 0.3806983132425049 -0.025248727048502013
vn -0.9790734420610027 0.20169931432084443 -0.027066245645107373
vn -0.924354529429451 0.3806983132425049 -0.025248727048502013
vn -0.924354529429451 0.3806983132425049 -0.025248727048502013
vn 0.9912336138874519 -0.1291936279789481 0.02765735325838553
vn 0.9912336138874519 -0.1291936279789481 0.02765735325838553
vn 0.9790297550604826 -0.20191093332783197 0.02706868502338378
vn 0.9790297550604826 -0.20191093332783197 0.02706868502338378
vn 0.9790138981581319 -0.20190657172824664 0.02766809545605271
vn 0.9912336138874519 -0.1291936279789481 0.02765735325838553
vn 0.9790297550604826 -0.20191093332783197 0.02706868502338378
vn 0.9238938672542188 -0.38181454519940516 0.02525421002952092
vn 0.9790138981581319 -0.20190657172824664 0.02766809545605271
vn 0.9238938672542188 -0.38181454519940516 0.02525421002952092
vn 0.9238938672542188 -0.38181454519940516 0.02525421002952092
vn 0.9790138981581319 -0.20190657172824664 0.02766809545605271
vn -0.9912336138874519 0.1291936279789481 -0.02765735325838553
vn -0.9791221139236457 0.20140859657040072 -0.027467494484076874
vn -0.9791565153962228 0.2012958265737037 -0.027064895365325234
vn -0.9912336138874519 0.1291936279789481 -0.02765735325838553
vn -0.9912336138874519 0.1291936279789481 -0.02765735325838553
vn -0.9791221139236457 0.20140859657040072 -0.027467494484076874
vn -0.9791565153962228 0.2012958265737037 -0.027064895365325234
vn -0.9791221139236457 0.20140859657040072 -0.027467494484076874
vn -0.925003719344334 0.3791184780780102 -0.02524477726108958
vn -0.9791565153962228 0.2012958265737037 -0.027064895365325234
vn -0.925003719344334 0.3791184780780102 -0.02524477726108958
vn -0.925003719344334 0.3791184780780102 -0.02524477726108958
f 1/1/1 2/2/2 3/3/3
f 4/4/4 5/5/5 6/6/6
f 7/7/7 8/8/8 9/9/9
f 10/10/10 11/11/11 12/12/12
f 13/13/13 14/14/14 15/15/15
f 16/16/16 17/17/17 18/18/18
f 19/19/19 20/20/20 21/21/21
f 22/22/22 23/23/23 24/24/24
f 25/25/25 26/26/26 27/27/27
f 28/28/28 29/29/29 30/30/30
f 31/31/31 32/32/32 33/33/33
f 34/34/34 35/35/35 36/36/36
f 37/37/37 38/38/38 39/39/39
f 40/40/40 41/41/41 42/42/42
f 43/43/43 44/44/44 45/45/45
f 46/46/46 47/47/47 48/48/48
f 49/49/49 50/50/50 51/51/51
f 52/52/52 53/53/53 54/54/54
f 55/55/55 56/56/56 57/57/57
f 58/58/58 59/59/59 60/60/60
f 61/61/61 62/62/62 63/63/63
f 64/64/64 65/65/65 66/66/66
f 67/67/67 68/68/68 69/69/69
f 70/70/70 71/71/71 72/72/72
f 73/73/73 74/74/74 75/75/75
f 76/76/76 77/77/77 78/78/78
f 79/79/79 80/80/80 81/81/81
f 82/82/82 83/83/83 84/84/84
f 85/85/85 86/86/86 87/87/87
f 88/88/88 89/89/89 90/90/90
f 91/91/91 92/92/92 93/93/93
f 94/94/94 95/95/95 96/96/96
f 97/97/97 98/98/98 99/99/99
f 100/100/100 101/101/101 102/102/102
f 103/103/103 104/104/104 105/105/105
f 106/106/106 107/107/107 108/108/108
f 109/109/109 110/110/110 111/111/111
f 112/112/112 113/113/113 114/114/114
f 115/115/115 116/116/116 117/117/117
f 118/118/118 119/119/119 120/120/120
f 121/121/121 122/122/122 123/123/123
f 124/124/124 125/125/125 126/126/126
f 127/127/127 128/128/128 129/129/129
f 130/130/130 131/131/131 132/132/132
f 133/133/133 134/134/134 135/135/135
f 136/136/136 137/137/137 138/138/138
f 139/139/139 140/140/140 141/141/141
f 142/142/142 143/143/143 144/144/144
f 145/145/145 146/146/146 147/147/147
f 148/148/148 149/149/149 150/150/150
f 151/151/151 152/152/152 153/153/153
f 154/154/154 155/155/155 156/156/156
f 157/157/157 158/158/158 159/159/159
f 160/160/160 161/161/161 162/162/162
f 163/163/163 164/164/164 165/165/165
f 166/166/166 167/167/167 168/168/168
f 169/169/169 170/170/170 171/171/171
f 172/172/172 173/173/173 174/174/174
f 175/175/175 176/176/176 177/177/177
f 178/178/178 179/179/179 180/180/180
o RenderMesh_18687756685.001
usemtl Meshpart5Mtl.002
v 0.31726625119095275 0.19620262888188889 0.08143712604317267
v -0.019102850990347586 0.27902262714620163 -0.08875897106891825
v -0.020498596514540446 0.27922362890954544 0.07954187651294368
v 0.31726625119095275 0.19620262888188889 0.08143712604317267
v 0.31866307832910845 0.19600162711854507 -0.08686273638688252
v -0.019102850990347586 0.27902262714620163 -0.08875897106891825
v -0.22823478564846866 -0.2551913628268666 0.09506356731323003
v 0.15037203621286954 -0.4161713788199849 -0.10301116690851662
v 0.14871426707681312 -0.4159323641944356 0.09725825024565767
v -0.22823478564846866 -0.2551913628268666 0.09506356731323003
v -0.2265759612804028 -0.2554313609290547 -0.10520785598091052
v 0.15037203621286954 -0.4161713788199849 -0.10301116690851662
v 0.17984000116908483 -0.35905636045221756 -0.10292204847444712
v 0.17818021435885534 -0.35881737562899063 0.09734838489140567
v 0.14871426707681312 -0.4159323641944356 0.09725825024565767
v 0.14871426707681312 -0.4159323641944356 0.09725825024565767
v 0.15037203621286954 -0.4161713788199849 -0.10301116690851662
v 0.17984000116908483 -0.35905636045221756 -0.10292204847444712
v 0.1678737859846835 -0.30792737695459793 0.08124664949674677
v 0.17818021435885534 -0.35881737562899063 0.09734838489140567
v 0.17984000116908483 -0.35905636045221756 -0.10292204847444712
v 0.17984000116908483 -0.35905636045221756 -0.10292204847444712
v 0.16926750494763176 -0.3081303605723805 -0.08705418952527301
v 0.1678737859846835 -0.30792737695459793 0.08124664949674677
v 0.2798216570869816 -0.0505523750472493 0.08153436822317255
v 0.1678737859846835 -0.30792737695459793 0.08124664949674677
v 0.16926750494763176 -0.3081303605723805 -0.08705418952527301
v 0.16926750494763176 -0.3081303605723805 -0.08705418952527301
v 0.28121847535449285 -0.050755373566193085 -0.08676649999614633
v 0.2798216570869816 -0.0505523750472493 0.08153436822317255
v 0.31726625119095275 0.19620262888188889 0.08143712604317267
v 0.2798216570869816 -0.0505523750472493 0.08153436822317255
v 0.28121847535449285 -0.050755373566193085 -0.08676649999614633
v 0.28121847535449285 -0.050755373566193085 -0.08676649999614633
v 0.31866307832910845 0.19600162711854507 -0.08686273638688252
v 0.31726625119095275 0.19620262888188889 0.08143712604317267
v -0.22823478564846866 -0.2551913628268666 0.09506356731323003
v -0.19876784273674364 -0.19807637426142166 0.09515169634467958
v -0.2265759612804028 -0.2554313609290547 -0.10520785598091052
v -0.19876784273674364 -0.19807637426142166 0.09515169634467958
v -0.19710806473144993 -0.1983143756080098 -0.105119735360146
v -0.2265759612804028 -0.2554313609290547 -0.10520785598091052
v -0.19710806473144993 -0.1983143756080098 -0.105119735360146
v -0.19876784273674364 -0.19807637426142166 0.09515169634467958
v -0.14890386194331218 -0.17284838053469131 0.07939932008409588
v -0.14890386194331218 -0.17284838053469131 0.07939932008409588
v -0.1475080481104194 -0.17304737064127396 -0.0889005408598973
v -0.19710806473144993 -0.1983143756080098 -0.105119735360146
v -0.14890386194331218 -0.17284838053469131 0.07939932008409588
v -0.05654644954677179 0.03226462622101833 -0.0886637438160804
v -0.1475080481104194 -0.17304737064127396 -0.0889005408598973
v -0.05794217737895724 0.03246662636216213 0.07963910975659068
v -0.05654644954677179 0.03226462622101833 -0.0886637438160804
v -0.14890386194331218 -0.17284838053469131 0.07939932008409588
v -0.05794217737895724 0.03246662636216213 0.07963910975659068
v -0.019102850990347586 0.27902262714620163 -0.08875897106891825
v -0.05654644954677179 0.03226462622101833 -0.0886637438160804
v -0.020498596514540446 0.27922362890954544 0.07954187651294368
v -0.019102850990347586 0.27902262714620163 -0.08875897106891825
v -0.05794217737895724 0.03246662636216213 0.07963910975659068
v 0.14871426707681312 -0.4159323641944356 0.09725825024565767
v 0.17818021435885534 -0.35881737562899063 0.09734838489140567
v -0.22823478564846866 -0.2551913628268666 0.09506356731323003
v 0.17818021435885534 -0.35881737562899063 0.09734838489140567
v -0.19876784273674364 -0.19807637426142166 0.09515169634467958
v -0.22823478564846866 -0.2551913628268666 0.09506356731323003
v 0.17818021435885534 -0.35881737562899063 0.09734838489140567
v -0.14890386194331218 -0.17284838053469131 0.07939932008409588
v -0.19876784273674364 -0.19807637426142166 0.09515169634467958
v -0.14890386194331218 -0.17284838053469131 0.07939932008409588
v 0.17818021435885534 -0.35881737562899063 0.09734838489140567
v 0.1678737859846835 -0.30792737695459793 0.08124664949674677
v 0.1678737859846835 -0.30792737695459793 0.08124664949674677
v -0.05794217737895724 0.03246662636216213 0.07963910975659068
v -0.14890386194331218 -0.17284838053469131 0.07939932008409588
v -0.05794217737895724 0.03246662636216213 0.07963910975659068
v 0.1678737859846835 -0.30792737695459793 0.08124664949674677
v 0.2798216570869816 -0.0505523750472493 0.08153436822317255
v -0.05794217737895724 0.03246662636216213 0.07963910975659068
v 0.2798216570869816 -0.0505523750472493 0.08153436822317255
v 0.31726625119095275 0.19620262888188889 0.08143712604317267
v 0.31726625119095275 0.19620262888188889 0.08143712604317267
v -0.020498596514540446 0.27922362890954544 0.07954187651294368
v -0.05794217737895724 0.03246662636216213 0.07963910975659068
v -0.2265759612804028 -0.2554313609290547 -0.10520785598091052
v -0.19710806473144993 -0.1983143756080098 -0.105119735360146
v 0.17984000116908483 -0.35905636045221756 -0.10292204847444712
v 0.17984000116908483 -0.35905636045221756 -0.10292204847444712
v 0.15037203621286954 -0.4161713788199849 -0.10301116690851662
v -0.2265759612804028 -0.2554313609290547 -0.10520785598091052
v 0.17984000116908483 -0.35905636045221756 -0.10292204847444712
v -0.19710806473144993 -0.1983143756080098 -0.105119735360146
v -0.1475080481104194 -0.17304737064127396 -0.0889005408598973
v -0.1475080481104194 -0.17304737064127396 -0.0889005408598973
v 0.16926750494763176 -0.3081303605723805 -0.08705418952527301
v 0.17984000116908483 -0.35905636045221756 -0.10292204847444712
v 0.16926750494763176 -0.3081303605723805 -0.08705418952527301
v -0.1475080481104194 -0.17304737064127396 -0.0889005408598973
v -0.05654644954677179 0.03226462622101833 -0.0886637438160804
v -0.05654644954677179 0.03226462622101833 -0.0886637438160804
v 0.28121847535449285 -0.050755373566193085 -0.08676649999614633
v 0.16926750494763176 -0.3081303605723805 -0.08705418952527301
v -0.05654644954677179 0.03226462622101833 -0.0886637438160804
v 0.31866307832910845 0.19600162711854507 -0.08686273638688252
v 0.28121847535449285 -0.050755373566193085 -0.08676649999614633
v -0.05654644954677179 0.03226462622101833 -0.0886637438160804
v -0.019102850990347586 0.27902262714620163 -0.08875897106891825
v 0.31866307832910845 0.19600162711854507 -0.08686273638688252
vt 0 0
vt 0 0
vt 0 0
vt 0 0
vt 0 0
vt 0 0
vt 0 0
vt 0 0
vt 0 0
vt 0 0
vt 0 0
vt 0 0
vt 0 0
vt 0 0
vt 0 0
vt 0 0
vt 0 0
vt 0 0
vt 0 0
vt 0 0
vt 0 0
vt 0 0
vt 0 0
vt 0 0
vt 0 0
vt 0 0
vt 0 0
vt 0 0
vt 0 0
vt 0 0
vt 0 0
vt 0 0
vt 0 0
vt 0 0
vt 0 0
vt 0 0
vt 0 0
vt 0 0
vt 0 0
vt 0 0
vt 0 0
vt 0 0
vt 0 0
vt 0 0
vt 0 0
vt 0 0
vt 0 0
vt 0 0
vt 0 0
vt 0 0
vt 0 0
vt 0 0
vt 0 0
vt 0 0
vt 0 0
vt 0 0
vt 0 0
vt 0 0
vt 0 0
vt 0 0
vt 0 0
vt 0 0
vt 0 0
vt 0 0
vt 0 0
vt 0 0
vt 0 0
vt 0 0
vt 0 0
vt 0 0
vt 0 0
vt 0 0
vt 0 0
vt 0 0
vt 0 0
vt 0 0
vt 0 0
vt 0 0
vt 0 0
vt 0 0
vt 0 0
vt 0 0
vt 0 0
vt 0 0
vt 0 0
vt 0 0
vt 0 0
vt 0 0
vt 0 0
vt 0 0
vt 0 0
vt 0 0
vt 0 0
vt 0 0
vt 0 0
vt 0 0
vt 0 0
vt 0 0
vt 0 0
vt 0 0
vt 0 0
vt 0 0
vt 0 0
vt 0 0
vt 0 0
vt 0 0
vt 0 0
vt 0 0
vn 0.23871375782856977 0.9710896509770286 0.0007947255347497253
vn 0.23871375782856977 0.9710896509770286 0.0007947255347497253
vn 0.23871375782856977 0.9710896509770286 0.0007947255347497253
vn 0.23871375782856977 0.9710896509770286 0.0007947255347497253
vn 0.23871375782856977 0.9710896509770286 0.0007947255347497253
vn 0.23871375782856977 0.9710896509770286 0.0007947255347497253
vn -0.3922207526855748 -0.9198686309081412 -0.0021408021727729216
vn -0.3922207526855748 -0.9198686309081412 -0.0021408021727729216
vn -0.3922207526855748 -0.9198686309081412 -0.0021408021727729216
vn -0.3922207526855748 -0.9198686309081412 -0.0021408021727729216
vn -0.3922207526855748 -0.9198686309081412 -0.0021408021727729216
vn -0.3922207526855748 -0.9198686309081412 -0.0021408021727729216
vn 0.9899450373051024 -0.14120467678996282 0.008370326614974274
vn 0.9899450373051024 -0.14120467678996282 0.008370326614974274
vn 0.8886689349260833 -0.4584819607406049 0.007862300731408593
vn 0.8886689349260833 -0.4584819607406049 0.007862300731408593
vn 0.8886689349260833 -0.4584819607406049 0.007862300731408593
vn 0.9899450373051024 -0.14120467678996282 0.008370326614974274
vn 0.9977108934819823 -0.06709986754042208 0.008401238208877542
vn 0.9899450373051024 -0.14120467678996282 0.008370326614974274
vn 0.9899450373051024 -0.14120467678996282 0.008370326614974274
vn 0.9899450373051024 -0.14120467678996282 0.008370326614974274
vn 0.9977117226283231 -0.06709998261633408 0.008301256706765868
vn 0.9977108934819823 -0.06709986754042208 0.008401238208877542
vn 0.9629686458407573 -0.269488465590365 0.00820695079605319
vn 0.9977108934819823 -0.06709986754042208 0.008401238208877542
vn 0.9977117226283231 -0.06709998261633408 0.008301256706765868
vn 0.9977117226283231 -0.06709998261633408 0.008301256706765868
vn 0.9629346786954784 -0.26960670483745697 0.008308385662913515
vn 0.9629686458407573 -0.269488465590365 0.00820695079605319
vn 0.9886496082298963 -0.15000565678535277 0.008381830305342496
vn 0.9629686458407573 -0.269488465590365 0.00820695079605319
vn 0.9629346786954784 -0.26960670483745697 0.008308385662913515
vn 0.9629346786954784 -0.26960670483745697 0.008308385662913515
vn 0.9886496082298963 -0.15000565678535277 0.008381830305342496
vn 0.9886496082298963 -0.15000565678535277 0.008381830305342496
vn -0.8886689349260833 0.4584819607406049 -0.007862300731408593
vn -0.7479771390420633 0.6636885880546206 -0.006903445264064596
vn -0.8886689349260833 0.4584819607406049 -0.007862300731408593
vn -0.7479771390420633 0.6636885880546206 -0.006903445264064596
vn -0.7478834186094137 0.6637941861988833 -0.006904385393283406
vn -0.8886689349260833 0.4584819607406049 -0.007862300731408593
vn -0.7478834186094137 0.6637941861988833 -0.006904385393283406
vn -0.7479771390420633 0.6636885880546206 -0.006903445264064596
vn -0.7548973855602656 0.6558051058331726 -0.007042757799092135
vn -0.7548973855602656 0.6558051058331726 -0.007042757799092135
vn -0.7548972294924828 0.655804204090466 -0.007142744699625715
vn -0.7478834186094137 0.6637941861988833 -0.006904385393283406
vn -0.7548973855602656 0.6558051058331726 -0.007042757799092135
vn -0.9621790252789396 0.2722910197124952 -0.008314078253130578
vn -0.7548972294924828 0.655804204090466 -0.007142744699625715
vn -0.9621461215295146 0.27241025236535793 -0.008215548183440117
vn -0.9621790252789396 0.2722910197124952 -0.008314078253130578
vn -0.7548973855602656 0.6558051058331726 -0.007042757799092135
vn -0.9621461215295146 0.27241025236535793 -0.008215548183440117
vn -0.9886496082298963 0.15000565678535277 -0.008381830305342496
vn -0.9621790252789396 0.2722910197124952 -0.008314078253130578
vn -0.9886496082298963 0.15000565678535277 -0.008381830305342496
vn -0.9886496082298963 0.15000565678535277 -0.008381830305342496
vn -0.9621461215295146 0.27241025236535793 -0.008215548183440117
vn -0.005281090909477361 0.0011999999209031669 0.9999853349319656
vn 0.06269081009895432 0.16070395519208 0.9850096959496181
vn -0.005281090909477361 0.0011999999209031669 0.9999853349319656
vn 0.06269081009895432 0.16070395519208 0.9850096959496181
vn 0.024394940050855952 0.07079777834876576 0.9971923392609845
vn -0.005281090909477361 0.0011999999209031669 0.9999853349319656
vn 0.06269081009895432 0.16070395519208 0.9850096959496181
vn 0.09185080461743626 0.2288006436286945 0.9691303808911496
vn 0.024394940050855952 0.07079777834876576 0.9971923392609845
vn 0.09185080461743626 0.2288006436286945 0.9691303808911496
vn 0.06269081009895432 0.16070395519208 0.9850096959496181
vn 0.06846573243828759 0.17369681810641824 0.982416336825378
vn 0.06846573243828759 0.17369681810641824 0.982416336825378
vn -0.005281090909477361 0.0011999999209031669 0.9999853349319656
vn 0.09185080461743626 0.2288006436286945 0.9691303808911496
vn -0.005281090909477361 0.0011999999209031669 0.9999853349319656
vn 0.06846573243828759 0.17369681810641824 0.982416336825378
vn -0.005281090909477361 0.0011999999209031669 0.9999853349319656
vn -0.005281090909477361 0.0011999999209031669 0.9999853349319656
vn -0.005281090909477361 0.0011999999209031669 0.9999853349319656
vn -0.005281090909477361 0.0011999999209031669 0.9999853349319656
vn -0.005281090909477361 0.0011999999209031669 0.9999853349319656
vn -0.005281090909477361 0.0011999999209031669 0.9999853349319656
vn -0.005281090909477361 0.0011999999209031669 0.9999853349319656
vn 0.005281090909477361 -0.0011999999209031669 -0.9999853349319656
vn 0.03490817542457098 0.06840003317935063 -0.9970470674695308
vn 0.07331492831670963 0.158491893854491 -0.9846345722491834
vn 0.07331492831670963 0.158491893854491 -0.9846345722491834
vn 0.005281090909477361 -0.0011999999209031669 -0.9999853349319656
vn 0.005281090909477361 -0.0011999999209031669 -0.9999853349319656
vn 0.07331492831670963 0.158491893854491 -0.9846345722491834
vn 0.03490817542457098 0.06840003317935063 -0.9970470674695308
vn 0.10225785681431196 0.2265923587184506 -0.9686068519735717
vn 0.10225785681431196 0.2265923587184506 -0.9686068519735717
vn 0.07884155627091788 0.17149843831556433 -0.9820245896412687
vn 0.07331492831670963 0.158491893854491 -0.9846345722491834
vn 0.07884155627091788 0.17149843831556433 -0.9820245896412687
vn 0.10225785681431196 0.2265923587184506 -0.9686068519735717
vn 0.005281090909477361 -0.0011999999209031669 -0.9999853349319656
vn 0.005281090909477361 -0.0011999999209031669 -0.9999853349319656
vn 0.005281090909477361 -0.0011999999209031669 -0.9999853349319656
vn 0.07884155627091788 0.17149843831556433 -0.9820245896412687
vn 0.005281090909477361 -0.0011999999209031669 -0.9999853349319656
vn 0.005281090909477361 -0.0011999999209031669 -0.9999853349319656
vn 0.005281090909477361 -0.0011999999209031669 -0.9999853349319656
vn 0.005281090909477361 -0.0011999999209031669 -0.9999853349319656
vn 0.005281090909477361 -0.0011999999209031669 -0.9999853349319656
vn 0.005281090909477361 -0.0011999999209031669 -0.9999853349319656
f 181/181/181 182/182/182 183/183/183
f 184/184/184 185/185/185 186/186/186
f 187/187/187 188/188/188 189/189/189
f 190/190/190 191/191/191 192/192/192
f 193/193/193 194/194/194 195/195/195
f 196/196/196 197/197/197 198/198/198
f 199/199/199 200/200/200 201/201/201
f 202/202/202 203/203/203 204/204/204
f 205/205/205 206/206/206 207/207/207
f 208/208/208 209/209/209 210/210/210
f 211/211/211 212/212/212 213/213/213
f 214/214/214 215/215/215 216/216/216
f 217/217/217 218/218/218 219/219/219
f 220/220/220 221/221/221 222/222/222
f 223/223/223 224/224/224 225/225/225
f 226/226/226 227/227/227 228/228/228
f 229/229/229 230/230/230 231/231/231
f 232/232/232 233/233/233 234/234/234
f 235/235/235 236/236/236 237/237/237
f 238/238/238 239/239/239 240/240/240
f 241/241/241 242/242/242 243/243/243
f 244/244/244 245/245/245 246/246/246
f 247/247/247 248/248/248 249/249/249
f 250/250/250 251/251/251 252/252/252
f 253/253/253 254/254/254 255/255/255
f 256/256/256 257/257/257 258/258/258
f 259/259/259 260/260/260 261/261/261
f 262/262/262 263/263/263 264/264/264
f 265/265/265 266/266/266 267/267/267
f 268/268/268 269/269/269 270/270/270
f 271/271/271 272/272/272 273/273/273
f 274/274/274 275/275/275 276/276/276
f 277/277/277 278/278/278 279/279/279
f 280/280/280 281/281/281 282/282/282
f 283/283/283 284/284/284 285/285/285
f 286/286/286 287/287/287 288/288/288
