o Mesh
usemtl material14
v 1.3844163788533115 -0.009964000433683395 -0.009964000433683395
v 1.3844163788533115 -0.009964000433683395 0.009964000433683395
v 1.3844163788533115 -0.01409200020134449 -1.725772244375641e-18
v 1.3844163788533115 -0.009964000433683395 0.009964000433683395
v 1.3844163788533115 0.009964000433683395 0.009964000433683395
v 1.3844163788533115 -6.89009554172252e-17 0.01409200020134449
v 1.3844163788533115 0.009964000433683395 0.009964000433683395
v 1.3844163788533115 -0.009964000433683395 0.009964000433683395
v 1.3844163788533115 0.014090999960899353 1.7256498216449832e-18
v 1.3844163788533115 -0.009964000433683395 -0.009964000433683395
v 1.3844163788533115 0.014090999960899353 1.7256498216449832e-18
v 1.3844163788533115 -0.009964000433683395 0.009964000433683395
v 1.3844163788533115 0.014090999960899353 1.7256498216449832e-18
v 1.3844163788533115 -0.009964000433683395 -0.009964000433683395
v 1.3844163788533115 0.009964000433683395 -0.009964000433683395
v 1.3844163788533115 0.009964000433683395 -0.009964000433683395
v 1.3844163788533115 -0.009964000433683395 -0.009964000433683395
v 1.3844163788533115 -6.544940865372723e-17 -0.01409200020134449
v -0.33263763058424956 -0.01992800086736679 0.01992800086736679
v 1.3644163979267978 -0.01992800086736679 0.01992800086736679
v 1.3644163979267978 -6.817731134758421e-17 0.028183000162243843
v -0.33263763058424956 -0.028183000162243843 -3.4514220660206243e-18
v 1.3644163979267978 -0.01992800086736679 0.01992800086736679
v -0.33263763058424956 -0.01992800086736679 0.01992800086736679
v -0.33263763058424956 -0.01992800086736679 0.01992800086736679
v 1.3644163979267978 -6.817731134758421e-17 0.028183000162243843
v -0.33263763058424956 1.396518572610334e-16 0.028183000162243843
v -0.33263763058424956 -0.028183000162243843 -3.4514220660206243e-18
v 1.3644163979267978 -0.028183000162243843 -3.4514220660206243e-18
v 1.3644163979267978 -0.01992800086736679 0.01992800086736679
v -0.33263763058424956 -0.01992800086736679 -0.01992800086736679
v 1.3644163979267978 -0.028183000162243843 -3.4514220660206243e-18
v -0.33263763058424956 -0.028183000162243843 -3.4514220660206243e-18
v 1.3844163788533115 -0.009964000433683395 0.009964000433683395
v 1.3644163979267978 -6.817731134758421e-17 0.028183000162243843
v 1.3644163979267978 -0.01992800086736679 0.01992800086736679
v 1.3644163979267978 -0.028183000162243843 -3.4514220660206243e-18
v 1.3844163788533115 -0.009964000433683395 0.009964000433683395
v 1.3644163979267978 -0.01992800086736679 0.01992800086736679
v 1.3644163979267978 -6.817731134758421e-17 0.028183000162243843
v 1.3844163788533115 -0.009964000433683395 0.009964000433683395
v 1.3844163788533115 -6.89009554172252e-17 0.01409200020134449
v 1.3844163788533115 -0.009964000433683395 0.009964000433683395
v 1.3644163979267978 -0.028183000162243843 -3.4514220660206243e-18
v 1.3844163788533115 -0.01409200020134449 -1.725772244375641e-18
v 1.3844163788533115 0.009964000433683395 0.009964000433683395
v 1.3644163979267978 -6.817731134758421e-17 0.028183000162243843
v 1.3844163788533115 -6.89009554172252e-17 0.01409200020134449
v 1.3644163979267978 -0.028183000162243843 -3.4514220660206243e-18
v 1.3844163788533115 -0.009964000433683395 -0.009964000433683395
v 1.3844163788533115 -0.01409200020134449 -1.725772244375641e-18
v -0.33263763058424956 -0.01992800086736679 -0.01992800086736679
v 1.3644163979267978 -0.01992800086736679 -0.01992800086736679
v 1.3644163979267978 -0.028183000162243843 -3.4514220660206243e-18
v 1.3844163788533115 -0.009964000433683395 -0.009964000433683395
v 1.3644163979267978 -0.028183000162243843 -3.4514220660206243e-18
v 1.3644163979267978 -0.01992800086736679 -0.01992800086736679
v -0.33263763058424956 1.4655471256001291e-16 -0.028183000162243843
v 1.3644163979267978 -0.01992800086736679 -0.01992800086736679
v -0.33263763058424956 -0.01992800086736679 -0.01992800086736679
v 1.3644163979267978 -6.127446928349449e-17 -0.028183000162243843
v 1.3844163788533115 -0.009964000433683395 -0.009964000433683395
v 1.3644163979267978 -0.01992800086736679 -0.01992800086736679
v -0.33263763058424956 1.4655471256001291e-16 -0.028183000162243843
v 1.3644163979267978 -6.127446928349449e-17 -0.028183000162243843
v 1.3644163979267978 -0.01992800086736679 -0.01992800086736679
v 1.3844163788533115 -0.009964000433683395 -0.009964000433683395
v 1.3644163979267978 -6.127446928349449e-17 -0.028183000162243843
v 1.3844163788533115 -6.544940865372723e-17 -0.01409200020134449
v -0.33263763058424956 0.01992800086736679 -0.01992800086736679
v 1.3644163979267978 -6.127446928349449e-17 -0.028183000162243843
v -0.33263763058424956 1.4655471256001291e-16 -0.028183000162243843
v 1.3644163979267978 -6.127446928349449e-17 -0.028183000162243843
v 1.3844163788533115 0.009964000433683395 -0.009964000433683395
v 1.3844163788533115 -6.544940865372723e-17 -0.01409200020134449
v -0.33263763058424956 0.01992800086736679 -0.01992800086736679
v 1.3644163979267978 0.01992800086736679 -0.01992800086736679
v 1.3644163979267978 -6.127446928349449e-17 -0.028183000162243843
v 1.3844163788533115 0.009964000433683395 -0.009964000433683395
v 1.3644163979267978 -6.127446928349449e-17 -0.028183000162243843
v 1.3644163979267978 0.01992800086736679 -0.01992800086736679
v 1.3644163979267978 0.01992800086736679 -0.01992800086736679
v -0.33263763058424956 0.01992800086736679 -0.01992800086736679
v -0.33263763058424956 0.028183000162243843 3.4514220660206243e-18
v 1.3644163979267978 0.028183000162243843 3.4514220660206243e-18
v 1.3844163788533115 0.009964000433683395 -0.009964000433683395
v 1.3644163979267978 0.01992800086736679 -0.01992800086736679
v 1.3644163979267978 0.01992800086736679 -0.01992800086736679
v -0.33263763058424956 0.028183000162243843 3.4514220660206243e-18
v 1.3644163979267978 0.028183000162243843 3.4514220660206243e-18
v 1.3844163788533115 0.009964000433683395 -0.009964000433683395
v 1.3644163979267978 0.028183000162243843 3.4514220660206243e-18
v 1.3844163788533115 0.014090999960899353 1.7256498216449832e-18
v 1.3844163788533115 0.014090999960899353 1.7256498216449832e-18
v 1.3644163979267978 0.028183000162243843 3.4514220660206243e-18
v 1.3844163788533115 0.009964000433683395 0.009964000433683395
v 1.3644163979267978 0.028183000162243843 3.4514220660206243e-18
v -0.33263763058424956 0.028183000162243843 3.4514220660206243e-18
v -0.33263763058424956 0.01992800086736679 0.01992800086736679
v 1.3644163979267978 0.01992800086736679 0.01992800086736679
v 1.3844163788533115 0.009964000433683395 0.009964000433683395
v 1.3644163979267978 0.028183000162243843 3.4514220660206243e-18
v 1.3644163979267978 0.028183000162243843 3.4514220660206243e-18
v -0.33263763058424956 0.01992800086736679 0.01992800086736679
v 1.3644163979267978 0.01992800086736679 0.01992800086736679
v 1.3644163979267978 -6.817731134758421e-17 0.028183000162243843
v 1.3844163788533115 0.009964000433683395 0.009964000433683395
v 1.3644163979267978 0.01992800086736679 0.01992800086736679
v -0.33263763058424956 1.396518572610334e-16 0.028183000162243843
v 1.3644163979267978 0.01992800086736679 0.01992800086736679
v -0.33263763058424956 0.01992800086736679 0.01992800086736679
v -0.33263763058424956 1.396518572610334e-16 0.028183000162243843
v 1.3644163979267978 -6.817731134758421e-17 0.028183000162243843
v 1.3644163979267978 0.01992800086736679 0.01992800086736679
vn 1 0 0
vn 1 0 0
vn 1 0 0
vn 1 0 0
vn 1 0 0
vn 1 0 0
vn 1 0 0
vn 1 0 0
vn 1 0 0
vn 1 0 0
vn 1 0 0
vn 1 0 0
vn 1 0 0
vn 1 0 0
vn 1 0 0
vn 1 0 0
vn 1 0 0
vn 1 0 0
vn -1.6750749966737093e-17 -0.6037552396282978 0.797169750192126
vn 0.005441511459999632 -0.7965197481889902 0.6045880255992327
vn 0.008131051369497811 -0.13521419354842149 0.9907830276436292
vn 0 -0.9906010897008074 0.13678260519368937
vn 0.005441511459999632 -0.7965197481889902 0.6045880255992327
vn -1.6750749966737093e-17 -0.6037552396282978 0.797169750192126
vn -1.6750749966737093e-17 -0.6037552396282978 0.797169750192126
vn 0.008131051369497811 -0.13521419354842149 0.9907830276436292
vn -2.497402540597439e-25 0.13678261981605794 0.9906010876817447
vn 0 -0.9906010897008074 0.13678260519368937
vn 0.008131051353114975 -0.9907830256473515 -0.1352142081771464
vn 0.005441511459999632 -0.7965197481889902 0.6045880255992327
vn 0 -0.7971697215046838 -0.6037552775058326
vn 0.008131051353114975 -0.9907830256473515 -0.1352142081771464
vn 0 -0.9906010897008074 0.13678260519368937
vn 0.5759534447829221 -0.57804741563417 0.57804741563417
vn 0.008131051369497811 -0.13521419354842149 0.9907830276436292
vn 0.005441511459999632 -0.7965197481889902 0.6045880255992327
vn 0.008131051353114975 -0.9907830256473515 -0.1352142081771464
vn 0.5759534447829221 -0.57804741563417 0.57804741563417
vn 0.005441511459999632 -0.7965197481889902 0.6045880255992327
vn 0.008131051369497811 -0.13521419354842149 0.9907830276436292
vn 0.5759534447829221 -0.57804741563417 0.57804741563417
vn 0.5759563478593993 -6.88432159617102e-9 0.8174804495279765
vn 0.5759534447829221 -0.57804741563417 0.57804741563417
vn 0.008131051353114975 -0.9907830256473515 -0.1352142081771464
vn 0.5759563478593993 -0.8174804495279765 6.88432159617102e-9
vn 0.5759625355412511 0.5780497113585551 0.5780360618950898
vn 0.008131051369497811 -0.13521419354842149 0.9907830276436292
vn 0.5759563478593993 -6.88432159617102e-9 0.8174804495279765
vn 0.008131051353114975 -0.9907830256473515 -0.1352142081771464
vn 0.5759534249388423 -0.5780474553225887 -0.5780473957179438
vn 0.5759563478593993 -0.8174804495279765 6.88432159617102e-9
vn 0 -0.7971697215046838 -0.6037552775058326
vn 0.005441511459999632 -0.6045880255992327 -0.7965197481889902
vn 0.008131051353114975 -0.9907830256473515 -0.1352142081771464
vn 0.5759534249388423 -0.5780474553225887 -0.5780473957179438
vn 0.008131051353114975 -0.9907830256473515 -0.1352142081771464
vn 0.005441511459999632 -0.6045880255992327 -0.7965197481889902
vn -1.9255933749885966e-25 -0.13678260519368937 -0.9906010897008074
vn 0.005441511459999632 -0.6045880255992327 -0.7965197481889902
vn 0 -0.7971697215046838 -0.6037552775058326
vn 0.008131051353114975 0.1352142081771464 -0.9907830256473515
vn 0.5759534249388423 -0.5780474553225887 -0.5780473957179438
vn 0.005441511459999632 -0.6045880255992327 -0.7965197481889902
vn -1.9255933749885966e-25 -0.13678260519368937 -0.9906010897008074
vn 0.008131051353114975 0.1352142081771464 -0.9907830256473515
vn 0.005441511459999632 -0.6045880255992327 -0.7965197481889902
vn 0.5759534249388423 -0.5780474553225887 -0.5780473957179438
vn 0.008131051353114975 0.1352142081771464 -0.9907830256473515
vn 0.5759563478593993 -6.88432159617102e-9 -0.8174804495279765
vn 1.6750752672656632e-17 0.6037552775058326 -0.7971697215046838
vn 0.008131051353114975 0.1352142081771464 -0.9907830256473515
vn -1.9255933749885966e-25 -0.13678260519368937 -0.9906010897008074
vn 0.008131051353114975 0.1352142081771464 -0.9907830256473515
vn 0.5759625355412511 0.5780497113585551 -0.5780360618950898
vn 0.5759563478593993 -6.88432159617102e-9 -0.8174804495279765
vn 1.6750752672656632e-17 0.6037552775058326 -0.7971697215046838
vn 0.005441511459999632 0.7965197481889902 -0.6045880255992327
vn 0.008131051353114975 0.1352142081771464 -0.9907830256473515
vn 0.5759625355412511 0.5780497113585551 -0.5780360618950898
vn 0.008131051353114975 0.1352142081771464 -0.9907830256473515
vn 0.005441511459999632 0.7965197481889902 -0.6045880255992327
vn 0.005441511459999632 0.7965197481889902 -0.6045880255992327
vn 1.6750752672656632e-17 0.6037552775058326 -0.7971697215046838
vn 0 0.9906010897008074 -0.13678260519368937
vn 0.008131243209262031 0.9907830260980272 0.13521419333749
vn 0.5759625355412511 0.5780497113585551 -0.5780360618950898
vn 0.005441511459999632 0.7965197481889902 -0.6045880255992327
vn 0.005441511459999632 0.7965197481889902 -0.6045880255992327
vn 0 0.9906010897008074 -0.13678260519368937
vn 0.008131243209262031 0.9907830260980272 0.13521419333749
vn 0.5759625355412511 0.5780497113585551 -0.5780360618950898
vn 0.008131243209262031 0.9907830260980272 0.13521419333749
vn 0.5759836951594535 0.8174611812865866 1.5120011699773352e-9
vn 0.5759836951594535 0.8174611812865866 1.5120011699773352e-9
vn 0.008131243209262031 0.9907830260980272 0.13521419333749
vn 0.5759625355412511 0.5780497113585551 0.5780360618950898
vn 0.008131243209262031 0.9907830260980272 0.13521419333749
vn 0 0.9906010897008074 -0.13678260519368937
vn 0 0.7971697215046838 0.6037552775058326
vn 0.005441511459999632 0.6045880255992327 0.7965197481889902
vn 0.5759625355412511 0.5780497113585551 0.5780360618950898
vn 0.008131243209262031 0.9907830260980272 0.13521419333749
vn 0.008131243209262031 0.9907830260980272 0.13521419333749
vn 0 0.7971697215046838 0.6037552775058326
vn 0.005441511459999632 0.6045880255992327 0.7965197481889902
vn 0.008131051369497811 -0.13521419354842149 0.9907830276436292
vn 0.5759625355412511 0.5780497113585551 0.5780360618950898
vn 0.005441511459999632 0.6045880255992327 0.7965197481889902
vn -2.497402540597439e-25 0.13678261981605794 0.9906010876817447
vn 0.005441511459999632 0.6045880255992327 0.7965197481889902
vn 0 0.7971697215046838 0.6037552775058326
vn -2.497402540597439e-25 0.13678261981605794 0.9906010876817447
vn 0.008131051369497811 -0.13521419354842149 0.9907830276436292
vn 0.005441511459999632 0.6045880255992327 0.7965197481889902
f 1//1 2//2 3//3
f 4//4 5//5 6//6
f 7//7 8//8 9//9
f 10//10 11//11 12//12
f 13//13 14//14 15//15
f 16//16 17//17 18//18
f 19//19 20//20 21//21
f 22//22 23//23 24//24
f 25//25 26//26 27//27
f 28//28 29//29 30//30
f 31//31 32//32 33//33
f 34//34 35//35 36//36
f 37//37 38//38 39//39
f 40//40 41//41 42//42
f 43//43 44//44 45//45
f 46//46 47//47 48//48
f 49//49 50//50 51//51
f 52//52 53//53 54//54
f 55//55 56//56 57//57
f 58//58 59//59 60//60
f 61//61 62//62 63//63
f 64//64 65//65 66//66
f 67//67 68//68 69//69
f 70//70 71//71 72//72
f 73//73 74//74 75//75
f 76//76 77//77 78//78
f 79//79 80//80 81//81
f 82//82 83//83 84//84
f 85//85 86//86 87//87
f 88//88 89//89 90//90
f 91//91 92//92 93//93
f 94//94 95//95 96//96
f 97//97 98//98 99//99
f 100//100 101//101 102//102
f 103//103 104//104 105//105
f 106//106 107//107 108//108
f 109//109 110//110 111//111
f 112//112 113//113 114//114
