o RenderMesh_18687756845
usemtl Meshpart5Mtl.002
v -0.797140481511333 0.28269532052690005 0.09109185636043549
v -0.7664985308444285 0.27471132306272006 0.09162963926792145
v -0.7920059511458659 0.2830943140190265 -0.09109150618314743
v -0.7664985308444285 0.27471132306272006 0.09162963926792145
v -0.7613630542552257 0.2751103165548465 -0.09055373817682266
v -0.7920059511458659 0.2830943140190265 -0.09109150618314743
v -0.8864566987401032 0.30596232144052005 0.08952949196100235
v -0.8558128016090178 0.29797830907517886 0.09006526321172714
v -0.8813201865201974 0.3063613149326465 -0.09265188872814178
v -0.8558128016090178 0.29797830907517886 0.09006526321172714
v -0.8506773101186538 0.2983793142240665 -0.09211711585521698
v -0.8813201865201974 0.3063613149326465 -0.09265188872814178
v -0.707827175596931 0.25942931799108004 0.0926552414894104
v -0.6771823415553355 0.25144532797748065 0.09318999946117401
v -0.7026916841065669 0.2598283114832065 -0.08952713012695312
v -0.6771823415553355 0.25144532797748065 0.09318999946117401
v -0.6720468500649714 0.2518453198474071 -0.08899237960577011
v -0.7026916841065669 0.2598283114832065 -0.08952713012695312
v -0.890956210533359 -0.1925846663314679 0.083484947681427
v -0.9197001630461001 -0.1795926717120984 0.08304743468761444
v -0.8858197076266789 -0.19218465956038025 -0.09869743883609772
v -0.9197001630461001 -0.1795926717120984 0.08304743468761444
v -0.9145646641051555 -0.17919367821997192 -0.0991339460015297
v -0.8858197076266789 -0.19218465956038025 -0.09869743883609772
v -0.9747366780435824 -0.15472066672628906 0.08221177756786346
v -1.0034806454574847 -0.14172768863028076 0.08177326619625092
v -0.9695991674458766 -0.1543216732341626 -0.09997061640024185
v -1.0034806454574847 -0.14172768863028076 0.08177326619625092
v -0.9983451316153789 -0.1413286653358319 -0.10040711611509323
v -0.9695991674458766 -0.1543216732341626 -0.09997061640024185
v -0.8071756834184909 -0.2304506626922467 0.08475811034440994
v -0.8359226534163737 -0.2174586680728772 0.08432262390851974
v -0.8020411903059268 -0.23004967244452026 -0.09742225706577301
v -0.8359226534163737 -0.2174586680728772 0.08432262390851974
v -0.8307871619260097 -0.21705866130178955 -0.09785974770784378
v -0.8020411903059268 -0.23004967244452026 -0.09742225706577301
v -0.6771823415553355 0.25144532797748065 0.09318999946117401
v -0.7083754489218974 0.011324321011843413 0.08968096226453781
v -0.6720468500649714 0.2518453198474071 -0.08899237960577011
v -0.7083754489218974 0.011324321011843413 0.08968096226453781
v -0.7032379159724498 0.011725326160731048 -0.09250043332576752
v -0.6720468500649714 0.2518453198474071 -0.08899237960577011
v -0.7083754489218974 0.011324321011843413 0.08968096226453781
v -0.8071756834184909 -0.2304506626922467 0.08475811034440994
v -0.7032379159724498 0.011725326160731048 -0.09250043332576752
v -0.8071756834184909 -0.2304506626922467 0.08475811034440994
v -0.8020411903059268 -0.23004967244452026 -0.09742225706577301
v -0.7032379159724498 0.011725326160731048 -0.09250043332576752
v -0.8864566987401032 0.30596232144052005 0.08952949196100235
v -0.9125124119242811 0.06624231962377045 -0.09616193175315857
v -0.917647901552 0.0658423203032634 0.08602043986320496
v -0.8864566987401032 0.30596232144052005 0.08952949196100235
v -0.8813201865201974 0.3063613149326465 -0.09265188872814178
v -0.9125124119242811 0.06624231962377045 -0.09616193175315857
v -0.917647901552 0.0658423203032634 0.08602043986320496
v -0.9125124119242811 0.06624231962377045 -0.09616193175315857
v -0.9983451316153789 -0.1413286653358319 -0.10040711611509323
v -0.917647901552 0.0658423203032634 0.08602043986320496
v -0.9983451316153789 -0.1413286653358319 -0.10040711611509323
v -1.0034806454574847 -0.14172768863028076 0.08177326619625092
v -0.9197001630461001 -0.1795926717120984 0.08304743468761444
v -0.890956210533359 -0.1925846663314679 0.083484947681427
v -0.8283346096074367 0.042576325218023986 0.08758282661437988
v -0.7976877192055964 0.03459132192546341 0.08811956644058228
v -0.8283346096074367 0.042576325218023986 0.08758282661437988
v -0.890956210533359 -0.1925846663314679 0.083484947681427
v -0.8283346096074367 0.042576325218023986 0.08758282661437988
v -0.7976877192055964 0.03459132192546341 0.08811956644058228
v -0.7664985308444285 0.27471132306272006 0.09162963926792145
v -0.7664985308444285 0.27471132306272006 0.09162963926792145
v -0.797140481511333 0.28269532052690005 0.09109185636043549
v -0.8283346096074367 0.042576325218023986 0.08758282661437988
v -0.8359226534163737 -0.2174586680728772 0.08432262390851974
v -0.8071756834184909 -0.2304506626922467 0.08475811034440994
v -0.7390153953826213 0.019308325926604003 0.08914615958929062
v -0.7083754489218974 0.011324321011843413 0.08968096226453781
v -0.7390153953826213 0.019308325926604003 0.08914615958929062
v -0.8071756834184909 -0.2304506626922467 0.08475811034440994
v -0.7390153953826213 0.019308325926604003 0.08914615958929062
v -0.7083754489218974 0.011324321011843413 0.08968096226453781
v -0.6771823415553355 0.25144532797748065 0.09318999946117401
v -0.6771823415553355 0.25144532797748065 0.09318999946117401
v -0.707827175596931 0.25942931799108004 0.0926552414894104
v -0.7390153953826213 0.019308325926604003 0.08914615958929062
v -0.8020411903059268 -0.23004967244452026 -0.09742225706577301
v -0.8307871619260097 -0.21705866130178955 -0.09785974770784378
v -0.7338818261420512 0.019707326869311065 -0.09303619712591171
v -0.7338818261420512 0.019707326869311065 -0.09303619712591171
v -0.7032379159724498 0.011725326160731048 -0.09250043332576752
v -0.8020411903059268 -0.23004967244452026 -0.09742225706577301
v -0.6720468500649714 0.2518453198474071 -0.08899237960577011
v -0.7032379159724498 0.011725326160731048 -0.09250043332576752
v -0.7338818261420512 0.019707326869311065 -0.09303619712591171
v -0.7338818261420512 0.019707326869311065 -0.09303619712591171
v -0.7026916841065669 0.2598283114832065 -0.08952713012695312
v -0.6720468500649714 0.2518453198474071 -0.08899237960577011
v -0.8858197076266789 -0.19218465956038025 -0.09869743883609772
v -0.9145646641051555 -0.17919367821997192 -0.0991339460015297
v -0.8231971437132144 0.04297432033235046 -0.09459856152534485
v -0.8231971437132144 0.04297432033235046 -0.09459856152534485
v -0.7925522202646518 0.03499232707435104 -0.09406180679798126
v -0.8858197076266789 -0.19218465956038025 -0.09869743883609772
v -0.7613630542552257 0.2751103165548465 -0.09055373817682266
v -0.7925522202646518 0.03499232707435104 -0.09406180679798126
v -0.8231971437132144 0.04297432033235046 -0.09459856152534485
v -0.8231971437132144 0.04297432033235046 -0.09459856152534485
v -0.7920059511458659 0.2830943140190265 -0.09109150618314743
v -0.7613630542552257 0.2751103165548465 -0.09055373817682266
v -1.0034806454574847 -0.14172768863028076 0.08177326619625092
v -0.9747366780435824 -0.15472066672628906 0.08221177756786346
v -0.917647901552 0.0658423203032634 0.08602043986320496
v -0.8870029231554055 0.05785932121688339 0.08655719459056854
v -0.917647901552 0.0658423203032634 0.08602043986320496
v -0.9747366780435824 -0.15472066672628906 0.08221177756786346
v -0.917647901552 0.0658423203032634 0.08602043986320496
v -0.8870029231554055 0.05785932121688339 0.08655719459056854
v -0.8558128016090178 0.29797830907517886 0.09006526321172714
v -0.8558128016090178 0.29797830907517886 0.09006526321172714
v -0.8864566987401032 0.30596232144052005 0.08952949196100235
v -0.917647901552 0.0658423203032634 0.08602043986320496
v -0.9695991674458766 -0.1543216732341626 -0.09997061640024185
v -0.9983451316153789 -0.1413286653358319 -0.10040711611509323
v -0.9125124119242811 0.06624231962377045 -0.09616193175315857
v -0.9125124119242811 0.06624231962377045 -0.09616193175315857
v -0.8818674335276866 0.05826031891519043 -0.09562517702579498
v -0.9695991674458766 -0.1543216732341626 -0.09997061640024185
v -0.8506773101186538 0.2983793142240665 -0.09211711585521698
v -0.8818674335276866 0.05826031891519043 -0.09562517702579498
v -0.9125124119242811 0.06624231962377045 -0.09616193175315857
v -0.9125124119242811 0.06624231962377045 -0.09616193175315857
v -0.8813201865201974 0.3063613149326465 -0.09265188872814178
v -0.8506773101186538 0.2983793142240665 -0.09211711585521698
v -0.7664985308444285 0.27471132306272006 0.09162963926792145
v -0.7976877192055964 0.03459132192546341 0.08811956644058228
v -0.7925522202646518 0.03499232707435104 -0.09406180679798126
v -0.7925522202646518 0.03499232707435104 -0.09406180679798126
v -0.7613630542552257 0.2751103165548465 -0.09055373817682266
v -0.7664985308444285 0.27471132306272006 0.09162963926792145
v -0.8858197076266789 -0.19218465956038025 -0.09869743883609772
v -0.7925522202646518 0.03499232707435104 -0.09406180679798126
v -0.7976877192055964 0.03459132192546341 0.08811956644058228
v -0.7976877192055964 0.03459132192546341 0.08811956644058228
v -0.890956210533359 -0.1925846663314679 0.083484947681427
v -0.8858197076266789 -0.19218465956038025 -0.09869743883609772
v -0.797140481511333 0.28269532052690005 0.09109185636043549
v -0.8231971437132144 0.04297432033235046 -0.09459856152534485
v -0.8283346096074367 0.042576325218023986 0.08758282661437988
v -0.797140481511333 0.28269532052690005 0.09109185636043549
v -0.7920059511458659 0.2830943140190265 -0.09109150618314743
v -0.8231971437132144 0.04297432033235046 -0.09459856152534485
v -0.8283346096074367 0.042576325218023986 0.08758282661437988
v -0.8231971437132144 0.04297432033235046 -0.09459856152534485
v -0.9145646641051555 -0.17919367821997192 -0.0991339460015297
v -0.8283346096074367 0.042576325218023986 0.08758282661437988
v -0.9145646641051555 -0.17919367821997192 -0.0991339460015297
v -0.9197001630461001 -0.1795926717120984 0.08304743468761444
v -0.8506773101186538 0.2983793142240665 -0.09211711585521698
v -0.8558128016090178 0.29797830907517886 0.09006526321172714
v -0.8870029231554055 0.05785932121688339 0.08655719459056854
v -0.8870029231554055 0.05785932121688339 0.08655719459056854
v -0.8818674335276866 0.05826031891519043 -0.09562517702579498
v -0.8506773101186538 0.2983793142240665 -0.09211711585521698
v -0.8870029231554055 0.05785932121688339 0.08655719459056854
v -0.9747366780435824 -0.15472066672628906 0.08221177756786346
v -0.8818674335276866 0.05826031891519043 -0.09562517702579498
v -0.9747366780435824 -0.15472066672628906 0.08221177756786346
v -0.9695991674458766 -0.1543216732341626 -0.09997061640024185
v -0.8818674335276866 0.05826031891519043 -0.09562517702579498
v -0.707827175596931 0.25942931799108004 0.0926552414894104
v -0.7338818261420512 0.019707326869311065 -0.09303619712591171
v -0.7390153953826213 0.019308325926604003 0.08914615958929062
v -0.707827175596931 0.25942931799108004 0.0926552414894104
v -0.7026916841065669 0.2598283114832065 -0.08952713012695312
v -0.7338818261420512 0.019707326869311065 -0.09303619712591171
v -0.7390153953826213 0.019308325926604003 0.08914615958929062
v -0.7338818261420512 0.019707326869311065 -0.09303619712591171
v -0.8307871619260097 -0.21705866130178955 -0.09785974770784378
v -0.7390153953826213 0.019308325926604003 0.08914615958929062
v -0.8307871619260097 -0.21705866130178955 -0.09785974770784378
v -0.8359226534163737 -0.2174586680728772 0.08432262390851974
vt 0 0
vt 0 0
vt 0 0
vt 0 0
vt 0 0
vt 0 0
vt 0 0
vt 0 0
vt 0 0
vt 0 0
vt 0 0
vt 0 0
vt 0 0
vt 0 0
vt 0 0
vt 0 0
vt 0 0
vt 0 0
vt 0 0
vt 0 0
vt 0 0
vt 0 0
vt 0 0
vt 0 0
vt 0 0
vt 0 0
vt 0 0
vt 0 0
vt 0 0
vt 0 0
vt 0 0
vt 0 0
vt 0 0
vt 0 0
vt 0 0
vt 0 0
vt 0 0
vt 0 0
vt 0 0
vt 0 0
vt 0 0
vt 0 0
vt 0 0
vt 0 0
vt 0 0
vt 0 0
vt 0 0
vt 0 0
vt 0 0
vt 0 0
vt 0 0
vt 0 0
vt 0 0
vt 0 0
vt 0 0
vt 0 0
vt 0 0
vt 0 0
vt 0 0
vt 0 0
vt 0 0
vt 0 0
vt 0 0
vt 0 0
vt 0 0
vt 0 0
vt 0 0
vt 0 0
vt 0 0
vt 0 0
vt 0 0
vt 0 0
vt 0 0
vt 0 0
vt 0 0
vt 0 0
vt 0 0
vt 0 0
vt 0 0
vt 0 0
vt 0 0
vt 0 0
vt 0 0
vt 0 0
vt 0 0
vt 0 0
vt 0 0
vt 0 0
vt 0 0
vt 0 0
vt 0 0
vt 0 0
vt 0 0
vt 0 0
vt 0 0
vt 0 0
vt 0 0
vt 0 0
vt 0 0
vt 0 0
vt 0 0
vt 0 0
vt 0 0
vt 0 0
vt 0 0
vt 0 0
vt 0 0
vt 0 0
vt 0 0
vt 0 0
vt 0 0
vt 0 0
vt 0 0
vt 0 0
vt 0 0
vt 0 0
vt 0 0
vt 0 0
vt 0 0
vt 0 0
vt 0 0
vt 0 0
vt 0 0
vt 0 0
vt 0 0
vt 0 0
vt 0 0
vt 0 0
vt 0 0
vt 0 0
vt 0 0
vt 0 0
vt 0 0
vt 0 0
vt 0 0
vt 0 0
vt 0 0
vt 0 0
vt 0 0
vt 0 0
vt 0 0
vt 0 0
vt 0 0
vt 0 0
vt 0 0
vt 0 0
vt 0 0
vt 0 0
vt 0 0
vt 0 0
vt 0 0
vt 0 0
vt 0 0
vt 0 0
vt 0 0
vt 0 0
vt 0 0
vt 0 0
vt 0 0
vt 0 0
vt 0 0
vt 0 0
vt 0 0
vt 0 0
vt 0 0
vt 0 0
vt 0 0
vt 0 0
vt 0 0
vt 0 0
vt 0 0
vt 0 0
vt 0 0
vt 0 0
vt 0 0
vt 0 0
vt 0 0
vt 0 0
vt 0 0
vt 0 0
vn 0.2519873377409626 0.9676870095164722 0.009177866379995426
vn 0.2519873377409626 0.9676870095164722 0.009177866379995426
vn 0.2519873377409626 0.9676870095164722 0.009177866379995426
vn 0.2519873377409626 0.9676870095164722 0.009177866379995426
vn 0.2519873377409626 0.9676870095164722 0.009177866379995426
vn 0.2519873377409626 0.9676870095164722 0.009177866379995426
vn 0.2519873377409626 0.9676870095164722 0.009177866379995426
vn 0.2519873377409626 0.9676870095164722 0.009177866379995426
vn 0.25189429825625553 0.9677102682578947 0.00927896622593259
vn 0.2519873377409626 0.9676870095164722 0.009177866379995426
vn 0.25189429825625553 0.9677102682578947 0.00927896622593259
vn 0.25189429825625553 0.9677102682578947 0.00927896622593259
vn 0.2519873377409626 0.9676870095164722 0.009177866379995426
vn 0.2519873377409626 0.9676870095164722 0.009177866379995426
vn 0.25189369641492493 0.9677113784837237 0.009178979221950271
vn 0.2519873377409626 0.9676870095164722 0.009177866379995426
vn 0.25189369641492493 0.9677113784837237 0.009178979221950271
vn 0.25189369641492493 0.9677113784837237 0.009178979221950271
vn -0.4116534931136117 -0.9112393949887322 -0.013570800563373201
vn -0.4116534931136117 -0.9112393949887322 -0.013570800563373201
vn -0.41161596462900246 -0.9112563660179801 -0.013569563524336371
vn -0.4116534931136117 -0.9112393949887322 -0.013570800563373201
vn -0.41161596462900246 -0.9112563660179801 -0.013569563524336371
vn -0.41161596462900246 -0.9112563660179801 -0.013569563524336371
vn -0.41173654700353696 -0.9112018921954999 -0.013569359636508354
vn -0.4116534931136117 -0.9112393949887322 -0.013570800563373201
vn -0.4116534931136117 -0.9112393949887322 -0.013570800563373201
vn -0.4116534931136117 -0.9112393949887322 -0.013570800563373201
vn -0.4116534931136117 -0.9112393949887322 -0.013570800563373201
vn -0.4116534931136117 -0.9112393949887322 -0.013570800563373201
vn -0.41161596462900246 -0.9112563660179801 -0.013569563524336371
vn -0.41161596462900246 -0.9112563660179801 -0.013569563524336371
vn -0.41161596462900246 -0.9112563660179801 -0.013569563524336371
vn -0.41161596462900246 -0.9112563660179801 -0.013569563524336371
vn -0.41161596462900246 -0.9112563660179801 -0.013569563524336371
vn -0.41161596462900246 -0.9112563660179801 -0.013569563524336371
vn 0.9912336127018144 -0.12919363711012075 0.027657353097641498
vn 0.9791368020779249 -0.20139176680171586 0.027064350742219873
vn 0.9912336127018144 -0.12919363711012075 0.027657353097641498
vn 0.9791368020779249 -0.20139176680171586 0.027064350742219873
vn 0.9791406591526796 -0.2012914757999989 0.02766426149952904
vn 0.9912336127018144 -0.12919363711012075 0.027657353097641498
vn 0.9791368020779249 -0.20139176680171586 0.027064350742219873
vn 0.9252222699190917 -0.37858512681647855 0.025239908857089526
vn 0.9791406591526796 -0.2012914757999989 0.02766426149952904
vn 0.9252222699190917 -0.37858512681647855 0.025239908857089526
vn 0.9252222699190917 -0.37858512681647855 0.025239908857089526
vn 0.9791406591526796 -0.2012914757999989 0.02766426149952904
vn -0.9912336127018144 0.12919363711012075 -0.027657353097641498
vn -0.9789994503662047 0.20200395882564118 -0.02746774110548041
vn -0.9790099816355926 0.20200686068268434 -0.027068138003997086
vn -0.9912336127018144 0.12919363711012075 -0.027657353097641498
vn -0.9912336127018144 0.12919363711012075 -0.027657353097641498
vn -0.9789994503662047 0.20200395882564118 -0.02746774110548041
vn -0.9790099816355926 0.20200686068268434 -0.027068138003997086
vn -0.9789994503662047 0.20200395882564118 -0.02746774110548041
vn -0.923654902845238 0.3823988093852519 -0.02515494048284848
vn -0.9790099816355926 0.20200686068268434 -0.027068138003997086
vn -0.923654902845238 0.3823988093852519 -0.02515494048284848
vn -0.923654902845238 0.3823988093852519 -0.02515494048284848
vn -0.020583961376555618 -0.011899964078379116 0.9997173057364677
vn -0.020583961376555618 -0.011899964078379116 0.9997173057364677
vn -0.020583961376555618 -0.011899964078379116 0.9997173057364677
vn -0.020583961376555618 -0.011899964078379116 0.9997173057364677
vn -0.020583961376555618 -0.011899964078379116 0.9997173057364677
vn -0.020583961376555618 -0.011899964078379116 0.9997173057364677
vn -0.020583961376555618 -0.011899964078379116 0.9997173057364677
vn -0.020583961376555618 -0.011899964078379116 0.9997173057364677
vn -0.020683895277982943 -0.011899928264006626 0.9997152435486021
vn -0.020683895277982943 -0.011899928264006626 0.9997152435486021
vn -0.020683895277982943 -0.011899928264006626 0.9997152435486021
vn -0.020583961376555618 -0.011899964078379116 0.9997173057364677
vn -0.020583937109433584 -0.011999948977658324 0.9997161110823455
vn -0.020583937109433584 -0.011999948977658324 0.9997161110823455
vn -0.020583961376555618 -0.011899964078379116 0.9997173057364677
vn -0.020583961376555618 -0.011899964078379116 0.9997173057364677
vn -0.020583961376555618 -0.011899964078379116 0.9997173057364677
vn -0.020583937109433584 -0.011999948977658324 0.9997161110823455
vn -0.020583961376555618 -0.011899964078379116 0.9997173057364677
vn -0.020583961376555618 -0.011899964078379116 0.9997173057364677
vn -0.020583961376555618 -0.011899964078379116 0.9997173057364677
vn -0.020583961376555618 -0.011899964078379116 0.9997173057364677
vn -0.020583961376555618 -0.011899964078379116 0.9997173057364677
vn -0.020583961376555618 -0.011899964078379116 0.9997173057364677
vn 0.020583961376555618 0.011899964078379116 -0.9997173057364677
vn 0.020583961376555618 0.011899964078379116 -0.9997173057364677
vn 0.020583961376555618 0.011899964078379116 -0.9997173057364677
vn 0.020583961376555618 0.011899964078379116 -0.9997173057364677
vn 0.020583961376555618 0.011899964078379116 -0.9997173057364677
vn 0.020583961376555618 0.011899964078379116 -0.9997173057364677
vn 0.020583961376555618 0.011899964078379116 -0.9997173057364677
vn 0.020583961376555618 0.011899964078379116 -0.9997173057364677
vn 0.020583961376555618 0.011899964078379116 -0.9997173057364677
vn 0.020583961376555618 0.011899964078379116 -0.9997173057364677
vn 0.020583961376555618 0.011899964078379116 -0.9997173057364677
vn 0.020583961376555618 0.011899964078379116 -0.9997173057364677
vn 0.020583961376555618 0.011899964078379116 -0.9997173057364677
vn 0.020583961376555618 0.011899964078379116 -0.9997173057364677
vn 0.020583961376555618 0.011899964078379116 -0.9997173057364677
vn 0.020583961376555618 0.011899964078379116 -0.9997173057364677
vn 0.020583961376555618 0.011899964078379116 -0.9997173057364677
vn 0.020583961376555618 0.011899964078379116 -0.9997173057364677
vn 0.020683895277982943 0.011899928264006626 -0.9997152435486021
vn 0.020583961376555618 0.011899964078379116 -0.9997173057364677
vn 0.020583961376555618 0.011899964078379116 -0.9997173057364677
vn 0.020583961376555618 0.011899964078379116 -0.9997173057364677
vn 0.020683895277982943 0.011899928264006626 -0.9997152435486021
vn 0.020683895277982943 0.011899928264006626 -0.9997152435486021
vn -0.020683895277982943 -0.011899928264006626 0.9997152435486021
vn -0.020683895277982943 -0.011899928264006626 0.9997152435486021
vn -0.020583961376555618 -0.011899964078379116 0.9997173057364677
vn -0.020583961376555618 -0.011899964078379116 0.9997173057364677
vn -0.020583961376555618 -0.011899964078379116 0.9997173057364677
vn -0.020683895277982943 -0.011899928264006626 0.9997152435486021
vn -0.020583961376555618 -0.011899964078379116 0.9997173057364677
vn -0.020583961376555618 -0.011899964078379116 0.9997173057364677
vn -0.020583961376555618 -0.011899964078379116 0.9997173057364677
vn -0.020583961376555618 -0.011899964078379116 0.9997173057364677
vn -0.020583961376555618 -0.011899964078379116 0.9997173057364677
vn -0.020583961376555618 -0.011899964078379116 0.9997173057364677
vn 0.020583961376555618 0.011899964078379116 -0.9997173057364677
vn 0.020583961376555618 0.011899964078379116 -0.9997173057364677
vn 0.020583961376555618 0.011899964078379116 -0.9997173057364677
vn 0.020583961376555618 0.011899964078379116 -0.9997173057364677
vn 0.020583961376555618 0.011899964078379116 -0.9997173057364677
vn 0.020583961376555618 0.011899964078379116 -0.9997173057364677
vn 0.020583961376555618 0.011899964078379116 -0.9997173057364677
vn 0.020583961376555618 0.011899964078379116 -0.9997173057364677
vn 0.020583961376555618 0.011899964078379116 -0.9997173057364677
vn 0.020583961376555618 0.011899964078379116 -0.9997173057364677
vn 0.020583961376555618 0.011899964078379116 -0.9997173057364677
vn 0.020583961376555618 0.011899964078379116 -0.9997173057364677
vn 0.9912336127018144 -0.12919363711012075 0.027657353097641498
vn 0.9790734425742107 -0.20169931190835966 0.02706624505871283
vn 0.9790575887506917 -0.2016949460766345 0.027665621930930112
vn 0.9790575887506917 -0.2016949460766345 0.027665621930930112
vn 0.9912336127018144 -0.12919363711012075 0.027657353097641498
vn 0.9912336127018144 -0.12919363711012075 0.027657353097641498
vn 0.9245946438685284 -0.3801148248693399 0.025248058225932707
vn 0.9790575887506917 -0.2016949460766345 0.027665621930930112
vn 0.9790734425742107 -0.20169931190835966 0.02706624505871283
vn 0.9790734425742107 -0.20169931190835966 0.02706624505871283
vn 0.9245946438685284 -0.3801148248693399 0.025248058225932707
vn 0.9245946438685284 -0.3801148248693399 0.025248058225932707
vn -0.9912336127018144 0.12919363711012075 -0.027657353097641498
vn -0.9790602511250428 0.20169569932768308 -0.027565731256130804
vn -0.9790734425742107 0.20169931190835966 -0.02706624505871283
vn -0.9912336127018144 0.12919363711012075 -0.027657353097641498
vn -0.9912336127018144 0.12919363711012075 -0.027657353097641498
vn -0.9790602511250428 0.20169569932768308 -0.027565731256130804
vn -0.9790734425742107 0.20169931190835966 -0.02706624505871283
vn -0.9790602511250428 0.20169569932768308 -0.027565731256130804
vn -0.9243545293765241 0.3806983134287125 -0.025248726178529794
vn -0.9790734425742107 0.20169931190835966 -0.02706624505871283
vn -0.9243545293765241 0.3806983134287125 -0.025248726178529794
vn -0.9243545293765241 0.3806983134287125 -0.025248726178529794
vn 0.9912336127018144 -0.12919363711012075 0.027657353097641498
vn 0.9912336127018144 -0.12919363711012075 0.027657353097641498
vn 0.979029756929713 -0.20191092423390955 0.027068685249855708
vn 0.979029756929713 -0.20191092423390955 0.027068685249855708
vn 0.9790138980469203 -0.20190657226017075 0.027668095509501073
vn 0.9912336127018144 -0.12919363711012075 0.027657353097641498
vn 0.979029756929713 -0.20191092423390955 0.027068685249855708
vn 0.9238938695229127 -0.38181453968037216 0.02525421047359899
vn 0.9790138980469203 -0.20190657226017075 0.027668095509501073
vn 0.9238938695229127 -0.38181453968037216 0.02525421047359899
vn 0.9238938695229127 -0.38181453968037216 0.02525421047359899
vn 0.9790138980469203 -0.20190657226017075 0.027668095509501073
vn -0.9912336127018144 0.12919363711012075 -0.027657353097641498
vn -0.9791221137723282 0.20140859721472745 -0.027467495153430107
vn -0.9791565152544431 0.20129582719940706 -0.02706489584096149
vn -0.9912336127018144 0.12919363711012075 -0.027657353097641498
vn -0.9912336127018144 0.12919363711012075 -0.027657353097641498
vn -0.9791221137723282 0.20140859721472745 -0.027467495153430107
vn -0.9791565152544431 0.20129582719940706 -0.02706489584096149
vn -0.9791221137723282 0.20140859721472745 -0.027467495153430107
vn -0.9250037196165046 0.3791184773410827 -0.025244778355334292
vn -0.9791565152544431 0.20129582719940706 -0.02706489584096149
vn -0.9250037196165046 0.3791184773410827 -0.025244778355334292
vn -0.9250037196165046 0.3791184773410827 -0.025244778355334292
f 1/1/1 2/2/2 3/3/3
f 4/4/4 5/5/5 6/6/6
f 7/7/7 8/8/8 9/9/9
f 10/10/10 11/11/11 12/12/12
f 13/13/13 14/14/14 15/15/15
f 16/16/16 17/17/17 18/18/18
f 19/19/19 20/20/20 21/21/21
f 22/22/22 23/23/23 24/24/24
f 25/25/25 26/26/26 27/27/27
f 28/28/28 29/29/29 30/30/30
f 31/31/31 32/32/32 33/33/33
f 34/34/34 35/35/35 36/36/36
f 37/37/37 38/38/38 39/39/39
f 40/40/40 41/41/41 42/42/42
f 43/43/43 44/44/44 45/45/45
f 46/46/46 47/47/47 48/48/48
f 49/49/49 50/50/50 51/51/51
f 52/52/52 53/53/53 54/54/54
f 55/55/55 56/56/56 57/57/57
f 58/58/58 59/59/59 60/60/60
f 61/61/61 62/62/62 63/63/63
f 64/64/64 65/65/65 66/66/66
f 67/67/67 68/68/68 69/69/69
f 70/70/70 71/71/71 72/72/72
f 73/73/73 74/74/74 75/75/75
f 76/76/76 77/77/77 78/78/78
f 79/79/79 80/80/80 81/81/81
f 82/82/82 83/83/83 84/84/84
f 85/85/85 86/86/86 87/87/87
f 88/88/88 89/89/89 90/90/90
f 91/91/91 92/92/92 93/93/93
f 94/94/94 95/95/95 96/96/96
f 97/97/97 98/98/98 99/99/99
f 100/100/100 101/101/101 102/102/102
f 103/103/103 104/104/104 105/105/105
f 106/106/106 107/107/107 108/108/108
f 109/109/109 110/110/110 111/111/111
f 112/112/112 113/113/113 114/114/114
f 115/115/115 116/116/116 117/117/117
f 118/118/118 119/119/119 120/120/120
f 121/121/121 122/122/122 123/123/123
f 124/124/124 125/125/125 126/126/126
f 127/127/127 128/128/128 129/129/129
f 130/130/130 131/131/131 132/132/132
f 133/133/133 134/134/134 135/135/135
f 136/136/136 137/137/137 138/138/138
f 139/139/139 140/140/140 141/141/141
f 142/142/142 143/143/143 144/144/144
f 145/145/145 146/146/146 147/147/147
f 148/148/148 149/149/149 150/150/150
f 151/151/151 152/152/152 153/153/153
f 154/154/154 155/155/155 156/156/156
f 157/157/157 158/158/158 159/159/159
f 160/160/160 161/161/161 162/162/162
f 163/163/163 164/164/164 165/165/165
f 166/166/166 167/167/167 168/168/168
f 169/169/169 170/170/170 171/171/171
f 172/172/172 173/173/173 174/174/174
f 175/175/175 176/176/176 177/177/177
f 178/178/178 179/179/179 180/180/180
o RenderMesh_18687756685.001
usemtl Meshpart5Mtl.002
v -0.5888853469884181 0.329729286114516 0.08599670231342316
v -0.9252544535344625 0.41254928437882876 -0.08419939130544662
v -0.9266501987373614 0.4127502712410114 0.08410145342350006
v -0.5888853469884181 0.329729286114516 0.08599670231342316
v -0.5874885121381068 0.3295282843511722 -0.08230315893888474
v -0.9252544535344625 0.41254928437882876 -0.08419939130544662
v -1.1343863854205394 -0.1216647055942395 0.09962314367294312
v -0.7557795593535686 -0.28264472158735776 -0.09845159202814102
v -0.7574373284375453 -0.28240570696180844 0.10181782394647598
v -1.1343863854205394 -0.1216647055942395 0.09962314367294312
v -1.1327275583541179 -0.12190470369642761 -0.10064827650785446
v -0.7557795593535686 -0.28264472158735776 -0.09845159202814102
v -0.726311604121902 -0.22552970321959045 -0.09836246818304062
v -0.7279713848626399 -0.22529071839636353 0.10190796107053757
v -0.7574373284375453 -0.28240570696180844 0.10181782394647598
v -0.7574373284375453 -0.28240570696180844 0.10181782394647598
v -0.7557795593535686 -0.28264472158735776 -0.09845159202814102
v -0.726311604121902 -0.22552970321959045 -0.09836246818304062
v -0.7382778177058482 -0.17440071972197083 0.0858062282204628
v -0.7279713848626399 -0.22529071839636353 0.10190796107053757
v -0.726311604121902 -0.22552970321959045 -0.09836246818304062
v -0.726311604121902 -0.22552970321959045 -0.09836246818304062
v -0.7368840971982265 -0.17460370333975342 -0.08249461650848389
v -0.7382778177058482 -0.17440071972197083 0.0858062282204628
v -0.6263299385106349 0.08297427473479721 0.0860939472913742
v -0.7382778177058482 -0.17440071972197083 0.0858062282204628
v -0.7368840971982265 -0.17460370333975342 -0.08249461650848389
v -0.7368840971982265 -0.17460370333975342 -0.08249461650848389
v -0.624933133462646 0.08277127621585342 -0.08220691978931427
v -0.6263299385106349 0.08297427473479721 0.0860939472913742
v -0.5888853469884181 0.329729286114516 0.08599670231342316
v -0.6263299385106349 0.08297427473479721 0.0860939472913742
v -0.624933133462646 0.08277127621585342 -0.08220691978931427
v -0.624933133462646 0.08277127621585342 -0.08220691978931427
v -0.5874885121381068 0.3295282843511722 -0.08230315893888474
v -0.5888853469884181 0.329729286114516 0.08599670231342316
v -1.1343863854205394 -0.1216647055942395 0.09962314367294312
v -1.104919443467834 -0.06454971702879456 0.09971127659082413
v -1.1327275583541179 -0.12190470369642761 -0.10064827650785446
v -1.104919443467834 -0.06454971702879456 0.09971127659082413
v -1.103259662727096 -0.06478771837538269 -0.10056015849113464
v -1.1327275583541179 -0.12190470369642761 -0.10064827650785446
v -1.103259662727096 -0.06478771837538269 -0.10056015849113464
v -1.104919443467834 -0.06454971702879456 0.09971127659082413
v -1.0550554642474437 -0.03932172330206421 0.08395889401435852
v -1.0550554642474437 -0.03932172330206421 0.08395889401435852
v -1.0536596575772548 -0.03952071340864685 -0.08434096723794937
v -1.103259662727096 -0.06478771837538269 -0.10056015849113464
v -1.0550554642474437 -0.03932172330206421 0.08395889401435852
v -0.9626980522668147 0.16579127786571 -0.08410416543483734
v -1.0536596575772548 -0.03952071340864685 -0.08434096723794937
v -0.9640937807059073 0.1659932780068538 0.08419868350028992
v -0.9626980522668147 0.16579127786571 -0.08410416543483734
v -1.0550554642474437 -0.03932172330206421 0.08395889401435852
v -0.9640937807059073 0.1659932780068538 0.08419868350028992
v -0.9252544535344625 0.41254928437882876 -0.08419939130544662
v -0.9626980522668147 0.16579127786571 -0.08410416543483734
v -0.9266501987373614 0.4127502712410114 0.08410145342350006
v -0.9252544535344625 0.41254928437882876 -0.08419939130544662
v -0.9640937807059073 0.1659932780068538 0.08419868350028992
v -0.7574373284375453 -0.28240570696180844 0.10181782394647598
v -0.7279713848626399 -0.22529071839636353 0.10190796107053757
v -1.1343863854205394 -0.1216647055942395 0.09962314367294312
v -0.7279713848626399 -0.22529071839636353 0.10190796107053757
v -1.104919443467834 -0.06454971702879456 0.09971127659082413
v -1.1343863854205394 -0.1216647055942395 0.09962314367294312
v -0.7279713848626399 -0.22529071839636353 0.10190796107053757
v -1.0550554642474437 -0.03932172330206421 0.08395889401435852
v -1.104919443467834 -0.06454971702879456 0.09971127659082413
v -1.0550554642474437 -0.03932172330206421 0.08395889401435852
v -0.7279713848626399 -0.22529071839636353 0.10190796107053757
v -0.7382778177058482 -0.17440071972197083 0.0858062282204628
v -0.7382778177058482 -0.17440071972197083 0.0858062282204628
v -0.9640937807059073 0.1659932780068538 0.08419868350028992
v -1.0550554642474437 -0.03932172330206421 0.08395889401435852
v -0.9640937807059073 0.1659932780068538 0.08419868350028992
v -0.7382778177058482 -0.17440071972197083 0.0858062282204628
v -0.6263299385106349 0.08297427473479721 0.0860939472913742
v -0.9640937807059073 0.1659932780068538 0.08419868350028992
v -0.6263299385106349 0.08297427473479721 0.0860939472913742
v -0.5888853469884181 0.329729286114516 0.08599670231342316
v -0.5888853469884181 0.329729286114516 0.08599670231342316
v -0.9266501987373614 0.4127502712410114 0.08410145342350006
v -0.9640937807059073 0.1659932780068538 0.08419868350028992
v -1.1327275583541179 -0.12190470369642761 -0.10064827650785446
v -1.103259662727096 -0.06478771837538269 -0.10056015849113464
v -0.726311604121902 -0.22552970321959045 -0.09836246818304062
v -0.726311604121902 -0.22552970321959045 -0.09836246818304062
v -0.7557795593535686 -0.28264472158735776 -0.09845159202814102
v -1.1327275583541179 -0.12190470369642761 -0.10064827650785446
v -0.726311604121902 -0.22552970321959045 -0.09836246818304062
v -1.103259662727096 -0.06478771837538269 -0.10056015849113464
v -1.0536596575772548 -0.03952071340864685 -0.08434096723794937
v -1.0536596575772548 -0.03952071340864685 -0.08434096723794937
v -0.7368840971982265 -0.17460370333975342 -0.08249461650848389
v -0.726311604121902 -0.22552970321959045 -0.09836246818304062
v -0.7368840971982265 -0.17460370333975342 -0.08249461650848389
v -1.0536596575772548 -0.03952071340864685 -0.08434096723794937
v -0.9626980522668147 0.16579127786571 -0.08410416543483734
v -0.9626980522668147 0.16579127786571 -0.08410416543483734
v -0.624933133462646 0.08277127621585342 -0.08220691978931427
v -0.7368840971982265 -0.17460370333975342 -0.08249461650848389
v -0.9626980522668147 0.16579127786571 -0.08410416543483734
v -0.5874885121381068 0.3295282843511722 -0.08230315893888474
v -0.624933133462646 0.08277127621585342 -0.08220691978931427
v -0.9626980522668147 0.16579127786571 -0.08410416543483734
v -0.9252544535344625 0.41254928437882876 -0.08419939130544662
v -0.5874885121381068 0.3295282843511722 -0.08230315893888474
vt 0 0
vt 0 0
vt 0 0
vt 0 0
vt 0 0
vt 0 0
vt 0 0
vt 0 0
vt 0 0
vt 0 0
vt 0 0
vt 0 0
vt 0 0
vt 0 0
vt 0 0
vt 0 0
vt 0 0
vt 0 0
vt 0 0
vt 0 0
vt 0 0
vt 0 0
vt 0 0
vt 0 0
vt 0 0
vt 0 0
vt 0 0
vt 0 0
vt 0 0
vt 0 0
vt 0 0
vt 0 0
vt 0 0
vt 0 0
vt 0 0
vt 0 0
vt 0 0
vt 0 0
vt 0 0
vt 0 0
vt 0 0
vt 0 0
vt 0 0
vt 0 0
vt 0 0
vt 0 0
vt 0 0
vt 0 0
vt 0 0
vt 0 0
vt 0 0
vt 0 0
vt 0 0
vt 0 0
vt 0 0
vt 0 0
vt 0 0
vt 0 0
vt 0 0
vt 0 0
vt 0 0
vt 0 0
vt 0 0
vt 0 0
vt 0 0
vt 0 0
vt 0 0
vt 0 0
vt 0 0
vt 0 0
vt 0 0
vt 0 0
vt 0 0
vt 0 0
vt 0 0
vt 0 0
vt 0 0
vt 0 0
vt 0 0
vt 0 0
vt 0 0
vt 0 0
vt 0 0
vt 0 0
vt 0 0
vt 0 0
vt 0 0
vt 0 0
vt 0 0
vt 0 0
vt 0 0
vt 0 0
vt 0 0
vt 0 0
vt 0 0
vt 0 0
vt 0 0
vt 0 0
vt 0 0
vt 0 0
vt 0 0
vt 0 0
vt 0 0
vt 0 0
vt 0 0
vt 0 0
vt 0 0
vt 0 0
vn 0.23871375394465882 0.9710896519317667 0.0007947255432836517
vn 0.23871375394465882 0.9710896519317667 0.0007947255432836517
vn 0.23871375394465882 0.9710896519317667 0.0007947255432836517
vn 0.23871375394465882 0.9710896519317667 0.0007947255432836517
vn 0.23871375394465882 0.9710896519317667 0.0007947255432836517
vn 0.23871375394465882 0.9710896519317667 0.0007947255432836517
vn -0.3922207572182694 -0.919868628975732 -0.002140802054041614
vn -0.3922207572182694 -0.919868628975732 -0.002140802054041614
vn -0.3922207572182694 -0.919868628975732 -0.002140802054041614
vn -0.3922207572182694 -0.919868628975732 -0.002140802054041614
vn -0.3922207572182694 -0.919868628975732 -0.002140802054041614
vn -0.3922207572182694 -0.919868628975732 -0.002140802054041614
vn 0.9899450385775608 -0.14120466786402253 0.008370326701076004
vn 0.9899450385775608 -0.14120466786402253 0.008370326701076004
vn 0.8886689362825112 -0.45848195811625214 0.007862300451986099
vn 0.8886689362825112 -0.45848195811625214 0.007862300451986099
vn 0.8886689362825112 -0.45848195811625214 0.007862300451986099
vn 0.9899450385775608 -0.14120466786402253 0.008370326701076004
vn 0.9977108933210755 -0.06709986990386041 0.008401238441220824
vn 0.9899450385775608 -0.14120466786402253 0.008370326701076004
vn 0.9899450385775608 -0.14120466786402253 0.008370326701076004
vn 0.9899450385775608 -0.14120466786402253 0.008370326701076004
vn 0.9977117227113641 -0.06709998132127408 0.00830125719434975
vn 0.9977108933210755 -0.06709986990386041 0.008401238441220824
vn 0.9629686490050756 -0.26948845429184326 0.008206950513604934
vn 0.9977108933210755 -0.06709986990386041 0.008401238441220824
vn 0.9977117227113641 -0.06709998132127408 0.00830125719434975
vn 0.9977117227113641 -0.06709998132127408 0.00830125719434975
vn 0.9629346770648773 -0.26960671066528846 0.008308385535339595
vn 0.9629686490050756 -0.26948845429184326 0.008206950513604934
vn 0.9886496086807668 -0.15000565380037945 0.008381830545131598
vn 0.9629686490050756 -0.26948845429184326 0.008206950513604934
vn 0.9629346770648773 -0.26960671066528846 0.008308385535339595
vn 0.9629346770648773 -0.26960671066528846 0.008308385535339595
vn 0.9886496086807668 -0.15000565380037945 0.008381830545131598
vn 0.9886496086807668 -0.15000565380037945 0.008381830545131598
vn -0.8886689362825112 0.45848195811625214 -0.007862300451986099
vn -0.7479771324298008 0.6636885955062597 -0.006903445300742667
vn -0.8886689362825112 0.45848195811625214 -0.007862300451986099
vn -0.7479771324298008 0.6636885955062597 -0.006903445300742667
vn -0.747883440683696 0.6637941613267815 -0.006904385533235286
vn -0.8886689362825112 0.45848195811625214 -0.007862300451986099
vn -0.747883440683696 0.6637941613267815 -0.006904385533235286
vn -0.7479771324298008 0.6636885955062597 -0.006903445300742667
vn -0.7548973703364099 0.6558051233569746 -0.007042757834568267
vn -0.7548973703364099 0.6558051233569746 -0.007042757834568267
vn -0.7548972263245202 0.6558042077404482 -0.007142744393394319
vn -0.747883440683696 0.6637941613267815 -0.006904385533235286
vn -0.7548973703364099 0.6558051233569746 -0.007042757834568267
vn -0.9621790199177241 0.2722910386403718 -0.008314078801360909
vn -0.7548972263245202 0.6558042077404482 -0.007142744393394319
vn -0.9621461224375213 0.2724102491447337 -0.008215548633326193
vn -0.9621790199177241 0.2722910386403718 -0.008314078801360909
vn -0.7548973703364099 0.6558051233569746 -0.007042757834568267
vn -0.9621461224375213 0.2724102491447337 -0.008215548633326193
vn -0.9886496086807668 0.15000565380037945 -0.008381830545131598
vn -0.9621790199177241 0.2722910386403718 -0.008314078801360909
vn -0.9886496086807668 0.15000565380037945 -0.008381830545131598
vn -0.9886496086807668 0.15000565380037945 -0.008381830545131598
vn -0.9621461224375213 0.2724102491447337 -0.008215548633326193
vn -0.005281090724113292 0.001199999937792226 0.9999853349329245
vn 0.06269081093943828 0.1607039611063375 0.9850096949312166
vn -0.005281090724113292 0.001199999937792226 0.9999853349329245
vn 0.06269081093943828 0.1607039611063375 0.9850096949312166
vn 0.024394940974547863 0.07079777979684183 0.9971923391355783
vn -0.005281090724113292 0.001199999937792226 0.9999853349329245
vn 0.06269081093943828 0.1607039611063375 0.9850096949312166
vn 0.09185080098848858 0.22880063623729552 0.9691303829801136
vn 0.024394940974547863 0.07079777979684183 0.9971923391355783
vn 0.09185080098848858 0.22880063623729552 0.9691303829801136
vn 0.06269081093943828 0.1607039611063375 0.9850096949312166
vn 0.06846573240549947 0.17369681689984848 0.9824163370409915
vn 0.06846573240549947 0.17369681689984848 0.9824163370409915
vn -0.005281090724113292 0.001199999937792226 0.9999853349329245
vn 0.09185080098848858 0.22880063623729552 0.9691303829801136
vn -0.005281090724113292 0.001199999937792226 0.9999853349329245
vn 0.06846573240549947 0.17369681689984848 0.9824163370409915
vn -0.005281090724113292 0.001199999937792226 0.9999853349329245
vn -0.005281090724113292 0.001199999937792226 0.9999853349329245
vn -0.005281090724113292 0.001199999937792226 0.9999853349329245
vn -0.005281090724113292 0.001199999937792226 0.9999853349329245
vn -0.005281090724113292 0.001199999937792226 0.9999853349329245
vn -0.005281090724113292 0.001199999937792226 0.9999853349329245
vn -0.005281090724113292 0.001199999937792226 0.9999853349329245
vn 0.005281090724113292 -0.001199999937792226 -0.9999853349329245
vn 0.03490817549643595 0.06840003287316399 -0.99704706748802
vn 0.07331492708236295 0.15849189366022223 -0.9846345723723623
vn 0.07331492708236295 0.15849189366022223 -0.9846345723723623
vn 0.005281090724113292 -0.001199999937792226 -0.9999853349329245
vn 0.005281090724113292 -0.001199999937792226 -0.9999853349329245
vn 0.07331492708236295 0.15849189366022223 -0.9846345723723623
vn 0.03490817549643595 0.06840003287316399 -0.99704706748802
vn 0.10225785739044926 0.22659236669988425 -0.9686068500456002
vn 0.10225785739044926 0.22659236669988425 -0.9686068500456002
vn 0.07884155806390608 0.17149842943823965 -0.982024591047634
vn 0.07331492708236295 0.15849189366022223 -0.9846345723723623
vn 0.07884155806390608 0.17149842943823965 -0.982024591047634
vn 0.10225785739044926 0.22659236669988425 -0.9686068500456002
vn 0.005281090724113292 -0.001199999937792226 -0.9999853349329245
vn 0.005281090724113292 -0.001199999937792226 -0.9999853349329245
vn 0.005281090724113292 -0.001199999937792226 -0.9999853349329245
vn 0.07884155806390608 0.17149842943823965 -0.982024591047634
vn 0.005281090724113292 -0.001199999937792226 -0.9999853349329245
vn 0.005281090724113292 -0.001199999937792226 -0.9999853349329245
vn 0.005281090724113292 -0.001199999937792226 -0.9999853349329245
vn 0.005281090724113292 -0.001199999937792226 -0.9999853349329245
vn 0.005281090724113292 -0.001199999937792226 -0.9999853349329245
vn 0.005281090724113292 -0.001199999937792226 -0.9999853349329245
f 181/181/181 182/182/182 183/183/183
f 184/184/184 185/185/185 186/186/186
f 187/187/187 188/188/188 189/189/189
f 190/190/190 191/191/191 192/192/192
f 193/193/193 194/194/194 195/195/195
f 196/196/196 197/197/197 198/198/198
f 199/199/199 200/200/200 201/201/201
f 202/202/202 203/203/203 204/204/204
f 205/205/205 206/206/206 207/207/207
f 208/208/208 209/209/209 210/210/210
f 211/211/211 212/212/212 213/213/213
f 214/214/214 215/215/215 216/216/216
f 217/217/217 218/218/218 219/219/219
f 220/220/220 221/221/221 222/222/222
f 223/223/223 224/224/224 225/225/225
f 226/226/226 227/227/227 228/228/228
f 229/229/229 230/230/230 231/231/231
f 232/232/232 233/233/233 234/234/234
f 235/235/235 236/236/236 237/237/237
f 238/238/238 239/239/239 240/240/240
f 241/241/241 242/242/242 243/243/243
f 244/244/244 245/245/245 246/246/246
f 247/247/247 248/248/248 249/249/249
f 250/250/250 251/251/251 252/252/252
f 253/253/253 254/254/254 255/255/255
f 256/256/256 257/257/257 258/258/258
f 259/259/259 260/260/260 261/261/261
f 262/262/262 263/263/263 264/264/264
f 265/265/265 266/266/266 267/267/267
f 268/268/268 269/269/269 270/270/270
f 271/271/271 272/272/272 273/273/273
f 274/274/274 275/275/275 276/276/276
f 277/277/277 278/278/278 279/279/279
f 280/280/280 281/281/281 282/282/282
f 283/283/283 284/284/284 285/285/285
f 286/286/286 287/287/287 288/288/288
