# Blender 5.2.0 LTS
# www.blender.org
mtllib ps mag.mtl
o ps_mag.001
v 0.229934 -0.270416 0.105072
v 0.232820 -0.273303 0.107959
v 0.229934 -0.270416 -0.104919
v 0.232820 -0.273303 -0.107806
v 0.229934 -0.191406 -0.104919
v 0.232820 -0.188520 -0.107806
v 0.229934 -0.191406 0.105072
v 0.232820 -0.188519 0.107959
v 0.199904 -0.191406 0.105072
v 0.202785 -0.188517 0.107962
v 0.199904 -0.191406 -0.104919
v 0.202788 -0.188518 -0.107808
v 0.199904 -0.165405 -0.104919
v 0.202791 -0.162519 -0.107806
v 0.199904 -0.165405 0.105072
v 0.202791 -0.162519 0.107959
v 0.179885 -0.165405 -0.104919
v 0.182772 -0.162519 -0.107806
v 0.179885 0.278595 -0.104919
v 0.182772 0.281482 -0.107806
v 0.179885 0.278595 0.105072
v 0.182772 0.281482 0.107959
v 0.179885 -0.165405 0.105072
v 0.182771 -0.162518 0.107959
v -0.180223 0.278595 -0.104919
v -0.183109 0.281482 -0.107806
v -0.180223 0.278595 0.105072
v -0.183109 0.281482 0.107959
v -0.180223 -0.165405 0.105072
v -0.183108 -0.162518 0.107959
v -0.180223 -0.165405 -0.104919
v -0.183108 -0.162518 -0.107807
v -0.200242 -0.165405 -0.104919
v -0.203129 -0.162519 -0.107806
v -0.200242 -0.165405 0.105072
v -0.203129 -0.162519 0.107959
v -0.230271 -0.191406 -0.104919
v -0.233158 -0.188520 -0.107806
v -0.230271 -0.191406 0.105072
v -0.233158 -0.188519 0.107959
v -0.200242 -0.191406 -0.104919
v -0.203123 -0.188517 -0.107809
v -0.200242 -0.191406 0.105072
v -0.203123 -0.188517 0.107962
v -0.230271 -0.270416 0.105072
v -0.233158 -0.273303 0.107959
v -0.230271 -0.270416 -0.104919
v -0.233158 -0.273303 -0.107806
v 0.099807 0.245605 0.108063
v 0.102693 0.248492 0.110949
v 0.099807 -0.164398 0.108063
v 0.102693 -0.167285 0.110950
v 0.099807 0.245605 -0.108917
v 0.102693 0.248492 -0.111804
v 0.099807 -0.164398 -0.108917
v 0.102693 -0.167285 -0.111804
v -0.070115 0.245605 0.108063
v -0.067228 0.248492 0.110949
v -0.070115 -0.164398 0.108063
v -0.067228 -0.167285 0.110950
v -0.070115 0.245605 -0.108917
v -0.067228 0.248492 -0.111804
v -0.070115 -0.164398 -0.108917
v -0.067228 -0.167285 -0.111804
v -0.110154 0.245605 -0.108917
v -0.113041 0.248492 -0.111804
v -0.110154 0.245605 0.108063
v -0.113041 0.248492 0.110949
v 0.069777 0.245605 -0.108917
v 0.066891 0.248492 -0.111804
v 0.069777 0.245605 0.108063
v 0.066891 0.248492 0.110949
v -0.110154 -0.164398 0.108063
v -0.113041 -0.167285 0.110950
v 0.069777 -0.164398 0.108063
v 0.066891 -0.167285 0.110950
v -0.110154 -0.164398 -0.108917
v -0.113041 -0.167285 -0.111804
v 0.069777 -0.164398 -0.108917
v 0.066891 -0.167285 -0.111804
v 0.228877 -0.271860 -0.103863
v 0.228877 -0.271860 0.104015
v -0.229215 -0.271860 0.104016
v -0.229215 -0.271860 -0.103863
v 0.228877 -0.269360 0.106515
v 0.228877 -0.192463 0.106515
v 0.198845 -0.192461 0.106517
v 0.198848 -0.166462 0.106515
v 0.178828 -0.166462 0.106516
v 0.178828 0.277538 0.106515
v -0.179166 0.277538 0.106515
v -0.179166 -0.166462 0.106516
v -0.199186 -0.166462 0.106515
v -0.199183 -0.192461 0.106517
v -0.229215 -0.192463 0.106515
v -0.229215 -0.269360 0.106516
v -0.071172 -0.163342 -0.110361
v -0.109098 -0.163342 -0.110361
v -0.109098 0.244549 -0.110361
v -0.071172 0.244549 -0.110361
v -0.068672 -0.163342 -0.107861
v -0.068672 0.244549 -0.107861
v -0.068672 0.244549 0.107006
v -0.068672 -0.163342 0.107006
v -0.229215 -0.189963 0.104015
v -0.204183 -0.189961 0.104017
v -0.204183 -0.189962 -0.103864
v -0.229215 -0.189963 -0.103863
v -0.181666 -0.161462 -0.103863
v -0.181666 -0.161462 0.104016
v -0.181666 0.277538 0.104015
v -0.181666 0.277538 -0.103863
v -0.199186 -0.163962 -0.103863
v -0.199186 -0.163962 0.104015
v -0.184166 -0.163962 0.104016
v -0.184166 -0.163962 -0.103863
v 0.201348 -0.166462 -0.103863
v 0.201348 -0.166462 0.104015
v 0.201345 -0.187461 0.104017
v 0.201346 -0.187462 -0.103863
v 0.183828 -0.163962 0.104016
v 0.198848 -0.163962 0.104015
v 0.198848 -0.163962 -0.103863
v 0.183828 -0.163962 -0.103863
v -0.111598 -0.163342 -0.107861
v -0.111598 -0.163342 0.107006
v -0.111598 0.244549 0.107006
v -0.111598 0.244549 -0.107861
v -0.071172 0.244549 0.109506
v -0.109098 0.244549 0.109506
v -0.109098 -0.163342 0.109506
v -0.071172 -0.163342 0.109506
v -0.109098 0.247049 -0.107861
v -0.109098 0.247049 0.107006
v -0.071172 0.247049 0.107006
v -0.071172 0.247049 -0.107861
v -0.199183 -0.192462 -0.106364
v -0.199186 -0.166462 -0.106363
v -0.179166 -0.166462 -0.106363
v -0.179166 0.277538 -0.106363
v 0.178828 0.277538 -0.106363
v 0.178828 -0.166462 -0.106363
v 0.198848 -0.166462 -0.106363
v 0.198846 -0.192462 -0.106363
v 0.228877 -0.192463 -0.106363
v 0.228877 -0.269360 -0.106363
v -0.229215 -0.269360 -0.106363
v -0.229215 -0.192463 -0.106363
v 0.231377 -0.192463 -0.103863
v 0.231377 -0.192463 0.104015
v 0.231377 -0.269360 0.104015
v 0.231377 -0.269360 -0.103863
v -0.071172 -0.165842 -0.107861
v -0.071172 -0.165842 0.107006
v -0.109098 -0.165842 0.107006
v -0.109098 -0.165842 -0.107861
v -0.179166 0.280038 -0.103863
v -0.179166 0.280038 0.104015
v 0.178828 0.280038 0.104015
v 0.178828 0.280038 -0.103863
v 0.101250 -0.163342 -0.107861
v 0.101250 0.244549 -0.107861
v 0.101250 0.244549 0.107006
v 0.101250 -0.163342 0.107006
v 0.098750 0.244549 0.109506
v 0.070834 0.244549 0.109506
v 0.070834 -0.163342 0.109506
v 0.098750 -0.163342 0.109506
v 0.098750 -0.163342 -0.110361
v 0.070834 -0.163342 -0.110361
v 0.070834 0.244549 -0.110361
v 0.098750 0.244549 -0.110361
v -0.231715 -0.269360 -0.103863
v -0.231715 -0.269360 0.104016
v -0.231715 -0.192463 0.104015
v -0.231715 -0.192463 -0.103863
v -0.201683 -0.187462 -0.103864
v -0.201683 -0.187461 0.104017
v -0.201686 -0.166462 0.104015
v -0.201686 -0.166462 -0.103863
v 0.068334 -0.163342 -0.107861
v 0.068334 -0.163342 0.107006
v 0.068334 0.244549 0.107006
v 0.068334 0.244549 -0.107861
v 0.070834 0.247049 -0.107861
v 0.070834 0.247049 0.107006
v 0.098750 0.247049 0.107006
v 0.098750 0.247049 -0.107861
v 0.181328 0.277538 0.104015
v 0.181328 -0.161462 0.104016
v 0.181328 -0.161462 -0.103863
v 0.181328 0.277538 -0.103863
v 0.203846 -0.189962 -0.103863
v 0.203845 -0.189961 0.104017
v 0.228877 -0.189963 0.104015
v 0.228877 -0.189963 -0.103863
v 0.098750 -0.165842 -0.107861
v 0.098750 -0.165842 0.107006
v 0.070834 -0.165842 0.107006
v 0.070834 -0.165842 -0.107861
vn 0.8069 -0.5907 -0.0000
vn 0.3437 0.9391 -0.0000
vn -0.0000 -0.5907 0.8069
vn -0.0000 0.9391 0.3438
vn -0.8068 -0.5908 -0.0000
vn -0.3438 0.9390 -0.0000
vn -0.0000 -0.5906 -0.8070
vn -0.0000 0.9391 -0.3437
vn 0.8069 -0.0000 0.5907
vn 0.3437 -0.0000 -0.9391
vn -0.0000 0.8071 0.5904
vn -0.0021 0.8083 0.5888
vn -0.0000 0.3439 -0.9390
vn -0.0029 0.3431 -0.9393
vn -0.0001 0.3465 -0.9380
vn 0.8067 -0.0000 0.5909
vn 0.8061 -0.0028 0.5918
vn 0.8083 -0.0005 0.5887
vn 0.3443 -0.0001 -0.9389
vn 0.3460 -0.0022 -0.9382
vn -0.0000 0.8069 0.5907
vn -0.0004 0.8071 0.5903
vn -0.0000 0.3438 -0.9391
vn -0.0008 0.3435 -0.9391
vn -0.0000 0.3446 -0.9388
vn 0.8068 -0.0000 0.5908
vn 0.3441 -0.0003 -0.9389
vn -0.0000 0.3437 -0.9391
vn -0.8069 -0.0000 0.5907
vn -0.3438 -0.0000 -0.9390
vn -0.3435 -0.0004 -0.9391
vn -0.3440 -0.0003 -0.9390
vn -0.0000 0.8070 0.5906
vn 0.0002 0.8069 0.5907
vn -0.0000 0.3445 -0.9388
vn -0.8083 -0.0005 0.5888
vn -0.3443 -0.0001 -0.9389
vn -0.3427 -0.0025 -0.9394
vn -0.3459 -0.0021 -0.9383
vn -0.0000 0.8072 0.5902
vn 0.0022 0.8061 0.5917
vn 0.0022 0.8083 0.5888
vn 0.0001 0.3438 -0.9391
vn 0.0001 0.3465 -0.9381
vn -0.3438 -0.0000 -0.9391
vn -0.0000 -0.8070 0.5906
vn -0.0000 -0.3437 -0.9391
vn -0.0007 -0.3437 -0.9391
vn -0.0000 -0.8069 -0.5907
vn -0.0000 -0.3437 0.9391
vn -0.8069 -0.0000 -0.5907
vn -0.3437 -0.0000 0.9391
vn -0.0000 0.8069 -0.5907
vn -0.0000 0.3437 0.9391
vn 0.8069 -0.0000 -0.5907
vn 0.3437 -0.0000 0.9391
vn 0.5907 -0.0000 -0.8069
vn -0.9391 -0.0000 -0.3437
vn 0.5907 0.8069 -0.0000
vn -0.9391 0.3437 -0.0000
vn 0.5907 -0.0000 0.8069
vn -0.9391 -0.0000 0.3437
vn 0.5907 -0.8069 -0.0000
vn -0.9391 -0.3437 -0.0000
vn -0.0000 0.5903 0.8072
vn -0.0000 -0.9390 0.3439
vn 0.3442 0.9389 -0.0000
vn 0.8064 -0.5913 -0.0000
vn -0.0000 0.5901 -0.8073
vn -0.0000 0.5902 -0.8073
vn 0.0001 -0.9391 -0.3438
vn -0.8069 0.5907 -0.0000
vn -0.3437 -0.9391 -0.0000
vn -0.9391 -0.3436 -0.0000
vn -0.5907 -0.0000 0.8069
vn 0.9391 -0.0000 0.3437
vn -0.5907 0.8069 -0.0000
vn 0.9391 0.3437 -0.0000
vn -0.5907 -0.0000 -0.8069
vn 0.9391 -0.0000 -0.3436
vn -0.0000 0.5907 0.8069
vn -0.0000 -0.9391 0.3438
vn 0.3438 0.9390 -0.0000
vn 0.8068 -0.5908 -0.0000
vn -0.0000 0.5905 -0.8070
vn -0.0000 -0.9391 -0.3437
vn -0.9393 0.0001 0.3431
vn 0.9393 -0.3430 -0.0000
vn -0.5908 -0.8068 -0.0000
vn 0.5908 -0.0000 -0.8068
vn -0.9391 0.0001 -0.3436
vn -0.0000 0.5905 0.8070
vn -0.0000 -0.9391 0.3437
vn 0.8069 0.5907 -0.0000
vn 0.3437 -0.9391 -0.0000
vn -0.0000 0.5907 -0.8069
vn -0.3437 0.9391 -0.0000
vn -0.5907 -0.8069 -0.0000
vn 0.9391 -0.3437 -0.0000
vn 0.9391 -0.0000 -0.3437
vn -0.3437 -0.0000 -0.9391
vn -0.0000 -0.8069 0.5907
vn -0.8067 -0.0000 -0.5909
vn -0.8061 -0.0028 -0.5918
vn -0.8084 -0.0005 -0.5887
vn -0.3443 -0.0001 0.9389
vn -0.3460 -0.0022 0.9382
vn 0.0004 0.8071 -0.5903
vn -0.0000 0.3438 0.9391
vn 0.0008 0.3435 0.9391
vn -0.0000 0.3446 0.9388
vn -0.8068 -0.0000 -0.5908
vn -0.3441 -0.0003 0.9389
vn 0.8076 -0.0002 -0.5898
vn 0.3436 -0.0001 0.9391
vn 0.3431 -0.0014 0.9393
vn 0.3449 -0.0011 0.9387
vn -0.0000 0.8072 -0.5903
vn -0.0012 0.8065 -0.5913
vn -0.0011 0.8076 -0.5897
vn -0.0001 0.3452 0.9385
vn 0.0003 -0.3434 0.9392
vn -0.0007 -0.3437 0.9391
vn -0.0000 0.8071 -0.5904
vn 0.0021 0.8083 -0.5888
vn -0.0000 0.3439 0.9390
vn 0.0029 0.3431 0.9393
vn 0.0001 0.3465 0.9380
vn -0.0000 0.9391 0.3437
vn -0.8069 -0.5907 -0.0000
vn -0.0000 -0.5907 -0.8069
vn 0.9391 -0.3436 -0.0000
vn -0.9393 -0.3430 -0.0000
vn 0.5909 -0.8067 -0.0000
vn -0.5909 -0.0000 0.8067
vn 0.9391 0.0002 0.3435
vn 0.9393 0.0001 -0.3431
vn -0.9391 -0.0000 0.3436
vn -0.3440 0.9390 -0.0000
vn -0.8064 -0.5913 -0.0000
vn -0.0000 0.5901 0.8073
vn -0.0000 0.5902 0.8073
vn -0.0001 -0.9391 0.3438
vn -0.0000 -0.9390 -0.3438
vn -0.0000 -0.5906 0.8070
vn -0.0000 0.9391 -0.3438
vn -0.0022 0.8061 0.5917
vn -0.0001 0.3438 -0.9391
vn -0.0001 0.3465 -0.9381
vn 0.3459 -0.0021 -0.9383
vn 0.3427 -0.0025 -0.9394
vn -0.0004 0.8068 0.5909
vn 0.3438 -0.0000 -0.9390
vn 0.3436 -0.0003 -0.9391
vn -0.8068 -0.0000 0.5908
vn -0.8070 -0.0000 0.5905
vn 0.0004 0.8071 0.5903
vn -0.0000 0.3446 -0.9387
vn 0.0008 0.3435 -0.9391
vn -0.8067 -0.0000 0.5909
vn -0.8083 -0.0005 0.5887
vn -0.8061 -0.0028 0.5918
vn -0.3460 -0.0022 -0.9382
vn 0.0001 0.3465 -0.9380
vn 0.0028 0.3431 -0.9393
vn -0.0005 -0.3437 -0.9391
vn 0.0004 -0.3433 -0.9392
vn 0.0001 -0.9391 0.3438
vn -0.0000 0.5903 -0.8072
vn -0.0000 -0.9390 -0.3439
vn 0.9391 -0.0000 0.3436
vn -0.0000 -0.9391 -0.3438
vn 0.5909 -0.0000 0.8067
vn -0.9391 0.0002 0.3435
vn 0.9392 -0.3434 -0.0000
vn -0.5909 -0.8067 -0.0000
vn -0.9392 0.0001 -0.3434
vn -0.8083 -0.0005 -0.5887
vn -0.3459 -0.0021 0.9383
vn -0.3427 -0.0025 0.9394
vn -0.0000 0.8070 -0.5906
vn 0.0004 0.8068 -0.5909
vn -0.0000 0.3445 0.9388
vn -0.3438 -0.0000 0.9390
vn -0.3436 -0.0003 0.9391
vn 0.8067 -0.0000 -0.5910
vn 0.8076 -0.0003 -0.5897
vn 0.8065 -0.0013 -0.5912
vn 0.3438 -0.0001 0.9390
vn 0.3447 -0.0010 0.9387
vn -0.0010 0.8076 -0.5898
vn -0.0000 0.3438 0.9390
vn -0.0000 0.3450 0.9386
vn -0.0013 0.3435 0.9392
vn -0.0000 -0.8070 -0.5906
vn -0.0008 -0.3437 0.9391
vn -0.3438 -0.0000 0.9391
vn -0.0000 0.8072 -0.5902
vn 0.0022 0.8061 -0.5917
vn 0.0001 0.3438 0.9391
vn 0.0001 0.3465 0.9381
vn 0.9393 0.0001 0.3431
vn -0.5909 -0.0000 -0.8067
vn 0.9391 0.0002 -0.3435
vn -0.3442 0.9389 -0.0000
vn -0.8067 -0.5910 -0.0000
vt 62.226200 -2.895170
vt 62.226200 -3.104830
vt 61.773800 -2.895170
vt 61.773800 -3.104830
vt 62.226200 -3.196200
vt 62.226200 -3.274680
vt 62.202400 -3.196200
vt 62.202400 -3.170040
vt 62.178600 -3.170040
vt 62.178600 -2.725320
vt 61.821400 -2.725320
vt 61.821400 -3.170040
vt 61.797600 -3.170040
vt 61.797600 -3.196200
vt 61.773800 -3.196200
vt 61.773800 -3.274680
vt 36.068199 -7.205020
vt 36.104698 -7.205020
vt 36.104698 -6.794980
vt 36.068199 -6.794980
vt 36.108299 -6.794980
vt 36.108299 -7.205020
vt 35.891701 -6.794980
vt 35.891701 -7.205020
vt 62.202400 -2.895170
vt 62.202400 -3.104830
vt 61.895199 -3.170040
vt 62.104801 -3.170040
vt 62.104801 -2.725320
vt 61.895199 -2.725320
vt 62.178600 -2.895170
vt 62.178600 -3.104830
vt 61.895199 -3.196200
vt 62.104801 -3.196200
vt 61.821400 -2.895170
vt 61.797600 -2.895170
vt 61.797600 -3.104830
vt 61.821400 -3.104830
vt 35.895302 -6.794980
vt 35.931801 -6.794980
vt 35.895302 -7.205020
vt 35.931801 -7.205020
vt 36.104698 -6.891720
vt 36.104698 -7.108280
vt 36.068199 -6.891720
vt 36.068199 -7.108280
vt 61.895199 -3.274680
vt 62.104801 -3.274680
vt 35.931801 -6.891720
vt 35.931801 -7.108280
vt 35.895302 -6.891720
vt 35.895302 -7.108280
s 0
usemtl Meshpart1Mtl.005
f 82/1/1 81/2/1 3/2/1
f 81/2/2 82/1/2 2/1/2
f 83/3/3 82/1/3 1/1/3
f 82/1/4 83/3/4 46/3/4
f 84/4/5 83/3/5 45/3/5
f 83/3/6 84/4/6 48/4/6
f 84/4/7 47/4/7 3/2/7
f 81/2/8 4/2/8 48/4/8
f 86/5/9 85/6/9 1/6/9
f 85/6/10 86/5/10 8/5/10
f 86/5/11 7/5/11 9/7/12
f 86/5/13 87/7/14 10/7/15
f 88/8/16 87/7/17 9/7/18
f 88/8/19 16/8/19 10/7/20
f 88/8/21 15/8/21 23/9/22
f 88/8/23 89/9/24 24/9/25
f 90/10/26 89/9/26 23/9/26
f 90/10/10 22/10/10 24/9/27
f 91/11/21 90/10/21 21/10/21
f 90/10/28 91/11/28 28/11/28
f 91/11/29 27/11/29 29/12/29
f 91/11/30 92/12/31 30/12/32
f 93/13/33 92/12/34 29/12/33
f 93/13/28 36/13/28 30/12/35
f 93/13/29 35/13/29 43/14/36
f 93/13/37 94/14/38 44/14/39
f 95/15/40 94/14/41 43/14/42
f 95/15/43 40/15/43 44/14/44
f 95/15/29 39/15/29 45/16/29
f 96/16/45 46/16/45 40/15/45
f 96/16/46 45/16/46 1/6/46
f 85/6/47 2/6/47 46/16/48
f 106/25/65 105/1/65 39/1/65
f 105/1/66 106/25/66 44/25/66
f 107/26/67 106/25/67 43/25/67
f 106/25/68 107/26/68 42/26/68
f 107/26/69 41/26/70 37/2/69
f 108/2/71 38/2/71 42/26/71
f 105/1/72 108/2/72 37/2/72
f 108/2/73 105/1/73 40/1/73
f 109/27/74 31/27/74 29/28/74
f 109/27/63 110/28/63 30/28/63
f 110/28/75 29/28/75 27/29/75
f 111/29/76 28/29/76 30/28/76
f 112/30/77 111/29/77 27/29/77
f 111/29/78 112/30/78 26/30/78
f 109/27/79 112/30/79 25/30/79
f 112/30/80 109/27/80 32/27/80
f 114/25/72 113/26/72 33/26/72
f 113/26/73 114/25/73 36/25/73
f 115/31/81 114/25/81 35/25/81
f 114/25/82 115/31/82 30/31/82
f 116/32/83 115/31/83 29/31/83
f 115/31/84 116/32/84 32/32/84
f 116/32/85 31/32/85 33/26/85
f 113/26/86 34/26/86 32/32/86
f 118/27/59 117/28/59 13/28/59
f 117/28/60 118/27/60 16/27/60
f 119/33/61 118/27/61 15/27/61
f 118/27/87 119/33/87 10/33/87
f 120/34/88 119/33/88 9/33/88
f 119/33/89 120/34/89 12/34/89
f 120/34/90 11/34/90 13/28/90
f 117/28/91 14/28/91 12/34/91
f 121/35/92 23/35/92 15/36/92
f 122/36/93 16/36/93 24/35/93
f 123/37/94 122/36/94 15/36/94
f 122/36/95 123/37/95 14/37/95
f 124/38/96 123/37/96 13/37/96
f 123/37/86 124/38/86 18/38/86
f 124/38/97 17/38/97 23/35/97
f 124/38/5 121/35/5 24/35/5
f 138/8/103 137/7/104 41/7/105
f 138/8/106 34/8/106 42/7/107
f 138/8/53 33/8/53 31/9/108
f 138/8/109 139/9/110 32/9/111
f 140/10/112 139/9/112 31/9/112
f 140/10/52 26/10/52 32/9/113
f 141/11/53 140/10/53 25/10/53
f 140/10/54 141/11/54 20/11/54
f 141/11/55 19/11/55 17/12/55
f 141/11/56 142/12/56 18/12/56
f 143/13/53 142/12/53 17/12/53
f 143/13/54 14/13/54 18/12/54
f 143/13/55 13/13/55 11/14/114
f 143/13/115 144/14/116 12/14/117
f 145/15/118 144/14/119 11/14/120
f 145/15/54 6/15/54 12/14/121
f 145/15/55 5/15/55 3/16/55
f 146/16/56 4/16/56 6/15/56
f 147/6/49 146/16/49 3/16/49
f 146/16/50 147/6/122 48/6/123
f 148/5/112 147/6/112 47/6/112
f 147/6/52 148/5/52 38/5/52
f 148/5/124 37/5/124 41/7/125
f 148/5/126 137/7/127 42/7/128
f 150/33/59 149/34/59 5/34/59
f 149/34/60 150/33/60 8/33/60
f 150/33/61 7/33/61 1/47/61
f 150/33/62 151/47/62 2/47/62
f 152/48/63 151/47/63 1/47/63
f 151/47/64 152/48/64 4/48/64
f 149/34/57 152/48/57 3/48/57
f 152/48/58 149/34/58 6/34/58
f 158/31/72 157/32/72 25/32/72
f 158/31/73 28/31/73 26/32/73
f 159/35/81 158/31/81 27/31/81
f 158/31/93 159/35/93 22/35/93
f 160/38/94 159/35/94 21/35/94
f 159/35/95 160/38/95 20/38/95
f 157/32/96 160/38/96 19/38/96
f 160/38/86 157/32/86 26/32/86
f 174/48/98 173/47/98 47/47/98
f 173/47/132 174/48/132 46/48/132
f 174/48/75 45/48/75 39/34/75
f 174/48/76 175/34/76 40/34/76
f 176/33/77 175/34/77 39/34/77
f 175/34/78 176/33/78 38/33/78
f 173/47/79 176/33/79 37/33/79
f 173/47/100 48/47/100 38/33/100
f 177/33/133 41/33/133 43/34/133
f 178/34/134 44/34/134 42/33/134
f 178/34/135 43/34/135 35/28/135
f 179/28/136 36/28/136 44/34/136
f 180/27/77 179/28/77 35/28/77
f 179/28/78 180/27/78 34/27/78
f 177/33/79 180/27/79 33/27/79
f 180/27/137 177/33/137 42/33/137
f 190/27/61 189/30/61 21/30/61
f 189/30/138 190/27/138 24/27/138
f 191/28/132 190/27/132 23/27/132
f 190/27/98 191/28/98 18/28/98
f 191/28/57 17/28/57 19/29/57
f 192/29/58 20/29/58 18/28/58
f 189/30/59 192/29/59 19/29/59
f 192/29/60 189/30/60 22/30/60
f 193/37/139 11/37/139 9/36/139
f 193/37/140 194/36/140 10/36/140
f 194/36/141 9/36/142 7/3/141
f 195/3/143 8/3/143 10/36/143
f 196/4/94 195/3/94 7/3/94
f 195/3/95 196/4/95 6/4/95
f 193/37/96 196/4/96 5/4/96
f 196/4/144 193/37/144 12/37/144
f 82/1/1 3/2/1 1/1/1
f 81/2/2 2/1/2 4/2/2
f 83/3/145 1/1/145 45/3/145
f 82/1/129 46/3/129 2/1/129
f 84/4/5 45/3/5 47/4/5
f 83/3/6 48/4/6 46/3/6
f 84/4/131 3/2/131 81/2/131
f 81/2/146 48/4/146 84/4/146
f 86/5/9 1/6/9 7/5/9
f 85/6/10 8/5/10 2/6/10
f 86/5/40 9/7/12 87/7/147
f 86/5/148 10/7/149 8/5/148
f 88/8/9 9/7/18 15/8/9
f 88/8/19 10/7/150 87/7/151
f 88/8/33 23/9/33 89/9/152
f 88/8/28 24/9/35 16/8/28
f 90/10/9 23/9/9 21/10/9
f 90/10/153 24/9/153 89/9/154
f 91/11/21 21/10/21 27/11/21
f 90/10/28 28/11/28 22/10/28
f 91/11/155 29/12/156 92/12/155
f 91/11/101 30/12/101 28/11/101
f 93/13/21 29/12/157 35/13/21
f 93/13/23 30/12/158 92/12/159
f 93/13/160 43/14/161 94/14/162
f 93/13/37 44/14/163 36/13/37
f 95/15/11 43/14/42 39/15/11
f 95/15/13 44/14/164 94/14/165
f 95/15/155 45/16/155 96/16/155
f 96/16/101 40/15/101 95/15/101
f 96/16/102 1/6/102 85/6/102
f 85/6/47 46/16/166 96/16/167
f 106/25/142 39/1/141 43/25/141
f 105/1/168 44/25/168 40/1/168
f 107/26/67 43/25/67 41/26/67
f 106/25/68 42/26/68 44/25/68
f 107/26/169 37/2/169 108/2/169
f 108/2/170 42/26/170 107/26/170
f 105/1/72 37/2/72 39/1/72
f 108/2/73 40/1/73 38/2/73
f 109/27/74 29/28/74 110/28/74
f 109/27/63 30/28/63 32/27/63
f 110/28/75 27/29/75 111/29/75
f 111/29/171 30/28/171 110/28/171
f 112/30/77 27/29/77 25/30/77
f 111/29/78 26/30/78 28/29/78
f 109/27/79 25/30/79 31/27/79
f 112/30/100 32/27/100 26/30/100
f 114/25/72 33/26/72 35/25/72
f 113/26/73 36/25/73 34/26/73
f 115/31/92 35/25/92 29/31/92
f 114/25/93 30/31/93 36/25/93
f 116/32/83 29/31/83 31/32/83
f 115/31/84 32/32/84 30/31/84
f 116/32/96 33/26/96 113/26/96
f 113/26/172 32/32/172 116/32/172
f 118/27/59 13/28/59 15/27/59
f 117/28/60 16/27/60 14/28/60
f 119/33/173 15/27/173 9/33/173
f 118/27/174 10/33/174 16/27/174
f 120/34/175 9/33/175 11/34/175
f 119/33/176 12/34/176 10/33/176
f 120/34/57 13/28/57 117/28/57
f 117/28/177 12/34/177 120/34/177
f 121/35/81 15/36/81 122/36/81
f 122/36/82 24/35/82 121/35/82
f 123/37/94 15/36/94 13/37/94
f 122/36/95 14/37/95 16/36/95
f 124/38/96 13/37/96 17/38/96
f 123/37/86 18/38/86 14/37/86
f 124/38/6 23/35/6 121/35/6
f 124/38/130 24/35/130 18/38/130
f 138/8/51 41/7/178 33/8/51
f 138/8/106 42/7/179 137/7/180
f 138/8/181 31/9/181 139/9/182
f 138/8/54 32/9/183 34/8/54
f 140/10/51 31/9/51 25/10/51
f 140/10/184 32/9/184 139/9/185
f 141/11/53 25/10/53 19/11/53
f 140/10/54 20/11/54 26/10/54
f 141/11/55 17/12/55 142/12/55
f 141/11/56 18/12/56 20/11/56
f 143/13/53 17/12/53 13/13/53
f 143/13/54 18/12/54 142/12/54
f 143/13/186 11/14/187 144/14/188
f 143/13/189 12/14/190 14/13/189
f 145/15/53 11/14/191 5/15/53
f 145/15/192 12/14/193 144/14/194
f 145/15/55 3/16/55 146/16/55
f 146/16/56 6/15/56 145/15/56
f 147/6/195 3/16/195 47/6/195
f 146/16/50 48/6/196 4/16/50
f 148/5/51 47/6/51 37/5/51
f 147/6/197 38/5/197 48/6/197
f 148/5/198 41/7/125 137/7/199
f 148/5/200 42/7/201 38/5/200
f 150/33/59 5/34/59 7/33/59
f 149/34/60 8/33/60 6/34/60
f 150/33/61 1/47/61 151/47/61
f 150/33/62 2/47/62 8/33/62
f 152/48/63 1/47/63 3/48/63
f 151/47/64 4/48/64 2/47/64
f 149/34/57 3/48/57 5/34/57
f 152/48/58 6/34/58 4/48/58
f 158/31/72 25/32/72 27/31/72
f 158/31/73 26/32/73 157/32/73
f 159/35/81 27/31/81 21/35/81
f 158/31/93 22/35/93 28/31/93
f 160/38/94 21/35/94 19/38/94
f 159/35/95 20/38/95 22/35/95
f 157/32/96 19/38/96 25/32/96
f 160/38/86 26/32/86 20/38/86
f 174/48/98 47/47/98 45/48/98
f 173/47/132 46/48/132 48/47/132
f 174/48/75 39/34/75 175/34/75
f 174/48/76 40/34/76 46/48/76
f 176/33/77 39/34/77 37/33/77
f 175/34/78 38/33/78 40/34/78
f 173/47/79 37/33/79 47/47/79
f 173/47/100 38/33/100 176/33/100
f 177/33/133 43/34/133 178/34/133
f 178/34/134 42/33/134 177/33/134
f 178/34/75 35/28/75 179/28/75
f 179/28/202 44/34/202 178/34/202
f 180/27/77 35/28/77 33/27/77
f 179/28/78 34/27/78 36/28/78
f 177/33/203 33/27/203 41/33/203
f 180/27/204 42/33/204 34/27/204
f 190/27/61 21/30/61 23/27/61
f 189/30/62 24/27/62 22/30/62
f 191/28/99 23/27/99 17/28/99
f 190/27/98 18/28/98 24/27/98
f 191/28/57 19/29/57 192/29/57
f 192/29/58 18/28/58 191/28/58
f 189/30/59 19/29/59 21/30/59
f 192/29/60 22/30/60 20/29/60
f 193/37/205 9/36/205 194/36/205
f 193/37/206 10/36/206 12/37/206
f 194/36/65 7/3/65 195/3/65
f 195/3/66 10/36/66 194/36/66
f 196/4/94 7/3/94 5/4/94
f 195/3/95 6/4/95 8/3/95
f 193/37/169 5/4/169 11/37/169
f 196/4/86 12/37/86 6/4/86
usemtl Meshpart2Mtl.002
f 97/17/49 63/17/49 77/18/49
f 97/17/50 98/18/50 78/18/50
f 99/19/51 98/18/51 77/18/51
f 98/18/52 99/19/52 66/19/52
f 100/20/53 99/19/53 65/19/53
f 99/19/54 100/20/54 62/20/54
f 97/17/55 100/20/55 61/20/55
f 100/20/56 97/17/56 64/17/56
f 102/21/57 101/22/57 63/22/57
f 101/22/58 102/21/58 62/21/58
f 103/23/59 102/21/59 61/21/59
f 102/21/60 103/23/60 58/23/60
f 104/24/61 103/23/61 57/23/61
f 103/23/62 104/24/62 60/24/62
f 101/22/63 104/24/63 59/24/63
f 104/24/64 101/22/64 64/22/64
f 126/22/98 125/24/98 77/24/98
f 125/24/99 126/22/99 74/22/99
f 127/21/75 126/22/75 73/22/75
f 126/22/76 127/21/76 68/21/76
f 128/23/77 127/21/77 67/21/77
f 127/21/78 128/23/78 66/23/78
f 125/24/79 128/23/79 65/23/79
f 128/23/100 125/24/100 78/24/100
f 130/39/21 129/40/21 57/40/21
f 129/40/28 130/39/28 68/39/28
f 131/41/29 130/39/29 67/39/29
f 130/39/101 131/41/101 74/41/101
f 131/41/102 73/41/102 59/42/102
f 131/41/47 132/42/47 60/42/47
f 129/40/9 132/42/9 59/42/9
f 132/42/10 129/40/10 58/40/10
f 134/43/72 133/44/72 65/44/72
f 133/44/73 134/43/73 68/43/73
f 135/45/81 134/43/81 67/43/81
f 134/43/93 135/45/93 58/45/93
f 136/46/94 135/45/94 57/45/94
f 135/45/95 136/46/95 62/46/95
f 136/46/96 61/46/96 65/44/96
f 136/46/86 133/44/86 66/44/86
f 154/49/1 153/50/1 63/50/1
f 153/50/2 154/49/2 60/49/2
f 155/51/3 154/49/3 59/49/3
f 154/49/129 155/51/129 74/51/129
f 156/52/130 155/51/130 73/51/130
f 155/51/97 156/52/97 78/52/97
f 153/50/131 156/52/131 77/52/131
f 156/52/8 153/50/8 64/50/8
f 162/21/57 161/22/57 55/22/57
f 161/22/58 162/21/58 54/21/58
f 163/23/59 162/21/59 53/21/59
f 162/21/60 163/23/60 50/23/60
f 164/24/61 163/23/61 49/23/61
f 163/23/62 164/24/62 52/24/62
f 161/22/63 164/24/63 51/24/63
f 164/24/64 161/22/64 56/22/64
f 166/20/21 165/19/21 49/19/21
f 165/19/28 166/20/28 72/20/28
f 167/17/29 166/20/29 71/20/29
f 166/20/101 167/17/101 76/17/101
f 168/18/102 167/17/102 75/17/102
f 167/17/47 168/18/47 52/18/47
f 165/19/9 168/18/9 51/18/9
f 168/18/10 165/19/10 50/19/10
f 170/42/49 169/41/49 55/41/49
f 169/41/50 170/42/50 80/42/50
f 171/40/51 170/42/51 79/42/51
f 170/42/52 171/40/52 70/40/52
f 172/39/53 171/40/53 69/40/53
f 171/40/54 172/39/54 54/39/54
f 169/41/55 172/39/55 53/39/55
f 172/39/56 169/41/56 56/41/56
f 182/22/98 181/24/98 79/24/98
f 181/24/99 182/22/99 76/22/99
f 183/21/75 182/22/75 75/22/75
f 182/22/76 183/21/76 72/21/76
f 184/23/77 183/21/77 71/21/77
f 183/21/78 184/23/78 70/23/78
f 181/24/79 184/23/79 69/23/79
f 184/23/100 181/24/100 80/24/100
f 186/49/72 185/50/72 69/50/72
f 185/50/73 186/49/73 72/49/73
f 187/51/81 186/49/81 71/49/81
f 186/49/93 187/51/93 50/51/93
f 188/52/94 187/51/94 49/51/94
f 187/51/95 188/52/95 54/52/95
f 185/50/96 188/52/96 53/52/96
f 188/52/86 185/50/86 70/50/86
f 198/43/1 197/44/1 55/44/1
f 197/44/2 198/43/2 52/43/2
f 199/45/3 198/43/3 51/43/3
f 198/43/129 199/45/129 76/45/129
f 200/46/130 199/45/130 75/45/130
f 199/45/97 200/46/97 80/46/97
f 197/44/131 200/46/131 79/46/131
f 200/46/8 197/44/8 56/44/8
f 97/17/49 77/18/49 98/18/49
f 97/17/50 78/18/50 64/17/50
f 99/19/51 77/18/51 65/19/51
f 98/18/52 66/19/52 78/18/52
f 100/20/53 65/19/53 61/20/53
f 99/19/54 62/20/54 66/19/54
f 97/17/55 61/20/55 63/17/55
f 100/20/56 64/17/56 62/20/56
f 102/21/57 63/22/57 61/21/57
f 101/22/58 62/21/58 64/22/58
f 103/23/59 61/21/59 57/23/59
f 102/21/60 58/23/60 62/21/60
f 104/24/61 57/23/61 59/24/61
f 103/23/62 60/24/62 58/23/62
f 101/22/63 59/24/63 63/22/63
f 104/24/64 64/22/64 60/24/64
f 126/22/98 77/24/98 73/22/98
f 125/24/99 74/22/99 78/24/99
f 127/21/75 73/22/75 67/21/75
f 126/22/76 68/21/76 74/22/76
f 128/23/77 67/21/77 65/23/77
f 127/21/78 66/23/78 68/21/78
f 125/24/79 65/23/79 77/24/79
f 128/23/100 78/24/100 66/23/100
f 130/39/21 57/40/21 67/39/21
f 129/40/28 68/39/28 58/40/28
f 131/41/29 67/39/29 73/41/29
f 130/39/101 74/41/101 68/39/101
f 131/41/102 59/42/102 132/42/102
f 131/41/47 60/42/47 74/41/47
f 129/40/9 59/42/9 57/40/9
f 132/42/10 58/40/10 60/42/10
f 134/43/72 65/44/72 67/43/72
f 133/44/73 68/43/73 66/44/73
f 135/45/81 67/43/81 57/45/81
f 134/43/93 58/45/93 68/43/93
f 136/46/94 57/45/94 61/46/94
f 135/45/95 62/46/95 58/45/95
f 136/46/96 65/44/96 133/44/96
f 136/46/86 66/44/86 62/46/86
f 154/49/1 63/50/1 59/49/1
f 153/50/2 60/49/2 64/50/2
f 155/51/3 59/49/3 73/51/3
f 154/49/129 74/51/129 60/49/129
f 156/52/130 73/51/130 77/52/130
f 155/51/97 78/52/97 74/51/97
f 153/50/131 77/52/131 63/50/131
f 156/52/8 64/50/8 78/52/8
f 162/21/57 55/22/57 53/21/57
f 161/22/58 54/21/58 56/22/58
f 163/23/59 53/21/59 49/23/59
f 162/21/60 50/23/60 54/21/60
f 164/24/61 49/23/61 51/24/61
f 163/23/62 52/24/62 50/23/62
f 161/22/63 51/24/63 55/22/63
f 164/24/64 56/22/64 52/24/64
f 166/20/21 49/19/21 71/20/21
f 165/19/28 72/20/28 50/19/28
f 167/17/29 71/20/29 75/17/29
f 166/20/101 76/17/101 72/20/101
f 168/18/102 75/17/102 51/18/102
f 167/17/47 52/18/47 76/17/47
f 165/19/9 51/18/9 49/19/9
f 168/18/10 50/19/10 52/18/10
f 170/42/49 55/41/49 79/42/49
f 169/41/50 80/42/50 56/41/50
f 171/40/51 79/42/51 69/40/51
f 170/42/52 70/40/52 80/42/52
f 172/39/53 69/40/53 53/39/53
f 171/40/54 54/39/54 70/40/54
f 169/41/55 53/39/55 55/41/55
f 172/39/56 56/41/56 54/39/56
f 182/22/98 79/24/98 75/22/98
f 181/24/99 76/22/99 80/24/99
f 183/21/75 75/22/75 71/21/75
f 182/22/76 72/21/76 76/22/76
f 184/23/77 71/21/77 69/23/77
f 183/21/78 70/23/78 72/21/78
f 181/24/79 69/23/79 79/24/79
f 184/23/100 80/24/100 70/23/100
f 186/49/72 69/50/72 71/49/72
f 185/50/73 72/49/73 70/50/73
f 187/51/81 71/49/81 49/51/81
f 186/49/93 50/51/93 72/49/93
f 188/52/94 49/51/94 53/52/94
f 187/51/95 54/52/95 50/51/95
f 185/50/96 53/52/96 69/50/96
f 188/52/86 70/50/86 54/52/86
f 198/43/1 55/44/1 51/43/1
f 197/44/2 52/43/2 56/44/2
f 199/45/3 51/43/3 75/45/3
f 198/43/129 76/45/129 52/43/129
f 200/46/130 75/45/130 79/46/130
f 199/45/97 80/46/97 76/45/97
f 197/44/131 79/46/131 55/44/131
f 200/46/8 56/44/8 80/46/8
